G04 #@! TF.GenerationSoftware,KiCad,Pcbnew,(5.0.1)-3*
G04 #@! TF.CreationDate,2021-08-06T18:40:02+02:00*
G04 #@! TF.ProjectId,Guitar DSP,477569746172204453502E6B69636164,rev?*
G04 #@! TF.SameCoordinates,Original*
G04 #@! TF.FileFunction,Paste,Bot*
G04 #@! TF.FilePolarity,Positive*
%FSLAX46Y46*%
G04 Gerber Fmt 4.6, Leading zero omitted, Abs format (unit mm)*
G04 Created by KiCad (PCBNEW (5.0.1)-3) date 06/08/2021 18:40:02*
%MOMM*%
%LPD*%
G01*
G04 APERTURE LIST*
%ADD10C,0.050800*%
%ADD11C,0.590000*%
%ADD12C,1.150000*%
G04 APERTURE END LIST*
D10*
G04 #@! TO.C,C1*
G36*
X123176958Y-115180710D02*
X123191276Y-115182834D01*
X123205317Y-115186351D01*
X123218946Y-115191228D01*
X123232031Y-115197417D01*
X123244447Y-115204858D01*
X123256073Y-115213481D01*
X123266798Y-115223202D01*
X123276519Y-115233927D01*
X123285142Y-115245553D01*
X123292583Y-115257969D01*
X123298772Y-115271054D01*
X123303649Y-115284683D01*
X123307166Y-115298724D01*
X123309290Y-115313042D01*
X123310000Y-115327500D01*
X123310000Y-115672500D01*
X123309290Y-115686958D01*
X123307166Y-115701276D01*
X123303649Y-115715317D01*
X123298772Y-115728946D01*
X123292583Y-115742031D01*
X123285142Y-115754447D01*
X123276519Y-115766073D01*
X123266798Y-115776798D01*
X123256073Y-115786519D01*
X123244447Y-115795142D01*
X123232031Y-115802583D01*
X123218946Y-115808772D01*
X123205317Y-115813649D01*
X123191276Y-115817166D01*
X123176958Y-115819290D01*
X123162500Y-115820000D01*
X122867500Y-115820000D01*
X122853042Y-115819290D01*
X122838724Y-115817166D01*
X122824683Y-115813649D01*
X122811054Y-115808772D01*
X122797969Y-115802583D01*
X122785553Y-115795142D01*
X122773927Y-115786519D01*
X122763202Y-115776798D01*
X122753481Y-115766073D01*
X122744858Y-115754447D01*
X122737417Y-115742031D01*
X122731228Y-115728946D01*
X122726351Y-115715317D01*
X122722834Y-115701276D01*
X122720710Y-115686958D01*
X122720000Y-115672500D01*
X122720000Y-115327500D01*
X122720710Y-115313042D01*
X122722834Y-115298724D01*
X122726351Y-115284683D01*
X122731228Y-115271054D01*
X122737417Y-115257969D01*
X122744858Y-115245553D01*
X122753481Y-115233927D01*
X122763202Y-115223202D01*
X122773927Y-115213481D01*
X122785553Y-115204858D01*
X122797969Y-115197417D01*
X122811054Y-115191228D01*
X122824683Y-115186351D01*
X122838724Y-115182834D01*
X122853042Y-115180710D01*
X122867500Y-115180000D01*
X123162500Y-115180000D01*
X123176958Y-115180710D01*
X123176958Y-115180710D01*
G37*
D11*
X123015000Y-115500000D03*
D10*
G36*
X124146958Y-115180710D02*
X124161276Y-115182834D01*
X124175317Y-115186351D01*
X124188946Y-115191228D01*
X124202031Y-115197417D01*
X124214447Y-115204858D01*
X124226073Y-115213481D01*
X124236798Y-115223202D01*
X124246519Y-115233927D01*
X124255142Y-115245553D01*
X124262583Y-115257969D01*
X124268772Y-115271054D01*
X124273649Y-115284683D01*
X124277166Y-115298724D01*
X124279290Y-115313042D01*
X124280000Y-115327500D01*
X124280000Y-115672500D01*
X124279290Y-115686958D01*
X124277166Y-115701276D01*
X124273649Y-115715317D01*
X124268772Y-115728946D01*
X124262583Y-115742031D01*
X124255142Y-115754447D01*
X124246519Y-115766073D01*
X124236798Y-115776798D01*
X124226073Y-115786519D01*
X124214447Y-115795142D01*
X124202031Y-115802583D01*
X124188946Y-115808772D01*
X124175317Y-115813649D01*
X124161276Y-115817166D01*
X124146958Y-115819290D01*
X124132500Y-115820000D01*
X123837500Y-115820000D01*
X123823042Y-115819290D01*
X123808724Y-115817166D01*
X123794683Y-115813649D01*
X123781054Y-115808772D01*
X123767969Y-115802583D01*
X123755553Y-115795142D01*
X123743927Y-115786519D01*
X123733202Y-115776798D01*
X123723481Y-115766073D01*
X123714858Y-115754447D01*
X123707417Y-115742031D01*
X123701228Y-115728946D01*
X123696351Y-115715317D01*
X123692834Y-115701276D01*
X123690710Y-115686958D01*
X123690000Y-115672500D01*
X123690000Y-115327500D01*
X123690710Y-115313042D01*
X123692834Y-115298724D01*
X123696351Y-115284683D01*
X123701228Y-115271054D01*
X123707417Y-115257969D01*
X123714858Y-115245553D01*
X123723481Y-115233927D01*
X123733202Y-115223202D01*
X123743927Y-115213481D01*
X123755553Y-115204858D01*
X123767969Y-115197417D01*
X123781054Y-115191228D01*
X123794683Y-115186351D01*
X123808724Y-115182834D01*
X123823042Y-115180710D01*
X123837500Y-115180000D01*
X124132500Y-115180000D01*
X124146958Y-115180710D01*
X124146958Y-115180710D01*
G37*
D11*
X123985000Y-115500000D03*
G04 #@! TD*
D10*
G04 #@! TO.C,C2*
G36*
X123186958Y-116720710D02*
X123201276Y-116722834D01*
X123215317Y-116726351D01*
X123228946Y-116731228D01*
X123242031Y-116737417D01*
X123254447Y-116744858D01*
X123266073Y-116753481D01*
X123276798Y-116763202D01*
X123286519Y-116773927D01*
X123295142Y-116785553D01*
X123302583Y-116797969D01*
X123308772Y-116811054D01*
X123313649Y-116824683D01*
X123317166Y-116838724D01*
X123319290Y-116853042D01*
X123320000Y-116867500D01*
X123320000Y-117162500D01*
X123319290Y-117176958D01*
X123317166Y-117191276D01*
X123313649Y-117205317D01*
X123308772Y-117218946D01*
X123302583Y-117232031D01*
X123295142Y-117244447D01*
X123286519Y-117256073D01*
X123276798Y-117266798D01*
X123266073Y-117276519D01*
X123254447Y-117285142D01*
X123242031Y-117292583D01*
X123228946Y-117298772D01*
X123215317Y-117303649D01*
X123201276Y-117307166D01*
X123186958Y-117309290D01*
X123172500Y-117310000D01*
X122827500Y-117310000D01*
X122813042Y-117309290D01*
X122798724Y-117307166D01*
X122784683Y-117303649D01*
X122771054Y-117298772D01*
X122757969Y-117292583D01*
X122745553Y-117285142D01*
X122733927Y-117276519D01*
X122723202Y-117266798D01*
X122713481Y-117256073D01*
X122704858Y-117244447D01*
X122697417Y-117232031D01*
X122691228Y-117218946D01*
X122686351Y-117205317D01*
X122682834Y-117191276D01*
X122680710Y-117176958D01*
X122680000Y-117162500D01*
X122680000Y-116867500D01*
X122680710Y-116853042D01*
X122682834Y-116838724D01*
X122686351Y-116824683D01*
X122691228Y-116811054D01*
X122697417Y-116797969D01*
X122704858Y-116785553D01*
X122713481Y-116773927D01*
X122723202Y-116763202D01*
X122733927Y-116753481D01*
X122745553Y-116744858D01*
X122757969Y-116737417D01*
X122771054Y-116731228D01*
X122784683Y-116726351D01*
X122798724Y-116722834D01*
X122813042Y-116720710D01*
X122827500Y-116720000D01*
X123172500Y-116720000D01*
X123186958Y-116720710D01*
X123186958Y-116720710D01*
G37*
D11*
X123000000Y-117015000D03*
D10*
G36*
X123186958Y-117690710D02*
X123201276Y-117692834D01*
X123215317Y-117696351D01*
X123228946Y-117701228D01*
X123242031Y-117707417D01*
X123254447Y-117714858D01*
X123266073Y-117723481D01*
X123276798Y-117733202D01*
X123286519Y-117743927D01*
X123295142Y-117755553D01*
X123302583Y-117767969D01*
X123308772Y-117781054D01*
X123313649Y-117794683D01*
X123317166Y-117808724D01*
X123319290Y-117823042D01*
X123320000Y-117837500D01*
X123320000Y-118132500D01*
X123319290Y-118146958D01*
X123317166Y-118161276D01*
X123313649Y-118175317D01*
X123308772Y-118188946D01*
X123302583Y-118202031D01*
X123295142Y-118214447D01*
X123286519Y-118226073D01*
X123276798Y-118236798D01*
X123266073Y-118246519D01*
X123254447Y-118255142D01*
X123242031Y-118262583D01*
X123228946Y-118268772D01*
X123215317Y-118273649D01*
X123201276Y-118277166D01*
X123186958Y-118279290D01*
X123172500Y-118280000D01*
X122827500Y-118280000D01*
X122813042Y-118279290D01*
X122798724Y-118277166D01*
X122784683Y-118273649D01*
X122771054Y-118268772D01*
X122757969Y-118262583D01*
X122745553Y-118255142D01*
X122733927Y-118246519D01*
X122723202Y-118236798D01*
X122713481Y-118226073D01*
X122704858Y-118214447D01*
X122697417Y-118202031D01*
X122691228Y-118188946D01*
X122686351Y-118175317D01*
X122682834Y-118161276D01*
X122680710Y-118146958D01*
X122680000Y-118132500D01*
X122680000Y-117837500D01*
X122680710Y-117823042D01*
X122682834Y-117808724D01*
X122686351Y-117794683D01*
X122691228Y-117781054D01*
X122697417Y-117767969D01*
X122704858Y-117755553D01*
X122713481Y-117743927D01*
X122723202Y-117733202D01*
X122733927Y-117723481D01*
X122745553Y-117714858D01*
X122757969Y-117707417D01*
X122771054Y-117701228D01*
X122784683Y-117696351D01*
X122798724Y-117692834D01*
X122813042Y-117690710D01*
X122827500Y-117690000D01*
X123172500Y-117690000D01*
X123186958Y-117690710D01*
X123186958Y-117690710D01*
G37*
D11*
X123000000Y-117985000D03*
G04 #@! TD*
D10*
G04 #@! TO.C,C3*
G36*
X121686958Y-110690710D02*
X121701276Y-110692834D01*
X121715317Y-110696351D01*
X121728946Y-110701228D01*
X121742031Y-110707417D01*
X121754447Y-110714858D01*
X121766073Y-110723481D01*
X121776798Y-110733202D01*
X121786519Y-110743927D01*
X121795142Y-110755553D01*
X121802583Y-110767969D01*
X121808772Y-110781054D01*
X121813649Y-110794683D01*
X121817166Y-110808724D01*
X121819290Y-110823042D01*
X121820000Y-110837500D01*
X121820000Y-111132500D01*
X121819290Y-111146958D01*
X121817166Y-111161276D01*
X121813649Y-111175317D01*
X121808772Y-111188946D01*
X121802583Y-111202031D01*
X121795142Y-111214447D01*
X121786519Y-111226073D01*
X121776798Y-111236798D01*
X121766073Y-111246519D01*
X121754447Y-111255142D01*
X121742031Y-111262583D01*
X121728946Y-111268772D01*
X121715317Y-111273649D01*
X121701276Y-111277166D01*
X121686958Y-111279290D01*
X121672500Y-111280000D01*
X121327500Y-111280000D01*
X121313042Y-111279290D01*
X121298724Y-111277166D01*
X121284683Y-111273649D01*
X121271054Y-111268772D01*
X121257969Y-111262583D01*
X121245553Y-111255142D01*
X121233927Y-111246519D01*
X121223202Y-111236798D01*
X121213481Y-111226073D01*
X121204858Y-111214447D01*
X121197417Y-111202031D01*
X121191228Y-111188946D01*
X121186351Y-111175317D01*
X121182834Y-111161276D01*
X121180710Y-111146958D01*
X121180000Y-111132500D01*
X121180000Y-110837500D01*
X121180710Y-110823042D01*
X121182834Y-110808724D01*
X121186351Y-110794683D01*
X121191228Y-110781054D01*
X121197417Y-110767969D01*
X121204858Y-110755553D01*
X121213481Y-110743927D01*
X121223202Y-110733202D01*
X121233927Y-110723481D01*
X121245553Y-110714858D01*
X121257969Y-110707417D01*
X121271054Y-110701228D01*
X121284683Y-110696351D01*
X121298724Y-110692834D01*
X121313042Y-110690710D01*
X121327500Y-110690000D01*
X121672500Y-110690000D01*
X121686958Y-110690710D01*
X121686958Y-110690710D01*
G37*
D11*
X121500000Y-110985000D03*
D10*
G36*
X121686958Y-109720710D02*
X121701276Y-109722834D01*
X121715317Y-109726351D01*
X121728946Y-109731228D01*
X121742031Y-109737417D01*
X121754447Y-109744858D01*
X121766073Y-109753481D01*
X121776798Y-109763202D01*
X121786519Y-109773927D01*
X121795142Y-109785553D01*
X121802583Y-109797969D01*
X121808772Y-109811054D01*
X121813649Y-109824683D01*
X121817166Y-109838724D01*
X121819290Y-109853042D01*
X121820000Y-109867500D01*
X121820000Y-110162500D01*
X121819290Y-110176958D01*
X121817166Y-110191276D01*
X121813649Y-110205317D01*
X121808772Y-110218946D01*
X121802583Y-110232031D01*
X121795142Y-110244447D01*
X121786519Y-110256073D01*
X121776798Y-110266798D01*
X121766073Y-110276519D01*
X121754447Y-110285142D01*
X121742031Y-110292583D01*
X121728946Y-110298772D01*
X121715317Y-110303649D01*
X121701276Y-110307166D01*
X121686958Y-110309290D01*
X121672500Y-110310000D01*
X121327500Y-110310000D01*
X121313042Y-110309290D01*
X121298724Y-110307166D01*
X121284683Y-110303649D01*
X121271054Y-110298772D01*
X121257969Y-110292583D01*
X121245553Y-110285142D01*
X121233927Y-110276519D01*
X121223202Y-110266798D01*
X121213481Y-110256073D01*
X121204858Y-110244447D01*
X121197417Y-110232031D01*
X121191228Y-110218946D01*
X121186351Y-110205317D01*
X121182834Y-110191276D01*
X121180710Y-110176958D01*
X121180000Y-110162500D01*
X121180000Y-109867500D01*
X121180710Y-109853042D01*
X121182834Y-109838724D01*
X121186351Y-109824683D01*
X121191228Y-109811054D01*
X121197417Y-109797969D01*
X121204858Y-109785553D01*
X121213481Y-109773927D01*
X121223202Y-109763202D01*
X121233927Y-109753481D01*
X121245553Y-109744858D01*
X121257969Y-109737417D01*
X121271054Y-109731228D01*
X121284683Y-109726351D01*
X121298724Y-109722834D01*
X121313042Y-109720710D01*
X121327500Y-109720000D01*
X121672500Y-109720000D01*
X121686958Y-109720710D01*
X121686958Y-109720710D01*
G37*
D11*
X121500000Y-110015000D03*
G04 #@! TD*
D10*
G04 #@! TO.C,C4*
G36*
X124146958Y-112680710D02*
X124161276Y-112682834D01*
X124175317Y-112686351D01*
X124188946Y-112691228D01*
X124202031Y-112697417D01*
X124214447Y-112704858D01*
X124226073Y-112713481D01*
X124236798Y-112723202D01*
X124246519Y-112733927D01*
X124255142Y-112745553D01*
X124262583Y-112757969D01*
X124268772Y-112771054D01*
X124273649Y-112784683D01*
X124277166Y-112798724D01*
X124279290Y-112813042D01*
X124280000Y-112827500D01*
X124280000Y-113172500D01*
X124279290Y-113186958D01*
X124277166Y-113201276D01*
X124273649Y-113215317D01*
X124268772Y-113228946D01*
X124262583Y-113242031D01*
X124255142Y-113254447D01*
X124246519Y-113266073D01*
X124236798Y-113276798D01*
X124226073Y-113286519D01*
X124214447Y-113295142D01*
X124202031Y-113302583D01*
X124188946Y-113308772D01*
X124175317Y-113313649D01*
X124161276Y-113317166D01*
X124146958Y-113319290D01*
X124132500Y-113320000D01*
X123837500Y-113320000D01*
X123823042Y-113319290D01*
X123808724Y-113317166D01*
X123794683Y-113313649D01*
X123781054Y-113308772D01*
X123767969Y-113302583D01*
X123755553Y-113295142D01*
X123743927Y-113286519D01*
X123733202Y-113276798D01*
X123723481Y-113266073D01*
X123714858Y-113254447D01*
X123707417Y-113242031D01*
X123701228Y-113228946D01*
X123696351Y-113215317D01*
X123692834Y-113201276D01*
X123690710Y-113186958D01*
X123690000Y-113172500D01*
X123690000Y-112827500D01*
X123690710Y-112813042D01*
X123692834Y-112798724D01*
X123696351Y-112784683D01*
X123701228Y-112771054D01*
X123707417Y-112757969D01*
X123714858Y-112745553D01*
X123723481Y-112733927D01*
X123733202Y-112723202D01*
X123743927Y-112713481D01*
X123755553Y-112704858D01*
X123767969Y-112697417D01*
X123781054Y-112691228D01*
X123794683Y-112686351D01*
X123808724Y-112682834D01*
X123823042Y-112680710D01*
X123837500Y-112680000D01*
X124132500Y-112680000D01*
X124146958Y-112680710D01*
X124146958Y-112680710D01*
G37*
D11*
X123985000Y-113000000D03*
D10*
G36*
X123176958Y-112680710D02*
X123191276Y-112682834D01*
X123205317Y-112686351D01*
X123218946Y-112691228D01*
X123232031Y-112697417D01*
X123244447Y-112704858D01*
X123256073Y-112713481D01*
X123266798Y-112723202D01*
X123276519Y-112733927D01*
X123285142Y-112745553D01*
X123292583Y-112757969D01*
X123298772Y-112771054D01*
X123303649Y-112784683D01*
X123307166Y-112798724D01*
X123309290Y-112813042D01*
X123310000Y-112827500D01*
X123310000Y-113172500D01*
X123309290Y-113186958D01*
X123307166Y-113201276D01*
X123303649Y-113215317D01*
X123298772Y-113228946D01*
X123292583Y-113242031D01*
X123285142Y-113254447D01*
X123276519Y-113266073D01*
X123266798Y-113276798D01*
X123256073Y-113286519D01*
X123244447Y-113295142D01*
X123232031Y-113302583D01*
X123218946Y-113308772D01*
X123205317Y-113313649D01*
X123191276Y-113317166D01*
X123176958Y-113319290D01*
X123162500Y-113320000D01*
X122867500Y-113320000D01*
X122853042Y-113319290D01*
X122838724Y-113317166D01*
X122824683Y-113313649D01*
X122811054Y-113308772D01*
X122797969Y-113302583D01*
X122785553Y-113295142D01*
X122773927Y-113286519D01*
X122763202Y-113276798D01*
X122753481Y-113266073D01*
X122744858Y-113254447D01*
X122737417Y-113242031D01*
X122731228Y-113228946D01*
X122726351Y-113215317D01*
X122722834Y-113201276D01*
X122720710Y-113186958D01*
X122720000Y-113172500D01*
X122720000Y-112827500D01*
X122720710Y-112813042D01*
X122722834Y-112798724D01*
X122726351Y-112784683D01*
X122731228Y-112771054D01*
X122737417Y-112757969D01*
X122744858Y-112745553D01*
X122753481Y-112733927D01*
X122763202Y-112723202D01*
X122773927Y-112713481D01*
X122785553Y-112704858D01*
X122797969Y-112697417D01*
X122811054Y-112691228D01*
X122824683Y-112686351D01*
X122838724Y-112682834D01*
X122853042Y-112680710D01*
X122867500Y-112680000D01*
X123162500Y-112680000D01*
X123176958Y-112680710D01*
X123176958Y-112680710D01*
G37*
D11*
X123015000Y-113000000D03*
G04 #@! TD*
D10*
G04 #@! TO.C,C5*
G36*
X112176958Y-117680710D02*
X112191276Y-117682834D01*
X112205317Y-117686351D01*
X112218946Y-117691228D01*
X112232031Y-117697417D01*
X112244447Y-117704858D01*
X112256073Y-117713481D01*
X112266798Y-117723202D01*
X112276519Y-117733927D01*
X112285142Y-117745553D01*
X112292583Y-117757969D01*
X112298772Y-117771054D01*
X112303649Y-117784683D01*
X112307166Y-117798724D01*
X112309290Y-117813042D01*
X112310000Y-117827500D01*
X112310000Y-118172500D01*
X112309290Y-118186958D01*
X112307166Y-118201276D01*
X112303649Y-118215317D01*
X112298772Y-118228946D01*
X112292583Y-118242031D01*
X112285142Y-118254447D01*
X112276519Y-118266073D01*
X112266798Y-118276798D01*
X112256073Y-118286519D01*
X112244447Y-118295142D01*
X112232031Y-118302583D01*
X112218946Y-118308772D01*
X112205317Y-118313649D01*
X112191276Y-118317166D01*
X112176958Y-118319290D01*
X112162500Y-118320000D01*
X111867500Y-118320000D01*
X111853042Y-118319290D01*
X111838724Y-118317166D01*
X111824683Y-118313649D01*
X111811054Y-118308772D01*
X111797969Y-118302583D01*
X111785553Y-118295142D01*
X111773927Y-118286519D01*
X111763202Y-118276798D01*
X111753481Y-118266073D01*
X111744858Y-118254447D01*
X111737417Y-118242031D01*
X111731228Y-118228946D01*
X111726351Y-118215317D01*
X111722834Y-118201276D01*
X111720710Y-118186958D01*
X111720000Y-118172500D01*
X111720000Y-117827500D01*
X111720710Y-117813042D01*
X111722834Y-117798724D01*
X111726351Y-117784683D01*
X111731228Y-117771054D01*
X111737417Y-117757969D01*
X111744858Y-117745553D01*
X111753481Y-117733927D01*
X111763202Y-117723202D01*
X111773927Y-117713481D01*
X111785553Y-117704858D01*
X111797969Y-117697417D01*
X111811054Y-117691228D01*
X111824683Y-117686351D01*
X111838724Y-117682834D01*
X111853042Y-117680710D01*
X111867500Y-117680000D01*
X112162500Y-117680000D01*
X112176958Y-117680710D01*
X112176958Y-117680710D01*
G37*
D11*
X112015000Y-118000000D03*
D10*
G36*
X113146958Y-117680710D02*
X113161276Y-117682834D01*
X113175317Y-117686351D01*
X113188946Y-117691228D01*
X113202031Y-117697417D01*
X113214447Y-117704858D01*
X113226073Y-117713481D01*
X113236798Y-117723202D01*
X113246519Y-117733927D01*
X113255142Y-117745553D01*
X113262583Y-117757969D01*
X113268772Y-117771054D01*
X113273649Y-117784683D01*
X113277166Y-117798724D01*
X113279290Y-117813042D01*
X113280000Y-117827500D01*
X113280000Y-118172500D01*
X113279290Y-118186958D01*
X113277166Y-118201276D01*
X113273649Y-118215317D01*
X113268772Y-118228946D01*
X113262583Y-118242031D01*
X113255142Y-118254447D01*
X113246519Y-118266073D01*
X113236798Y-118276798D01*
X113226073Y-118286519D01*
X113214447Y-118295142D01*
X113202031Y-118302583D01*
X113188946Y-118308772D01*
X113175317Y-118313649D01*
X113161276Y-118317166D01*
X113146958Y-118319290D01*
X113132500Y-118320000D01*
X112837500Y-118320000D01*
X112823042Y-118319290D01*
X112808724Y-118317166D01*
X112794683Y-118313649D01*
X112781054Y-118308772D01*
X112767969Y-118302583D01*
X112755553Y-118295142D01*
X112743927Y-118286519D01*
X112733202Y-118276798D01*
X112723481Y-118266073D01*
X112714858Y-118254447D01*
X112707417Y-118242031D01*
X112701228Y-118228946D01*
X112696351Y-118215317D01*
X112692834Y-118201276D01*
X112690710Y-118186958D01*
X112690000Y-118172500D01*
X112690000Y-117827500D01*
X112690710Y-117813042D01*
X112692834Y-117798724D01*
X112696351Y-117784683D01*
X112701228Y-117771054D01*
X112707417Y-117757969D01*
X112714858Y-117745553D01*
X112723481Y-117733927D01*
X112733202Y-117723202D01*
X112743927Y-117713481D01*
X112755553Y-117704858D01*
X112767969Y-117697417D01*
X112781054Y-117691228D01*
X112794683Y-117686351D01*
X112808724Y-117682834D01*
X112823042Y-117680710D01*
X112837500Y-117680000D01*
X113132500Y-117680000D01*
X113146958Y-117680710D01*
X113146958Y-117680710D01*
G37*
D11*
X112985000Y-118000000D03*
G04 #@! TD*
D10*
G04 #@! TO.C,C6*
G36*
X121686958Y-107720710D02*
X121701276Y-107722834D01*
X121715317Y-107726351D01*
X121728946Y-107731228D01*
X121742031Y-107737417D01*
X121754447Y-107744858D01*
X121766073Y-107753481D01*
X121776798Y-107763202D01*
X121786519Y-107773927D01*
X121795142Y-107785553D01*
X121802583Y-107797969D01*
X121808772Y-107811054D01*
X121813649Y-107824683D01*
X121817166Y-107838724D01*
X121819290Y-107853042D01*
X121820000Y-107867500D01*
X121820000Y-108162500D01*
X121819290Y-108176958D01*
X121817166Y-108191276D01*
X121813649Y-108205317D01*
X121808772Y-108218946D01*
X121802583Y-108232031D01*
X121795142Y-108244447D01*
X121786519Y-108256073D01*
X121776798Y-108266798D01*
X121766073Y-108276519D01*
X121754447Y-108285142D01*
X121742031Y-108292583D01*
X121728946Y-108298772D01*
X121715317Y-108303649D01*
X121701276Y-108307166D01*
X121686958Y-108309290D01*
X121672500Y-108310000D01*
X121327500Y-108310000D01*
X121313042Y-108309290D01*
X121298724Y-108307166D01*
X121284683Y-108303649D01*
X121271054Y-108298772D01*
X121257969Y-108292583D01*
X121245553Y-108285142D01*
X121233927Y-108276519D01*
X121223202Y-108266798D01*
X121213481Y-108256073D01*
X121204858Y-108244447D01*
X121197417Y-108232031D01*
X121191228Y-108218946D01*
X121186351Y-108205317D01*
X121182834Y-108191276D01*
X121180710Y-108176958D01*
X121180000Y-108162500D01*
X121180000Y-107867500D01*
X121180710Y-107853042D01*
X121182834Y-107838724D01*
X121186351Y-107824683D01*
X121191228Y-107811054D01*
X121197417Y-107797969D01*
X121204858Y-107785553D01*
X121213481Y-107773927D01*
X121223202Y-107763202D01*
X121233927Y-107753481D01*
X121245553Y-107744858D01*
X121257969Y-107737417D01*
X121271054Y-107731228D01*
X121284683Y-107726351D01*
X121298724Y-107722834D01*
X121313042Y-107720710D01*
X121327500Y-107720000D01*
X121672500Y-107720000D01*
X121686958Y-107720710D01*
X121686958Y-107720710D01*
G37*
D11*
X121500000Y-108015000D03*
D10*
G36*
X121686958Y-108690710D02*
X121701276Y-108692834D01*
X121715317Y-108696351D01*
X121728946Y-108701228D01*
X121742031Y-108707417D01*
X121754447Y-108714858D01*
X121766073Y-108723481D01*
X121776798Y-108733202D01*
X121786519Y-108743927D01*
X121795142Y-108755553D01*
X121802583Y-108767969D01*
X121808772Y-108781054D01*
X121813649Y-108794683D01*
X121817166Y-108808724D01*
X121819290Y-108823042D01*
X121820000Y-108837500D01*
X121820000Y-109132500D01*
X121819290Y-109146958D01*
X121817166Y-109161276D01*
X121813649Y-109175317D01*
X121808772Y-109188946D01*
X121802583Y-109202031D01*
X121795142Y-109214447D01*
X121786519Y-109226073D01*
X121776798Y-109236798D01*
X121766073Y-109246519D01*
X121754447Y-109255142D01*
X121742031Y-109262583D01*
X121728946Y-109268772D01*
X121715317Y-109273649D01*
X121701276Y-109277166D01*
X121686958Y-109279290D01*
X121672500Y-109280000D01*
X121327500Y-109280000D01*
X121313042Y-109279290D01*
X121298724Y-109277166D01*
X121284683Y-109273649D01*
X121271054Y-109268772D01*
X121257969Y-109262583D01*
X121245553Y-109255142D01*
X121233927Y-109246519D01*
X121223202Y-109236798D01*
X121213481Y-109226073D01*
X121204858Y-109214447D01*
X121197417Y-109202031D01*
X121191228Y-109188946D01*
X121186351Y-109175317D01*
X121182834Y-109161276D01*
X121180710Y-109146958D01*
X121180000Y-109132500D01*
X121180000Y-108837500D01*
X121180710Y-108823042D01*
X121182834Y-108808724D01*
X121186351Y-108794683D01*
X121191228Y-108781054D01*
X121197417Y-108767969D01*
X121204858Y-108755553D01*
X121213481Y-108743927D01*
X121223202Y-108733202D01*
X121233927Y-108723481D01*
X121245553Y-108714858D01*
X121257969Y-108707417D01*
X121271054Y-108701228D01*
X121284683Y-108696351D01*
X121298724Y-108692834D01*
X121313042Y-108690710D01*
X121327500Y-108690000D01*
X121672500Y-108690000D01*
X121686958Y-108690710D01*
X121686958Y-108690710D01*
G37*
D11*
X121500000Y-108985000D03*
G04 #@! TD*
D10*
G04 #@! TO.C,C7*
G36*
X123186958Y-106690710D02*
X123201276Y-106692834D01*
X123215317Y-106696351D01*
X123228946Y-106701228D01*
X123242031Y-106707417D01*
X123254447Y-106714858D01*
X123266073Y-106723481D01*
X123276798Y-106733202D01*
X123286519Y-106743927D01*
X123295142Y-106755553D01*
X123302583Y-106767969D01*
X123308772Y-106781054D01*
X123313649Y-106794683D01*
X123317166Y-106808724D01*
X123319290Y-106823042D01*
X123320000Y-106837500D01*
X123320000Y-107132500D01*
X123319290Y-107146958D01*
X123317166Y-107161276D01*
X123313649Y-107175317D01*
X123308772Y-107188946D01*
X123302583Y-107202031D01*
X123295142Y-107214447D01*
X123286519Y-107226073D01*
X123276798Y-107236798D01*
X123266073Y-107246519D01*
X123254447Y-107255142D01*
X123242031Y-107262583D01*
X123228946Y-107268772D01*
X123215317Y-107273649D01*
X123201276Y-107277166D01*
X123186958Y-107279290D01*
X123172500Y-107280000D01*
X122827500Y-107280000D01*
X122813042Y-107279290D01*
X122798724Y-107277166D01*
X122784683Y-107273649D01*
X122771054Y-107268772D01*
X122757969Y-107262583D01*
X122745553Y-107255142D01*
X122733927Y-107246519D01*
X122723202Y-107236798D01*
X122713481Y-107226073D01*
X122704858Y-107214447D01*
X122697417Y-107202031D01*
X122691228Y-107188946D01*
X122686351Y-107175317D01*
X122682834Y-107161276D01*
X122680710Y-107146958D01*
X122680000Y-107132500D01*
X122680000Y-106837500D01*
X122680710Y-106823042D01*
X122682834Y-106808724D01*
X122686351Y-106794683D01*
X122691228Y-106781054D01*
X122697417Y-106767969D01*
X122704858Y-106755553D01*
X122713481Y-106743927D01*
X122723202Y-106733202D01*
X122733927Y-106723481D01*
X122745553Y-106714858D01*
X122757969Y-106707417D01*
X122771054Y-106701228D01*
X122784683Y-106696351D01*
X122798724Y-106692834D01*
X122813042Y-106690710D01*
X122827500Y-106690000D01*
X123172500Y-106690000D01*
X123186958Y-106690710D01*
X123186958Y-106690710D01*
G37*
D11*
X123000000Y-106985000D03*
D10*
G36*
X123186958Y-105720710D02*
X123201276Y-105722834D01*
X123215317Y-105726351D01*
X123228946Y-105731228D01*
X123242031Y-105737417D01*
X123254447Y-105744858D01*
X123266073Y-105753481D01*
X123276798Y-105763202D01*
X123286519Y-105773927D01*
X123295142Y-105785553D01*
X123302583Y-105797969D01*
X123308772Y-105811054D01*
X123313649Y-105824683D01*
X123317166Y-105838724D01*
X123319290Y-105853042D01*
X123320000Y-105867500D01*
X123320000Y-106162500D01*
X123319290Y-106176958D01*
X123317166Y-106191276D01*
X123313649Y-106205317D01*
X123308772Y-106218946D01*
X123302583Y-106232031D01*
X123295142Y-106244447D01*
X123286519Y-106256073D01*
X123276798Y-106266798D01*
X123266073Y-106276519D01*
X123254447Y-106285142D01*
X123242031Y-106292583D01*
X123228946Y-106298772D01*
X123215317Y-106303649D01*
X123201276Y-106307166D01*
X123186958Y-106309290D01*
X123172500Y-106310000D01*
X122827500Y-106310000D01*
X122813042Y-106309290D01*
X122798724Y-106307166D01*
X122784683Y-106303649D01*
X122771054Y-106298772D01*
X122757969Y-106292583D01*
X122745553Y-106285142D01*
X122733927Y-106276519D01*
X122723202Y-106266798D01*
X122713481Y-106256073D01*
X122704858Y-106244447D01*
X122697417Y-106232031D01*
X122691228Y-106218946D01*
X122686351Y-106205317D01*
X122682834Y-106191276D01*
X122680710Y-106176958D01*
X122680000Y-106162500D01*
X122680000Y-105867500D01*
X122680710Y-105853042D01*
X122682834Y-105838724D01*
X122686351Y-105824683D01*
X122691228Y-105811054D01*
X122697417Y-105797969D01*
X122704858Y-105785553D01*
X122713481Y-105773927D01*
X122723202Y-105763202D01*
X122733927Y-105753481D01*
X122745553Y-105744858D01*
X122757969Y-105737417D01*
X122771054Y-105731228D01*
X122784683Y-105726351D01*
X122798724Y-105722834D01*
X122813042Y-105720710D01*
X122827500Y-105720000D01*
X123172500Y-105720000D01*
X123186958Y-105720710D01*
X123186958Y-105720710D01*
G37*
D11*
X123000000Y-106015000D03*
G04 #@! TD*
D10*
G04 #@! TO.C,C8*
G36*
X111686958Y-105720710D02*
X111701276Y-105722834D01*
X111715317Y-105726351D01*
X111728946Y-105731228D01*
X111742031Y-105737417D01*
X111754447Y-105744858D01*
X111766073Y-105753481D01*
X111776798Y-105763202D01*
X111786519Y-105773927D01*
X111795142Y-105785553D01*
X111802583Y-105797969D01*
X111808772Y-105811054D01*
X111813649Y-105824683D01*
X111817166Y-105838724D01*
X111819290Y-105853042D01*
X111820000Y-105867500D01*
X111820000Y-106162500D01*
X111819290Y-106176958D01*
X111817166Y-106191276D01*
X111813649Y-106205317D01*
X111808772Y-106218946D01*
X111802583Y-106232031D01*
X111795142Y-106244447D01*
X111786519Y-106256073D01*
X111776798Y-106266798D01*
X111766073Y-106276519D01*
X111754447Y-106285142D01*
X111742031Y-106292583D01*
X111728946Y-106298772D01*
X111715317Y-106303649D01*
X111701276Y-106307166D01*
X111686958Y-106309290D01*
X111672500Y-106310000D01*
X111327500Y-106310000D01*
X111313042Y-106309290D01*
X111298724Y-106307166D01*
X111284683Y-106303649D01*
X111271054Y-106298772D01*
X111257969Y-106292583D01*
X111245553Y-106285142D01*
X111233927Y-106276519D01*
X111223202Y-106266798D01*
X111213481Y-106256073D01*
X111204858Y-106244447D01*
X111197417Y-106232031D01*
X111191228Y-106218946D01*
X111186351Y-106205317D01*
X111182834Y-106191276D01*
X111180710Y-106176958D01*
X111180000Y-106162500D01*
X111180000Y-105867500D01*
X111180710Y-105853042D01*
X111182834Y-105838724D01*
X111186351Y-105824683D01*
X111191228Y-105811054D01*
X111197417Y-105797969D01*
X111204858Y-105785553D01*
X111213481Y-105773927D01*
X111223202Y-105763202D01*
X111233927Y-105753481D01*
X111245553Y-105744858D01*
X111257969Y-105737417D01*
X111271054Y-105731228D01*
X111284683Y-105726351D01*
X111298724Y-105722834D01*
X111313042Y-105720710D01*
X111327500Y-105720000D01*
X111672500Y-105720000D01*
X111686958Y-105720710D01*
X111686958Y-105720710D01*
G37*
D11*
X111500000Y-106015000D03*
D10*
G36*
X111686958Y-106690710D02*
X111701276Y-106692834D01*
X111715317Y-106696351D01*
X111728946Y-106701228D01*
X111742031Y-106707417D01*
X111754447Y-106714858D01*
X111766073Y-106723481D01*
X111776798Y-106733202D01*
X111786519Y-106743927D01*
X111795142Y-106755553D01*
X111802583Y-106767969D01*
X111808772Y-106781054D01*
X111813649Y-106794683D01*
X111817166Y-106808724D01*
X111819290Y-106823042D01*
X111820000Y-106837500D01*
X111820000Y-107132500D01*
X111819290Y-107146958D01*
X111817166Y-107161276D01*
X111813649Y-107175317D01*
X111808772Y-107188946D01*
X111802583Y-107202031D01*
X111795142Y-107214447D01*
X111786519Y-107226073D01*
X111776798Y-107236798D01*
X111766073Y-107246519D01*
X111754447Y-107255142D01*
X111742031Y-107262583D01*
X111728946Y-107268772D01*
X111715317Y-107273649D01*
X111701276Y-107277166D01*
X111686958Y-107279290D01*
X111672500Y-107280000D01*
X111327500Y-107280000D01*
X111313042Y-107279290D01*
X111298724Y-107277166D01*
X111284683Y-107273649D01*
X111271054Y-107268772D01*
X111257969Y-107262583D01*
X111245553Y-107255142D01*
X111233927Y-107246519D01*
X111223202Y-107236798D01*
X111213481Y-107226073D01*
X111204858Y-107214447D01*
X111197417Y-107202031D01*
X111191228Y-107188946D01*
X111186351Y-107175317D01*
X111182834Y-107161276D01*
X111180710Y-107146958D01*
X111180000Y-107132500D01*
X111180000Y-106837500D01*
X111180710Y-106823042D01*
X111182834Y-106808724D01*
X111186351Y-106794683D01*
X111191228Y-106781054D01*
X111197417Y-106767969D01*
X111204858Y-106755553D01*
X111213481Y-106743927D01*
X111223202Y-106733202D01*
X111233927Y-106723481D01*
X111245553Y-106714858D01*
X111257969Y-106707417D01*
X111271054Y-106701228D01*
X111284683Y-106696351D01*
X111298724Y-106692834D01*
X111313042Y-106690710D01*
X111327500Y-106690000D01*
X111672500Y-106690000D01*
X111686958Y-106690710D01*
X111686958Y-106690710D01*
G37*
D11*
X111500000Y-106985000D03*
G04 #@! TD*
D10*
G04 #@! TO.C,C9*
G36*
X124186958Y-117690710D02*
X124201276Y-117692834D01*
X124215317Y-117696351D01*
X124228946Y-117701228D01*
X124242031Y-117707417D01*
X124254447Y-117714858D01*
X124266073Y-117723481D01*
X124276798Y-117733202D01*
X124286519Y-117743927D01*
X124295142Y-117755553D01*
X124302583Y-117767969D01*
X124308772Y-117781054D01*
X124313649Y-117794683D01*
X124317166Y-117808724D01*
X124319290Y-117823042D01*
X124320000Y-117837500D01*
X124320000Y-118132500D01*
X124319290Y-118146958D01*
X124317166Y-118161276D01*
X124313649Y-118175317D01*
X124308772Y-118188946D01*
X124302583Y-118202031D01*
X124295142Y-118214447D01*
X124286519Y-118226073D01*
X124276798Y-118236798D01*
X124266073Y-118246519D01*
X124254447Y-118255142D01*
X124242031Y-118262583D01*
X124228946Y-118268772D01*
X124215317Y-118273649D01*
X124201276Y-118277166D01*
X124186958Y-118279290D01*
X124172500Y-118280000D01*
X123827500Y-118280000D01*
X123813042Y-118279290D01*
X123798724Y-118277166D01*
X123784683Y-118273649D01*
X123771054Y-118268772D01*
X123757969Y-118262583D01*
X123745553Y-118255142D01*
X123733927Y-118246519D01*
X123723202Y-118236798D01*
X123713481Y-118226073D01*
X123704858Y-118214447D01*
X123697417Y-118202031D01*
X123691228Y-118188946D01*
X123686351Y-118175317D01*
X123682834Y-118161276D01*
X123680710Y-118146958D01*
X123680000Y-118132500D01*
X123680000Y-117837500D01*
X123680710Y-117823042D01*
X123682834Y-117808724D01*
X123686351Y-117794683D01*
X123691228Y-117781054D01*
X123697417Y-117767969D01*
X123704858Y-117755553D01*
X123713481Y-117743927D01*
X123723202Y-117733202D01*
X123733927Y-117723481D01*
X123745553Y-117714858D01*
X123757969Y-117707417D01*
X123771054Y-117701228D01*
X123784683Y-117696351D01*
X123798724Y-117692834D01*
X123813042Y-117690710D01*
X123827500Y-117690000D01*
X124172500Y-117690000D01*
X124186958Y-117690710D01*
X124186958Y-117690710D01*
G37*
D11*
X124000000Y-117985000D03*
D10*
G36*
X124186958Y-116720710D02*
X124201276Y-116722834D01*
X124215317Y-116726351D01*
X124228946Y-116731228D01*
X124242031Y-116737417D01*
X124254447Y-116744858D01*
X124266073Y-116753481D01*
X124276798Y-116763202D01*
X124286519Y-116773927D01*
X124295142Y-116785553D01*
X124302583Y-116797969D01*
X124308772Y-116811054D01*
X124313649Y-116824683D01*
X124317166Y-116838724D01*
X124319290Y-116853042D01*
X124320000Y-116867500D01*
X124320000Y-117162500D01*
X124319290Y-117176958D01*
X124317166Y-117191276D01*
X124313649Y-117205317D01*
X124308772Y-117218946D01*
X124302583Y-117232031D01*
X124295142Y-117244447D01*
X124286519Y-117256073D01*
X124276798Y-117266798D01*
X124266073Y-117276519D01*
X124254447Y-117285142D01*
X124242031Y-117292583D01*
X124228946Y-117298772D01*
X124215317Y-117303649D01*
X124201276Y-117307166D01*
X124186958Y-117309290D01*
X124172500Y-117310000D01*
X123827500Y-117310000D01*
X123813042Y-117309290D01*
X123798724Y-117307166D01*
X123784683Y-117303649D01*
X123771054Y-117298772D01*
X123757969Y-117292583D01*
X123745553Y-117285142D01*
X123733927Y-117276519D01*
X123723202Y-117266798D01*
X123713481Y-117256073D01*
X123704858Y-117244447D01*
X123697417Y-117232031D01*
X123691228Y-117218946D01*
X123686351Y-117205317D01*
X123682834Y-117191276D01*
X123680710Y-117176958D01*
X123680000Y-117162500D01*
X123680000Y-116867500D01*
X123680710Y-116853042D01*
X123682834Y-116838724D01*
X123686351Y-116824683D01*
X123691228Y-116811054D01*
X123697417Y-116797969D01*
X123704858Y-116785553D01*
X123713481Y-116773927D01*
X123723202Y-116763202D01*
X123733927Y-116753481D01*
X123745553Y-116744858D01*
X123757969Y-116737417D01*
X123771054Y-116731228D01*
X123784683Y-116726351D01*
X123798724Y-116722834D01*
X123813042Y-116720710D01*
X123827500Y-116720000D01*
X124172500Y-116720000D01*
X124186958Y-116720710D01*
X124186958Y-116720710D01*
G37*
D11*
X124000000Y-117015000D03*
G04 #@! TD*
D10*
G04 #@! TO.C,C10*
G36*
X124186958Y-105720710D02*
X124201276Y-105722834D01*
X124215317Y-105726351D01*
X124228946Y-105731228D01*
X124242031Y-105737417D01*
X124254447Y-105744858D01*
X124266073Y-105753481D01*
X124276798Y-105763202D01*
X124286519Y-105773927D01*
X124295142Y-105785553D01*
X124302583Y-105797969D01*
X124308772Y-105811054D01*
X124313649Y-105824683D01*
X124317166Y-105838724D01*
X124319290Y-105853042D01*
X124320000Y-105867500D01*
X124320000Y-106162500D01*
X124319290Y-106176958D01*
X124317166Y-106191276D01*
X124313649Y-106205317D01*
X124308772Y-106218946D01*
X124302583Y-106232031D01*
X124295142Y-106244447D01*
X124286519Y-106256073D01*
X124276798Y-106266798D01*
X124266073Y-106276519D01*
X124254447Y-106285142D01*
X124242031Y-106292583D01*
X124228946Y-106298772D01*
X124215317Y-106303649D01*
X124201276Y-106307166D01*
X124186958Y-106309290D01*
X124172500Y-106310000D01*
X123827500Y-106310000D01*
X123813042Y-106309290D01*
X123798724Y-106307166D01*
X123784683Y-106303649D01*
X123771054Y-106298772D01*
X123757969Y-106292583D01*
X123745553Y-106285142D01*
X123733927Y-106276519D01*
X123723202Y-106266798D01*
X123713481Y-106256073D01*
X123704858Y-106244447D01*
X123697417Y-106232031D01*
X123691228Y-106218946D01*
X123686351Y-106205317D01*
X123682834Y-106191276D01*
X123680710Y-106176958D01*
X123680000Y-106162500D01*
X123680000Y-105867500D01*
X123680710Y-105853042D01*
X123682834Y-105838724D01*
X123686351Y-105824683D01*
X123691228Y-105811054D01*
X123697417Y-105797969D01*
X123704858Y-105785553D01*
X123713481Y-105773927D01*
X123723202Y-105763202D01*
X123733927Y-105753481D01*
X123745553Y-105744858D01*
X123757969Y-105737417D01*
X123771054Y-105731228D01*
X123784683Y-105726351D01*
X123798724Y-105722834D01*
X123813042Y-105720710D01*
X123827500Y-105720000D01*
X124172500Y-105720000D01*
X124186958Y-105720710D01*
X124186958Y-105720710D01*
G37*
D11*
X124000000Y-106015000D03*
D10*
G36*
X124186958Y-106690710D02*
X124201276Y-106692834D01*
X124215317Y-106696351D01*
X124228946Y-106701228D01*
X124242031Y-106707417D01*
X124254447Y-106714858D01*
X124266073Y-106723481D01*
X124276798Y-106733202D01*
X124286519Y-106743927D01*
X124295142Y-106755553D01*
X124302583Y-106767969D01*
X124308772Y-106781054D01*
X124313649Y-106794683D01*
X124317166Y-106808724D01*
X124319290Y-106823042D01*
X124320000Y-106837500D01*
X124320000Y-107132500D01*
X124319290Y-107146958D01*
X124317166Y-107161276D01*
X124313649Y-107175317D01*
X124308772Y-107188946D01*
X124302583Y-107202031D01*
X124295142Y-107214447D01*
X124286519Y-107226073D01*
X124276798Y-107236798D01*
X124266073Y-107246519D01*
X124254447Y-107255142D01*
X124242031Y-107262583D01*
X124228946Y-107268772D01*
X124215317Y-107273649D01*
X124201276Y-107277166D01*
X124186958Y-107279290D01*
X124172500Y-107280000D01*
X123827500Y-107280000D01*
X123813042Y-107279290D01*
X123798724Y-107277166D01*
X123784683Y-107273649D01*
X123771054Y-107268772D01*
X123757969Y-107262583D01*
X123745553Y-107255142D01*
X123733927Y-107246519D01*
X123723202Y-107236798D01*
X123713481Y-107226073D01*
X123704858Y-107214447D01*
X123697417Y-107202031D01*
X123691228Y-107188946D01*
X123686351Y-107175317D01*
X123682834Y-107161276D01*
X123680710Y-107146958D01*
X123680000Y-107132500D01*
X123680000Y-106837500D01*
X123680710Y-106823042D01*
X123682834Y-106808724D01*
X123686351Y-106794683D01*
X123691228Y-106781054D01*
X123697417Y-106767969D01*
X123704858Y-106755553D01*
X123713481Y-106743927D01*
X123723202Y-106733202D01*
X123733927Y-106723481D01*
X123745553Y-106714858D01*
X123757969Y-106707417D01*
X123771054Y-106701228D01*
X123784683Y-106696351D01*
X123798724Y-106692834D01*
X123813042Y-106690710D01*
X123827500Y-106690000D01*
X124172500Y-106690000D01*
X124186958Y-106690710D01*
X124186958Y-106690710D01*
G37*
D11*
X124000000Y-106985000D03*
G04 #@! TD*
D10*
G04 #@! TO.C,C12*
G36*
X113974505Y-107951204D02*
X113998773Y-107954804D01*
X114022572Y-107960765D01*
X114045671Y-107969030D01*
X114067850Y-107979520D01*
X114088893Y-107992132D01*
X114108599Y-108006747D01*
X114126777Y-108023223D01*
X114143253Y-108041401D01*
X114157868Y-108061107D01*
X114170480Y-108082150D01*
X114180970Y-108104329D01*
X114189235Y-108127428D01*
X114195196Y-108151227D01*
X114198796Y-108175495D01*
X114200000Y-108199999D01*
X114200000Y-108850001D01*
X114198796Y-108874505D01*
X114195196Y-108898773D01*
X114189235Y-108922572D01*
X114180970Y-108945671D01*
X114170480Y-108967850D01*
X114157868Y-108988893D01*
X114143253Y-109008599D01*
X114126777Y-109026777D01*
X114108599Y-109043253D01*
X114088893Y-109057868D01*
X114067850Y-109070480D01*
X114045671Y-109080970D01*
X114022572Y-109089235D01*
X113998773Y-109095196D01*
X113974505Y-109098796D01*
X113950001Y-109100000D01*
X113049999Y-109100000D01*
X113025495Y-109098796D01*
X113001227Y-109095196D01*
X112977428Y-109089235D01*
X112954329Y-109080970D01*
X112932150Y-109070480D01*
X112911107Y-109057868D01*
X112891401Y-109043253D01*
X112873223Y-109026777D01*
X112856747Y-109008599D01*
X112842132Y-108988893D01*
X112829520Y-108967850D01*
X112819030Y-108945671D01*
X112810765Y-108922572D01*
X112804804Y-108898773D01*
X112801204Y-108874505D01*
X112800000Y-108850001D01*
X112800000Y-108199999D01*
X112801204Y-108175495D01*
X112804804Y-108151227D01*
X112810765Y-108127428D01*
X112819030Y-108104329D01*
X112829520Y-108082150D01*
X112842132Y-108061107D01*
X112856747Y-108041401D01*
X112873223Y-108023223D01*
X112891401Y-108006747D01*
X112911107Y-107992132D01*
X112932150Y-107979520D01*
X112954329Y-107969030D01*
X112977428Y-107960765D01*
X113001227Y-107954804D01*
X113025495Y-107951204D01*
X113049999Y-107950000D01*
X113950001Y-107950000D01*
X113974505Y-107951204D01*
X113974505Y-107951204D01*
G37*
D12*
X113500000Y-108525000D03*
D10*
G36*
X113974505Y-105901204D02*
X113998773Y-105904804D01*
X114022572Y-105910765D01*
X114045671Y-105919030D01*
X114067850Y-105929520D01*
X114088893Y-105942132D01*
X114108599Y-105956747D01*
X114126777Y-105973223D01*
X114143253Y-105991401D01*
X114157868Y-106011107D01*
X114170480Y-106032150D01*
X114180970Y-106054329D01*
X114189235Y-106077428D01*
X114195196Y-106101227D01*
X114198796Y-106125495D01*
X114200000Y-106149999D01*
X114200000Y-106800001D01*
X114198796Y-106824505D01*
X114195196Y-106848773D01*
X114189235Y-106872572D01*
X114180970Y-106895671D01*
X114170480Y-106917850D01*
X114157868Y-106938893D01*
X114143253Y-106958599D01*
X114126777Y-106976777D01*
X114108599Y-106993253D01*
X114088893Y-107007868D01*
X114067850Y-107020480D01*
X114045671Y-107030970D01*
X114022572Y-107039235D01*
X113998773Y-107045196D01*
X113974505Y-107048796D01*
X113950001Y-107050000D01*
X113049999Y-107050000D01*
X113025495Y-107048796D01*
X113001227Y-107045196D01*
X112977428Y-107039235D01*
X112954329Y-107030970D01*
X112932150Y-107020480D01*
X112911107Y-107007868D01*
X112891401Y-106993253D01*
X112873223Y-106976777D01*
X112856747Y-106958599D01*
X112842132Y-106938893D01*
X112829520Y-106917850D01*
X112819030Y-106895671D01*
X112810765Y-106872572D01*
X112804804Y-106848773D01*
X112801204Y-106824505D01*
X112800000Y-106800001D01*
X112800000Y-106149999D01*
X112801204Y-106125495D01*
X112804804Y-106101227D01*
X112810765Y-106077428D01*
X112819030Y-106054329D01*
X112829520Y-106032150D01*
X112842132Y-106011107D01*
X112856747Y-105991401D01*
X112873223Y-105973223D01*
X112891401Y-105956747D01*
X112911107Y-105942132D01*
X112932150Y-105929520D01*
X112954329Y-105919030D01*
X112977428Y-105910765D01*
X113001227Y-105904804D01*
X113025495Y-105901204D01*
X113049999Y-105900000D01*
X113950001Y-105900000D01*
X113974505Y-105901204D01*
X113974505Y-105901204D01*
G37*
D12*
X113500000Y-106475000D03*
G04 #@! TD*
D10*
G04 #@! TO.C,C15*
G36*
X124146958Y-111680710D02*
X124161276Y-111682834D01*
X124175317Y-111686351D01*
X124188946Y-111691228D01*
X124202031Y-111697417D01*
X124214447Y-111704858D01*
X124226073Y-111713481D01*
X124236798Y-111723202D01*
X124246519Y-111733927D01*
X124255142Y-111745553D01*
X124262583Y-111757969D01*
X124268772Y-111771054D01*
X124273649Y-111784683D01*
X124277166Y-111798724D01*
X124279290Y-111813042D01*
X124280000Y-111827500D01*
X124280000Y-112172500D01*
X124279290Y-112186958D01*
X124277166Y-112201276D01*
X124273649Y-112215317D01*
X124268772Y-112228946D01*
X124262583Y-112242031D01*
X124255142Y-112254447D01*
X124246519Y-112266073D01*
X124236798Y-112276798D01*
X124226073Y-112286519D01*
X124214447Y-112295142D01*
X124202031Y-112302583D01*
X124188946Y-112308772D01*
X124175317Y-112313649D01*
X124161276Y-112317166D01*
X124146958Y-112319290D01*
X124132500Y-112320000D01*
X123837500Y-112320000D01*
X123823042Y-112319290D01*
X123808724Y-112317166D01*
X123794683Y-112313649D01*
X123781054Y-112308772D01*
X123767969Y-112302583D01*
X123755553Y-112295142D01*
X123743927Y-112286519D01*
X123733202Y-112276798D01*
X123723481Y-112266073D01*
X123714858Y-112254447D01*
X123707417Y-112242031D01*
X123701228Y-112228946D01*
X123696351Y-112215317D01*
X123692834Y-112201276D01*
X123690710Y-112186958D01*
X123690000Y-112172500D01*
X123690000Y-111827500D01*
X123690710Y-111813042D01*
X123692834Y-111798724D01*
X123696351Y-111784683D01*
X123701228Y-111771054D01*
X123707417Y-111757969D01*
X123714858Y-111745553D01*
X123723481Y-111733927D01*
X123733202Y-111723202D01*
X123743927Y-111713481D01*
X123755553Y-111704858D01*
X123767969Y-111697417D01*
X123781054Y-111691228D01*
X123794683Y-111686351D01*
X123808724Y-111682834D01*
X123823042Y-111680710D01*
X123837500Y-111680000D01*
X124132500Y-111680000D01*
X124146958Y-111680710D01*
X124146958Y-111680710D01*
G37*
D11*
X123985000Y-112000000D03*
D10*
G36*
X123176958Y-111680710D02*
X123191276Y-111682834D01*
X123205317Y-111686351D01*
X123218946Y-111691228D01*
X123232031Y-111697417D01*
X123244447Y-111704858D01*
X123256073Y-111713481D01*
X123266798Y-111723202D01*
X123276519Y-111733927D01*
X123285142Y-111745553D01*
X123292583Y-111757969D01*
X123298772Y-111771054D01*
X123303649Y-111784683D01*
X123307166Y-111798724D01*
X123309290Y-111813042D01*
X123310000Y-111827500D01*
X123310000Y-112172500D01*
X123309290Y-112186958D01*
X123307166Y-112201276D01*
X123303649Y-112215317D01*
X123298772Y-112228946D01*
X123292583Y-112242031D01*
X123285142Y-112254447D01*
X123276519Y-112266073D01*
X123266798Y-112276798D01*
X123256073Y-112286519D01*
X123244447Y-112295142D01*
X123232031Y-112302583D01*
X123218946Y-112308772D01*
X123205317Y-112313649D01*
X123191276Y-112317166D01*
X123176958Y-112319290D01*
X123162500Y-112320000D01*
X122867500Y-112320000D01*
X122853042Y-112319290D01*
X122838724Y-112317166D01*
X122824683Y-112313649D01*
X122811054Y-112308772D01*
X122797969Y-112302583D01*
X122785553Y-112295142D01*
X122773927Y-112286519D01*
X122763202Y-112276798D01*
X122753481Y-112266073D01*
X122744858Y-112254447D01*
X122737417Y-112242031D01*
X122731228Y-112228946D01*
X122726351Y-112215317D01*
X122722834Y-112201276D01*
X122720710Y-112186958D01*
X122720000Y-112172500D01*
X122720000Y-111827500D01*
X122720710Y-111813042D01*
X122722834Y-111798724D01*
X122726351Y-111784683D01*
X122731228Y-111771054D01*
X122737417Y-111757969D01*
X122744858Y-111745553D01*
X122753481Y-111733927D01*
X122763202Y-111723202D01*
X122773927Y-111713481D01*
X122785553Y-111704858D01*
X122797969Y-111697417D01*
X122811054Y-111691228D01*
X122824683Y-111686351D01*
X122838724Y-111682834D01*
X122853042Y-111680710D01*
X122867500Y-111680000D01*
X123162500Y-111680000D01*
X123176958Y-111680710D01*
X123176958Y-111680710D01*
G37*
D11*
X123015000Y-112000000D03*
G04 #@! TD*
D10*
G04 #@! TO.C,C16*
G36*
X112324505Y-115801204D02*
X112348773Y-115804804D01*
X112372572Y-115810765D01*
X112395671Y-115819030D01*
X112417850Y-115829520D01*
X112438893Y-115842132D01*
X112458599Y-115856747D01*
X112476777Y-115873223D01*
X112493253Y-115891401D01*
X112507868Y-115911107D01*
X112520480Y-115932150D01*
X112530970Y-115954329D01*
X112539235Y-115977428D01*
X112545196Y-116001227D01*
X112548796Y-116025495D01*
X112550000Y-116049999D01*
X112550000Y-116950001D01*
X112548796Y-116974505D01*
X112545196Y-116998773D01*
X112539235Y-117022572D01*
X112530970Y-117045671D01*
X112520480Y-117067850D01*
X112507868Y-117088893D01*
X112493253Y-117108599D01*
X112476777Y-117126777D01*
X112458599Y-117143253D01*
X112438893Y-117157868D01*
X112417850Y-117170480D01*
X112395671Y-117180970D01*
X112372572Y-117189235D01*
X112348773Y-117195196D01*
X112324505Y-117198796D01*
X112300001Y-117200000D01*
X111649999Y-117200000D01*
X111625495Y-117198796D01*
X111601227Y-117195196D01*
X111577428Y-117189235D01*
X111554329Y-117180970D01*
X111532150Y-117170480D01*
X111511107Y-117157868D01*
X111491401Y-117143253D01*
X111473223Y-117126777D01*
X111456747Y-117108599D01*
X111442132Y-117088893D01*
X111429520Y-117067850D01*
X111419030Y-117045671D01*
X111410765Y-117022572D01*
X111404804Y-116998773D01*
X111401204Y-116974505D01*
X111400000Y-116950001D01*
X111400000Y-116049999D01*
X111401204Y-116025495D01*
X111404804Y-116001227D01*
X111410765Y-115977428D01*
X111419030Y-115954329D01*
X111429520Y-115932150D01*
X111442132Y-115911107D01*
X111456747Y-115891401D01*
X111473223Y-115873223D01*
X111491401Y-115856747D01*
X111511107Y-115842132D01*
X111532150Y-115829520D01*
X111554329Y-115819030D01*
X111577428Y-115810765D01*
X111601227Y-115804804D01*
X111625495Y-115801204D01*
X111649999Y-115800000D01*
X112300001Y-115800000D01*
X112324505Y-115801204D01*
X112324505Y-115801204D01*
G37*
D12*
X111975000Y-116500000D03*
D10*
G36*
X114374505Y-115801204D02*
X114398773Y-115804804D01*
X114422572Y-115810765D01*
X114445671Y-115819030D01*
X114467850Y-115829520D01*
X114488893Y-115842132D01*
X114508599Y-115856747D01*
X114526777Y-115873223D01*
X114543253Y-115891401D01*
X114557868Y-115911107D01*
X114570480Y-115932150D01*
X114580970Y-115954329D01*
X114589235Y-115977428D01*
X114595196Y-116001227D01*
X114598796Y-116025495D01*
X114600000Y-116049999D01*
X114600000Y-116950001D01*
X114598796Y-116974505D01*
X114595196Y-116998773D01*
X114589235Y-117022572D01*
X114580970Y-117045671D01*
X114570480Y-117067850D01*
X114557868Y-117088893D01*
X114543253Y-117108599D01*
X114526777Y-117126777D01*
X114508599Y-117143253D01*
X114488893Y-117157868D01*
X114467850Y-117170480D01*
X114445671Y-117180970D01*
X114422572Y-117189235D01*
X114398773Y-117195196D01*
X114374505Y-117198796D01*
X114350001Y-117200000D01*
X113699999Y-117200000D01*
X113675495Y-117198796D01*
X113651227Y-117195196D01*
X113627428Y-117189235D01*
X113604329Y-117180970D01*
X113582150Y-117170480D01*
X113561107Y-117157868D01*
X113541401Y-117143253D01*
X113523223Y-117126777D01*
X113506747Y-117108599D01*
X113492132Y-117088893D01*
X113479520Y-117067850D01*
X113469030Y-117045671D01*
X113460765Y-117022572D01*
X113454804Y-116998773D01*
X113451204Y-116974505D01*
X113450000Y-116950001D01*
X113450000Y-116049999D01*
X113451204Y-116025495D01*
X113454804Y-116001227D01*
X113460765Y-115977428D01*
X113469030Y-115954329D01*
X113479520Y-115932150D01*
X113492132Y-115911107D01*
X113506747Y-115891401D01*
X113523223Y-115873223D01*
X113541401Y-115856747D01*
X113561107Y-115842132D01*
X113582150Y-115829520D01*
X113604329Y-115819030D01*
X113627428Y-115810765D01*
X113651227Y-115804804D01*
X113675495Y-115801204D01*
X113699999Y-115800000D01*
X114350001Y-115800000D01*
X114374505Y-115801204D01*
X114374505Y-115801204D01*
G37*
D12*
X114025000Y-116500000D03*
G04 #@! TD*
D10*
G04 #@! TO.C,C29*
G36*
X99146958Y-110680710D02*
X99161276Y-110682834D01*
X99175317Y-110686351D01*
X99188946Y-110691228D01*
X99202031Y-110697417D01*
X99214447Y-110704858D01*
X99226073Y-110713481D01*
X99236798Y-110723202D01*
X99246519Y-110733927D01*
X99255142Y-110745553D01*
X99262583Y-110757969D01*
X99268772Y-110771054D01*
X99273649Y-110784683D01*
X99277166Y-110798724D01*
X99279290Y-110813042D01*
X99280000Y-110827500D01*
X99280000Y-111172500D01*
X99279290Y-111186958D01*
X99277166Y-111201276D01*
X99273649Y-111215317D01*
X99268772Y-111228946D01*
X99262583Y-111242031D01*
X99255142Y-111254447D01*
X99246519Y-111266073D01*
X99236798Y-111276798D01*
X99226073Y-111286519D01*
X99214447Y-111295142D01*
X99202031Y-111302583D01*
X99188946Y-111308772D01*
X99175317Y-111313649D01*
X99161276Y-111317166D01*
X99146958Y-111319290D01*
X99132500Y-111320000D01*
X98837500Y-111320000D01*
X98823042Y-111319290D01*
X98808724Y-111317166D01*
X98794683Y-111313649D01*
X98781054Y-111308772D01*
X98767969Y-111302583D01*
X98755553Y-111295142D01*
X98743927Y-111286519D01*
X98733202Y-111276798D01*
X98723481Y-111266073D01*
X98714858Y-111254447D01*
X98707417Y-111242031D01*
X98701228Y-111228946D01*
X98696351Y-111215317D01*
X98692834Y-111201276D01*
X98690710Y-111186958D01*
X98690000Y-111172500D01*
X98690000Y-110827500D01*
X98690710Y-110813042D01*
X98692834Y-110798724D01*
X98696351Y-110784683D01*
X98701228Y-110771054D01*
X98707417Y-110757969D01*
X98714858Y-110745553D01*
X98723481Y-110733927D01*
X98733202Y-110723202D01*
X98743927Y-110713481D01*
X98755553Y-110704858D01*
X98767969Y-110697417D01*
X98781054Y-110691228D01*
X98794683Y-110686351D01*
X98808724Y-110682834D01*
X98823042Y-110680710D01*
X98837500Y-110680000D01*
X99132500Y-110680000D01*
X99146958Y-110680710D01*
X99146958Y-110680710D01*
G37*
D11*
X98985000Y-111000000D03*
D10*
G36*
X98176958Y-110680710D02*
X98191276Y-110682834D01*
X98205317Y-110686351D01*
X98218946Y-110691228D01*
X98232031Y-110697417D01*
X98244447Y-110704858D01*
X98256073Y-110713481D01*
X98266798Y-110723202D01*
X98276519Y-110733927D01*
X98285142Y-110745553D01*
X98292583Y-110757969D01*
X98298772Y-110771054D01*
X98303649Y-110784683D01*
X98307166Y-110798724D01*
X98309290Y-110813042D01*
X98310000Y-110827500D01*
X98310000Y-111172500D01*
X98309290Y-111186958D01*
X98307166Y-111201276D01*
X98303649Y-111215317D01*
X98298772Y-111228946D01*
X98292583Y-111242031D01*
X98285142Y-111254447D01*
X98276519Y-111266073D01*
X98266798Y-111276798D01*
X98256073Y-111286519D01*
X98244447Y-111295142D01*
X98232031Y-111302583D01*
X98218946Y-111308772D01*
X98205317Y-111313649D01*
X98191276Y-111317166D01*
X98176958Y-111319290D01*
X98162500Y-111320000D01*
X97867500Y-111320000D01*
X97853042Y-111319290D01*
X97838724Y-111317166D01*
X97824683Y-111313649D01*
X97811054Y-111308772D01*
X97797969Y-111302583D01*
X97785553Y-111295142D01*
X97773927Y-111286519D01*
X97763202Y-111276798D01*
X97753481Y-111266073D01*
X97744858Y-111254447D01*
X97737417Y-111242031D01*
X97731228Y-111228946D01*
X97726351Y-111215317D01*
X97722834Y-111201276D01*
X97720710Y-111186958D01*
X97720000Y-111172500D01*
X97720000Y-110827500D01*
X97720710Y-110813042D01*
X97722834Y-110798724D01*
X97726351Y-110784683D01*
X97731228Y-110771054D01*
X97737417Y-110757969D01*
X97744858Y-110745553D01*
X97753481Y-110733927D01*
X97763202Y-110723202D01*
X97773927Y-110713481D01*
X97785553Y-110704858D01*
X97797969Y-110697417D01*
X97811054Y-110691228D01*
X97824683Y-110686351D01*
X97838724Y-110682834D01*
X97853042Y-110680710D01*
X97867500Y-110680000D01*
X98162500Y-110680000D01*
X98176958Y-110680710D01*
X98176958Y-110680710D01*
G37*
D11*
X98015000Y-111000000D03*
G04 #@! TD*
D10*
G04 #@! TO.C,C30*
G36*
X99146958Y-106680710D02*
X99161276Y-106682834D01*
X99175317Y-106686351D01*
X99188946Y-106691228D01*
X99202031Y-106697417D01*
X99214447Y-106704858D01*
X99226073Y-106713481D01*
X99236798Y-106723202D01*
X99246519Y-106733927D01*
X99255142Y-106745553D01*
X99262583Y-106757969D01*
X99268772Y-106771054D01*
X99273649Y-106784683D01*
X99277166Y-106798724D01*
X99279290Y-106813042D01*
X99280000Y-106827500D01*
X99280000Y-107172500D01*
X99279290Y-107186958D01*
X99277166Y-107201276D01*
X99273649Y-107215317D01*
X99268772Y-107228946D01*
X99262583Y-107242031D01*
X99255142Y-107254447D01*
X99246519Y-107266073D01*
X99236798Y-107276798D01*
X99226073Y-107286519D01*
X99214447Y-107295142D01*
X99202031Y-107302583D01*
X99188946Y-107308772D01*
X99175317Y-107313649D01*
X99161276Y-107317166D01*
X99146958Y-107319290D01*
X99132500Y-107320000D01*
X98837500Y-107320000D01*
X98823042Y-107319290D01*
X98808724Y-107317166D01*
X98794683Y-107313649D01*
X98781054Y-107308772D01*
X98767969Y-107302583D01*
X98755553Y-107295142D01*
X98743927Y-107286519D01*
X98733202Y-107276798D01*
X98723481Y-107266073D01*
X98714858Y-107254447D01*
X98707417Y-107242031D01*
X98701228Y-107228946D01*
X98696351Y-107215317D01*
X98692834Y-107201276D01*
X98690710Y-107186958D01*
X98690000Y-107172500D01*
X98690000Y-106827500D01*
X98690710Y-106813042D01*
X98692834Y-106798724D01*
X98696351Y-106784683D01*
X98701228Y-106771054D01*
X98707417Y-106757969D01*
X98714858Y-106745553D01*
X98723481Y-106733927D01*
X98733202Y-106723202D01*
X98743927Y-106713481D01*
X98755553Y-106704858D01*
X98767969Y-106697417D01*
X98781054Y-106691228D01*
X98794683Y-106686351D01*
X98808724Y-106682834D01*
X98823042Y-106680710D01*
X98837500Y-106680000D01*
X99132500Y-106680000D01*
X99146958Y-106680710D01*
X99146958Y-106680710D01*
G37*
D11*
X98985000Y-107000000D03*
D10*
G36*
X98176958Y-106680710D02*
X98191276Y-106682834D01*
X98205317Y-106686351D01*
X98218946Y-106691228D01*
X98232031Y-106697417D01*
X98244447Y-106704858D01*
X98256073Y-106713481D01*
X98266798Y-106723202D01*
X98276519Y-106733927D01*
X98285142Y-106745553D01*
X98292583Y-106757969D01*
X98298772Y-106771054D01*
X98303649Y-106784683D01*
X98307166Y-106798724D01*
X98309290Y-106813042D01*
X98310000Y-106827500D01*
X98310000Y-107172500D01*
X98309290Y-107186958D01*
X98307166Y-107201276D01*
X98303649Y-107215317D01*
X98298772Y-107228946D01*
X98292583Y-107242031D01*
X98285142Y-107254447D01*
X98276519Y-107266073D01*
X98266798Y-107276798D01*
X98256073Y-107286519D01*
X98244447Y-107295142D01*
X98232031Y-107302583D01*
X98218946Y-107308772D01*
X98205317Y-107313649D01*
X98191276Y-107317166D01*
X98176958Y-107319290D01*
X98162500Y-107320000D01*
X97867500Y-107320000D01*
X97853042Y-107319290D01*
X97838724Y-107317166D01*
X97824683Y-107313649D01*
X97811054Y-107308772D01*
X97797969Y-107302583D01*
X97785553Y-107295142D01*
X97773927Y-107286519D01*
X97763202Y-107276798D01*
X97753481Y-107266073D01*
X97744858Y-107254447D01*
X97737417Y-107242031D01*
X97731228Y-107228946D01*
X97726351Y-107215317D01*
X97722834Y-107201276D01*
X97720710Y-107186958D01*
X97720000Y-107172500D01*
X97720000Y-106827500D01*
X97720710Y-106813042D01*
X97722834Y-106798724D01*
X97726351Y-106784683D01*
X97731228Y-106771054D01*
X97737417Y-106757969D01*
X97744858Y-106745553D01*
X97753481Y-106733927D01*
X97763202Y-106723202D01*
X97773927Y-106713481D01*
X97785553Y-106704858D01*
X97797969Y-106697417D01*
X97811054Y-106691228D01*
X97824683Y-106686351D01*
X97838724Y-106682834D01*
X97853042Y-106680710D01*
X97867500Y-106680000D01*
X98162500Y-106680000D01*
X98176958Y-106680710D01*
X98176958Y-106680710D01*
G37*
D11*
X98015000Y-107000000D03*
G04 #@! TD*
D10*
G04 #@! TO.C,C32*
G36*
X99146958Y-109680710D02*
X99161276Y-109682834D01*
X99175317Y-109686351D01*
X99188946Y-109691228D01*
X99202031Y-109697417D01*
X99214447Y-109704858D01*
X99226073Y-109713481D01*
X99236798Y-109723202D01*
X99246519Y-109733927D01*
X99255142Y-109745553D01*
X99262583Y-109757969D01*
X99268772Y-109771054D01*
X99273649Y-109784683D01*
X99277166Y-109798724D01*
X99279290Y-109813042D01*
X99280000Y-109827500D01*
X99280000Y-110172500D01*
X99279290Y-110186958D01*
X99277166Y-110201276D01*
X99273649Y-110215317D01*
X99268772Y-110228946D01*
X99262583Y-110242031D01*
X99255142Y-110254447D01*
X99246519Y-110266073D01*
X99236798Y-110276798D01*
X99226073Y-110286519D01*
X99214447Y-110295142D01*
X99202031Y-110302583D01*
X99188946Y-110308772D01*
X99175317Y-110313649D01*
X99161276Y-110317166D01*
X99146958Y-110319290D01*
X99132500Y-110320000D01*
X98837500Y-110320000D01*
X98823042Y-110319290D01*
X98808724Y-110317166D01*
X98794683Y-110313649D01*
X98781054Y-110308772D01*
X98767969Y-110302583D01*
X98755553Y-110295142D01*
X98743927Y-110286519D01*
X98733202Y-110276798D01*
X98723481Y-110266073D01*
X98714858Y-110254447D01*
X98707417Y-110242031D01*
X98701228Y-110228946D01*
X98696351Y-110215317D01*
X98692834Y-110201276D01*
X98690710Y-110186958D01*
X98690000Y-110172500D01*
X98690000Y-109827500D01*
X98690710Y-109813042D01*
X98692834Y-109798724D01*
X98696351Y-109784683D01*
X98701228Y-109771054D01*
X98707417Y-109757969D01*
X98714858Y-109745553D01*
X98723481Y-109733927D01*
X98733202Y-109723202D01*
X98743927Y-109713481D01*
X98755553Y-109704858D01*
X98767969Y-109697417D01*
X98781054Y-109691228D01*
X98794683Y-109686351D01*
X98808724Y-109682834D01*
X98823042Y-109680710D01*
X98837500Y-109680000D01*
X99132500Y-109680000D01*
X99146958Y-109680710D01*
X99146958Y-109680710D01*
G37*
D11*
X98985000Y-110000000D03*
D10*
G36*
X98176958Y-109680710D02*
X98191276Y-109682834D01*
X98205317Y-109686351D01*
X98218946Y-109691228D01*
X98232031Y-109697417D01*
X98244447Y-109704858D01*
X98256073Y-109713481D01*
X98266798Y-109723202D01*
X98276519Y-109733927D01*
X98285142Y-109745553D01*
X98292583Y-109757969D01*
X98298772Y-109771054D01*
X98303649Y-109784683D01*
X98307166Y-109798724D01*
X98309290Y-109813042D01*
X98310000Y-109827500D01*
X98310000Y-110172500D01*
X98309290Y-110186958D01*
X98307166Y-110201276D01*
X98303649Y-110215317D01*
X98298772Y-110228946D01*
X98292583Y-110242031D01*
X98285142Y-110254447D01*
X98276519Y-110266073D01*
X98266798Y-110276798D01*
X98256073Y-110286519D01*
X98244447Y-110295142D01*
X98232031Y-110302583D01*
X98218946Y-110308772D01*
X98205317Y-110313649D01*
X98191276Y-110317166D01*
X98176958Y-110319290D01*
X98162500Y-110320000D01*
X97867500Y-110320000D01*
X97853042Y-110319290D01*
X97838724Y-110317166D01*
X97824683Y-110313649D01*
X97811054Y-110308772D01*
X97797969Y-110302583D01*
X97785553Y-110295142D01*
X97773927Y-110286519D01*
X97763202Y-110276798D01*
X97753481Y-110266073D01*
X97744858Y-110254447D01*
X97737417Y-110242031D01*
X97731228Y-110228946D01*
X97726351Y-110215317D01*
X97722834Y-110201276D01*
X97720710Y-110186958D01*
X97720000Y-110172500D01*
X97720000Y-109827500D01*
X97720710Y-109813042D01*
X97722834Y-109798724D01*
X97726351Y-109784683D01*
X97731228Y-109771054D01*
X97737417Y-109757969D01*
X97744858Y-109745553D01*
X97753481Y-109733927D01*
X97763202Y-109723202D01*
X97773927Y-109713481D01*
X97785553Y-109704858D01*
X97797969Y-109697417D01*
X97811054Y-109691228D01*
X97824683Y-109686351D01*
X97838724Y-109682834D01*
X97853042Y-109680710D01*
X97867500Y-109680000D01*
X98162500Y-109680000D01*
X98176958Y-109680710D01*
X98176958Y-109680710D01*
G37*
D11*
X98015000Y-110000000D03*
G04 #@! TD*
D10*
G04 #@! TO.C,C33*
G36*
X99146958Y-107680710D02*
X99161276Y-107682834D01*
X99175317Y-107686351D01*
X99188946Y-107691228D01*
X99202031Y-107697417D01*
X99214447Y-107704858D01*
X99226073Y-107713481D01*
X99236798Y-107723202D01*
X99246519Y-107733927D01*
X99255142Y-107745553D01*
X99262583Y-107757969D01*
X99268772Y-107771054D01*
X99273649Y-107784683D01*
X99277166Y-107798724D01*
X99279290Y-107813042D01*
X99280000Y-107827500D01*
X99280000Y-108172500D01*
X99279290Y-108186958D01*
X99277166Y-108201276D01*
X99273649Y-108215317D01*
X99268772Y-108228946D01*
X99262583Y-108242031D01*
X99255142Y-108254447D01*
X99246519Y-108266073D01*
X99236798Y-108276798D01*
X99226073Y-108286519D01*
X99214447Y-108295142D01*
X99202031Y-108302583D01*
X99188946Y-108308772D01*
X99175317Y-108313649D01*
X99161276Y-108317166D01*
X99146958Y-108319290D01*
X99132500Y-108320000D01*
X98837500Y-108320000D01*
X98823042Y-108319290D01*
X98808724Y-108317166D01*
X98794683Y-108313649D01*
X98781054Y-108308772D01*
X98767969Y-108302583D01*
X98755553Y-108295142D01*
X98743927Y-108286519D01*
X98733202Y-108276798D01*
X98723481Y-108266073D01*
X98714858Y-108254447D01*
X98707417Y-108242031D01*
X98701228Y-108228946D01*
X98696351Y-108215317D01*
X98692834Y-108201276D01*
X98690710Y-108186958D01*
X98690000Y-108172500D01*
X98690000Y-107827500D01*
X98690710Y-107813042D01*
X98692834Y-107798724D01*
X98696351Y-107784683D01*
X98701228Y-107771054D01*
X98707417Y-107757969D01*
X98714858Y-107745553D01*
X98723481Y-107733927D01*
X98733202Y-107723202D01*
X98743927Y-107713481D01*
X98755553Y-107704858D01*
X98767969Y-107697417D01*
X98781054Y-107691228D01*
X98794683Y-107686351D01*
X98808724Y-107682834D01*
X98823042Y-107680710D01*
X98837500Y-107680000D01*
X99132500Y-107680000D01*
X99146958Y-107680710D01*
X99146958Y-107680710D01*
G37*
D11*
X98985000Y-108000000D03*
D10*
G36*
X98176958Y-107680710D02*
X98191276Y-107682834D01*
X98205317Y-107686351D01*
X98218946Y-107691228D01*
X98232031Y-107697417D01*
X98244447Y-107704858D01*
X98256073Y-107713481D01*
X98266798Y-107723202D01*
X98276519Y-107733927D01*
X98285142Y-107745553D01*
X98292583Y-107757969D01*
X98298772Y-107771054D01*
X98303649Y-107784683D01*
X98307166Y-107798724D01*
X98309290Y-107813042D01*
X98310000Y-107827500D01*
X98310000Y-108172500D01*
X98309290Y-108186958D01*
X98307166Y-108201276D01*
X98303649Y-108215317D01*
X98298772Y-108228946D01*
X98292583Y-108242031D01*
X98285142Y-108254447D01*
X98276519Y-108266073D01*
X98266798Y-108276798D01*
X98256073Y-108286519D01*
X98244447Y-108295142D01*
X98232031Y-108302583D01*
X98218946Y-108308772D01*
X98205317Y-108313649D01*
X98191276Y-108317166D01*
X98176958Y-108319290D01*
X98162500Y-108320000D01*
X97867500Y-108320000D01*
X97853042Y-108319290D01*
X97838724Y-108317166D01*
X97824683Y-108313649D01*
X97811054Y-108308772D01*
X97797969Y-108302583D01*
X97785553Y-108295142D01*
X97773927Y-108286519D01*
X97763202Y-108276798D01*
X97753481Y-108266073D01*
X97744858Y-108254447D01*
X97737417Y-108242031D01*
X97731228Y-108228946D01*
X97726351Y-108215317D01*
X97722834Y-108201276D01*
X97720710Y-108186958D01*
X97720000Y-108172500D01*
X97720000Y-107827500D01*
X97720710Y-107813042D01*
X97722834Y-107798724D01*
X97726351Y-107784683D01*
X97731228Y-107771054D01*
X97737417Y-107757969D01*
X97744858Y-107745553D01*
X97753481Y-107733927D01*
X97763202Y-107723202D01*
X97773927Y-107713481D01*
X97785553Y-107704858D01*
X97797969Y-107697417D01*
X97811054Y-107691228D01*
X97824683Y-107686351D01*
X97838724Y-107682834D01*
X97853042Y-107680710D01*
X97867500Y-107680000D01*
X98162500Y-107680000D01*
X98176958Y-107680710D01*
X98176958Y-107680710D01*
G37*
D11*
X98015000Y-108000000D03*
G04 #@! TD*
D10*
G04 #@! TO.C,C34*
G36*
X99146958Y-108680710D02*
X99161276Y-108682834D01*
X99175317Y-108686351D01*
X99188946Y-108691228D01*
X99202031Y-108697417D01*
X99214447Y-108704858D01*
X99226073Y-108713481D01*
X99236798Y-108723202D01*
X99246519Y-108733927D01*
X99255142Y-108745553D01*
X99262583Y-108757969D01*
X99268772Y-108771054D01*
X99273649Y-108784683D01*
X99277166Y-108798724D01*
X99279290Y-108813042D01*
X99280000Y-108827500D01*
X99280000Y-109172500D01*
X99279290Y-109186958D01*
X99277166Y-109201276D01*
X99273649Y-109215317D01*
X99268772Y-109228946D01*
X99262583Y-109242031D01*
X99255142Y-109254447D01*
X99246519Y-109266073D01*
X99236798Y-109276798D01*
X99226073Y-109286519D01*
X99214447Y-109295142D01*
X99202031Y-109302583D01*
X99188946Y-109308772D01*
X99175317Y-109313649D01*
X99161276Y-109317166D01*
X99146958Y-109319290D01*
X99132500Y-109320000D01*
X98837500Y-109320000D01*
X98823042Y-109319290D01*
X98808724Y-109317166D01*
X98794683Y-109313649D01*
X98781054Y-109308772D01*
X98767969Y-109302583D01*
X98755553Y-109295142D01*
X98743927Y-109286519D01*
X98733202Y-109276798D01*
X98723481Y-109266073D01*
X98714858Y-109254447D01*
X98707417Y-109242031D01*
X98701228Y-109228946D01*
X98696351Y-109215317D01*
X98692834Y-109201276D01*
X98690710Y-109186958D01*
X98690000Y-109172500D01*
X98690000Y-108827500D01*
X98690710Y-108813042D01*
X98692834Y-108798724D01*
X98696351Y-108784683D01*
X98701228Y-108771054D01*
X98707417Y-108757969D01*
X98714858Y-108745553D01*
X98723481Y-108733927D01*
X98733202Y-108723202D01*
X98743927Y-108713481D01*
X98755553Y-108704858D01*
X98767969Y-108697417D01*
X98781054Y-108691228D01*
X98794683Y-108686351D01*
X98808724Y-108682834D01*
X98823042Y-108680710D01*
X98837500Y-108680000D01*
X99132500Y-108680000D01*
X99146958Y-108680710D01*
X99146958Y-108680710D01*
G37*
D11*
X98985000Y-109000000D03*
D10*
G36*
X98176958Y-108680710D02*
X98191276Y-108682834D01*
X98205317Y-108686351D01*
X98218946Y-108691228D01*
X98232031Y-108697417D01*
X98244447Y-108704858D01*
X98256073Y-108713481D01*
X98266798Y-108723202D01*
X98276519Y-108733927D01*
X98285142Y-108745553D01*
X98292583Y-108757969D01*
X98298772Y-108771054D01*
X98303649Y-108784683D01*
X98307166Y-108798724D01*
X98309290Y-108813042D01*
X98310000Y-108827500D01*
X98310000Y-109172500D01*
X98309290Y-109186958D01*
X98307166Y-109201276D01*
X98303649Y-109215317D01*
X98298772Y-109228946D01*
X98292583Y-109242031D01*
X98285142Y-109254447D01*
X98276519Y-109266073D01*
X98266798Y-109276798D01*
X98256073Y-109286519D01*
X98244447Y-109295142D01*
X98232031Y-109302583D01*
X98218946Y-109308772D01*
X98205317Y-109313649D01*
X98191276Y-109317166D01*
X98176958Y-109319290D01*
X98162500Y-109320000D01*
X97867500Y-109320000D01*
X97853042Y-109319290D01*
X97838724Y-109317166D01*
X97824683Y-109313649D01*
X97811054Y-109308772D01*
X97797969Y-109302583D01*
X97785553Y-109295142D01*
X97773927Y-109286519D01*
X97763202Y-109276798D01*
X97753481Y-109266073D01*
X97744858Y-109254447D01*
X97737417Y-109242031D01*
X97731228Y-109228946D01*
X97726351Y-109215317D01*
X97722834Y-109201276D01*
X97720710Y-109186958D01*
X97720000Y-109172500D01*
X97720000Y-108827500D01*
X97720710Y-108813042D01*
X97722834Y-108798724D01*
X97726351Y-108784683D01*
X97731228Y-108771054D01*
X97737417Y-108757969D01*
X97744858Y-108745553D01*
X97753481Y-108733927D01*
X97763202Y-108723202D01*
X97773927Y-108713481D01*
X97785553Y-108704858D01*
X97797969Y-108697417D01*
X97811054Y-108691228D01*
X97824683Y-108686351D01*
X97838724Y-108682834D01*
X97853042Y-108680710D01*
X97867500Y-108680000D01*
X98162500Y-108680000D01*
X98176958Y-108680710D01*
X98176958Y-108680710D01*
G37*
D11*
X98015000Y-109000000D03*
G04 #@! TD*
D10*
G04 #@! TO.C,C37*
G36*
X102146958Y-107180710D02*
X102161276Y-107182834D01*
X102175317Y-107186351D01*
X102188946Y-107191228D01*
X102202031Y-107197417D01*
X102214447Y-107204858D01*
X102226073Y-107213481D01*
X102236798Y-107223202D01*
X102246519Y-107233927D01*
X102255142Y-107245553D01*
X102262583Y-107257969D01*
X102268772Y-107271054D01*
X102273649Y-107284683D01*
X102277166Y-107298724D01*
X102279290Y-107313042D01*
X102280000Y-107327500D01*
X102280000Y-107672500D01*
X102279290Y-107686958D01*
X102277166Y-107701276D01*
X102273649Y-107715317D01*
X102268772Y-107728946D01*
X102262583Y-107742031D01*
X102255142Y-107754447D01*
X102246519Y-107766073D01*
X102236798Y-107776798D01*
X102226073Y-107786519D01*
X102214447Y-107795142D01*
X102202031Y-107802583D01*
X102188946Y-107808772D01*
X102175317Y-107813649D01*
X102161276Y-107817166D01*
X102146958Y-107819290D01*
X102132500Y-107820000D01*
X101837500Y-107820000D01*
X101823042Y-107819290D01*
X101808724Y-107817166D01*
X101794683Y-107813649D01*
X101781054Y-107808772D01*
X101767969Y-107802583D01*
X101755553Y-107795142D01*
X101743927Y-107786519D01*
X101733202Y-107776798D01*
X101723481Y-107766073D01*
X101714858Y-107754447D01*
X101707417Y-107742031D01*
X101701228Y-107728946D01*
X101696351Y-107715317D01*
X101692834Y-107701276D01*
X101690710Y-107686958D01*
X101690000Y-107672500D01*
X101690000Y-107327500D01*
X101690710Y-107313042D01*
X101692834Y-107298724D01*
X101696351Y-107284683D01*
X101701228Y-107271054D01*
X101707417Y-107257969D01*
X101714858Y-107245553D01*
X101723481Y-107233927D01*
X101733202Y-107223202D01*
X101743927Y-107213481D01*
X101755553Y-107204858D01*
X101767969Y-107197417D01*
X101781054Y-107191228D01*
X101794683Y-107186351D01*
X101808724Y-107182834D01*
X101823042Y-107180710D01*
X101837500Y-107180000D01*
X102132500Y-107180000D01*
X102146958Y-107180710D01*
X102146958Y-107180710D01*
G37*
D11*
X101985000Y-107500000D03*
D10*
G36*
X101176958Y-107180710D02*
X101191276Y-107182834D01*
X101205317Y-107186351D01*
X101218946Y-107191228D01*
X101232031Y-107197417D01*
X101244447Y-107204858D01*
X101256073Y-107213481D01*
X101266798Y-107223202D01*
X101276519Y-107233927D01*
X101285142Y-107245553D01*
X101292583Y-107257969D01*
X101298772Y-107271054D01*
X101303649Y-107284683D01*
X101307166Y-107298724D01*
X101309290Y-107313042D01*
X101310000Y-107327500D01*
X101310000Y-107672500D01*
X101309290Y-107686958D01*
X101307166Y-107701276D01*
X101303649Y-107715317D01*
X101298772Y-107728946D01*
X101292583Y-107742031D01*
X101285142Y-107754447D01*
X101276519Y-107766073D01*
X101266798Y-107776798D01*
X101256073Y-107786519D01*
X101244447Y-107795142D01*
X101232031Y-107802583D01*
X101218946Y-107808772D01*
X101205317Y-107813649D01*
X101191276Y-107817166D01*
X101176958Y-107819290D01*
X101162500Y-107820000D01*
X100867500Y-107820000D01*
X100853042Y-107819290D01*
X100838724Y-107817166D01*
X100824683Y-107813649D01*
X100811054Y-107808772D01*
X100797969Y-107802583D01*
X100785553Y-107795142D01*
X100773927Y-107786519D01*
X100763202Y-107776798D01*
X100753481Y-107766073D01*
X100744858Y-107754447D01*
X100737417Y-107742031D01*
X100731228Y-107728946D01*
X100726351Y-107715317D01*
X100722834Y-107701276D01*
X100720710Y-107686958D01*
X100720000Y-107672500D01*
X100720000Y-107327500D01*
X100720710Y-107313042D01*
X100722834Y-107298724D01*
X100726351Y-107284683D01*
X100731228Y-107271054D01*
X100737417Y-107257969D01*
X100744858Y-107245553D01*
X100753481Y-107233927D01*
X100763202Y-107223202D01*
X100773927Y-107213481D01*
X100785553Y-107204858D01*
X100797969Y-107197417D01*
X100811054Y-107191228D01*
X100824683Y-107186351D01*
X100838724Y-107182834D01*
X100853042Y-107180710D01*
X100867500Y-107180000D01*
X101162500Y-107180000D01*
X101176958Y-107180710D01*
X101176958Y-107180710D01*
G37*
D11*
X101015000Y-107500000D03*
G04 #@! TD*
D10*
G04 #@! TO.C,C38*
G36*
X101176958Y-109180710D02*
X101191276Y-109182834D01*
X101205317Y-109186351D01*
X101218946Y-109191228D01*
X101232031Y-109197417D01*
X101244447Y-109204858D01*
X101256073Y-109213481D01*
X101266798Y-109223202D01*
X101276519Y-109233927D01*
X101285142Y-109245553D01*
X101292583Y-109257969D01*
X101298772Y-109271054D01*
X101303649Y-109284683D01*
X101307166Y-109298724D01*
X101309290Y-109313042D01*
X101310000Y-109327500D01*
X101310000Y-109672500D01*
X101309290Y-109686958D01*
X101307166Y-109701276D01*
X101303649Y-109715317D01*
X101298772Y-109728946D01*
X101292583Y-109742031D01*
X101285142Y-109754447D01*
X101276519Y-109766073D01*
X101266798Y-109776798D01*
X101256073Y-109786519D01*
X101244447Y-109795142D01*
X101232031Y-109802583D01*
X101218946Y-109808772D01*
X101205317Y-109813649D01*
X101191276Y-109817166D01*
X101176958Y-109819290D01*
X101162500Y-109820000D01*
X100867500Y-109820000D01*
X100853042Y-109819290D01*
X100838724Y-109817166D01*
X100824683Y-109813649D01*
X100811054Y-109808772D01*
X100797969Y-109802583D01*
X100785553Y-109795142D01*
X100773927Y-109786519D01*
X100763202Y-109776798D01*
X100753481Y-109766073D01*
X100744858Y-109754447D01*
X100737417Y-109742031D01*
X100731228Y-109728946D01*
X100726351Y-109715317D01*
X100722834Y-109701276D01*
X100720710Y-109686958D01*
X100720000Y-109672500D01*
X100720000Y-109327500D01*
X100720710Y-109313042D01*
X100722834Y-109298724D01*
X100726351Y-109284683D01*
X100731228Y-109271054D01*
X100737417Y-109257969D01*
X100744858Y-109245553D01*
X100753481Y-109233927D01*
X100763202Y-109223202D01*
X100773927Y-109213481D01*
X100785553Y-109204858D01*
X100797969Y-109197417D01*
X100811054Y-109191228D01*
X100824683Y-109186351D01*
X100838724Y-109182834D01*
X100853042Y-109180710D01*
X100867500Y-109180000D01*
X101162500Y-109180000D01*
X101176958Y-109180710D01*
X101176958Y-109180710D01*
G37*
D11*
X101015000Y-109500000D03*
D10*
G36*
X102146958Y-109180710D02*
X102161276Y-109182834D01*
X102175317Y-109186351D01*
X102188946Y-109191228D01*
X102202031Y-109197417D01*
X102214447Y-109204858D01*
X102226073Y-109213481D01*
X102236798Y-109223202D01*
X102246519Y-109233927D01*
X102255142Y-109245553D01*
X102262583Y-109257969D01*
X102268772Y-109271054D01*
X102273649Y-109284683D01*
X102277166Y-109298724D01*
X102279290Y-109313042D01*
X102280000Y-109327500D01*
X102280000Y-109672500D01*
X102279290Y-109686958D01*
X102277166Y-109701276D01*
X102273649Y-109715317D01*
X102268772Y-109728946D01*
X102262583Y-109742031D01*
X102255142Y-109754447D01*
X102246519Y-109766073D01*
X102236798Y-109776798D01*
X102226073Y-109786519D01*
X102214447Y-109795142D01*
X102202031Y-109802583D01*
X102188946Y-109808772D01*
X102175317Y-109813649D01*
X102161276Y-109817166D01*
X102146958Y-109819290D01*
X102132500Y-109820000D01*
X101837500Y-109820000D01*
X101823042Y-109819290D01*
X101808724Y-109817166D01*
X101794683Y-109813649D01*
X101781054Y-109808772D01*
X101767969Y-109802583D01*
X101755553Y-109795142D01*
X101743927Y-109786519D01*
X101733202Y-109776798D01*
X101723481Y-109766073D01*
X101714858Y-109754447D01*
X101707417Y-109742031D01*
X101701228Y-109728946D01*
X101696351Y-109715317D01*
X101692834Y-109701276D01*
X101690710Y-109686958D01*
X101690000Y-109672500D01*
X101690000Y-109327500D01*
X101690710Y-109313042D01*
X101692834Y-109298724D01*
X101696351Y-109284683D01*
X101701228Y-109271054D01*
X101707417Y-109257969D01*
X101714858Y-109245553D01*
X101723481Y-109233927D01*
X101733202Y-109223202D01*
X101743927Y-109213481D01*
X101755553Y-109204858D01*
X101767969Y-109197417D01*
X101781054Y-109191228D01*
X101794683Y-109186351D01*
X101808724Y-109182834D01*
X101823042Y-109180710D01*
X101837500Y-109180000D01*
X102132500Y-109180000D01*
X102146958Y-109180710D01*
X102146958Y-109180710D01*
G37*
D11*
X101985000Y-109500000D03*
G04 #@! TD*
D10*
G04 #@! TO.C,L1*
G36*
X123974505Y-109951204D02*
X123998773Y-109954804D01*
X124022572Y-109960765D01*
X124045671Y-109969030D01*
X124067850Y-109979520D01*
X124088893Y-109992132D01*
X124108599Y-110006747D01*
X124126777Y-110023223D01*
X124143253Y-110041401D01*
X124157868Y-110061107D01*
X124170480Y-110082150D01*
X124180970Y-110104329D01*
X124189235Y-110127428D01*
X124195196Y-110151227D01*
X124198796Y-110175495D01*
X124200000Y-110199999D01*
X124200000Y-110850001D01*
X124198796Y-110874505D01*
X124195196Y-110898773D01*
X124189235Y-110922572D01*
X124180970Y-110945671D01*
X124170480Y-110967850D01*
X124157868Y-110988893D01*
X124143253Y-111008599D01*
X124126777Y-111026777D01*
X124108599Y-111043253D01*
X124088893Y-111057868D01*
X124067850Y-111070480D01*
X124045671Y-111080970D01*
X124022572Y-111089235D01*
X123998773Y-111095196D01*
X123974505Y-111098796D01*
X123950001Y-111100000D01*
X123049999Y-111100000D01*
X123025495Y-111098796D01*
X123001227Y-111095196D01*
X122977428Y-111089235D01*
X122954329Y-111080970D01*
X122932150Y-111070480D01*
X122911107Y-111057868D01*
X122891401Y-111043253D01*
X122873223Y-111026777D01*
X122856747Y-111008599D01*
X122842132Y-110988893D01*
X122829520Y-110967850D01*
X122819030Y-110945671D01*
X122810765Y-110922572D01*
X122804804Y-110898773D01*
X122801204Y-110874505D01*
X122800000Y-110850001D01*
X122800000Y-110199999D01*
X122801204Y-110175495D01*
X122804804Y-110151227D01*
X122810765Y-110127428D01*
X122819030Y-110104329D01*
X122829520Y-110082150D01*
X122842132Y-110061107D01*
X122856747Y-110041401D01*
X122873223Y-110023223D01*
X122891401Y-110006747D01*
X122911107Y-109992132D01*
X122932150Y-109979520D01*
X122954329Y-109969030D01*
X122977428Y-109960765D01*
X123001227Y-109954804D01*
X123025495Y-109951204D01*
X123049999Y-109950000D01*
X123950001Y-109950000D01*
X123974505Y-109951204D01*
X123974505Y-109951204D01*
G37*
D12*
X123500000Y-110525000D03*
D10*
G36*
X123974505Y-107901204D02*
X123998773Y-107904804D01*
X124022572Y-107910765D01*
X124045671Y-107919030D01*
X124067850Y-107929520D01*
X124088893Y-107942132D01*
X124108599Y-107956747D01*
X124126777Y-107973223D01*
X124143253Y-107991401D01*
X124157868Y-108011107D01*
X124170480Y-108032150D01*
X124180970Y-108054329D01*
X124189235Y-108077428D01*
X124195196Y-108101227D01*
X124198796Y-108125495D01*
X124200000Y-108149999D01*
X124200000Y-108800001D01*
X124198796Y-108824505D01*
X124195196Y-108848773D01*
X124189235Y-108872572D01*
X124180970Y-108895671D01*
X124170480Y-108917850D01*
X124157868Y-108938893D01*
X124143253Y-108958599D01*
X124126777Y-108976777D01*
X124108599Y-108993253D01*
X124088893Y-109007868D01*
X124067850Y-109020480D01*
X124045671Y-109030970D01*
X124022572Y-109039235D01*
X123998773Y-109045196D01*
X123974505Y-109048796D01*
X123950001Y-109050000D01*
X123049999Y-109050000D01*
X123025495Y-109048796D01*
X123001227Y-109045196D01*
X122977428Y-109039235D01*
X122954329Y-109030970D01*
X122932150Y-109020480D01*
X122911107Y-109007868D01*
X122891401Y-108993253D01*
X122873223Y-108976777D01*
X122856747Y-108958599D01*
X122842132Y-108938893D01*
X122829520Y-108917850D01*
X122819030Y-108895671D01*
X122810765Y-108872572D01*
X122804804Y-108848773D01*
X122801204Y-108824505D01*
X122800000Y-108800001D01*
X122800000Y-108149999D01*
X122801204Y-108125495D01*
X122804804Y-108101227D01*
X122810765Y-108077428D01*
X122819030Y-108054329D01*
X122829520Y-108032150D01*
X122842132Y-108011107D01*
X122856747Y-107991401D01*
X122873223Y-107973223D01*
X122891401Y-107956747D01*
X122911107Y-107942132D01*
X122932150Y-107929520D01*
X122954329Y-107919030D01*
X122977428Y-107910765D01*
X123001227Y-107904804D01*
X123025495Y-107901204D01*
X123049999Y-107900000D01*
X123950001Y-107900000D01*
X123974505Y-107901204D01*
X123974505Y-107901204D01*
G37*
D12*
X123500000Y-108475000D03*
G04 #@! TD*
M02*
