G04 #@! TF.GenerationSoftware,KiCad,Pcbnew,(5.0.1)-3*
G04 #@! TF.CreationDate,2021-08-06T18:40:02+02:00*
G04 #@! TF.ProjectId,Guitar DSP,477569746172204453502E6B69636164,rev?*
G04 #@! TF.SameCoordinates,Original*
G04 #@! TF.FileFunction,Legend,Bot*
G04 #@! TF.FilePolarity,Positive*
%FSLAX46Y46*%
G04 Gerber Fmt 4.6, Leading zero omitted, Abs format (unit mm)*
G04 Created by KiCad (PCBNEW (5.0.1)-3) date 06/08/2021 18:40:02*
%MOMM*%
%LPD*%
G01*
G04 APERTURE LIST*
%ADD10C,0.300000*%
%ADD11C,0.120000*%
%ADD12C,0.127000*%
%ADD13C,0.050000*%
%ADD14C,0.080000*%
%ADD15C,0.150000*%
%ADD16C,0.015000*%
G04 APERTURE END LIST*
D10*
X160500000Y-98178571D02*
X160214285Y-98178571D01*
X160071428Y-98250000D01*
X159928571Y-98392857D01*
X159857142Y-98678571D01*
X159857142Y-99178571D01*
X159928571Y-99464285D01*
X160071428Y-99607142D01*
X160214285Y-99678571D01*
X160500000Y-99678571D01*
X160642857Y-99607142D01*
X160785714Y-99464285D01*
X160857142Y-99178571D01*
X160857142Y-98678571D01*
X160785714Y-98392857D01*
X160642857Y-98250000D01*
X160500000Y-98178571D01*
X159214285Y-98178571D02*
X159214285Y-99392857D01*
X159142857Y-99535714D01*
X159071428Y-99607142D01*
X158928571Y-99678571D01*
X158642857Y-99678571D01*
X158500000Y-99607142D01*
X158428571Y-99535714D01*
X158357142Y-99392857D01*
X158357142Y-98178571D01*
X157857142Y-98178571D02*
X157000000Y-98178571D01*
X157428571Y-99678571D02*
X157428571Y-98178571D01*
X85785714Y-99678571D02*
X85785714Y-98178571D01*
X85071428Y-99678571D02*
X85071428Y-98178571D01*
X84214285Y-99678571D01*
X84214285Y-98178571D01*
X101000000Y-142607142D02*
X100785714Y-142678571D01*
X100428571Y-142678571D01*
X100285714Y-142607142D01*
X100214285Y-142535714D01*
X100142857Y-142392857D01*
X100142857Y-142250000D01*
X100214285Y-142107142D01*
X100285714Y-142035714D01*
X100428571Y-141964285D01*
X100714285Y-141892857D01*
X100857142Y-141821428D01*
X100928571Y-141750000D01*
X101000000Y-141607142D01*
X101000000Y-141464285D01*
X100928571Y-141321428D01*
X100857142Y-141250000D01*
X100714285Y-141178571D01*
X100357142Y-141178571D01*
X100142857Y-141250000D01*
X99714285Y-141678571D02*
X99142857Y-141678571D01*
X99500000Y-141178571D02*
X99500000Y-142464285D01*
X99428571Y-142607142D01*
X99285714Y-142678571D01*
X99142857Y-142678571D01*
X98071428Y-142607142D02*
X98214285Y-142678571D01*
X98500000Y-142678571D01*
X98642857Y-142607142D01*
X98714285Y-142464285D01*
X98714285Y-141892857D01*
X98642857Y-141750000D01*
X98500000Y-141678571D01*
X98214285Y-141678571D01*
X98071428Y-141750000D01*
X98000000Y-141892857D01*
X98000000Y-142035714D01*
X98714285Y-142178571D01*
X97357142Y-142678571D02*
X97357142Y-141678571D01*
X97357142Y-141964285D02*
X97285714Y-141821428D01*
X97214285Y-141750000D01*
X97071428Y-141678571D01*
X96928571Y-141678571D01*
X95857142Y-142607142D02*
X96000000Y-142678571D01*
X96285714Y-142678571D01*
X96428571Y-142607142D01*
X96500000Y-142464285D01*
X96500000Y-141892857D01*
X96428571Y-141750000D01*
X96285714Y-141678571D01*
X96000000Y-141678571D01*
X95857142Y-141750000D01*
X95785714Y-141892857D01*
X95785714Y-142035714D01*
X96500000Y-142178571D01*
X94928571Y-142678571D02*
X95071428Y-142607142D01*
X95142857Y-142535714D01*
X95214285Y-142392857D01*
X95214285Y-141964285D01*
X95142857Y-141821428D01*
X95071428Y-141750000D01*
X94928571Y-141678571D01*
X94714285Y-141678571D01*
X94571428Y-141750000D01*
X94500000Y-141821428D01*
X94428571Y-141964285D01*
X94428571Y-142392857D01*
X94500000Y-142535714D01*
X94571428Y-142607142D01*
X94714285Y-142678571D01*
X94928571Y-142678571D01*
X92642857Y-142678571D02*
X92642857Y-141178571D01*
X92285714Y-141178571D01*
X92071428Y-141250000D01*
X91928571Y-141392857D01*
X91857142Y-141535714D01*
X91785714Y-141821428D01*
X91785714Y-142035714D01*
X91857142Y-142321428D01*
X91928571Y-142464285D01*
X92071428Y-142607142D01*
X92285714Y-142678571D01*
X92642857Y-142678571D01*
X91214285Y-142607142D02*
X91000000Y-142678571D01*
X90642857Y-142678571D01*
X90500000Y-142607142D01*
X90428571Y-142535714D01*
X90357142Y-142392857D01*
X90357142Y-142250000D01*
X90428571Y-142107142D01*
X90500000Y-142035714D01*
X90642857Y-141964285D01*
X90928571Y-141892857D01*
X91071428Y-141821428D01*
X91142857Y-141750000D01*
X91214285Y-141607142D01*
X91214285Y-141464285D01*
X91142857Y-141321428D01*
X91071428Y-141250000D01*
X90928571Y-141178571D01*
X90571428Y-141178571D01*
X90357142Y-141250000D01*
X89714285Y-142678571D02*
X89714285Y-141178571D01*
X89142857Y-141178571D01*
X89000000Y-141250000D01*
X88928571Y-141321428D01*
X88857142Y-141464285D01*
X88857142Y-141678571D01*
X88928571Y-141821428D01*
X89000000Y-141892857D01*
X89142857Y-141964285D01*
X89714285Y-141964285D01*
X87214285Y-141678571D02*
X86857142Y-142678571D01*
X86500000Y-141678571D01*
X85142857Y-142678571D02*
X86000000Y-142678571D01*
X85571428Y-142678571D02*
X85571428Y-141178571D01*
X85714285Y-141392857D01*
X85857142Y-141535714D01*
X86000000Y-141607142D01*
X84500000Y-142535714D02*
X84428571Y-142607142D01*
X84500000Y-142678571D01*
X84571428Y-142607142D01*
X84500000Y-142535714D01*
X84500000Y-142678571D01*
X83500000Y-141178571D02*
X83357142Y-141178571D01*
X83214285Y-141250000D01*
X83142857Y-141321428D01*
X83071428Y-141464285D01*
X83000000Y-141750000D01*
X83000000Y-142107142D01*
X83071428Y-142392857D01*
X83142857Y-142535714D01*
X83214285Y-142607142D01*
X83357142Y-142678571D01*
X83500000Y-142678571D01*
X83642857Y-142607142D01*
X83714285Y-142535714D01*
X83785714Y-142392857D01*
X83857142Y-142107142D01*
X83857142Y-141750000D01*
X83785714Y-141464285D01*
X83714285Y-141321428D01*
X83642857Y-141250000D01*
X83500000Y-141178571D01*
D11*
G04 #@! TO.C,C12*
X114210000Y-107238748D02*
X114210000Y-107761252D01*
X112790000Y-107238748D02*
X112790000Y-107761252D01*
G04 #@! TO.C,C16*
X112738748Y-117210000D02*
X113261252Y-117210000D01*
X112738748Y-115790000D02*
X113261252Y-115790000D01*
G04 #@! TO.C,L1*
X124210000Y-109761252D02*
X124210000Y-109238748D01*
X122790000Y-109761252D02*
X122790000Y-109238748D01*
D12*
G04 #@! TO.C,BT1*
X160480000Y-118510000D02*
X83520000Y-118510000D01*
X83520000Y-118510000D02*
X83520000Y-139490000D01*
X83520000Y-139490000D02*
X160480000Y-139490000D01*
X160480000Y-139490000D02*
X160480000Y-118510000D01*
X162630000Y-128000000D02*
X162630000Y-130000000D01*
X163630000Y-129000000D02*
X161630000Y-129000000D01*
X82370000Y-129000000D02*
X80370000Y-129000000D01*
G04 #@! TO.C,C1*
D13*
X125066666Y-115642857D02*
X125085714Y-115661904D01*
X125142857Y-115680952D01*
X125180952Y-115680952D01*
X125238095Y-115661904D01*
X125276190Y-115623809D01*
X125295238Y-115585714D01*
X125314285Y-115509523D01*
X125314285Y-115452380D01*
X125295238Y-115376190D01*
X125276190Y-115338095D01*
X125238095Y-115300000D01*
X125180952Y-115280952D01*
X125142857Y-115280952D01*
X125085714Y-115300000D01*
X125066666Y-115319047D01*
X124685714Y-115680952D02*
X124914285Y-115680952D01*
X124800000Y-115680952D02*
X124800000Y-115280952D01*
X124838095Y-115338095D01*
X124876190Y-115376190D01*
X124914285Y-115395238D01*
G04 #@! TO.C,C2*
X123142857Y-119433333D02*
X123161904Y-119414285D01*
X123180952Y-119357142D01*
X123180952Y-119319047D01*
X123161904Y-119261904D01*
X123123809Y-119223809D01*
X123085714Y-119204761D01*
X123009523Y-119185714D01*
X122952380Y-119185714D01*
X122876190Y-119204761D01*
X122838095Y-119223809D01*
X122800000Y-119261904D01*
X122780952Y-119319047D01*
X122780952Y-119357142D01*
X122800000Y-119414285D01*
X122819047Y-119433333D01*
X122819047Y-119585714D02*
X122800000Y-119604761D01*
X122780952Y-119642857D01*
X122780952Y-119738095D01*
X122800000Y-119776190D01*
X122819047Y-119795238D01*
X122857142Y-119814285D01*
X122895238Y-119814285D01*
X122952380Y-119795238D01*
X123180952Y-119566666D01*
X123180952Y-119814285D01*
G04 #@! TO.C,C3*
X122404857Y-110433333D02*
X122423904Y-110414285D01*
X122442952Y-110357142D01*
X122442952Y-110319047D01*
X122423904Y-110261904D01*
X122385809Y-110223809D01*
X122347714Y-110204761D01*
X122271523Y-110185714D01*
X122214380Y-110185714D01*
X122138190Y-110204761D01*
X122100095Y-110223809D01*
X122062000Y-110261904D01*
X122042952Y-110319047D01*
X122042952Y-110357142D01*
X122062000Y-110414285D01*
X122081047Y-110433333D01*
X122042952Y-110566666D02*
X122042952Y-110814285D01*
X122195333Y-110680952D01*
X122195333Y-110738095D01*
X122214380Y-110776190D01*
X122233428Y-110795238D01*
X122271523Y-110814285D01*
X122366761Y-110814285D01*
X122404857Y-110795238D01*
X122423904Y-110776190D01*
X122442952Y-110738095D01*
X122442952Y-110623809D01*
X122423904Y-110585714D01*
X122404857Y-110566666D01*
G04 #@! TO.C,C4*
X125066666Y-113142857D02*
X125085714Y-113161904D01*
X125142857Y-113180952D01*
X125180952Y-113180952D01*
X125238095Y-113161904D01*
X125276190Y-113123809D01*
X125295238Y-113085714D01*
X125314285Y-113009523D01*
X125314285Y-112952380D01*
X125295238Y-112876190D01*
X125276190Y-112838095D01*
X125238095Y-112800000D01*
X125180952Y-112780952D01*
X125142857Y-112780952D01*
X125085714Y-112800000D01*
X125066666Y-112819047D01*
X124723809Y-112914285D02*
X124723809Y-113180952D01*
X124819047Y-112761904D02*
X124914285Y-113047619D01*
X124666666Y-113047619D01*
G04 #@! TO.C,C5*
X114066666Y-118142857D02*
X114085714Y-118161904D01*
X114142857Y-118180952D01*
X114180952Y-118180952D01*
X114238095Y-118161904D01*
X114276190Y-118123809D01*
X114295238Y-118085714D01*
X114314285Y-118009523D01*
X114314285Y-117952380D01*
X114295238Y-117876190D01*
X114276190Y-117838095D01*
X114238095Y-117800000D01*
X114180952Y-117780952D01*
X114142857Y-117780952D01*
X114085714Y-117800000D01*
X114066666Y-117819047D01*
X113704761Y-117780952D02*
X113895238Y-117780952D01*
X113914285Y-117971428D01*
X113895238Y-117952380D01*
X113857142Y-117933333D01*
X113761904Y-117933333D01*
X113723809Y-117952380D01*
X113704761Y-117971428D01*
X113685714Y-118009523D01*
X113685714Y-118104761D01*
X113704761Y-118142857D01*
X113723809Y-118161904D01*
X113761904Y-118180952D01*
X113857142Y-118180952D01*
X113895238Y-118161904D01*
X113914285Y-118142857D01*
G04 #@! TO.C,C6*
X122404857Y-108433333D02*
X122423904Y-108414285D01*
X122442952Y-108357142D01*
X122442952Y-108319047D01*
X122423904Y-108261904D01*
X122385809Y-108223809D01*
X122347714Y-108204761D01*
X122271523Y-108185714D01*
X122214380Y-108185714D01*
X122138190Y-108204761D01*
X122100095Y-108223809D01*
X122062000Y-108261904D01*
X122042952Y-108319047D01*
X122042952Y-108357142D01*
X122062000Y-108414285D01*
X122081047Y-108433333D01*
X122042952Y-108776190D02*
X122042952Y-108700000D01*
X122062000Y-108661904D01*
X122081047Y-108642857D01*
X122138190Y-108604761D01*
X122214380Y-108585714D01*
X122366761Y-108585714D01*
X122404857Y-108604761D01*
X122423904Y-108623809D01*
X122442952Y-108661904D01*
X122442952Y-108738095D01*
X122423904Y-108776190D01*
X122404857Y-108795238D01*
X122366761Y-108814285D01*
X122271523Y-108814285D01*
X122233428Y-108795238D01*
X122214380Y-108776190D01*
X122195333Y-108738095D01*
X122195333Y-108661904D01*
X122214380Y-108623809D01*
X122233428Y-108604761D01*
X122271523Y-108585714D01*
G04 #@! TO.C,C7*
X123142857Y-104433333D02*
X123161904Y-104414285D01*
X123180952Y-104357142D01*
X123180952Y-104319047D01*
X123161904Y-104261904D01*
X123123809Y-104223809D01*
X123085714Y-104204761D01*
X123009523Y-104185714D01*
X122952380Y-104185714D01*
X122876190Y-104204761D01*
X122838095Y-104223809D01*
X122800000Y-104261904D01*
X122780952Y-104319047D01*
X122780952Y-104357142D01*
X122800000Y-104414285D01*
X122819047Y-104433333D01*
X122780952Y-104566666D02*
X122780952Y-104833333D01*
X123180952Y-104661904D01*
G04 #@! TO.C,C8*
X110642857Y-106433333D02*
X110661904Y-106414285D01*
X110680952Y-106357142D01*
X110680952Y-106319047D01*
X110661904Y-106261904D01*
X110623809Y-106223809D01*
X110585714Y-106204761D01*
X110509523Y-106185714D01*
X110452380Y-106185714D01*
X110376190Y-106204761D01*
X110338095Y-106223809D01*
X110300000Y-106261904D01*
X110280952Y-106319047D01*
X110280952Y-106357142D01*
X110300000Y-106414285D01*
X110319047Y-106433333D01*
X110452380Y-106661904D02*
X110433333Y-106623809D01*
X110414285Y-106604761D01*
X110376190Y-106585714D01*
X110357142Y-106585714D01*
X110319047Y-106604761D01*
X110300000Y-106623809D01*
X110280952Y-106661904D01*
X110280952Y-106738095D01*
X110300000Y-106776190D01*
X110319047Y-106795238D01*
X110357142Y-106814285D01*
X110376190Y-106814285D01*
X110414285Y-106795238D01*
X110433333Y-106776190D01*
X110452380Y-106738095D01*
X110452380Y-106661904D01*
X110471428Y-106623809D01*
X110490476Y-106604761D01*
X110528571Y-106585714D01*
X110604761Y-106585714D01*
X110642857Y-106604761D01*
X110661904Y-106623809D01*
X110680952Y-106661904D01*
X110680952Y-106738095D01*
X110661904Y-106776190D01*
X110642857Y-106795238D01*
X110604761Y-106814285D01*
X110528571Y-106814285D01*
X110490476Y-106795238D01*
X110471428Y-106776190D01*
X110452380Y-106738095D01*
G04 #@! TO.C,C9*
X124142857Y-119433333D02*
X124161904Y-119414285D01*
X124180952Y-119357142D01*
X124180952Y-119319047D01*
X124161904Y-119261904D01*
X124123809Y-119223809D01*
X124085714Y-119204761D01*
X124009523Y-119185714D01*
X123952380Y-119185714D01*
X123876190Y-119204761D01*
X123838095Y-119223809D01*
X123800000Y-119261904D01*
X123780952Y-119319047D01*
X123780952Y-119357142D01*
X123800000Y-119414285D01*
X123819047Y-119433333D01*
X124180952Y-119623809D02*
X124180952Y-119700000D01*
X124161904Y-119738095D01*
X124142857Y-119757142D01*
X124085714Y-119795238D01*
X124009523Y-119814285D01*
X123857142Y-119814285D01*
X123819047Y-119795238D01*
X123800000Y-119776190D01*
X123780952Y-119738095D01*
X123780952Y-119661904D01*
X123800000Y-119623809D01*
X123819047Y-119604761D01*
X123857142Y-119585714D01*
X123952380Y-119585714D01*
X123990476Y-119604761D01*
X124009523Y-119623809D01*
X124028571Y-119661904D01*
X124028571Y-119738095D01*
X124009523Y-119776190D01*
X123990476Y-119795238D01*
X123952380Y-119814285D01*
G04 #@! TO.C,C10*
X124142857Y-104242857D02*
X124161904Y-104223809D01*
X124180952Y-104166666D01*
X124180952Y-104128571D01*
X124161904Y-104071428D01*
X124123809Y-104033333D01*
X124085714Y-104014285D01*
X124009523Y-103995238D01*
X123952380Y-103995238D01*
X123876190Y-104014285D01*
X123838095Y-104033333D01*
X123800000Y-104071428D01*
X123780952Y-104128571D01*
X123780952Y-104166666D01*
X123800000Y-104223809D01*
X123819047Y-104242857D01*
X124180952Y-104623809D02*
X124180952Y-104395238D01*
X124180952Y-104509523D02*
X123780952Y-104509523D01*
X123838095Y-104471428D01*
X123876190Y-104433333D01*
X123895238Y-104395238D01*
X123780952Y-104871428D02*
X123780952Y-104909523D01*
X123800000Y-104947619D01*
X123819047Y-104966666D01*
X123857142Y-104985714D01*
X123933333Y-105004761D01*
X124028571Y-105004761D01*
X124104761Y-104985714D01*
X124142857Y-104966666D01*
X124161904Y-104947619D01*
X124180952Y-104909523D01*
X124180952Y-104871428D01*
X124161904Y-104833333D01*
X124142857Y-104814285D01*
X124104761Y-104795238D01*
X124028571Y-104776190D01*
X123933333Y-104776190D01*
X123857142Y-104795238D01*
X123819047Y-104814285D01*
X123800000Y-104833333D01*
X123780952Y-104871428D01*
G04 #@! TO.C,C12*
D14*
X113885714Y-107714285D02*
X113914285Y-107742857D01*
X114000000Y-107771428D01*
X114057142Y-107771428D01*
X114142857Y-107742857D01*
X114200000Y-107685714D01*
X114228571Y-107628571D01*
X114257142Y-107514285D01*
X114257142Y-107428571D01*
X114228571Y-107314285D01*
X114200000Y-107257142D01*
X114142857Y-107200000D01*
X114057142Y-107171428D01*
X114000000Y-107171428D01*
X113914285Y-107200000D01*
X113885714Y-107228571D01*
X113314285Y-107771428D02*
X113657142Y-107771428D01*
X113485714Y-107771428D02*
X113485714Y-107171428D01*
X113542857Y-107257142D01*
X113600000Y-107314285D01*
X113657142Y-107342857D01*
X113085714Y-107228571D02*
X113057142Y-107200000D01*
X113000000Y-107171428D01*
X112857142Y-107171428D01*
X112800000Y-107200000D01*
X112771428Y-107228571D01*
X112742857Y-107285714D01*
X112742857Y-107342857D01*
X112771428Y-107428571D01*
X113114285Y-107771428D01*
X112742857Y-107771428D01*
G04 #@! TO.C,C15*
D13*
X125257142Y-112142857D02*
X125276190Y-112161904D01*
X125333333Y-112180952D01*
X125371428Y-112180952D01*
X125428571Y-112161904D01*
X125466666Y-112123809D01*
X125485714Y-112085714D01*
X125504761Y-112009523D01*
X125504761Y-111952380D01*
X125485714Y-111876190D01*
X125466666Y-111838095D01*
X125428571Y-111800000D01*
X125371428Y-111780952D01*
X125333333Y-111780952D01*
X125276190Y-111800000D01*
X125257142Y-111819047D01*
X124876190Y-112180952D02*
X125104761Y-112180952D01*
X124990476Y-112180952D02*
X124990476Y-111780952D01*
X125028571Y-111838095D01*
X125066666Y-111876190D01*
X125104761Y-111895238D01*
X124514285Y-111780952D02*
X124704761Y-111780952D01*
X124723809Y-111971428D01*
X124704761Y-111952380D01*
X124666666Y-111933333D01*
X124571428Y-111933333D01*
X124533333Y-111952380D01*
X124514285Y-111971428D01*
X124495238Y-112009523D01*
X124495238Y-112104761D01*
X124514285Y-112142857D01*
X124533333Y-112161904D01*
X124571428Y-112180952D01*
X124666666Y-112180952D01*
X124704761Y-112161904D01*
X124723809Y-112142857D01*
G04 #@! TO.C,C16*
D14*
X112785714Y-116885714D02*
X112757142Y-116914285D01*
X112728571Y-117000000D01*
X112728571Y-117057142D01*
X112757142Y-117142857D01*
X112814285Y-117200000D01*
X112871428Y-117228571D01*
X112985714Y-117257142D01*
X113071428Y-117257142D01*
X113185714Y-117228571D01*
X113242857Y-117200000D01*
X113300000Y-117142857D01*
X113328571Y-117057142D01*
X113328571Y-117000000D01*
X113300000Y-116914285D01*
X113271428Y-116885714D01*
X112728571Y-116314285D02*
X112728571Y-116657142D01*
X112728571Y-116485714D02*
X113328571Y-116485714D01*
X113242857Y-116542857D01*
X113185714Y-116600000D01*
X113157142Y-116657142D01*
X113328571Y-115800000D02*
X113328571Y-115914285D01*
X113300000Y-115971428D01*
X113271428Y-116000000D01*
X113185714Y-116057142D01*
X113071428Y-116085714D01*
X112842857Y-116085714D01*
X112785714Y-116057142D01*
X112757142Y-116028571D01*
X112728571Y-115971428D01*
X112728571Y-115857142D01*
X112757142Y-115800000D01*
X112785714Y-115771428D01*
X112842857Y-115742857D01*
X112985714Y-115742857D01*
X113042857Y-115771428D01*
X113071428Y-115800000D01*
X113100000Y-115857142D01*
X113100000Y-115971428D01*
X113071428Y-116028571D01*
X113042857Y-116057142D01*
X112985714Y-116085714D01*
G04 #@! TO.C,C29*
D13*
X100257142Y-111142857D02*
X100276190Y-111161904D01*
X100333333Y-111180952D01*
X100371428Y-111180952D01*
X100428571Y-111161904D01*
X100466666Y-111123809D01*
X100485714Y-111085714D01*
X100504761Y-111009523D01*
X100504761Y-110952380D01*
X100485714Y-110876190D01*
X100466666Y-110838095D01*
X100428571Y-110800000D01*
X100371428Y-110780952D01*
X100333333Y-110780952D01*
X100276190Y-110800000D01*
X100257142Y-110819047D01*
X100104761Y-110819047D02*
X100085714Y-110800000D01*
X100047619Y-110780952D01*
X99952380Y-110780952D01*
X99914285Y-110800000D01*
X99895238Y-110819047D01*
X99876190Y-110857142D01*
X99876190Y-110895238D01*
X99895238Y-110952380D01*
X100123809Y-111180952D01*
X99876190Y-111180952D01*
X99685714Y-111180952D02*
X99609523Y-111180952D01*
X99571428Y-111161904D01*
X99552380Y-111142857D01*
X99514285Y-111085714D01*
X99495238Y-111009523D01*
X99495238Y-110857142D01*
X99514285Y-110819047D01*
X99533333Y-110800000D01*
X99571428Y-110780952D01*
X99647619Y-110780952D01*
X99685714Y-110800000D01*
X99704761Y-110819047D01*
X99723809Y-110857142D01*
X99723809Y-110952380D01*
X99704761Y-110990476D01*
X99685714Y-111009523D01*
X99647619Y-111028571D01*
X99571428Y-111028571D01*
X99533333Y-111009523D01*
X99514285Y-110990476D01*
X99495238Y-110952380D01*
G04 #@! TO.C,C30*
X100257142Y-107142857D02*
X100276190Y-107161904D01*
X100333333Y-107180952D01*
X100371428Y-107180952D01*
X100428571Y-107161904D01*
X100466666Y-107123809D01*
X100485714Y-107085714D01*
X100504761Y-107009523D01*
X100504761Y-106952380D01*
X100485714Y-106876190D01*
X100466666Y-106838095D01*
X100428571Y-106800000D01*
X100371428Y-106780952D01*
X100333333Y-106780952D01*
X100276190Y-106800000D01*
X100257142Y-106819047D01*
X100123809Y-106780952D02*
X99876190Y-106780952D01*
X100009523Y-106933333D01*
X99952380Y-106933333D01*
X99914285Y-106952380D01*
X99895238Y-106971428D01*
X99876190Y-107009523D01*
X99876190Y-107104761D01*
X99895238Y-107142857D01*
X99914285Y-107161904D01*
X99952380Y-107180952D01*
X100066666Y-107180952D01*
X100104761Y-107161904D01*
X100123809Y-107142857D01*
X99628571Y-106780952D02*
X99590476Y-106780952D01*
X99552380Y-106800000D01*
X99533333Y-106819047D01*
X99514285Y-106857142D01*
X99495238Y-106933333D01*
X99495238Y-107028571D01*
X99514285Y-107104761D01*
X99533333Y-107142857D01*
X99552380Y-107161904D01*
X99590476Y-107180952D01*
X99628571Y-107180952D01*
X99666666Y-107161904D01*
X99685714Y-107142857D01*
X99704761Y-107104761D01*
X99723809Y-107028571D01*
X99723809Y-106933333D01*
X99704761Y-106857142D01*
X99685714Y-106819047D01*
X99666666Y-106800000D01*
X99628571Y-106780952D01*
G04 #@! TO.C,C32*
X100257142Y-110142857D02*
X100276190Y-110161904D01*
X100333333Y-110180952D01*
X100371428Y-110180952D01*
X100428571Y-110161904D01*
X100466666Y-110123809D01*
X100485714Y-110085714D01*
X100504761Y-110009523D01*
X100504761Y-109952380D01*
X100485714Y-109876190D01*
X100466666Y-109838095D01*
X100428571Y-109800000D01*
X100371428Y-109780952D01*
X100333333Y-109780952D01*
X100276190Y-109800000D01*
X100257142Y-109819047D01*
X100123809Y-109780952D02*
X99876190Y-109780952D01*
X100009523Y-109933333D01*
X99952380Y-109933333D01*
X99914285Y-109952380D01*
X99895238Y-109971428D01*
X99876190Y-110009523D01*
X99876190Y-110104761D01*
X99895238Y-110142857D01*
X99914285Y-110161904D01*
X99952380Y-110180952D01*
X100066666Y-110180952D01*
X100104761Y-110161904D01*
X100123809Y-110142857D01*
X99723809Y-109819047D02*
X99704761Y-109800000D01*
X99666666Y-109780952D01*
X99571428Y-109780952D01*
X99533333Y-109800000D01*
X99514285Y-109819047D01*
X99495238Y-109857142D01*
X99495238Y-109895238D01*
X99514285Y-109952380D01*
X99742857Y-110180952D01*
X99495238Y-110180952D01*
G04 #@! TO.C,C33*
X100257142Y-108142857D02*
X100276190Y-108161904D01*
X100333333Y-108180952D01*
X100371428Y-108180952D01*
X100428571Y-108161904D01*
X100466666Y-108123809D01*
X100485714Y-108085714D01*
X100504761Y-108009523D01*
X100504761Y-107952380D01*
X100485714Y-107876190D01*
X100466666Y-107838095D01*
X100428571Y-107800000D01*
X100371428Y-107780952D01*
X100333333Y-107780952D01*
X100276190Y-107800000D01*
X100257142Y-107819047D01*
X100123809Y-107780952D02*
X99876190Y-107780952D01*
X100009523Y-107933333D01*
X99952380Y-107933333D01*
X99914285Y-107952380D01*
X99895238Y-107971428D01*
X99876190Y-108009523D01*
X99876190Y-108104761D01*
X99895238Y-108142857D01*
X99914285Y-108161904D01*
X99952380Y-108180952D01*
X100066666Y-108180952D01*
X100104761Y-108161904D01*
X100123809Y-108142857D01*
X99742857Y-107780952D02*
X99495238Y-107780952D01*
X99628571Y-107933333D01*
X99571428Y-107933333D01*
X99533333Y-107952380D01*
X99514285Y-107971428D01*
X99495238Y-108009523D01*
X99495238Y-108104761D01*
X99514285Y-108142857D01*
X99533333Y-108161904D01*
X99571428Y-108180952D01*
X99685714Y-108180952D01*
X99723809Y-108161904D01*
X99742857Y-108142857D01*
G04 #@! TO.C,C34*
X100257142Y-109142857D02*
X100276190Y-109161904D01*
X100333333Y-109180952D01*
X100371428Y-109180952D01*
X100428571Y-109161904D01*
X100466666Y-109123809D01*
X100485714Y-109085714D01*
X100504761Y-109009523D01*
X100504761Y-108952380D01*
X100485714Y-108876190D01*
X100466666Y-108838095D01*
X100428571Y-108800000D01*
X100371428Y-108780952D01*
X100333333Y-108780952D01*
X100276190Y-108800000D01*
X100257142Y-108819047D01*
X100123809Y-108780952D02*
X99876190Y-108780952D01*
X100009523Y-108933333D01*
X99952380Y-108933333D01*
X99914285Y-108952380D01*
X99895238Y-108971428D01*
X99876190Y-109009523D01*
X99876190Y-109104761D01*
X99895238Y-109142857D01*
X99914285Y-109161904D01*
X99952380Y-109180952D01*
X100066666Y-109180952D01*
X100104761Y-109161904D01*
X100123809Y-109142857D01*
X99533333Y-108914285D02*
X99533333Y-109180952D01*
X99628571Y-108761904D02*
X99723809Y-109047619D01*
X99476190Y-109047619D01*
G04 #@! TO.C,C37*
X103757142Y-107642857D02*
X103776190Y-107661904D01*
X103833333Y-107680952D01*
X103871428Y-107680952D01*
X103928571Y-107661904D01*
X103966666Y-107623809D01*
X103985714Y-107585714D01*
X104004761Y-107509523D01*
X104004761Y-107452380D01*
X103985714Y-107376190D01*
X103966666Y-107338095D01*
X103928571Y-107300000D01*
X103871428Y-107280952D01*
X103833333Y-107280952D01*
X103776190Y-107300000D01*
X103757142Y-107319047D01*
X103623809Y-107280952D02*
X103376190Y-107280952D01*
X103509523Y-107433333D01*
X103452380Y-107433333D01*
X103414285Y-107452380D01*
X103395238Y-107471428D01*
X103376190Y-107509523D01*
X103376190Y-107604761D01*
X103395238Y-107642857D01*
X103414285Y-107661904D01*
X103452380Y-107680952D01*
X103566666Y-107680952D01*
X103604761Y-107661904D01*
X103623809Y-107642857D01*
X103242857Y-107280952D02*
X102976190Y-107280952D01*
X103147619Y-107680952D01*
G04 #@! TO.C,C38*
X103757142Y-109642857D02*
X103776190Y-109661904D01*
X103833333Y-109680952D01*
X103871428Y-109680952D01*
X103928571Y-109661904D01*
X103966666Y-109623809D01*
X103985714Y-109585714D01*
X104004761Y-109509523D01*
X104004761Y-109452380D01*
X103985714Y-109376190D01*
X103966666Y-109338095D01*
X103928571Y-109300000D01*
X103871428Y-109280952D01*
X103833333Y-109280952D01*
X103776190Y-109300000D01*
X103757142Y-109319047D01*
X103623809Y-109280952D02*
X103376190Y-109280952D01*
X103509523Y-109433333D01*
X103452380Y-109433333D01*
X103414285Y-109452380D01*
X103395238Y-109471428D01*
X103376190Y-109509523D01*
X103376190Y-109604761D01*
X103395238Y-109642857D01*
X103414285Y-109661904D01*
X103452380Y-109680952D01*
X103566666Y-109680952D01*
X103604761Y-109661904D01*
X103623809Y-109642857D01*
X103147619Y-109452380D02*
X103185714Y-109433333D01*
X103204761Y-109414285D01*
X103223809Y-109376190D01*
X103223809Y-109357142D01*
X103204761Y-109319047D01*
X103185714Y-109300000D01*
X103147619Y-109280952D01*
X103071428Y-109280952D01*
X103033333Y-109300000D01*
X103014285Y-109319047D01*
X102995238Y-109357142D01*
X102995238Y-109376190D01*
X103014285Y-109414285D01*
X103033333Y-109433333D01*
X103071428Y-109452380D01*
X103147619Y-109452380D01*
X103185714Y-109471428D01*
X103204761Y-109490476D01*
X103223809Y-109528571D01*
X103223809Y-109604761D01*
X103204761Y-109642857D01*
X103185714Y-109661904D01*
X103147619Y-109680952D01*
X103071428Y-109680952D01*
X103033333Y-109661904D01*
X103014285Y-109642857D01*
X102995238Y-109604761D01*
X102995238Y-109528571D01*
X103014285Y-109490476D01*
X103033333Y-109471428D01*
X103071428Y-109452380D01*
G04 #@! TO.C,L1*
D15*
X125602380Y-109333333D02*
X125602380Y-108857142D01*
X124602380Y-108857142D01*
X125602380Y-110190476D02*
X125602380Y-109619047D01*
X125602380Y-109904761D02*
X124602380Y-109904761D01*
X124745238Y-109809523D01*
X124840476Y-109714285D01*
X124888095Y-109619047D01*
G04 #@! TO.C,BT1*
D16*
X159785714Y-119428571D02*
X159642857Y-119476190D01*
X159595238Y-119523809D01*
X159547619Y-119619047D01*
X159547619Y-119761904D01*
X159595238Y-119857142D01*
X159642857Y-119904761D01*
X159738095Y-119952380D01*
X160119047Y-119952380D01*
X160119047Y-118952380D01*
X159785714Y-118952380D01*
X159690476Y-119000000D01*
X159642857Y-119047619D01*
X159595238Y-119142857D01*
X159595238Y-119238095D01*
X159642857Y-119333333D01*
X159690476Y-119380952D01*
X159785714Y-119428571D01*
X160119047Y-119428571D01*
X159261904Y-118952380D02*
X158690476Y-118952380D01*
X158976190Y-119952380D02*
X158976190Y-118952380D01*
X157833333Y-119952380D02*
X158404761Y-119952380D01*
X158119047Y-119952380D02*
X158119047Y-118952380D01*
X158214285Y-119095238D01*
X158309523Y-119190476D01*
X158404761Y-119238095D01*
G04 #@! TD*
M02*
