M48
;DRILL file {KiCad (5.0.1)-3} date 06/08/2021 18:40:05
;FORMAT={-:-/ absolute / metric / decimal}
FMAT,2
METRIC,TZ
T1C0.300
T2C0.400
T3C0.550
T4C0.762
T5C0.800
T6C0.850
T7C1.380
%
G90
G05
M71
T1
X83.5Y-109.5
X84.Y-139.
X84.Y-144.
X84.5Y-134.5
X86.Y-118.
X87.Y-111.5
X87.Y-123.
X89.5Y-105.
X89.5Y-144.
X90.5Y-126.
X91.Y-116.5
X92.Y-108.
X92.5Y-112.5
X93.5Y-96.5
X94.Y-121.5
X94.Y-129.
X94.5Y-91.5
X95.Y-103.5
X95.Y-144.
X96.Y-96.5
X96.5Y-98.5
X96.5Y-124.5
X97.8Y-107.5
X97.8Y-108.8
X97.8Y-110.1
X98.Y-114.
X98.Y-117.5
X99.Y-105.25
X99.75Y-110.25
X100.Y-96.5
X100.Y-144.
X100.5Y-91.5
X100.5Y-102.
X100.5Y-121.
X101.Y-131.5
X101.25Y-108.5
X101.25Y-110.5
X101.5Y-114.
X101.5Y-127.5
X102.2Y-107.5
X102.2Y-109.5
X102.5Y-136.5
X103.5Y-98.5
X104.Y-100.
X104.Y-117.5
X104.5Y-122.5
X104.75Y-107.5
X105.5Y-114.
X106.Y-131.5
X106.5Y-96.5
X106.5Y-101.5
X106.5Y-127.5
X106.75Y-105.
X107.Y-117.5
X110.Y-91.5
X110.Y-100.5
X110.5Y-97.
X110.5Y-103.5
X110.5Y-119.5
X110.5Y-121.25
X111.Y-121.75
X111.5Y-105.3
X111.5Y-122.25
X111.5Y-131.5
X112.Y-122.75
X112.Y-127.5
X112.015Y-118.
X112.25Y-102.5
X112.8Y-105.6
X113.Y-99.5
X113.Y-112.5
X113.5Y-110.
X113.5Y-115.
X115.Y-91.5
X115.5Y-106.5
X116.Y-107.
X116.Y-137.
X116.5Y-107.5
X116.5Y-122.5
X117.Y-108.
X117.Y-125.5
X117.Y-129.
X117.Y-131.5
X117.5Y-108.5
X118.Y-109.
X118.5Y-109.5
X119.Y-110.
X119.Y-115.25
X120.Y-117.5
X120.5Y-91.5
X120.5Y-109.5
X120.5Y-113.5
X120.5Y-144.5
X121.5Y-125.5
X121.5Y-129.
X121.5Y-131.5
X122.Y-107.
X122.Y-117.
X122.Y-137.5
X123.Y-114.25
X123.3Y-105.6
X123.5Y-121.75
X124.Y-108.2
X124.Y-118.5
X124.2Y-111.7
X124.3Y-115.5
X124.75Y-126.25
X125.5Y-102.5
X126.Y-119.
X126.5Y-129.
X126.5Y-131.5
X127.Y-91.5
X128.Y-98.5
X128.Y-105.
X128.Y-109.
X128.Y-116.5
X128.Y-136.
X130.5Y-98.5
X130.5Y-102.5
X132.5Y-122.5
X132.5Y-128.5
X132.5Y-131.5
X133.Y-126.
X133.Y-145.
X133.5Y-91.5
X133.5Y-98.
X133.5Y-105.5
X135.5Y-101.
X135.5Y-122.5
X136.Y-116.
X136.5Y-126.
X137.5Y-105.5
X137.5Y-109.5
X138.Y-98.5
X139.Y-122.5
X139.Y-136.
X139.Y-140.5
X139.5Y-91.5
X139.5Y-96.5
X140.5Y-101.5
X141.5Y-119.5
X141.5Y-135.
X141.5Y-140.5
X143.Y-106.
X143.Y-110.
X143.Y-112.
X143.5Y-138.5
X143.985Y-106.5
X144.Y-115.5
X144.5Y-101.
X145.Y-110.
X145.Y-112.
X145.5Y-130.
X145.5Y-140.5
X146.5Y-111.
X146.5Y-117.5
X146.5Y-130.
X146.5Y-140.5
X147.Y-101.
X147.5Y-96.5
X148.Y-99.5
X148.Y-138.5
X149.5Y-104.5
X149.5Y-109.
X150.Y-91.
X150.Y-101.5
X150.Y-112.
X151.Y-98.
X151.Y-114.5
X151.5Y-134.5
X151.5Y-141.5
X152.5Y-144.5
X153.Y-114.5
X153.Y-134.5
X153.Y-141.5
X153.5Y-112.
X154.5Y-134.5
X154.5Y-141.5
X154.975Y-111.05
X156.Y-118.5
X156.Y-136.
X156.Y-138.
X156.Y-140.
X157.Y-105.
X157.Y-144.5
X159.5Y-117.
X161.Y-105.
X161.Y-144.5
X161.5Y-129.5
X161.5Y-134.5
X162.Y-117.5
T2
X88.5Y-108.5
X97.Y-104.
X111.75Y-116.
X126.25Y-121.75
X133.5Y-136.
X138.Y-144.5
X138.5Y-132.
X139.Y-128.
X141.5Y-131.5
X142.Y-144.5
X144.Y-122.
X144.095Y-130.
X146.Y-126.5
X146.Y-144.5
X150.Y-118.512
T4
X96.5Y-93.56
X99.04Y-93.56
X101.58Y-93.56
X104.12Y-93.56
X105.47Y-141.88
X106.66Y-93.56
X108.01Y-141.88
X109.2Y-93.56
X110.55Y-141.88
X111.74Y-93.56
X113.09Y-141.88
X114.28Y-93.56
X115.63Y-141.88
X118.17Y-141.88
X118.41Y-93.56
X120.95Y-93.56
X123.3Y-141.88
X123.49Y-93.56
X125.84Y-141.88
X126.03Y-93.56
X128.38Y-141.88
X128.57Y-93.56
X130.92Y-141.88
X131.11Y-93.56
X133.46Y-141.88
X133.65Y-93.56
X136.Y-141.88
X136.19Y-93.56
T3
X81.875Y-105.125G85X81.225Y-105.125
G05
X81.875Y-112.875G85X81.225Y-112.875
G05
T5
X154.35Y-91.5G85X153.65Y-91.5
G05
X154.35Y-94.G85X153.65Y-94.
G05
X154.35Y-99.G85X153.65Y-99.
G05
X154.35Y-101.5G85X153.65Y-101.5
G05
X159.Y-96.85G85X159.Y-96.15
G05
X84.5Y-96.15G85X84.5Y-96.85
G05
X89.15Y-91.5G85X89.85Y-91.5
G05
X89.15Y-94.G85X89.85Y-94.
G05
X89.15Y-99.G85X89.85Y-99.
G05
X89.15Y-101.5G85X89.85Y-101.5
G05
T6
X85.625Y-105.275G85X85.075Y-105.275
G05
X85.625Y-112.725G85X85.075Y-112.725
G05
T7
X158.3Y-137.49G85X158.3Y-138.51
G05
X85.4Y-129.51G85X85.4Y-128.49
G05
X158.3Y-129.51G85X158.3Y-128.49
G05
T0
M30
