M48
;DRILL file {KiCad (5.0.1)-3} date 06/11/2021 13:36:01
;FORMAT={-:-/ absolute / metric / decimal}
FMAT,2
METRIC,TZ
T1C0.200
T2C0.300
T3C0.400
T4C0.550
T5C0.762
T6C0.770
T7C0.800
T8C0.850
T9C1.380
%
G90
G05
M71
T1
X90.85Y-136.
X90.85Y-137.
X90.85Y-138.
X92.15Y-136.
X92.15Y-137.
X92.15Y-138.
T2
X95.025Y-111.
X96.5Y-105.
X99.Y-109.5
X107.Y-106.5
X107.Y-108.5
X107.Y-109.5
X109.5Y-109.5
X111.5Y-107.025
X111.5Y-108.975
X113.Y-107.
X118.Y-124.5
X118.5Y-104.975
X118.75Y-116.25
X118.75Y-117.75
X119.Y-98.5
X120.Y-105.25
X121.5Y-99.
X123.Y-116.
X124.Y-116.
X125.Y-116.
X126.Y-116.
X127.Y-116.
X128.Y-116.
X129.5Y-101.5
X130.Y-105.25
X131.Y-112.5
X131.Y-117.
X132.5Y-101.5
X132.5Y-107.75
X139.Y-119.5
X139.5Y-101.5
X141.5Y-100.
X141.5Y-101.5
X149.5Y-103.
X158.475Y-119.5
T3
X85.5Y-134.
X85.5Y-141.
X87.5Y-119.
X87.5Y-122.5
X89.Y-139.
X91.5Y-108.
X91.5Y-134.
X91.5Y-140.5
X93.Y-103.
X93.Y-113.
X94.Y-135.095
X95.Y-96.5
X95.Y-103.
X95.Y-108.
X99.Y-96.5
X100.Y-113.
X100.Y-119.
X100.Y-122.5
X100.Y-131.5
X100.Y-135.
X100.Y-138.
X101.Y-101.
X101.Y-111.
X103.5Y-101.5
X103.5Y-105.
X103.5Y-109.
X103.5Y-113.
X104.5Y-115.5
X106.5Y-101.5
X106.5Y-104.
X106.5Y-112.
X106.5Y-126.5
X108.5Y-117.
X111.5Y-103.5
X111.5Y-112.5
X114.Y-134.5
X115.Y-111.
X115.Y-113.5
X115.Y-117.
X115.Y-120.
X115.5Y-103.5
X116.Y-131.5
X116.5Y-91.5
X118.5Y-101.5
X119.5Y-108.5
X119.5Y-111.5
X120.5Y-114.5
X121.5Y-108.5
X121.5Y-131.
X121.5Y-137.5
X122.Y-121.5
X122.Y-124.5
X124.5Y-110.
X128.5Y-106.
X129.Y-99.
X129.5Y-115.5
X129.5Y-130.
X130.5Y-121.5
X133.5Y-126.
X133.5Y-129.
X133.5Y-131.
X135.Y-123.
X135.5Y-98.
X136.Y-103.5
X136.Y-105.5
X136.Y-134.
X136.5Y-108.5
X137.5Y-105.5
X138.Y-137.5
X138.Y-140.5
X139.Y-117.
X139.5Y-105.5
X139.5Y-129.062
X140.5Y-96.
X141.Y-137.5
X141.Y-140.5
X141.5Y-105.5
X142.Y-122.5
X142.Y-132.5
X143.5Y-105.5
X144.Y-118.
X145.5Y-96.
X145.5Y-122.5
X146.Y-100.5
X146.Y-111.
X146.Y-118.
X146.Y-126.
X147.Y-116.5
X147.Y-146.
X148.Y-129.
X148.Y-132.5
X148.Y-146.
X149.Y-146.
X149.5Y-116.
X150.Y-146.
X151.Y-111.
X151.Y-121.5
X151.Y-130.
X151.Y-146.
X151.5Y-101.5
X151.5Y-142.
X151.5Y-143.
X151.5Y-144.
X151.5Y-145.
X152.5Y-91.
X152.5Y-116.
X152.5Y-137.5
X154.5Y-132.5
X155.5Y-102.
X155.5Y-105.5
X156.Y-116.
X156.Y-124.
X156.Y-126.5
X160.Y-140.
X160.5Y-124.
X160.5Y-126.5
X162.5Y-122.
X164.5Y-122.
X165.5Y-106.
X165.5Y-139.
T5
X96.5Y-94.068
X99.04Y-94.068
X101.58Y-94.068
X104.12Y-94.068
X105.47Y-142.388
X106.66Y-94.068
X108.01Y-142.388
X109.2Y-94.068
X110.55Y-142.388
X111.74Y-94.068
X113.09Y-142.388
X114.28Y-94.068
X115.63Y-142.388
X118.17Y-142.388
X118.41Y-94.068
X120.95Y-94.068
X123.3Y-142.388
X123.49Y-94.068
X125.84Y-142.388
X126.03Y-94.068
X128.38Y-142.388
X128.57Y-94.068
X130.92Y-142.388
X131.11Y-94.068
X133.46Y-142.388
X133.65Y-94.068
X136.Y-142.388
X136.19Y-94.068
T6
X159.75Y-112.5
X162.25Y-112.5
T4
X81.875Y-117.125G85X81.225Y-117.125
G05
X81.875Y-124.875G85X81.225Y-124.875
G05
T7
X155.5Y-99.15G85X155.5Y-99.85
G05
X158.Y-99.15G85X158.Y-99.85
G05
X160.85Y-94.5G85X160.15Y-94.5
G05
X163.Y-99.15G85X163.Y-99.85
G05
X165.5Y-99.15G85X165.5Y-99.85
G05
X81.5Y-99.15G85X81.5Y-99.85
G05
X84.Y-99.15G85X84.Y-99.85
G05
X86.85Y-94.5G85X86.15Y-94.5
G05
X89.Y-99.15G85X89.Y-99.85
G05
X91.5Y-99.15G85X91.5Y-99.85
G05
T8
X85.625Y-117.275G85X85.075Y-117.275
G05
X85.625Y-124.725G85X85.075Y-124.725
G05
T9
X85.4Y-130.51G85X85.4Y-129.49
G05
X158.3Y-130.51G85X158.3Y-129.49
G05
T0
M30
