M48
;DRILL file {KiCad (5.0.1)-3} date 19/09/2021 15:47:19
;FORMAT={-:-/ absolute / metric / decimal}
FMAT,2
METRIC,TZ
T1C0.200
T2C0.300
T3C0.400
T4C0.550
T5C0.762
T6C0.800
T7C0.850
T8C1.380
%
G90
G05
M71
T1
X94.6Y-127.
X94.6Y-128.
X94.6Y-129.
X95.9Y-127.
X95.9Y-128.
X95.9Y-129.
T2
X83.5Y-109.
X86.75Y-107.5
X86.75Y-110.5
X92.Y-103.5
X92.68Y-130.
X93.5Y-98.75
X93.5Y-101.485
X93.75Y-96.5
X93.75Y-109.5
X95.5Y-107.
X95.5Y-108.
X95.5Y-109.5
X96.Y-98.75
X96.Y-111.5
X96.5Y-105.25
X97.82Y-126.
X98.25Y-107.5
X98.25Y-108.75
X98.25Y-110.
X99.5Y-110.25
X100.Y-96.5
X100.5Y-101.75
X100.5Y-103.75
X100.75Y-106.25
X100.75Y-108.5
X100.75Y-110.5
X100.75Y-113.25
X101.75Y-107.525
X101.75Y-109.475
X104.25Y-100.
X104.75Y-107.5
X105.Y-119.
X105.25Y-114.75
X105.485Y-104.5
X106.5Y-101.5
X107.5Y-110.
X111.75Y-106.25
X112.Y-112.5
X112.Y-117.25
X112.25Y-108.5
X113.75Y-106.25
X114.Y-108.5
X114.75Y-112.5
X115.25Y-106.25
X116.75Y-95.75
X116.75Y-116.5
X117.75Y-116.5
X118.5Y-108.75
X118.75Y-116.5
X119.75Y-116.5
X120.Y-106.5
X120.75Y-116.5
X121.5Y-100.5
X121.75Y-116.5
X122.Y-110.5
X122.5Y-105.75
X123.Y-101.75
X123.Y-113.
X123.5Y-115.515
X124.Y-111.75
X124.Y-114.25
X124.25Y-97.5
X127.Y-108.25
X127.Y-113.5
X127.5Y-109.
X129.Y-101.75
X129.5Y-108.5
X132.25Y-101.25
X133.235Y-99.985
X133.5Y-110.75
X136.5Y-100.75
X138.Y-98.5
X139.Y-106.75
X139.5Y-96.75
X140.Y-101.
X141.25Y-119.25
X141.5Y-94.5
X143.Y-106.
X143.43Y-103.5
X143.5Y-101.
X144.5Y-119.5
X146.5Y-122.
X146.5Y-125.75
X147.Y-101.
X152.Y-112.
X152.Y-115.
X152.Y-117.
X153.75Y-112.
X155.025Y-114.
X156.25Y-118.5
X157.Y-115.25
T3
X81.5Y-144.75
X81.75Y-119.
X81.75Y-133.25
X88.75Y-112.5
X90.Y-107.
X92.75Y-123.75
X93.25Y-116.25
X93.75Y-106.
X94.Y-92.75
X96.25Y-121.
X96.75Y-114.
X99.75Y-121.
X100.5Y-131.5
X101.25Y-117.25
X105.25Y-96.75
X105.75Y-145.
X106.Y-122.75
X107.5Y-128.5
X107.5Y-131.5
X108.5Y-104.5
X111.Y-99.75
X112.5Y-122.75
X112.75Y-128.5
X112.75Y-131.25
X113.Y-91.25
X114.75Y-116.75
X117.5Y-123.5
X119.75Y-131.75
X121.75Y-137.5
X122.75Y-117.5
X124.5Y-131.75
X125.75Y-105.
X126.Y-120.75
X127.25Y-131.75
X127.25Y-145.25
X129.75Y-125.75
X129.75Y-131.75
X130.5Y-119.75
X130.75Y-98.
X131.Y-107.25
X132.Y-117.25
X132.25Y-132.5
X132.75Y-104.5
X133.Y-91.25
X133.75Y-128.75
X134.25Y-109.
X134.75Y-134.
X136.5Y-120.5
X136.5Y-125.25
X137.25Y-102.5
X138.Y-137.25
X138.25Y-109.5
X138.25Y-112.
X139.75Y-127.75
X140.Y-131.5
X142.25Y-127.75
X142.25Y-131.75
X142.25Y-142.
X143.5Y-109.5
X143.5Y-112.
X145.25Y-127.75
X145.25Y-131.75
X145.5Y-138.5
X145.75Y-109.75
X145.75Y-113.
X146.Y-136.25
X146.5Y-143.5
X147.25Y-91.5
X147.5Y-117.5
X147.5Y-132.25
X148.75Y-97.5
X148.75Y-105.
X149.5Y-127.75
X149.5Y-131.5
X149.75Y-101.75
X149.75Y-125.
X150.Y-120.25
X150.5Y-136.
X150.5Y-137.
X150.5Y-138.
X150.5Y-139.
X150.5Y-140.
X155.5Y-136.
X155.5Y-137.
X155.5Y-138.
X155.5Y-139.
X155.5Y-140.
X160.75Y-143.75
X161.25Y-105.
X161.25Y-117.25
T5
X96.5Y-93.56
X99.04Y-93.56
X101.58Y-93.56
X104.12Y-93.56
X105.47Y-141.88
X106.66Y-93.56
X108.01Y-141.88
X109.2Y-93.56
X110.55Y-141.88
X111.74Y-93.56
X113.09Y-141.88
X114.28Y-93.56
X115.63Y-141.88
X118.17Y-141.88
X118.41Y-93.56
X120.95Y-93.56
X123.3Y-141.88
X123.49Y-93.56
X125.84Y-141.88
X126.03Y-93.56
X128.38Y-141.88
X128.57Y-93.56
X130.92Y-141.88
X131.11Y-93.56
X133.46Y-141.88
X133.65Y-93.56
X136.Y-141.88
X136.19Y-93.56
T4
X81.875Y-105.125G85X81.225Y-105.125
G05
X81.875Y-112.875G85X81.225Y-112.875
G05
T6
X154.35Y-91.5G85X153.65Y-91.5
G05
X154.35Y-94.G85X153.65Y-94.
G05
X154.35Y-99.G85X153.65Y-99.
G05
X154.35Y-101.5G85X153.65Y-101.5
G05
X159.Y-96.85G85X159.Y-96.15
G05
X84.5Y-96.15G85X84.5Y-96.85
G05
X89.15Y-91.5G85X89.85Y-91.5
G05
X89.15Y-94.G85X89.85Y-94.
G05
X89.15Y-99.G85X89.85Y-99.
G05
X89.15Y-101.5G85X89.85Y-101.5
G05
T7
X85.625Y-105.275G85X85.075Y-105.275
G05
X85.625Y-112.725G85X85.075Y-112.725
G05
T8
X85.4Y-129.51G85X85.4Y-128.49
G05
X158.3Y-129.51G85X158.3Y-128.49
G05
T0
M30
