G04 #@! TF.GenerationSoftware,KiCad,Pcbnew,(5.0.1)-3*
G04 #@! TF.CreationDate,2021-09-23T20:30:51+02:00*
G04 #@! TF.ProjectId,pocketDSP,706F636B65744453502E6B696361645F,rev?*
G04 #@! TF.SameCoordinates,Original*
G04 #@! TF.FileFunction,Soldermask,Bot*
G04 #@! TF.FilePolarity,Negative*
%FSLAX46Y46*%
G04 Gerber Fmt 4.6, Leading zero omitted, Abs format (unit mm)*
G04 Created by KiCad (PCBNEW (5.0.1)-3) date 23/09/2021 20:30:51*
%MOMM*%
%LPD*%
G01*
G04 APERTURE LIST*
%ADD10C,0.010000*%
%ADD11C,0.050800*%
G04 APERTURE END LIST*
D10*
G04 #@! TO.C,G\002A\002A\002A*
G36*
X161130573Y-141410567D02*
X161015663Y-141434683D01*
X160886138Y-141472463D01*
X160780002Y-141517466D01*
X160686839Y-141574881D01*
X160611757Y-141635808D01*
X160578474Y-141670126D01*
X160538999Y-141717335D01*
X160499457Y-141769175D01*
X160465974Y-141817388D01*
X160444675Y-141853715D01*
X160440267Y-141867022D01*
X160425916Y-141878707D01*
X160393700Y-141876512D01*
X160225069Y-141848792D01*
X160067292Y-141838401D01*
X159909205Y-141845559D01*
X159739646Y-141870482D01*
X159640091Y-141891245D01*
X159494072Y-141928650D01*
X159371347Y-141971006D01*
X159261349Y-142022788D01*
X159153509Y-142088473D01*
X159120111Y-142111479D01*
X158987870Y-142212662D01*
X158879745Y-142314396D01*
X158786943Y-142425225D01*
X158762699Y-142458775D01*
X158692835Y-142558373D01*
X158588651Y-142420082D01*
X158466164Y-142272249D01*
X158329849Y-142133571D01*
X158185980Y-142009375D01*
X158040831Y-141904991D01*
X157900674Y-141825745D01*
X157874904Y-141813872D01*
X157785182Y-141779995D01*
X157673854Y-141746694D01*
X157550994Y-141716191D01*
X157426676Y-141690707D01*
X157310975Y-141672463D01*
X157213964Y-141663682D01*
X157191756Y-141663222D01*
X157090403Y-141669289D01*
X156971565Y-141685776D01*
X156848031Y-141710155D01*
X156732589Y-141739897D01*
X156638030Y-141772471D01*
X156636823Y-141772974D01*
X156583189Y-141800420D01*
X156516003Y-141841797D01*
X156444924Y-141890360D01*
X156379611Y-141939365D01*
X156329721Y-141982068D01*
X156314134Y-141998294D01*
X156299186Y-142014484D01*
X156282633Y-142026129D01*
X156258869Y-142034121D01*
X156222288Y-142039351D01*
X156167286Y-142042710D01*
X156088256Y-142045092D01*
X156009334Y-142046782D01*
X155866273Y-142050949D01*
X155747977Y-142057870D01*
X155645378Y-142068851D01*
X155549404Y-142085197D01*
X155450986Y-142108213D01*
X155341054Y-142139203D01*
X155317265Y-142146358D01*
X155213529Y-142180154D01*
X155129712Y-142214031D01*
X155052423Y-142254169D01*
X154968269Y-142306749D01*
X154964921Y-142308965D01*
X154870029Y-142373726D01*
X154796456Y-142429414D01*
X154736013Y-142483572D01*
X154680508Y-142543742D01*
X154621751Y-142617468D01*
X154603284Y-142641992D01*
X154496612Y-142811485D01*
X154419283Y-142993297D01*
X154372801Y-143182919D01*
X154358650Y-143373715D01*
X154366015Y-143478849D01*
X154384262Y-143597317D01*
X154410833Y-143717803D01*
X154443168Y-143828990D01*
X154478710Y-143919562D01*
X154484921Y-143932161D01*
X154523968Y-144008255D01*
X154451232Y-144103897D01*
X154407098Y-144168927D01*
X154375693Y-144235180D01*
X154350480Y-144317189D01*
X154344567Y-144341069D01*
X154319673Y-144470574D01*
X154312568Y-144587143D01*
X154323262Y-144705646D01*
X154344867Y-144812800D01*
X154392754Y-144950413D01*
X154471530Y-145089304D01*
X154581734Y-145230079D01*
X154723906Y-145373348D01*
X154898588Y-145519719D01*
X155106320Y-145669800D01*
X155106383Y-145669842D01*
X155245347Y-145759832D01*
X155375500Y-145834039D01*
X155505104Y-145895968D01*
X155642421Y-145949122D01*
X155795712Y-145997005D01*
X155973239Y-146043121D01*
X156003733Y-146050401D01*
X156117154Y-146076432D01*
X156207044Y-146094744D01*
X156282525Y-146106620D01*
X156352717Y-146113340D01*
X156426738Y-146116184D01*
X156474858Y-146116563D01*
X156641345Y-146107644D01*
X156821707Y-146082340D01*
X157005482Y-146043080D01*
X157182208Y-145992296D01*
X157341421Y-145932419D01*
X157414059Y-145898372D01*
X157479922Y-145859981D01*
X157561597Y-145805304D01*
X157650041Y-145741055D01*
X157736208Y-145673948D01*
X157811052Y-145610698D01*
X157847642Y-145576524D01*
X157900676Y-145519073D01*
X157963117Y-145443662D01*
X158029334Y-145357942D01*
X158093696Y-145269570D01*
X158150573Y-145186197D01*
X158194335Y-145115477D01*
X158213277Y-145079500D01*
X158233957Y-145040185D01*
X158250167Y-145018273D01*
X158253563Y-145016602D01*
X158267541Y-145029696D01*
X158296109Y-145064326D01*
X158334332Y-145114354D01*
X158356703Y-145144856D01*
X158470257Y-145284948D01*
X158606233Y-145424915D01*
X158758496Y-145560115D01*
X158920906Y-145685904D01*
X159087327Y-145797640D01*
X159251623Y-145890681D01*
X159407654Y-145960383D01*
X159458134Y-145978070D01*
X159623753Y-146027680D01*
X159766577Y-146061283D01*
X159893329Y-146079474D01*
X160010731Y-146082847D01*
X160125506Y-146071996D01*
X160244061Y-146047597D01*
X160403466Y-145992921D01*
X160537831Y-145915486D01*
X160647464Y-145814988D01*
X160732677Y-145691122D01*
X160793779Y-145543586D01*
X160807031Y-145496339D01*
X160847495Y-145336986D01*
X160811623Y-145184191D01*
X160789265Y-145101738D01*
X160761792Y-145018650D01*
X160734265Y-144949874D01*
X160727535Y-144935808D01*
X160699321Y-144875353D01*
X160689492Y-144838272D01*
X160698424Y-144819255D01*
X160726491Y-144812994D01*
X160736239Y-144812800D01*
X160761666Y-144818270D01*
X160780830Y-144839719D01*
X160799606Y-144884709D01*
X160805314Y-144901700D01*
X160863391Y-145042431D01*
X160946289Y-145190741D01*
X161048832Y-145338489D01*
X161165843Y-145477534D01*
X161183174Y-145495936D01*
X161249492Y-145558144D01*
X161333342Y-145626241D01*
X161426465Y-145694481D01*
X161520605Y-145757120D01*
X161607504Y-145808412D01*
X161678907Y-145842612D01*
X161684413Y-145844700D01*
X161775689Y-145874951D01*
X161879142Y-145903844D01*
X161985446Y-145929278D01*
X162085274Y-145949153D01*
X162169300Y-145961370D01*
X162215257Y-145964245D01*
X162276583Y-145959569D01*
X162360193Y-145946956D01*
X162456042Y-145928556D01*
X162554086Y-145906522D01*
X162644280Y-145883007D01*
X162716580Y-145860161D01*
X162735861Y-145852696D01*
X162790992Y-145826388D01*
X162841006Y-145797355D01*
X162848045Y-145792547D01*
X162893623Y-145760168D01*
X163025845Y-145866549D01*
X163193501Y-145992523D01*
X163355573Y-146094204D01*
X163520300Y-146175266D01*
X163695922Y-146239382D01*
X163890678Y-146290225D01*
X164042435Y-146319823D01*
X164179264Y-146340317D01*
X164296047Y-146349687D01*
X164404588Y-146348316D01*
X164516695Y-146336588D01*
X164524458Y-146335466D01*
X164649890Y-146313260D01*
X164776655Y-146284065D01*
X164894559Y-146250616D01*
X164993405Y-146215644D01*
X165028523Y-146200341D01*
X165188811Y-146110390D01*
X165344717Y-145996459D01*
X165486982Y-145866284D01*
X165606348Y-145727604D01*
X165625064Y-145701800D01*
X165685957Y-145610976D01*
X165731721Y-145530316D01*
X165767377Y-145448517D01*
X165797947Y-145354275D01*
X165824347Y-145253232D01*
X165855165Y-145106889D01*
X165871482Y-144972988D01*
X165872459Y-144875255D01*
X165314249Y-144875255D01*
X165305381Y-145035016D01*
X165269565Y-145187993D01*
X165211172Y-145319471D01*
X165127932Y-145436033D01*
X165018605Y-145544337D01*
X164890899Y-145638343D01*
X164752521Y-145712013D01*
X164670668Y-145742962D01*
X164558403Y-145768332D01*
X164424455Y-145781676D01*
X164278857Y-145782856D01*
X164131638Y-145771731D01*
X164010898Y-145752116D01*
X163806352Y-145691964D01*
X163611049Y-145600225D01*
X163426817Y-145478355D01*
X163255486Y-145327810D01*
X163098884Y-145150049D01*
X162958842Y-144946529D01*
X162922998Y-144885394D01*
X162860468Y-144769380D01*
X162792140Y-144633323D01*
X162722563Y-144487036D01*
X162656284Y-144340336D01*
X162597852Y-144203036D01*
X162551815Y-144084953D01*
X162550918Y-144082484D01*
X162493342Y-143923800D01*
X162371936Y-143926158D01*
X162253076Y-143939064D01*
X162159605Y-143973192D01*
X162089881Y-144029356D01*
X162053167Y-144084479D01*
X162020884Y-144178008D01*
X162021578Y-144269726D01*
X162046896Y-144347834D01*
X162083895Y-144408573D01*
X162132373Y-144460632D01*
X162183732Y-144496296D01*
X162225408Y-144508000D01*
X162272604Y-144492241D01*
X162310547Y-144449212D01*
X162333901Y-144385280D01*
X162335436Y-144376711D01*
X162345585Y-144334420D01*
X162364603Y-144315064D01*
X162402434Y-144307816D01*
X162456999Y-144318649D01*
X162515313Y-144357963D01*
X162574013Y-144421127D01*
X162629736Y-144503511D01*
X162679121Y-144600483D01*
X162718805Y-144707414D01*
X162734388Y-144764984D01*
X162753650Y-144864886D01*
X162758182Y-144947741D01*
X162747956Y-145027011D01*
X162733778Y-145081669D01*
X162686311Y-145186337D01*
X162614146Y-145271694D01*
X162521086Y-145336721D01*
X162410934Y-145380397D01*
X162287495Y-145401703D01*
X162154570Y-145399620D01*
X162015965Y-145373129D01*
X161875482Y-145321209D01*
X161862667Y-145315154D01*
X161791988Y-145274891D01*
X161717237Y-145218916D01*
X161631856Y-145142124D01*
X161598305Y-145109443D01*
X161525378Y-145034923D01*
X161471441Y-144972968D01*
X161429540Y-144914379D01*
X161392722Y-144849953D01*
X161374107Y-144812800D01*
X161315788Y-144679520D01*
X161277898Y-144557663D01*
X161257278Y-144434353D01*
X161250863Y-144310745D01*
X161256435Y-144180084D01*
X161277471Y-144073774D01*
X161315802Y-143985164D01*
X161356596Y-143926813D01*
X161400032Y-143883739D01*
X161457099Y-143839688D01*
X161518181Y-143800803D01*
X161573663Y-143773227D01*
X161612900Y-143763092D01*
X161637959Y-143751073D01*
X161642533Y-143737533D01*
X161628539Y-143716586D01*
X161610445Y-143712133D01*
X161581273Y-143704802D01*
X161531261Y-143685256D01*
X161469479Y-143657165D01*
X161445694Y-143645462D01*
X161385703Y-143616435D01*
X161338106Y-143595516D01*
X161310156Y-143585801D01*
X161305976Y-143585847D01*
X161299601Y-143605196D01*
X161290817Y-143647295D01*
X161284870Y-143682151D01*
X161269912Y-143742660D01*
X161243919Y-143817079D01*
X161212386Y-143889760D01*
X161210875Y-143892839D01*
X161130969Y-144020125D01*
X161031475Y-144121206D01*
X160915243Y-144195246D01*
X160785123Y-144241408D01*
X160643964Y-144258856D01*
X160494616Y-144246751D01*
X160339929Y-144204258D01*
X160261860Y-144171535D01*
X160171923Y-144120720D01*
X160090587Y-144058540D01*
X160023119Y-143990563D01*
X159974784Y-143922355D01*
X159950847Y-143859482D01*
X159949200Y-143841017D01*
X159962451Y-143799484D01*
X160000004Y-143779154D01*
X160058560Y-143781606D01*
X160068508Y-143783923D01*
X160117494Y-143793058D01*
X160151577Y-143787450D01*
X160183279Y-143767839D01*
X160214841Y-143735484D01*
X160230022Y-143691419D01*
X160233660Y-143657876D01*
X160234023Y-143608181D01*
X160222335Y-143574323D01*
X160191929Y-143540778D01*
X160178037Y-143528346D01*
X160108300Y-143486342D01*
X160034521Y-143474904D01*
X159961771Y-143491981D01*
X159895121Y-143535522D01*
X159839642Y-143603476D01*
X159804939Y-143679253D01*
X159787212Y-143760770D01*
X159778636Y-143864423D01*
X159779420Y-143979682D01*
X159789770Y-144096019D01*
X159795930Y-144136437D01*
X159821202Y-144259225D01*
X159855891Y-144384027D01*
X159901845Y-144515468D01*
X159960914Y-144658172D01*
X160034946Y-144816765D01*
X160125790Y-144995873D01*
X160181369Y-145100666D01*
X160229169Y-145192622D01*
X160260370Y-145261841D01*
X160276331Y-145314297D01*
X160278411Y-145355967D01*
X160267968Y-145392827D01*
X160253800Y-145419185D01*
X160209249Y-145469850D01*
X160146177Y-145502961D01*
X160059902Y-145520292D01*
X159976928Y-145524000D01*
X159825096Y-145508558D01*
X159665076Y-145463961D01*
X159500470Y-145392800D01*
X159334883Y-145297667D01*
X159171917Y-145181154D01*
X159015175Y-145045854D01*
X158868261Y-144894358D01*
X158734778Y-144729258D01*
X158618329Y-144553146D01*
X158611793Y-144541995D01*
X158584524Y-144494222D01*
X158544473Y-144422864D01*
X158495061Y-144334075D01*
X158439709Y-144234008D01*
X158381838Y-144128818D01*
X158361107Y-144090992D01*
X158227316Y-143850931D01*
X158104944Y-143640858D01*
X157992799Y-143459332D01*
X157889688Y-143304910D01*
X157794420Y-143176149D01*
X157705804Y-143071606D01*
X157622647Y-142989840D01*
X157543758Y-142929407D01*
X157467945Y-142888865D01*
X157394016Y-142866772D01*
X157345440Y-142861588D01*
X157304375Y-142865578D01*
X157249327Y-142877626D01*
X157189384Y-142894808D01*
X157133635Y-142914200D01*
X157091169Y-142932876D01*
X157071074Y-142947915D01*
X157070533Y-142950033D01*
X157082691Y-142965554D01*
X157115338Y-142997110D01*
X157162737Y-143039312D01*
X157193300Y-143065348D01*
X157335442Y-143198903D01*
X157466383Y-143349620D01*
X157579817Y-143509217D01*
X157669437Y-143669413D01*
X157692881Y-143721400D01*
X157746823Y-143867256D01*
X157782118Y-144009202D01*
X157801030Y-144159275D01*
X157805878Y-144321733D01*
X157804524Y-144421228D01*
X157800918Y-144496414D01*
X157793855Y-144556833D01*
X157782129Y-144612028D01*
X157764534Y-144671540D01*
X157759875Y-144685800D01*
X157693513Y-144840366D01*
X157598935Y-144992927D01*
X157481301Y-145135727D01*
X157419881Y-145196924D01*
X157267394Y-145319442D01*
X157100037Y-145414950D01*
X156914241Y-145485104D01*
X156706437Y-145531555D01*
X156693198Y-145533624D01*
X156486878Y-145548743D01*
X156272477Y-145533704D01*
X156054051Y-145489964D01*
X155835658Y-145418980D01*
X155621356Y-145322212D01*
X155415200Y-145201116D01*
X155221248Y-145057150D01*
X155121336Y-144968832D01*
X155027030Y-144875535D01*
X154957531Y-144795284D01*
X154909113Y-144722881D01*
X154878049Y-144653128D01*
X154867017Y-144614034D01*
X154860383Y-144529644D01*
X154882871Y-144461915D01*
X154934069Y-144411756D01*
X154966444Y-144395124D01*
X155012607Y-144381368D01*
X155064614Y-144378332D01*
X155127637Y-144387007D01*
X155206846Y-144408381D01*
X155307413Y-144443444D01*
X155393974Y-144476937D01*
X155497444Y-144516331D01*
X155579890Y-144543166D01*
X155650600Y-144559988D01*
X155718863Y-144569345D01*
X155736217Y-144570785D01*
X155901588Y-144570004D01*
X156048113Y-144541446D01*
X156176807Y-144484764D01*
X156288684Y-144399612D01*
X156314300Y-144373668D01*
X156377042Y-144299503D01*
X156421081Y-144227516D01*
X156449815Y-144148614D01*
X156466640Y-144053705D01*
X156474503Y-143944887D01*
X156472146Y-143784588D01*
X156449227Y-143647356D01*
X156404047Y-143528127D01*
X156334903Y-143421840D01*
X156277493Y-143358471D01*
X156225701Y-143313692D01*
X156161714Y-143267698D01*
X156093988Y-143225553D01*
X156030979Y-143192322D01*
X155981145Y-143173071D01*
X155963263Y-143170267D01*
X155942934Y-143175113D01*
X155938339Y-143193173D01*
X155950132Y-143229725D01*
X155977825Y-143287796D01*
X156014899Y-143396323D01*
X156022781Y-143469267D01*
X156013479Y-143600282D01*
X155976246Y-143712337D01*
X155910467Y-143806491D01*
X155815529Y-143883802D01*
X155765948Y-143911948D01*
X155714167Y-143937492D01*
X155673013Y-143953446D01*
X155631984Y-143961689D01*
X155580584Y-143964100D01*
X155508311Y-143962559D01*
X155487267Y-143961831D01*
X155397942Y-143956933D01*
X155333020Y-143948526D01*
X155283085Y-143934918D01*
X155246438Y-143918546D01*
X155127509Y-143838647D01*
X155034140Y-143737792D01*
X154968035Y-143619062D01*
X154930894Y-143485536D01*
X154924420Y-143340296D01*
X154924683Y-143336291D01*
X154950546Y-143184193D01*
X155006097Y-143048258D01*
X155091166Y-142928663D01*
X155205583Y-142825589D01*
X155349177Y-142739214D01*
X155521780Y-142669716D01*
X155572778Y-142654030D01*
X155706028Y-142626118D01*
X155860397Y-142611337D01*
X156026150Y-142609284D01*
X156193549Y-142619552D01*
X156352858Y-142641735D01*
X156494340Y-142675430D01*
X156550936Y-142694753D01*
X156602435Y-142711319D01*
X156629667Y-142708751D01*
X156638117Y-142684093D01*
X156635417Y-142649242D01*
X156637276Y-142545831D01*
X156670810Y-142452074D01*
X156734677Y-142370072D01*
X156827538Y-142301926D01*
X156871111Y-142279657D01*
X156919451Y-142258549D01*
X156961427Y-142244542D01*
X157006156Y-142236191D01*
X157062752Y-142232050D01*
X157140330Y-142230674D01*
X157180600Y-142230573D01*
X157281753Y-142231982D01*
X157359711Y-142237150D01*
X157425053Y-142247310D01*
X157488355Y-142263692D01*
X157502333Y-142268023D01*
X157662214Y-142333666D01*
X157812965Y-142427326D01*
X157959102Y-142551838D01*
X157968141Y-142560667D01*
X158050052Y-142645097D01*
X158127081Y-142733303D01*
X158201482Y-142828836D01*
X158275507Y-142935245D01*
X158351409Y-143056079D01*
X158431440Y-143194889D01*
X158517854Y-143355224D01*
X158612903Y-143540635D01*
X158695068Y-143706133D01*
X158804125Y-143922633D01*
X158904649Y-144110701D01*
X158995909Y-144269006D01*
X159062539Y-144374505D01*
X159123804Y-144462729D01*
X159190211Y-144551746D01*
X159258055Y-144637255D01*
X159323629Y-144714957D01*
X159383226Y-144780552D01*
X159433139Y-144829740D01*
X159469662Y-144858223D01*
X159484183Y-144863600D01*
X159484187Y-144849347D01*
X159469648Y-144809087D01*
X159442195Y-144746570D01*
X159403455Y-144665545D01*
X159364671Y-144588433D01*
X159314502Y-144488807D01*
X159265609Y-144388544D01*
X159221909Y-144295909D01*
X159187324Y-144219168D01*
X159170593Y-144179220D01*
X159109490Y-143999371D01*
X159063685Y-143811007D01*
X159034178Y-143621891D01*
X159021969Y-143439782D01*
X159028059Y-143272443D01*
X159041616Y-143178733D01*
X159091545Y-143007038D01*
X159169323Y-142850918D01*
X159272106Y-142713315D01*
X159397052Y-142597172D01*
X159541316Y-142505433D01*
X159702057Y-142441039D01*
X159771400Y-142423367D01*
X159849716Y-142412011D01*
X159948834Y-142405455D01*
X160057381Y-142403690D01*
X160163981Y-142406706D01*
X160257260Y-142414494D01*
X160313267Y-142423831D01*
X160479513Y-142475323D01*
X160643685Y-142550778D01*
X160798925Y-142645660D01*
X160938373Y-142755432D01*
X161055170Y-142875557D01*
X161112834Y-142952688D01*
X161146059Y-142998317D01*
X161168155Y-143014818D01*
X161183051Y-143003393D01*
X161191937Y-142976928D01*
X161208221Y-142944373D01*
X161241297Y-142897556D01*
X161284172Y-142846323D01*
X161286487Y-142843779D01*
X161386092Y-142755560D01*
X161509872Y-142679283D01*
X161648825Y-142620097D01*
X161710482Y-142601322D01*
X161768811Y-142584319D01*
X161814290Y-142568556D01*
X161836309Y-142557912D01*
X161837678Y-142537229D01*
X161814638Y-142505271D01*
X161772541Y-142466920D01*
X161716742Y-142427060D01*
X161653114Y-142390832D01*
X161574004Y-142358885D01*
X161499629Y-142342470D01*
X161437480Y-142342325D01*
X161395046Y-142359189D01*
X161389432Y-142364851D01*
X161369839Y-142399401D01*
X161356853Y-142435522D01*
X161338474Y-142478946D01*
X161308274Y-142501482D01*
X161259836Y-142505394D01*
X161191266Y-142493966D01*
X161125968Y-142475066D01*
X161074358Y-142446941D01*
X161020998Y-142400840D01*
X161013008Y-142392951D01*
X160955111Y-142326699D01*
X160924119Y-142266754D01*
X160916562Y-142204444D01*
X160921482Y-142164160D01*
X160946095Y-142108249D01*
X160994007Y-142051648D01*
X161055973Y-142003038D01*
X161122747Y-141971100D01*
X161129102Y-141969221D01*
X161216760Y-141954677D01*
X161323820Y-141951769D01*
X161438049Y-141960036D01*
X161547218Y-141979015D01*
X161574677Y-141986037D01*
X161719485Y-142035066D01*
X161851762Y-142100119D01*
X161979329Y-142185914D01*
X162110005Y-142297164D01*
X162143571Y-142329017D01*
X162317756Y-142497331D01*
X162483911Y-142494330D01*
X162740822Y-142499665D01*
X162982727Y-142524623D01*
X163207531Y-142568341D01*
X163413137Y-142629958D01*
X163597447Y-142708612D01*
X163758366Y-142803443D01*
X163893794Y-142913588D01*
X164001637Y-143038186D01*
X164064727Y-143143775D01*
X164109977Y-143264821D01*
X164131229Y-143390382D01*
X164127882Y-143511756D01*
X164099337Y-143620239D01*
X164097786Y-143623901D01*
X164036244Y-143726221D01*
X163951028Y-143808055D01*
X163846848Y-143867392D01*
X163728413Y-143902219D01*
X163600433Y-143910525D01*
X163471666Y-143891348D01*
X163365877Y-143855516D01*
X163262122Y-143804618D01*
X163165341Y-143742728D01*
X163080474Y-143673919D01*
X163012461Y-143602267D01*
X162966243Y-143531844D01*
X162946759Y-143466725D01*
X162946446Y-143458202D01*
X162951152Y-143416630D01*
X162971091Y-143388807D01*
X163008525Y-143365000D01*
X163051997Y-143337104D01*
X163082838Y-143309925D01*
X163087172Y-143304121D01*
X163096277Y-143258860D01*
X163079740Y-143201624D01*
X163039739Y-143139754D01*
X163037686Y-143137292D01*
X163000636Y-143103733D01*
X162946396Y-143067603D01*
X162880999Y-143031441D01*
X162810476Y-142997784D01*
X162740859Y-142969172D01*
X162678179Y-142948141D01*
X162628470Y-142937232D01*
X162597761Y-142938982D01*
X162590800Y-142949233D01*
X162598219Y-142970849D01*
X162618555Y-143016308D01*
X162648930Y-143079496D01*
X162686464Y-143154299D01*
X162697345Y-143175485D01*
X162739499Y-143258582D01*
X162791388Y-143363059D01*
X162848446Y-143479596D01*
X162906109Y-143598875D01*
X162955533Y-143702526D01*
X163040320Y-143876477D01*
X163116875Y-144021377D01*
X163187430Y-144140383D01*
X163254220Y-144236653D01*
X163319479Y-144313345D01*
X163385440Y-144373617D01*
X163454338Y-144420625D01*
X163469707Y-144429280D01*
X163584785Y-144478617D01*
X163692061Y-144498062D01*
X163789084Y-144487699D01*
X163873402Y-144447615D01*
X163912606Y-144413829D01*
X163952921Y-144360900D01*
X163966663Y-144308237D01*
X163953658Y-144249296D01*
X163913730Y-144177536D01*
X163905956Y-144166057D01*
X163866568Y-144104252D01*
X163848461Y-144059425D01*
X163850620Y-144023058D01*
X163872030Y-143986638D01*
X163882981Y-143973349D01*
X163908641Y-143948720D01*
X163940122Y-143933052D01*
X163987208Y-143922950D01*
X164048081Y-143916086D01*
X164235121Y-143912227D01*
X164421753Y-143934071D01*
X164600187Y-143979910D01*
X164762632Y-144048036D01*
X164832338Y-144087961D01*
X164911435Y-144145008D01*
X164996141Y-144217571D01*
X165077189Y-144296756D01*
X165145313Y-144373669D01*
X165181414Y-144423044D01*
X165252040Y-144562492D01*
X165296394Y-144715488D01*
X165314249Y-144875255D01*
X165872459Y-144875255D01*
X165872775Y-144843672D01*
X165858522Y-144711086D01*
X165828198Y-144567373D01*
X165781281Y-144404676D01*
X165764379Y-144352464D01*
X165721146Y-144250054D01*
X165657385Y-144136555D01*
X165579280Y-144021701D01*
X165493015Y-143915223D01*
X165471796Y-143892008D01*
X165395202Y-143819262D01*
X165300665Y-143743227D01*
X165194793Y-143667996D01*
X165084191Y-143597663D01*
X164975463Y-143536321D01*
X164875217Y-143488063D01*
X164790057Y-143456984D01*
X164757868Y-143449599D01*
X164714715Y-143440012D01*
X164695507Y-143423948D01*
X164690563Y-143390874D01*
X164690415Y-143376211D01*
X164685192Y-143320042D01*
X164671273Y-143242082D01*
X164651045Y-143152546D01*
X164626891Y-143061646D01*
X164601198Y-142979595D01*
X164591542Y-142952898D01*
X164524595Y-142816806D01*
X164428950Y-142679904D01*
X164309381Y-142546537D01*
X164170662Y-142421052D01*
X164017566Y-142307795D01*
X163854868Y-142211111D01*
X163697980Y-142139433D01*
X163574428Y-142096944D01*
X163429119Y-142055985D01*
X163270722Y-142018274D01*
X163107904Y-141985530D01*
X162949335Y-141959471D01*
X162803682Y-141941816D01*
X162679613Y-141934284D01*
X162662506Y-141934133D01*
X162605629Y-141932990D01*
X162565611Y-141926362D01*
X162530593Y-141909452D01*
X162488717Y-141877464D01*
X162458230Y-141851504D01*
X162286446Y-141716018D01*
X162117168Y-141608914D01*
X161942998Y-141526189D01*
X161756538Y-141463839D01*
X161727788Y-141456187D01*
X161558271Y-141418163D01*
X161408263Y-141398067D01*
X161268714Y-141395626D01*
X161130573Y-141410567D01*
X161130573Y-141410567D01*
G37*
X161130573Y-141410567D02*
X161015663Y-141434683D01*
X160886138Y-141472463D01*
X160780002Y-141517466D01*
X160686839Y-141574881D01*
X160611757Y-141635808D01*
X160578474Y-141670126D01*
X160538999Y-141717335D01*
X160499457Y-141769175D01*
X160465974Y-141817388D01*
X160444675Y-141853715D01*
X160440267Y-141867022D01*
X160425916Y-141878707D01*
X160393700Y-141876512D01*
X160225069Y-141848792D01*
X160067292Y-141838401D01*
X159909205Y-141845559D01*
X159739646Y-141870482D01*
X159640091Y-141891245D01*
X159494072Y-141928650D01*
X159371347Y-141971006D01*
X159261349Y-142022788D01*
X159153509Y-142088473D01*
X159120111Y-142111479D01*
X158987870Y-142212662D01*
X158879745Y-142314396D01*
X158786943Y-142425225D01*
X158762699Y-142458775D01*
X158692835Y-142558373D01*
X158588651Y-142420082D01*
X158466164Y-142272249D01*
X158329849Y-142133571D01*
X158185980Y-142009375D01*
X158040831Y-141904991D01*
X157900674Y-141825745D01*
X157874904Y-141813872D01*
X157785182Y-141779995D01*
X157673854Y-141746694D01*
X157550994Y-141716191D01*
X157426676Y-141690707D01*
X157310975Y-141672463D01*
X157213964Y-141663682D01*
X157191756Y-141663222D01*
X157090403Y-141669289D01*
X156971565Y-141685776D01*
X156848031Y-141710155D01*
X156732589Y-141739897D01*
X156638030Y-141772471D01*
X156636823Y-141772974D01*
X156583189Y-141800420D01*
X156516003Y-141841797D01*
X156444924Y-141890360D01*
X156379611Y-141939365D01*
X156329721Y-141982068D01*
X156314134Y-141998294D01*
X156299186Y-142014484D01*
X156282633Y-142026129D01*
X156258869Y-142034121D01*
X156222288Y-142039351D01*
X156167286Y-142042710D01*
X156088256Y-142045092D01*
X156009334Y-142046782D01*
X155866273Y-142050949D01*
X155747977Y-142057870D01*
X155645378Y-142068851D01*
X155549404Y-142085197D01*
X155450986Y-142108213D01*
X155341054Y-142139203D01*
X155317265Y-142146358D01*
X155213529Y-142180154D01*
X155129712Y-142214031D01*
X155052423Y-142254169D01*
X154968269Y-142306749D01*
X154964921Y-142308965D01*
X154870029Y-142373726D01*
X154796456Y-142429414D01*
X154736013Y-142483572D01*
X154680508Y-142543742D01*
X154621751Y-142617468D01*
X154603284Y-142641992D01*
X154496612Y-142811485D01*
X154419283Y-142993297D01*
X154372801Y-143182919D01*
X154358650Y-143373715D01*
X154366015Y-143478849D01*
X154384262Y-143597317D01*
X154410833Y-143717803D01*
X154443168Y-143828990D01*
X154478710Y-143919562D01*
X154484921Y-143932161D01*
X154523968Y-144008255D01*
X154451232Y-144103897D01*
X154407098Y-144168927D01*
X154375693Y-144235180D01*
X154350480Y-144317189D01*
X154344567Y-144341069D01*
X154319673Y-144470574D01*
X154312568Y-144587143D01*
X154323262Y-144705646D01*
X154344867Y-144812800D01*
X154392754Y-144950413D01*
X154471530Y-145089304D01*
X154581734Y-145230079D01*
X154723906Y-145373348D01*
X154898588Y-145519719D01*
X155106320Y-145669800D01*
X155106383Y-145669842D01*
X155245347Y-145759832D01*
X155375500Y-145834039D01*
X155505104Y-145895968D01*
X155642421Y-145949122D01*
X155795712Y-145997005D01*
X155973239Y-146043121D01*
X156003733Y-146050401D01*
X156117154Y-146076432D01*
X156207044Y-146094744D01*
X156282525Y-146106620D01*
X156352717Y-146113340D01*
X156426738Y-146116184D01*
X156474858Y-146116563D01*
X156641345Y-146107644D01*
X156821707Y-146082340D01*
X157005482Y-146043080D01*
X157182208Y-145992296D01*
X157341421Y-145932419D01*
X157414059Y-145898372D01*
X157479922Y-145859981D01*
X157561597Y-145805304D01*
X157650041Y-145741055D01*
X157736208Y-145673948D01*
X157811052Y-145610698D01*
X157847642Y-145576524D01*
X157900676Y-145519073D01*
X157963117Y-145443662D01*
X158029334Y-145357942D01*
X158093696Y-145269570D01*
X158150573Y-145186197D01*
X158194335Y-145115477D01*
X158213277Y-145079500D01*
X158233957Y-145040185D01*
X158250167Y-145018273D01*
X158253563Y-145016602D01*
X158267541Y-145029696D01*
X158296109Y-145064326D01*
X158334332Y-145114354D01*
X158356703Y-145144856D01*
X158470257Y-145284948D01*
X158606233Y-145424915D01*
X158758496Y-145560115D01*
X158920906Y-145685904D01*
X159087327Y-145797640D01*
X159251623Y-145890681D01*
X159407654Y-145960383D01*
X159458134Y-145978070D01*
X159623753Y-146027680D01*
X159766577Y-146061283D01*
X159893329Y-146079474D01*
X160010731Y-146082847D01*
X160125506Y-146071996D01*
X160244061Y-146047597D01*
X160403466Y-145992921D01*
X160537831Y-145915486D01*
X160647464Y-145814988D01*
X160732677Y-145691122D01*
X160793779Y-145543586D01*
X160807031Y-145496339D01*
X160847495Y-145336986D01*
X160811623Y-145184191D01*
X160789265Y-145101738D01*
X160761792Y-145018650D01*
X160734265Y-144949874D01*
X160727535Y-144935808D01*
X160699321Y-144875353D01*
X160689492Y-144838272D01*
X160698424Y-144819255D01*
X160726491Y-144812994D01*
X160736239Y-144812800D01*
X160761666Y-144818270D01*
X160780830Y-144839719D01*
X160799606Y-144884709D01*
X160805314Y-144901700D01*
X160863391Y-145042431D01*
X160946289Y-145190741D01*
X161048832Y-145338489D01*
X161165843Y-145477534D01*
X161183174Y-145495936D01*
X161249492Y-145558144D01*
X161333342Y-145626241D01*
X161426465Y-145694481D01*
X161520605Y-145757120D01*
X161607504Y-145808412D01*
X161678907Y-145842612D01*
X161684413Y-145844700D01*
X161775689Y-145874951D01*
X161879142Y-145903844D01*
X161985446Y-145929278D01*
X162085274Y-145949153D01*
X162169300Y-145961370D01*
X162215257Y-145964245D01*
X162276583Y-145959569D01*
X162360193Y-145946956D01*
X162456042Y-145928556D01*
X162554086Y-145906522D01*
X162644280Y-145883007D01*
X162716580Y-145860161D01*
X162735861Y-145852696D01*
X162790992Y-145826388D01*
X162841006Y-145797355D01*
X162848045Y-145792547D01*
X162893623Y-145760168D01*
X163025845Y-145866549D01*
X163193501Y-145992523D01*
X163355573Y-146094204D01*
X163520300Y-146175266D01*
X163695922Y-146239382D01*
X163890678Y-146290225D01*
X164042435Y-146319823D01*
X164179264Y-146340317D01*
X164296047Y-146349687D01*
X164404588Y-146348316D01*
X164516695Y-146336588D01*
X164524458Y-146335466D01*
X164649890Y-146313260D01*
X164776655Y-146284065D01*
X164894559Y-146250616D01*
X164993405Y-146215644D01*
X165028523Y-146200341D01*
X165188811Y-146110390D01*
X165344717Y-145996459D01*
X165486982Y-145866284D01*
X165606348Y-145727604D01*
X165625064Y-145701800D01*
X165685957Y-145610976D01*
X165731721Y-145530316D01*
X165767377Y-145448517D01*
X165797947Y-145354275D01*
X165824347Y-145253232D01*
X165855165Y-145106889D01*
X165871482Y-144972988D01*
X165872459Y-144875255D01*
X165314249Y-144875255D01*
X165305381Y-145035016D01*
X165269565Y-145187993D01*
X165211172Y-145319471D01*
X165127932Y-145436033D01*
X165018605Y-145544337D01*
X164890899Y-145638343D01*
X164752521Y-145712013D01*
X164670668Y-145742962D01*
X164558403Y-145768332D01*
X164424455Y-145781676D01*
X164278857Y-145782856D01*
X164131638Y-145771731D01*
X164010898Y-145752116D01*
X163806352Y-145691964D01*
X163611049Y-145600225D01*
X163426817Y-145478355D01*
X163255486Y-145327810D01*
X163098884Y-145150049D01*
X162958842Y-144946529D01*
X162922998Y-144885394D01*
X162860468Y-144769380D01*
X162792140Y-144633323D01*
X162722563Y-144487036D01*
X162656284Y-144340336D01*
X162597852Y-144203036D01*
X162551815Y-144084953D01*
X162550918Y-144082484D01*
X162493342Y-143923800D01*
X162371936Y-143926158D01*
X162253076Y-143939064D01*
X162159605Y-143973192D01*
X162089881Y-144029356D01*
X162053167Y-144084479D01*
X162020884Y-144178008D01*
X162021578Y-144269726D01*
X162046896Y-144347834D01*
X162083895Y-144408573D01*
X162132373Y-144460632D01*
X162183732Y-144496296D01*
X162225408Y-144508000D01*
X162272604Y-144492241D01*
X162310547Y-144449212D01*
X162333901Y-144385280D01*
X162335436Y-144376711D01*
X162345585Y-144334420D01*
X162364603Y-144315064D01*
X162402434Y-144307816D01*
X162456999Y-144318649D01*
X162515313Y-144357963D01*
X162574013Y-144421127D01*
X162629736Y-144503511D01*
X162679121Y-144600483D01*
X162718805Y-144707414D01*
X162734388Y-144764984D01*
X162753650Y-144864886D01*
X162758182Y-144947741D01*
X162747956Y-145027011D01*
X162733778Y-145081669D01*
X162686311Y-145186337D01*
X162614146Y-145271694D01*
X162521086Y-145336721D01*
X162410934Y-145380397D01*
X162287495Y-145401703D01*
X162154570Y-145399620D01*
X162015965Y-145373129D01*
X161875482Y-145321209D01*
X161862667Y-145315154D01*
X161791988Y-145274891D01*
X161717237Y-145218916D01*
X161631856Y-145142124D01*
X161598305Y-145109443D01*
X161525378Y-145034923D01*
X161471441Y-144972968D01*
X161429540Y-144914379D01*
X161392722Y-144849953D01*
X161374107Y-144812800D01*
X161315788Y-144679520D01*
X161277898Y-144557663D01*
X161257278Y-144434353D01*
X161250863Y-144310745D01*
X161256435Y-144180084D01*
X161277471Y-144073774D01*
X161315802Y-143985164D01*
X161356596Y-143926813D01*
X161400032Y-143883739D01*
X161457099Y-143839688D01*
X161518181Y-143800803D01*
X161573663Y-143773227D01*
X161612900Y-143763092D01*
X161637959Y-143751073D01*
X161642533Y-143737533D01*
X161628539Y-143716586D01*
X161610445Y-143712133D01*
X161581273Y-143704802D01*
X161531261Y-143685256D01*
X161469479Y-143657165D01*
X161445694Y-143645462D01*
X161385703Y-143616435D01*
X161338106Y-143595516D01*
X161310156Y-143585801D01*
X161305976Y-143585847D01*
X161299601Y-143605196D01*
X161290817Y-143647295D01*
X161284870Y-143682151D01*
X161269912Y-143742660D01*
X161243919Y-143817079D01*
X161212386Y-143889760D01*
X161210875Y-143892839D01*
X161130969Y-144020125D01*
X161031475Y-144121206D01*
X160915243Y-144195246D01*
X160785123Y-144241408D01*
X160643964Y-144258856D01*
X160494616Y-144246751D01*
X160339929Y-144204258D01*
X160261860Y-144171535D01*
X160171923Y-144120720D01*
X160090587Y-144058540D01*
X160023119Y-143990563D01*
X159974784Y-143922355D01*
X159950847Y-143859482D01*
X159949200Y-143841017D01*
X159962451Y-143799484D01*
X160000004Y-143779154D01*
X160058560Y-143781606D01*
X160068508Y-143783923D01*
X160117494Y-143793058D01*
X160151577Y-143787450D01*
X160183279Y-143767839D01*
X160214841Y-143735484D01*
X160230022Y-143691419D01*
X160233660Y-143657876D01*
X160234023Y-143608181D01*
X160222335Y-143574323D01*
X160191929Y-143540778D01*
X160178037Y-143528346D01*
X160108300Y-143486342D01*
X160034521Y-143474904D01*
X159961771Y-143491981D01*
X159895121Y-143535522D01*
X159839642Y-143603476D01*
X159804939Y-143679253D01*
X159787212Y-143760770D01*
X159778636Y-143864423D01*
X159779420Y-143979682D01*
X159789770Y-144096019D01*
X159795930Y-144136437D01*
X159821202Y-144259225D01*
X159855891Y-144384027D01*
X159901845Y-144515468D01*
X159960914Y-144658172D01*
X160034946Y-144816765D01*
X160125790Y-144995873D01*
X160181369Y-145100666D01*
X160229169Y-145192622D01*
X160260370Y-145261841D01*
X160276331Y-145314297D01*
X160278411Y-145355967D01*
X160267968Y-145392827D01*
X160253800Y-145419185D01*
X160209249Y-145469850D01*
X160146177Y-145502961D01*
X160059902Y-145520292D01*
X159976928Y-145524000D01*
X159825096Y-145508558D01*
X159665076Y-145463961D01*
X159500470Y-145392800D01*
X159334883Y-145297667D01*
X159171917Y-145181154D01*
X159015175Y-145045854D01*
X158868261Y-144894358D01*
X158734778Y-144729258D01*
X158618329Y-144553146D01*
X158611793Y-144541995D01*
X158584524Y-144494222D01*
X158544473Y-144422864D01*
X158495061Y-144334075D01*
X158439709Y-144234008D01*
X158381838Y-144128818D01*
X158361107Y-144090992D01*
X158227316Y-143850931D01*
X158104944Y-143640858D01*
X157992799Y-143459332D01*
X157889688Y-143304910D01*
X157794420Y-143176149D01*
X157705804Y-143071606D01*
X157622647Y-142989840D01*
X157543758Y-142929407D01*
X157467945Y-142888865D01*
X157394016Y-142866772D01*
X157345440Y-142861588D01*
X157304375Y-142865578D01*
X157249327Y-142877626D01*
X157189384Y-142894808D01*
X157133635Y-142914200D01*
X157091169Y-142932876D01*
X157071074Y-142947915D01*
X157070533Y-142950033D01*
X157082691Y-142965554D01*
X157115338Y-142997110D01*
X157162737Y-143039312D01*
X157193300Y-143065348D01*
X157335442Y-143198903D01*
X157466383Y-143349620D01*
X157579817Y-143509217D01*
X157669437Y-143669413D01*
X157692881Y-143721400D01*
X157746823Y-143867256D01*
X157782118Y-144009202D01*
X157801030Y-144159275D01*
X157805878Y-144321733D01*
X157804524Y-144421228D01*
X157800918Y-144496414D01*
X157793855Y-144556833D01*
X157782129Y-144612028D01*
X157764534Y-144671540D01*
X157759875Y-144685800D01*
X157693513Y-144840366D01*
X157598935Y-144992927D01*
X157481301Y-145135727D01*
X157419881Y-145196924D01*
X157267394Y-145319442D01*
X157100037Y-145414950D01*
X156914241Y-145485104D01*
X156706437Y-145531555D01*
X156693198Y-145533624D01*
X156486878Y-145548743D01*
X156272477Y-145533704D01*
X156054051Y-145489964D01*
X155835658Y-145418980D01*
X155621356Y-145322212D01*
X155415200Y-145201116D01*
X155221248Y-145057150D01*
X155121336Y-144968832D01*
X155027030Y-144875535D01*
X154957531Y-144795284D01*
X154909113Y-144722881D01*
X154878049Y-144653128D01*
X154867017Y-144614034D01*
X154860383Y-144529644D01*
X154882871Y-144461915D01*
X154934069Y-144411756D01*
X154966444Y-144395124D01*
X155012607Y-144381368D01*
X155064614Y-144378332D01*
X155127637Y-144387007D01*
X155206846Y-144408381D01*
X155307413Y-144443444D01*
X155393974Y-144476937D01*
X155497444Y-144516331D01*
X155579890Y-144543166D01*
X155650600Y-144559988D01*
X155718863Y-144569345D01*
X155736217Y-144570785D01*
X155901588Y-144570004D01*
X156048113Y-144541446D01*
X156176807Y-144484764D01*
X156288684Y-144399612D01*
X156314300Y-144373668D01*
X156377042Y-144299503D01*
X156421081Y-144227516D01*
X156449815Y-144148614D01*
X156466640Y-144053705D01*
X156474503Y-143944887D01*
X156472146Y-143784588D01*
X156449227Y-143647356D01*
X156404047Y-143528127D01*
X156334903Y-143421840D01*
X156277493Y-143358471D01*
X156225701Y-143313692D01*
X156161714Y-143267698D01*
X156093988Y-143225553D01*
X156030979Y-143192322D01*
X155981145Y-143173071D01*
X155963263Y-143170267D01*
X155942934Y-143175113D01*
X155938339Y-143193173D01*
X155950132Y-143229725D01*
X155977825Y-143287796D01*
X156014899Y-143396323D01*
X156022781Y-143469267D01*
X156013479Y-143600282D01*
X155976246Y-143712337D01*
X155910467Y-143806491D01*
X155815529Y-143883802D01*
X155765948Y-143911948D01*
X155714167Y-143937492D01*
X155673013Y-143953446D01*
X155631984Y-143961689D01*
X155580584Y-143964100D01*
X155508311Y-143962559D01*
X155487267Y-143961831D01*
X155397942Y-143956933D01*
X155333020Y-143948526D01*
X155283085Y-143934918D01*
X155246438Y-143918546D01*
X155127509Y-143838647D01*
X155034140Y-143737792D01*
X154968035Y-143619062D01*
X154930894Y-143485536D01*
X154924420Y-143340296D01*
X154924683Y-143336291D01*
X154950546Y-143184193D01*
X155006097Y-143048258D01*
X155091166Y-142928663D01*
X155205583Y-142825589D01*
X155349177Y-142739214D01*
X155521780Y-142669716D01*
X155572778Y-142654030D01*
X155706028Y-142626118D01*
X155860397Y-142611337D01*
X156026150Y-142609284D01*
X156193549Y-142619552D01*
X156352858Y-142641735D01*
X156494340Y-142675430D01*
X156550936Y-142694753D01*
X156602435Y-142711319D01*
X156629667Y-142708751D01*
X156638117Y-142684093D01*
X156635417Y-142649242D01*
X156637276Y-142545831D01*
X156670810Y-142452074D01*
X156734677Y-142370072D01*
X156827538Y-142301926D01*
X156871111Y-142279657D01*
X156919451Y-142258549D01*
X156961427Y-142244542D01*
X157006156Y-142236191D01*
X157062752Y-142232050D01*
X157140330Y-142230674D01*
X157180600Y-142230573D01*
X157281753Y-142231982D01*
X157359711Y-142237150D01*
X157425053Y-142247310D01*
X157488355Y-142263692D01*
X157502333Y-142268023D01*
X157662214Y-142333666D01*
X157812965Y-142427326D01*
X157959102Y-142551838D01*
X157968141Y-142560667D01*
X158050052Y-142645097D01*
X158127081Y-142733303D01*
X158201482Y-142828836D01*
X158275507Y-142935245D01*
X158351409Y-143056079D01*
X158431440Y-143194889D01*
X158517854Y-143355224D01*
X158612903Y-143540635D01*
X158695068Y-143706133D01*
X158804125Y-143922633D01*
X158904649Y-144110701D01*
X158995909Y-144269006D01*
X159062539Y-144374505D01*
X159123804Y-144462729D01*
X159190211Y-144551746D01*
X159258055Y-144637255D01*
X159323629Y-144714957D01*
X159383226Y-144780552D01*
X159433139Y-144829740D01*
X159469662Y-144858223D01*
X159484183Y-144863600D01*
X159484187Y-144849347D01*
X159469648Y-144809087D01*
X159442195Y-144746570D01*
X159403455Y-144665545D01*
X159364671Y-144588433D01*
X159314502Y-144488807D01*
X159265609Y-144388544D01*
X159221909Y-144295909D01*
X159187324Y-144219168D01*
X159170593Y-144179220D01*
X159109490Y-143999371D01*
X159063685Y-143811007D01*
X159034178Y-143621891D01*
X159021969Y-143439782D01*
X159028059Y-143272443D01*
X159041616Y-143178733D01*
X159091545Y-143007038D01*
X159169323Y-142850918D01*
X159272106Y-142713315D01*
X159397052Y-142597172D01*
X159541316Y-142505433D01*
X159702057Y-142441039D01*
X159771400Y-142423367D01*
X159849716Y-142412011D01*
X159948834Y-142405455D01*
X160057381Y-142403690D01*
X160163981Y-142406706D01*
X160257260Y-142414494D01*
X160313267Y-142423831D01*
X160479513Y-142475323D01*
X160643685Y-142550778D01*
X160798925Y-142645660D01*
X160938373Y-142755432D01*
X161055170Y-142875557D01*
X161112834Y-142952688D01*
X161146059Y-142998317D01*
X161168155Y-143014818D01*
X161183051Y-143003393D01*
X161191937Y-142976928D01*
X161208221Y-142944373D01*
X161241297Y-142897556D01*
X161284172Y-142846323D01*
X161286487Y-142843779D01*
X161386092Y-142755560D01*
X161509872Y-142679283D01*
X161648825Y-142620097D01*
X161710482Y-142601322D01*
X161768811Y-142584319D01*
X161814290Y-142568556D01*
X161836309Y-142557912D01*
X161837678Y-142537229D01*
X161814638Y-142505271D01*
X161772541Y-142466920D01*
X161716742Y-142427060D01*
X161653114Y-142390832D01*
X161574004Y-142358885D01*
X161499629Y-142342470D01*
X161437480Y-142342325D01*
X161395046Y-142359189D01*
X161389432Y-142364851D01*
X161369839Y-142399401D01*
X161356853Y-142435522D01*
X161338474Y-142478946D01*
X161308274Y-142501482D01*
X161259836Y-142505394D01*
X161191266Y-142493966D01*
X161125968Y-142475066D01*
X161074358Y-142446941D01*
X161020998Y-142400840D01*
X161013008Y-142392951D01*
X160955111Y-142326699D01*
X160924119Y-142266754D01*
X160916562Y-142204444D01*
X160921482Y-142164160D01*
X160946095Y-142108249D01*
X160994007Y-142051648D01*
X161055973Y-142003038D01*
X161122747Y-141971100D01*
X161129102Y-141969221D01*
X161216760Y-141954677D01*
X161323820Y-141951769D01*
X161438049Y-141960036D01*
X161547218Y-141979015D01*
X161574677Y-141986037D01*
X161719485Y-142035066D01*
X161851762Y-142100119D01*
X161979329Y-142185914D01*
X162110005Y-142297164D01*
X162143571Y-142329017D01*
X162317756Y-142497331D01*
X162483911Y-142494330D01*
X162740822Y-142499665D01*
X162982727Y-142524623D01*
X163207531Y-142568341D01*
X163413137Y-142629958D01*
X163597447Y-142708612D01*
X163758366Y-142803443D01*
X163893794Y-142913588D01*
X164001637Y-143038186D01*
X164064727Y-143143775D01*
X164109977Y-143264821D01*
X164131229Y-143390382D01*
X164127882Y-143511756D01*
X164099337Y-143620239D01*
X164097786Y-143623901D01*
X164036244Y-143726221D01*
X163951028Y-143808055D01*
X163846848Y-143867392D01*
X163728413Y-143902219D01*
X163600433Y-143910525D01*
X163471666Y-143891348D01*
X163365877Y-143855516D01*
X163262122Y-143804618D01*
X163165341Y-143742728D01*
X163080474Y-143673919D01*
X163012461Y-143602267D01*
X162966243Y-143531844D01*
X162946759Y-143466725D01*
X162946446Y-143458202D01*
X162951152Y-143416630D01*
X162971091Y-143388807D01*
X163008525Y-143365000D01*
X163051997Y-143337104D01*
X163082838Y-143309925D01*
X163087172Y-143304121D01*
X163096277Y-143258860D01*
X163079740Y-143201624D01*
X163039739Y-143139754D01*
X163037686Y-143137292D01*
X163000636Y-143103733D01*
X162946396Y-143067603D01*
X162880999Y-143031441D01*
X162810476Y-142997784D01*
X162740859Y-142969172D01*
X162678179Y-142948141D01*
X162628470Y-142937232D01*
X162597761Y-142938982D01*
X162590800Y-142949233D01*
X162598219Y-142970849D01*
X162618555Y-143016308D01*
X162648930Y-143079496D01*
X162686464Y-143154299D01*
X162697345Y-143175485D01*
X162739499Y-143258582D01*
X162791388Y-143363059D01*
X162848446Y-143479596D01*
X162906109Y-143598875D01*
X162955533Y-143702526D01*
X163040320Y-143876477D01*
X163116875Y-144021377D01*
X163187430Y-144140383D01*
X163254220Y-144236653D01*
X163319479Y-144313345D01*
X163385440Y-144373617D01*
X163454338Y-144420625D01*
X163469707Y-144429280D01*
X163584785Y-144478617D01*
X163692061Y-144498062D01*
X163789084Y-144487699D01*
X163873402Y-144447615D01*
X163912606Y-144413829D01*
X163952921Y-144360900D01*
X163966663Y-144308237D01*
X163953658Y-144249296D01*
X163913730Y-144177536D01*
X163905956Y-144166057D01*
X163866568Y-144104252D01*
X163848461Y-144059425D01*
X163850620Y-144023058D01*
X163872030Y-143986638D01*
X163882981Y-143973349D01*
X163908641Y-143948720D01*
X163940122Y-143933052D01*
X163987208Y-143922950D01*
X164048081Y-143916086D01*
X164235121Y-143912227D01*
X164421753Y-143934071D01*
X164600187Y-143979910D01*
X164762632Y-144048036D01*
X164832338Y-144087961D01*
X164911435Y-144145008D01*
X164996141Y-144217571D01*
X165077189Y-144296756D01*
X165145313Y-144373669D01*
X165181414Y-144423044D01*
X165252040Y-144562492D01*
X165296394Y-144715488D01*
X165314249Y-144875255D01*
X165872459Y-144875255D01*
X165872775Y-144843672D01*
X165858522Y-144711086D01*
X165828198Y-144567373D01*
X165781281Y-144404676D01*
X165764379Y-144352464D01*
X165721146Y-144250054D01*
X165657385Y-144136555D01*
X165579280Y-144021701D01*
X165493015Y-143915223D01*
X165471796Y-143892008D01*
X165395202Y-143819262D01*
X165300665Y-143743227D01*
X165194793Y-143667996D01*
X165084191Y-143597663D01*
X164975463Y-143536321D01*
X164875217Y-143488063D01*
X164790057Y-143456984D01*
X164757868Y-143449599D01*
X164714715Y-143440012D01*
X164695507Y-143423948D01*
X164690563Y-143390874D01*
X164690415Y-143376211D01*
X164685192Y-143320042D01*
X164671273Y-143242082D01*
X164651045Y-143152546D01*
X164626891Y-143061646D01*
X164601198Y-142979595D01*
X164591542Y-142952898D01*
X164524595Y-142816806D01*
X164428950Y-142679904D01*
X164309381Y-142546537D01*
X164170662Y-142421052D01*
X164017566Y-142307795D01*
X163854868Y-142211111D01*
X163697980Y-142139433D01*
X163574428Y-142096944D01*
X163429119Y-142055985D01*
X163270722Y-142018274D01*
X163107904Y-141985530D01*
X162949335Y-141959471D01*
X162803682Y-141941816D01*
X162679613Y-141934284D01*
X162662506Y-141934133D01*
X162605629Y-141932990D01*
X162565611Y-141926362D01*
X162530593Y-141909452D01*
X162488717Y-141877464D01*
X162458230Y-141851504D01*
X162286446Y-141716018D01*
X162117168Y-141608914D01*
X161942998Y-141526189D01*
X161756538Y-141463839D01*
X161727788Y-141456187D01*
X161558271Y-141418163D01*
X161408263Y-141398067D01*
X161268714Y-141395626D01*
X161130573Y-141410567D01*
G36*
X162044060Y-142944565D02*
X161983660Y-142979517D01*
X161965892Y-142993698D01*
X161913591Y-143057881D01*
X161888993Y-143135029D01*
X161891460Y-143219563D01*
X161920357Y-143305904D01*
X161975047Y-143388473D01*
X162015675Y-143430065D01*
X162085413Y-143485600D01*
X162153002Y-143520554D01*
X162232633Y-143541207D01*
X162282860Y-143548303D01*
X162338272Y-143549721D01*
X162363255Y-143537437D01*
X162363914Y-143535974D01*
X162362702Y-143506443D01*
X162348950Y-143453053D01*
X162325276Y-143382231D01*
X162294302Y-143300401D01*
X162258648Y-143213989D01*
X162220934Y-143129419D01*
X162183781Y-143053117D01*
X162149809Y-142991508D01*
X162129152Y-142960336D01*
X162093497Y-142937980D01*
X162044060Y-142944565D01*
X162044060Y-142944565D01*
G37*
X162044060Y-142944565D02*
X161983660Y-142979517D01*
X161965892Y-142993698D01*
X161913591Y-143057881D01*
X161888993Y-143135029D01*
X161891460Y-143219563D01*
X161920357Y-143305904D01*
X161975047Y-143388473D01*
X162015675Y-143430065D01*
X162085413Y-143485600D01*
X162153002Y-143520554D01*
X162232633Y-143541207D01*
X162282860Y-143548303D01*
X162338272Y-143549721D01*
X162363255Y-143537437D01*
X162363914Y-143535974D01*
X162362702Y-143506443D01*
X162348950Y-143453053D01*
X162325276Y-143382231D01*
X162294302Y-143300401D01*
X162258648Y-143213989D01*
X162220934Y-143129419D01*
X162183781Y-143053117D01*
X162149809Y-142991508D01*
X162129152Y-142960336D01*
X162093497Y-142937980D01*
X162044060Y-142944565D01*
D11*
G36*
X136237142Y-141606242D02*
X136385102Y-141667530D01*
X136518258Y-141756502D01*
X136631498Y-141869742D01*
X136720470Y-142002898D01*
X136781758Y-142150858D01*
X136813000Y-142307925D01*
X136813000Y-142468075D01*
X136781758Y-142625142D01*
X136720470Y-142773102D01*
X136631498Y-142906258D01*
X136518258Y-143019498D01*
X136385102Y-143108470D01*
X136237142Y-143169758D01*
X136080075Y-143201000D01*
X135919925Y-143201000D01*
X135762858Y-143169758D01*
X135614898Y-143108470D01*
X135481742Y-143019498D01*
X135368502Y-142906258D01*
X135279530Y-142773102D01*
X135218242Y-142625142D01*
X135187000Y-142468075D01*
X135187000Y-142307925D01*
X135218242Y-142150858D01*
X135279530Y-142002898D01*
X135368502Y-141869742D01*
X135481742Y-141756502D01*
X135614898Y-141667530D01*
X135762858Y-141606242D01*
X135919925Y-141575000D01*
X136080075Y-141575000D01*
X136237142Y-141606242D01*
X136237142Y-141606242D01*
G37*
G36*
X133697142Y-141606242D02*
X133845102Y-141667530D01*
X133978258Y-141756502D01*
X134091498Y-141869742D01*
X134180470Y-142002898D01*
X134241758Y-142150858D01*
X134273000Y-142307925D01*
X134273000Y-142468075D01*
X134241758Y-142625142D01*
X134180470Y-142773102D01*
X134091498Y-142906258D01*
X133978258Y-143019498D01*
X133845102Y-143108470D01*
X133697142Y-143169758D01*
X133540075Y-143201000D01*
X133379925Y-143201000D01*
X133222858Y-143169758D01*
X133074898Y-143108470D01*
X132941742Y-143019498D01*
X132828502Y-142906258D01*
X132739530Y-142773102D01*
X132678242Y-142625142D01*
X132647000Y-142468075D01*
X132647000Y-142307925D01*
X132678242Y-142150858D01*
X132739530Y-142002898D01*
X132828502Y-141869742D01*
X132941742Y-141756502D01*
X133074898Y-141667530D01*
X133222858Y-141606242D01*
X133379925Y-141575000D01*
X133540075Y-141575000D01*
X133697142Y-141606242D01*
X133697142Y-141606242D01*
G37*
G36*
X105707142Y-141606242D02*
X105855102Y-141667530D01*
X105988258Y-141756502D01*
X106101498Y-141869742D01*
X106190470Y-142002898D01*
X106251758Y-142150858D01*
X106283000Y-142307925D01*
X106283000Y-142468075D01*
X106251758Y-142625142D01*
X106190470Y-142773102D01*
X106101498Y-142906258D01*
X105988258Y-143019498D01*
X105855102Y-143108470D01*
X105707142Y-143169758D01*
X105550075Y-143201000D01*
X105389925Y-143201000D01*
X105232858Y-143169758D01*
X105084898Y-143108470D01*
X104951742Y-143019498D01*
X104838502Y-142906258D01*
X104749530Y-142773102D01*
X104688242Y-142625142D01*
X104657000Y-142468075D01*
X104657000Y-142307925D01*
X104688242Y-142150858D01*
X104749530Y-142002898D01*
X104838502Y-141869742D01*
X104951742Y-141756502D01*
X105084898Y-141667530D01*
X105232858Y-141606242D01*
X105389925Y-141575000D01*
X105550075Y-141575000D01*
X105707142Y-141606242D01*
X105707142Y-141606242D01*
G37*
G36*
X108247142Y-141606242D02*
X108395102Y-141667530D01*
X108528258Y-141756502D01*
X108641498Y-141869742D01*
X108730470Y-142002898D01*
X108791758Y-142150858D01*
X108823000Y-142307925D01*
X108823000Y-142468075D01*
X108791758Y-142625142D01*
X108730470Y-142773102D01*
X108641498Y-142906258D01*
X108528258Y-143019498D01*
X108395102Y-143108470D01*
X108247142Y-143169758D01*
X108090075Y-143201000D01*
X107929925Y-143201000D01*
X107772858Y-143169758D01*
X107624898Y-143108470D01*
X107491742Y-143019498D01*
X107378502Y-142906258D01*
X107289530Y-142773102D01*
X107228242Y-142625142D01*
X107197000Y-142468075D01*
X107197000Y-142307925D01*
X107228242Y-142150858D01*
X107289530Y-142002898D01*
X107378502Y-141869742D01*
X107491742Y-141756502D01*
X107624898Y-141667530D01*
X107772858Y-141606242D01*
X107929925Y-141575000D01*
X108090075Y-141575000D01*
X108247142Y-141606242D01*
X108247142Y-141606242D01*
G37*
G36*
X110787142Y-141606242D02*
X110935102Y-141667530D01*
X111068258Y-141756502D01*
X111181498Y-141869742D01*
X111270470Y-142002898D01*
X111331758Y-142150858D01*
X111363000Y-142307925D01*
X111363000Y-142468075D01*
X111331758Y-142625142D01*
X111270470Y-142773102D01*
X111181498Y-142906258D01*
X111068258Y-143019498D01*
X110935102Y-143108470D01*
X110787142Y-143169758D01*
X110630075Y-143201000D01*
X110469925Y-143201000D01*
X110312858Y-143169758D01*
X110164898Y-143108470D01*
X110031742Y-143019498D01*
X109918502Y-142906258D01*
X109829530Y-142773102D01*
X109768242Y-142625142D01*
X109737000Y-142468075D01*
X109737000Y-142307925D01*
X109768242Y-142150858D01*
X109829530Y-142002898D01*
X109918502Y-141869742D01*
X110031742Y-141756502D01*
X110164898Y-141667530D01*
X110312858Y-141606242D01*
X110469925Y-141575000D01*
X110630075Y-141575000D01*
X110787142Y-141606242D01*
X110787142Y-141606242D01*
G37*
G36*
X113327142Y-141606242D02*
X113475102Y-141667530D01*
X113608258Y-141756502D01*
X113721498Y-141869742D01*
X113810470Y-142002898D01*
X113871758Y-142150858D01*
X113903000Y-142307925D01*
X113903000Y-142468075D01*
X113871758Y-142625142D01*
X113810470Y-142773102D01*
X113721498Y-142906258D01*
X113608258Y-143019498D01*
X113475102Y-143108470D01*
X113327142Y-143169758D01*
X113170075Y-143201000D01*
X113009925Y-143201000D01*
X112852858Y-143169758D01*
X112704898Y-143108470D01*
X112571742Y-143019498D01*
X112458502Y-142906258D01*
X112369530Y-142773102D01*
X112308242Y-142625142D01*
X112277000Y-142468075D01*
X112277000Y-142307925D01*
X112308242Y-142150858D01*
X112369530Y-142002898D01*
X112458502Y-141869742D01*
X112571742Y-141756502D01*
X112704898Y-141667530D01*
X112852858Y-141606242D01*
X113009925Y-141575000D01*
X113170075Y-141575000D01*
X113327142Y-141606242D01*
X113327142Y-141606242D01*
G37*
G36*
X115867142Y-141606242D02*
X116015102Y-141667530D01*
X116148258Y-141756502D01*
X116261498Y-141869742D01*
X116350470Y-142002898D01*
X116411758Y-142150858D01*
X116443000Y-142307925D01*
X116443000Y-142468075D01*
X116411758Y-142625142D01*
X116350470Y-142773102D01*
X116261498Y-142906258D01*
X116148258Y-143019498D01*
X116015102Y-143108470D01*
X115867142Y-143169758D01*
X115710075Y-143201000D01*
X115549925Y-143201000D01*
X115392858Y-143169758D01*
X115244898Y-143108470D01*
X115111742Y-143019498D01*
X114998502Y-142906258D01*
X114909530Y-142773102D01*
X114848242Y-142625142D01*
X114817000Y-142468075D01*
X114817000Y-142307925D01*
X114848242Y-142150858D01*
X114909530Y-142002898D01*
X114998502Y-141869742D01*
X115111742Y-141756502D01*
X115244898Y-141667530D01*
X115392858Y-141606242D01*
X115549925Y-141575000D01*
X115710075Y-141575000D01*
X115867142Y-141606242D01*
X115867142Y-141606242D01*
G37*
G36*
X123537142Y-141606242D02*
X123685102Y-141667530D01*
X123818258Y-141756502D01*
X123931498Y-141869742D01*
X124020470Y-142002898D01*
X124081758Y-142150858D01*
X124113000Y-142307925D01*
X124113000Y-142468075D01*
X124081758Y-142625142D01*
X124020470Y-142773102D01*
X123931498Y-142906258D01*
X123818258Y-143019498D01*
X123685102Y-143108470D01*
X123537142Y-143169758D01*
X123380075Y-143201000D01*
X123219925Y-143201000D01*
X123062858Y-143169758D01*
X122914898Y-143108470D01*
X122781742Y-143019498D01*
X122668502Y-142906258D01*
X122579530Y-142773102D01*
X122518242Y-142625142D01*
X122487000Y-142468075D01*
X122487000Y-142307925D01*
X122518242Y-142150858D01*
X122579530Y-142002898D01*
X122668502Y-141869742D01*
X122781742Y-141756502D01*
X122914898Y-141667530D01*
X123062858Y-141606242D01*
X123219925Y-141575000D01*
X123380075Y-141575000D01*
X123537142Y-141606242D01*
X123537142Y-141606242D01*
G37*
G36*
X118407142Y-141606242D02*
X118555102Y-141667530D01*
X118688258Y-141756502D01*
X118801498Y-141869742D01*
X118890470Y-142002898D01*
X118951758Y-142150858D01*
X118983000Y-142307925D01*
X118983000Y-142468075D01*
X118951758Y-142625142D01*
X118890470Y-142773102D01*
X118801498Y-142906258D01*
X118688258Y-143019498D01*
X118555102Y-143108470D01*
X118407142Y-143169758D01*
X118250075Y-143201000D01*
X118089925Y-143201000D01*
X117932858Y-143169758D01*
X117784898Y-143108470D01*
X117651742Y-143019498D01*
X117538502Y-142906258D01*
X117449530Y-142773102D01*
X117388242Y-142625142D01*
X117357000Y-142468075D01*
X117357000Y-142307925D01*
X117388242Y-142150858D01*
X117449530Y-142002898D01*
X117538502Y-141869742D01*
X117651742Y-141756502D01*
X117784898Y-141667530D01*
X117932858Y-141606242D01*
X118089925Y-141575000D01*
X118250075Y-141575000D01*
X118407142Y-141606242D01*
X118407142Y-141606242D01*
G37*
G36*
X131157142Y-141606242D02*
X131305102Y-141667530D01*
X131438258Y-141756502D01*
X131551498Y-141869742D01*
X131640470Y-142002898D01*
X131701758Y-142150858D01*
X131733000Y-142307925D01*
X131733000Y-142468075D01*
X131701758Y-142625142D01*
X131640470Y-142773102D01*
X131551498Y-142906258D01*
X131438258Y-143019498D01*
X131305102Y-143108470D01*
X131157142Y-143169758D01*
X131000075Y-143201000D01*
X130839925Y-143201000D01*
X130682858Y-143169758D01*
X130534898Y-143108470D01*
X130401742Y-143019498D01*
X130288502Y-142906258D01*
X130199530Y-142773102D01*
X130138242Y-142625142D01*
X130107000Y-142468075D01*
X130107000Y-142307925D01*
X130138242Y-142150858D01*
X130199530Y-142002898D01*
X130288502Y-141869742D01*
X130401742Y-141756502D01*
X130534898Y-141667530D01*
X130682858Y-141606242D01*
X130839925Y-141575000D01*
X131000075Y-141575000D01*
X131157142Y-141606242D01*
X131157142Y-141606242D01*
G37*
G36*
X126077142Y-141606242D02*
X126225102Y-141667530D01*
X126358258Y-141756502D01*
X126471498Y-141869742D01*
X126560470Y-142002898D01*
X126621758Y-142150858D01*
X126653000Y-142307925D01*
X126653000Y-142468075D01*
X126621758Y-142625142D01*
X126560470Y-142773102D01*
X126471498Y-142906258D01*
X126358258Y-143019498D01*
X126225102Y-143108470D01*
X126077142Y-143169758D01*
X125920075Y-143201000D01*
X125759925Y-143201000D01*
X125602858Y-143169758D01*
X125454898Y-143108470D01*
X125321742Y-143019498D01*
X125208502Y-142906258D01*
X125119530Y-142773102D01*
X125058242Y-142625142D01*
X125027000Y-142468075D01*
X125027000Y-142307925D01*
X125058242Y-142150858D01*
X125119530Y-142002898D01*
X125208502Y-141869742D01*
X125321742Y-141756502D01*
X125454898Y-141667530D01*
X125602858Y-141606242D01*
X125759925Y-141575000D01*
X125920075Y-141575000D01*
X126077142Y-141606242D01*
X126077142Y-141606242D01*
G37*
G36*
X128617142Y-141606242D02*
X128765102Y-141667530D01*
X128898258Y-141756502D01*
X129011498Y-141869742D01*
X129100470Y-142002898D01*
X129161758Y-142150858D01*
X129193000Y-142307925D01*
X129193000Y-142468075D01*
X129161758Y-142625142D01*
X129100470Y-142773102D01*
X129011498Y-142906258D01*
X128898258Y-143019498D01*
X128765102Y-143108470D01*
X128617142Y-143169758D01*
X128460075Y-143201000D01*
X128299925Y-143201000D01*
X128142858Y-143169758D01*
X127994898Y-143108470D01*
X127861742Y-143019498D01*
X127748502Y-142906258D01*
X127659530Y-142773102D01*
X127598242Y-142625142D01*
X127567000Y-142468075D01*
X127567000Y-142307925D01*
X127598242Y-142150858D01*
X127659530Y-142002898D01*
X127748502Y-141869742D01*
X127861742Y-141756502D01*
X127994898Y-141667530D01*
X128142858Y-141606242D01*
X128299925Y-141575000D01*
X128460075Y-141575000D01*
X128617142Y-141606242D01*
X128617142Y-141606242D01*
G37*
G36*
X158512893Y-127894714D02*
X158649368Y-127936113D01*
X158717606Y-127956813D01*
X158786417Y-127993594D01*
X158906268Y-128057655D01*
X159071633Y-128193367D01*
X159207345Y-128358732D01*
X159271406Y-128478583D01*
X159308187Y-128547394D01*
X159327435Y-128610848D01*
X159370286Y-128752107D01*
X159386000Y-128911655D01*
X159386000Y-131088345D01*
X159370286Y-131247893D01*
X159328887Y-131384368D01*
X159308187Y-131452606D01*
X159271406Y-131521417D01*
X159207345Y-131641268D01*
X159071633Y-131806633D01*
X158906268Y-131942345D01*
X158768026Y-132016236D01*
X158717605Y-132043187D01*
X158649367Y-132063887D01*
X158512892Y-132105286D01*
X158300000Y-132126254D01*
X158087107Y-132105286D01*
X157950632Y-132063887D01*
X157882394Y-132043187D01*
X157813583Y-132006406D01*
X157693732Y-131942345D01*
X157528367Y-131806633D01*
X157392655Y-131641268D01*
X157291814Y-131452606D01*
X157291813Y-131452605D01*
X157271113Y-131384367D01*
X157229714Y-131247892D01*
X157214000Y-131088344D01*
X157214001Y-128911655D01*
X157229715Y-128752107D01*
X157272566Y-128610848D01*
X157291814Y-128547394D01*
X157328595Y-128478583D01*
X157392656Y-128358732D01*
X157528368Y-128193367D01*
X157693733Y-128057655D01*
X157813584Y-127993594D01*
X157882395Y-127956813D01*
X157950633Y-127936113D01*
X158087108Y-127894714D01*
X158300000Y-127873746D01*
X158512893Y-127894714D01*
X158512893Y-127894714D01*
G37*
G36*
X85612893Y-127894714D02*
X85749368Y-127936113D01*
X85817606Y-127956813D01*
X85886417Y-127993594D01*
X86006268Y-128057655D01*
X86171633Y-128193367D01*
X86307345Y-128358732D01*
X86371406Y-128478583D01*
X86408187Y-128547394D01*
X86427435Y-128610848D01*
X86470286Y-128752107D01*
X86486000Y-128911655D01*
X86486000Y-131088345D01*
X86470286Y-131247893D01*
X86428887Y-131384368D01*
X86408187Y-131452606D01*
X86371406Y-131521417D01*
X86307345Y-131641268D01*
X86171633Y-131806633D01*
X86006268Y-131942345D01*
X85868026Y-132016236D01*
X85817605Y-132043187D01*
X85749367Y-132063887D01*
X85612892Y-132105286D01*
X85400000Y-132126254D01*
X85187107Y-132105286D01*
X85050632Y-132063887D01*
X84982394Y-132043187D01*
X84913583Y-132006406D01*
X84793732Y-131942345D01*
X84628367Y-131806633D01*
X84492655Y-131641268D01*
X84391814Y-131452606D01*
X84391813Y-131452605D01*
X84371113Y-131384367D01*
X84329714Y-131247892D01*
X84314000Y-131088344D01*
X84314001Y-128911655D01*
X84329715Y-128752107D01*
X84372566Y-128610848D01*
X84391814Y-128547394D01*
X84428595Y-128478583D01*
X84492656Y-128358732D01*
X84628368Y-128193367D01*
X84793733Y-128057655D01*
X84913584Y-127993594D01*
X84982395Y-127956813D01*
X85050633Y-127936113D01*
X85187108Y-127894714D01*
X85400000Y-127873746D01*
X85612893Y-127894714D01*
X85612893Y-127894714D01*
G37*
G36*
X165476136Y-128518253D02*
X165567312Y-128556019D01*
X165649372Y-128610850D01*
X165719150Y-128680628D01*
X165773981Y-128762688D01*
X165811747Y-128853864D01*
X165831000Y-128950656D01*
X165831000Y-129049344D01*
X165811747Y-129146136D01*
X165773981Y-129237312D01*
X165719150Y-129319372D01*
X165649372Y-129389150D01*
X165567312Y-129443981D01*
X165476136Y-129481747D01*
X165379344Y-129501000D01*
X165280656Y-129501000D01*
X165183864Y-129481747D01*
X165092688Y-129443981D01*
X165010628Y-129389150D01*
X164940850Y-129319372D01*
X164886019Y-129237312D01*
X164848253Y-129146136D01*
X164829000Y-129049344D01*
X164829000Y-128950656D01*
X164848253Y-128853864D01*
X164886019Y-128762688D01*
X164940850Y-128680628D01*
X165010628Y-128610850D01*
X165092688Y-128556019D01*
X165183864Y-128518253D01*
X165280656Y-128499000D01*
X165379344Y-128499000D01*
X165476136Y-128518253D01*
X165476136Y-128518253D01*
G37*
G36*
X165476136Y-125518253D02*
X165567312Y-125556019D01*
X165649372Y-125610850D01*
X165719150Y-125680628D01*
X165773981Y-125762688D01*
X165811747Y-125853864D01*
X165831000Y-125950656D01*
X165831000Y-126049344D01*
X165811747Y-126146136D01*
X165773981Y-126237312D01*
X165719150Y-126319372D01*
X165649372Y-126389150D01*
X165567312Y-126443981D01*
X165476136Y-126481747D01*
X165379344Y-126501000D01*
X165280656Y-126501000D01*
X165183864Y-126481747D01*
X165092688Y-126443981D01*
X165010628Y-126389150D01*
X164940850Y-126319372D01*
X164886019Y-126237312D01*
X164848253Y-126146136D01*
X164829000Y-126049344D01*
X164829000Y-125950656D01*
X164848253Y-125853864D01*
X164886019Y-125762688D01*
X164940850Y-125680628D01*
X165010628Y-125610850D01*
X165092688Y-125556019D01*
X165183864Y-125518253D01*
X165280656Y-125499000D01*
X165379344Y-125499000D01*
X165476136Y-125518253D01*
X165476136Y-125518253D01*
G37*
G36*
X111316136Y-123518253D02*
X111407312Y-123556019D01*
X111489372Y-123610850D01*
X111559150Y-123680628D01*
X111613981Y-123762688D01*
X111651747Y-123853864D01*
X111671000Y-123950656D01*
X111671000Y-124049344D01*
X111651747Y-124146136D01*
X111613981Y-124237312D01*
X111559150Y-124319372D01*
X111489372Y-124389150D01*
X111407312Y-124443981D01*
X111316136Y-124481747D01*
X111219344Y-124501000D01*
X111120656Y-124501000D01*
X111023864Y-124481747D01*
X110932688Y-124443981D01*
X110850628Y-124389150D01*
X110780850Y-124319372D01*
X110726019Y-124237312D01*
X110688253Y-124146136D01*
X110669000Y-124049344D01*
X110669000Y-123950656D01*
X110688253Y-123853864D01*
X110726019Y-123762688D01*
X110780850Y-123680628D01*
X110850628Y-123610850D01*
X110932688Y-123556019D01*
X111023864Y-123518253D01*
X111120656Y-123499000D01*
X111219344Y-123499000D01*
X111316136Y-123518253D01*
X111316136Y-123518253D01*
G37*
G36*
X111316136Y-120518253D02*
X111407312Y-120556019D01*
X111489372Y-120610850D01*
X111559150Y-120680628D01*
X111613981Y-120762688D01*
X111651747Y-120853864D01*
X111671000Y-120950656D01*
X111671000Y-121049344D01*
X111651747Y-121146136D01*
X111613981Y-121237312D01*
X111559150Y-121319372D01*
X111489372Y-121389150D01*
X111407312Y-121443981D01*
X111316136Y-121481747D01*
X111219344Y-121501000D01*
X111120656Y-121501000D01*
X111023864Y-121481747D01*
X110932688Y-121443981D01*
X110850628Y-121389150D01*
X110780850Y-121319372D01*
X110726019Y-121237312D01*
X110688253Y-121146136D01*
X110669000Y-121049344D01*
X110669000Y-120950656D01*
X110688253Y-120853864D01*
X110726019Y-120762688D01*
X110780850Y-120680628D01*
X110850628Y-120610850D01*
X110932688Y-120556019D01*
X111023864Y-120518253D01*
X111120656Y-120499000D01*
X111219344Y-120499000D01*
X111316136Y-120518253D01*
X111316136Y-120518253D01*
G37*
G36*
X131588677Y-117903465D02*
X131626364Y-117914898D01*
X131661103Y-117933466D01*
X131691548Y-117958452D01*
X131716534Y-117988897D01*
X131735102Y-118023636D01*
X131746535Y-118061323D01*
X131751000Y-118106661D01*
X131751000Y-118943339D01*
X131746535Y-118988677D01*
X131735102Y-119026364D01*
X131716534Y-119061103D01*
X131691548Y-119091548D01*
X131661103Y-119116534D01*
X131626364Y-119135102D01*
X131588677Y-119146535D01*
X131543339Y-119151000D01*
X130456661Y-119151000D01*
X130411323Y-119146535D01*
X130373636Y-119135102D01*
X130338897Y-119116534D01*
X130308452Y-119091548D01*
X130283466Y-119061103D01*
X130264898Y-119026364D01*
X130253465Y-118988677D01*
X130249000Y-118943339D01*
X130249000Y-118106661D01*
X130253465Y-118061323D01*
X130264898Y-118023636D01*
X130283466Y-117988897D01*
X130308452Y-117958452D01*
X130338897Y-117933466D01*
X130373636Y-117914898D01*
X130411323Y-117903465D01*
X130456661Y-117899000D01*
X131543339Y-117899000D01*
X131588677Y-117903465D01*
X131588677Y-117903465D01*
G37*
G36*
X120988677Y-117253465D02*
X121026364Y-117264898D01*
X121061103Y-117283466D01*
X121091548Y-117308452D01*
X121116534Y-117338897D01*
X121135102Y-117373636D01*
X121146535Y-117411323D01*
X121151000Y-117456661D01*
X121151000Y-118543339D01*
X121146535Y-118588677D01*
X121135102Y-118626364D01*
X121116534Y-118661103D01*
X121091548Y-118691548D01*
X121061103Y-118716534D01*
X121026364Y-118735102D01*
X120988677Y-118746535D01*
X120943339Y-118751000D01*
X120106661Y-118751000D01*
X120061323Y-118746535D01*
X120023636Y-118735102D01*
X119988897Y-118716534D01*
X119958452Y-118691548D01*
X119933466Y-118661103D01*
X119914898Y-118626364D01*
X119903465Y-118588677D01*
X119899000Y-118543339D01*
X119899000Y-117456661D01*
X119903465Y-117411323D01*
X119914898Y-117373636D01*
X119933466Y-117338897D01*
X119958452Y-117308452D01*
X119988897Y-117283466D01*
X120023636Y-117264898D01*
X120061323Y-117253465D01*
X120106661Y-117249000D01*
X120943339Y-117249000D01*
X120988677Y-117253465D01*
X120988677Y-117253465D01*
G37*
G36*
X118938677Y-117253465D02*
X118976364Y-117264898D01*
X119011103Y-117283466D01*
X119041548Y-117308452D01*
X119066534Y-117338897D01*
X119085102Y-117373636D01*
X119096535Y-117411323D01*
X119101000Y-117456661D01*
X119101000Y-118543339D01*
X119096535Y-118588677D01*
X119085102Y-118626364D01*
X119066534Y-118661103D01*
X119041548Y-118691548D01*
X119011103Y-118716534D01*
X118976364Y-118735102D01*
X118938677Y-118746535D01*
X118893339Y-118751000D01*
X118056661Y-118751000D01*
X118011323Y-118746535D01*
X117973636Y-118735102D01*
X117938897Y-118716534D01*
X117908452Y-118691548D01*
X117883466Y-118661103D01*
X117864898Y-118626364D01*
X117853465Y-118588677D01*
X117849000Y-118543339D01*
X117849000Y-117456661D01*
X117853465Y-117411323D01*
X117864898Y-117373636D01*
X117883466Y-117338897D01*
X117908452Y-117308452D01*
X117938897Y-117283466D01*
X117973636Y-117264898D01*
X118011323Y-117253465D01*
X118056661Y-117249000D01*
X118893339Y-117249000D01*
X118938677Y-117253465D01*
X118938677Y-117253465D01*
G37*
G36*
X131588677Y-115853465D02*
X131626364Y-115864898D01*
X131661103Y-115883466D01*
X131691548Y-115908452D01*
X131716534Y-115938897D01*
X131735102Y-115973636D01*
X131746535Y-116011323D01*
X131751000Y-116056661D01*
X131751000Y-116893339D01*
X131746535Y-116938677D01*
X131735102Y-116976364D01*
X131716534Y-117011103D01*
X131691548Y-117041548D01*
X131661103Y-117066534D01*
X131626364Y-117085102D01*
X131588677Y-117096535D01*
X131543339Y-117101000D01*
X130456661Y-117101000D01*
X130411323Y-117096535D01*
X130373636Y-117085102D01*
X130338897Y-117066534D01*
X130308452Y-117041548D01*
X130283466Y-117011103D01*
X130264898Y-116976364D01*
X130253465Y-116938677D01*
X130249000Y-116893339D01*
X130249000Y-116056661D01*
X130253465Y-116011323D01*
X130264898Y-115973636D01*
X130283466Y-115938897D01*
X130308452Y-115908452D01*
X130338897Y-115883466D01*
X130373636Y-115864898D01*
X130411323Y-115853465D01*
X130456661Y-115849000D01*
X131543339Y-115849000D01*
X131588677Y-115853465D01*
X131588677Y-115853465D01*
G37*
G36*
X118938677Y-115253465D02*
X118976364Y-115264898D01*
X119011103Y-115283466D01*
X119041548Y-115308452D01*
X119066534Y-115338897D01*
X119085102Y-115373636D01*
X119096535Y-115411323D01*
X119101000Y-115456661D01*
X119101000Y-116543339D01*
X119096535Y-116588677D01*
X119085102Y-116626364D01*
X119066534Y-116661103D01*
X119041548Y-116691548D01*
X119011103Y-116716534D01*
X118976364Y-116735102D01*
X118938677Y-116746535D01*
X118893339Y-116751000D01*
X118056661Y-116751000D01*
X118011323Y-116746535D01*
X117973636Y-116735102D01*
X117938897Y-116716534D01*
X117908452Y-116691548D01*
X117883466Y-116661103D01*
X117864898Y-116626364D01*
X117853465Y-116588677D01*
X117849000Y-116543339D01*
X117849000Y-115456661D01*
X117853465Y-115411323D01*
X117864898Y-115373636D01*
X117883466Y-115338897D01*
X117908452Y-115308452D01*
X117938897Y-115283466D01*
X117973636Y-115264898D01*
X118011323Y-115253465D01*
X118056661Y-115249000D01*
X118893339Y-115249000D01*
X118938677Y-115253465D01*
X118938677Y-115253465D01*
G37*
G36*
X120988677Y-115253465D02*
X121026364Y-115264898D01*
X121061103Y-115283466D01*
X121091548Y-115308452D01*
X121116534Y-115338897D01*
X121135102Y-115373636D01*
X121146535Y-115411323D01*
X121151000Y-115456661D01*
X121151000Y-116543339D01*
X121146535Y-116588677D01*
X121135102Y-116626364D01*
X121116534Y-116661103D01*
X121091548Y-116691548D01*
X121061103Y-116716534D01*
X121026364Y-116735102D01*
X120988677Y-116746535D01*
X120943339Y-116751000D01*
X120106661Y-116751000D01*
X120061323Y-116746535D01*
X120023636Y-116735102D01*
X119988897Y-116716534D01*
X119958452Y-116691548D01*
X119933466Y-116661103D01*
X119914898Y-116626364D01*
X119903465Y-116588677D01*
X119899000Y-116543339D01*
X119899000Y-115456661D01*
X119903465Y-115411323D01*
X119914898Y-115373636D01*
X119933466Y-115338897D01*
X119958452Y-115308452D01*
X119988897Y-115283466D01*
X120023636Y-115264898D01*
X120061323Y-115253465D01*
X120106661Y-115249000D01*
X120943339Y-115249000D01*
X120988677Y-115253465D01*
X120988677Y-115253465D01*
G37*
G36*
X133463677Y-113753465D02*
X133501364Y-113764898D01*
X133536103Y-113783466D01*
X133566548Y-113808452D01*
X133591534Y-113838897D01*
X133610102Y-113873636D01*
X133621535Y-113911323D01*
X133626000Y-113956661D01*
X133626000Y-115043339D01*
X133621535Y-115088677D01*
X133610102Y-115126364D01*
X133591534Y-115161103D01*
X133566548Y-115191548D01*
X133536103Y-115216534D01*
X133501364Y-115235102D01*
X133463677Y-115246535D01*
X133418339Y-115251000D01*
X132581661Y-115251000D01*
X132536323Y-115246535D01*
X132498636Y-115235102D01*
X132463897Y-115216534D01*
X132433452Y-115191548D01*
X132408466Y-115161103D01*
X132389898Y-115126364D01*
X132378465Y-115088677D01*
X132374000Y-115043339D01*
X132374000Y-113956661D01*
X132378465Y-113911323D01*
X132389898Y-113873636D01*
X132408466Y-113838897D01*
X132433452Y-113808452D01*
X132463897Y-113783466D01*
X132498636Y-113764898D01*
X132536323Y-113753465D01*
X132581661Y-113749000D01*
X133418339Y-113749000D01*
X133463677Y-113753465D01*
X133463677Y-113753465D01*
G37*
G36*
X131413677Y-113753465D02*
X131451364Y-113764898D01*
X131486103Y-113783466D01*
X131516548Y-113808452D01*
X131541534Y-113838897D01*
X131560102Y-113873636D01*
X131571535Y-113911323D01*
X131576000Y-113956661D01*
X131576000Y-115043339D01*
X131571535Y-115088677D01*
X131560102Y-115126364D01*
X131541534Y-115161103D01*
X131516548Y-115191548D01*
X131486103Y-115216534D01*
X131451364Y-115235102D01*
X131413677Y-115246535D01*
X131368339Y-115251000D01*
X130531661Y-115251000D01*
X130486323Y-115246535D01*
X130448636Y-115235102D01*
X130413897Y-115216534D01*
X130383452Y-115191548D01*
X130358466Y-115161103D01*
X130339898Y-115126364D01*
X130328465Y-115088677D01*
X130324000Y-115043339D01*
X130324000Y-113956661D01*
X130328465Y-113911323D01*
X130339898Y-113873636D01*
X130358466Y-113838897D01*
X130383452Y-113808452D01*
X130413897Y-113783466D01*
X130448636Y-113764898D01*
X130486323Y-113753465D01*
X130531661Y-113749000D01*
X131368339Y-113749000D01*
X131413677Y-113753465D01*
X131413677Y-113753465D01*
G37*
G36*
X84388413Y-111055525D02*
X84463456Y-111078290D01*
X84473425Y-111081314D01*
X84551774Y-111123193D01*
X84620448Y-111179552D01*
X84676807Y-111248226D01*
X84718686Y-111326575D01*
X84718687Y-111326579D01*
X84744475Y-111411587D01*
X84753182Y-111500000D01*
X84744475Y-111588413D01*
X84722424Y-111661103D01*
X84718686Y-111673425D01*
X84695643Y-111716534D01*
X84676807Y-111751775D01*
X84651496Y-111782615D01*
X84627850Y-111811429D01*
X84614239Y-111831798D01*
X84604862Y-111854437D01*
X84600081Y-111878471D01*
X84600081Y-111902975D01*
X84604861Y-111927008D01*
X84614238Y-111949648D01*
X84627852Y-111970022D01*
X84645179Y-111987350D01*
X84665553Y-112000964D01*
X84688192Y-112010341D01*
X84712226Y-112015122D01*
X84736730Y-112015122D01*
X84760763Y-112010342D01*
X84769212Y-112006843D01*
X84776599Y-112004602D01*
X84776601Y-112004601D01*
X84922878Y-111960229D01*
X84922881Y-111960228D01*
X85036882Y-111949000D01*
X85663118Y-111949000D01*
X85777119Y-111960228D01*
X85777122Y-111960229D01*
X85923399Y-112004601D01*
X85923401Y-112004602D01*
X86058210Y-112076659D01*
X86176369Y-112173631D01*
X86273341Y-112291790D01*
X86273342Y-112291792D01*
X86345399Y-112426601D01*
X86361241Y-112478827D01*
X86389772Y-112572881D01*
X86404754Y-112725000D01*
X86389772Y-112877119D01*
X86345398Y-113023401D01*
X86273341Y-113158210D01*
X86176369Y-113276369D01*
X86058210Y-113373341D01*
X86012043Y-113398018D01*
X85923399Y-113445399D01*
X85804352Y-113481511D01*
X85777119Y-113489772D01*
X85663118Y-113501000D01*
X85036882Y-113501000D01*
X84922881Y-113489772D01*
X84895648Y-113481511D01*
X84776601Y-113445399D01*
X84687957Y-113398018D01*
X84641790Y-113373341D01*
X84523631Y-113276369D01*
X84426659Y-113158210D01*
X84354602Y-113023401D01*
X84310228Y-112877119D01*
X84295246Y-112725000D01*
X84310228Y-112572881D01*
X84338759Y-112478827D01*
X84354601Y-112426601D01*
X84426658Y-112291792D01*
X84426659Y-112291790D01*
X84523632Y-112173630D01*
X84560105Y-112143696D01*
X84577432Y-112126369D01*
X84591046Y-112105994D01*
X84600423Y-112083355D01*
X84605203Y-112059322D01*
X84605203Y-112034817D01*
X84600422Y-112010784D01*
X84591044Y-111988145D01*
X84577430Y-111967771D01*
X84560103Y-111950444D01*
X84539728Y-111936830D01*
X84517089Y-111927453D01*
X84493056Y-111922673D01*
X84468551Y-111922673D01*
X84444524Y-111927453D01*
X84423489Y-111933833D01*
X84388411Y-111944475D01*
X84322158Y-111951000D01*
X84277842Y-111951000D01*
X84211587Y-111944475D01*
X84136544Y-111921710D01*
X84126575Y-111918686D01*
X84048226Y-111876807D01*
X83979552Y-111820448D01*
X83923193Y-111751774D01*
X83881314Y-111673425D01*
X83877576Y-111661103D01*
X83855525Y-111588413D01*
X83846818Y-111500000D01*
X83855525Y-111411587D01*
X83881313Y-111326579D01*
X83881314Y-111326575D01*
X83923193Y-111248226D01*
X83979552Y-111179552D01*
X84048226Y-111123193D01*
X84126575Y-111081314D01*
X84136544Y-111078290D01*
X84211587Y-111055525D01*
X84277842Y-111049000D01*
X84322158Y-111049000D01*
X84388413Y-111055525D01*
X84388413Y-111055525D01*
G37*
G36*
X81997714Y-112258058D02*
X81997717Y-112258059D01*
X82115719Y-112293854D01*
X82115721Y-112293855D01*
X82224471Y-112351983D01*
X82319790Y-112430210D01*
X82398017Y-112525529D01*
X82423327Y-112572881D01*
X82456146Y-112634281D01*
X82477638Y-112705131D01*
X82491942Y-112752286D01*
X82504028Y-112875000D01*
X82491942Y-112997714D01*
X82456145Y-113115721D01*
X82398017Y-113224471D01*
X82319790Y-113319790D01*
X82224471Y-113398017D01*
X82224469Y-113398018D01*
X82115719Y-113456146D01*
X82019683Y-113485278D01*
X81997714Y-113491942D01*
X81905747Y-113501000D01*
X81194253Y-113501000D01*
X81102286Y-113491942D01*
X81080317Y-113485278D01*
X80984281Y-113456146D01*
X80875531Y-113398018D01*
X80875529Y-113398017D01*
X80780210Y-113319790D01*
X80701983Y-113224471D01*
X80643855Y-113115721D01*
X80608058Y-112997714D01*
X80595972Y-112875000D01*
X80608058Y-112752286D01*
X80622362Y-112705131D01*
X80643854Y-112634281D01*
X80676673Y-112572881D01*
X80701983Y-112525529D01*
X80780210Y-112430210D01*
X80875529Y-112351983D01*
X80984279Y-112293855D01*
X80984281Y-112293854D01*
X81102283Y-112258059D01*
X81102286Y-112258058D01*
X81194253Y-112249000D01*
X81905747Y-112249000D01*
X81997714Y-112258058D01*
X81997714Y-112258058D01*
G37*
G36*
X105438677Y-111253465D02*
X105476364Y-111264898D01*
X105511103Y-111283466D01*
X105541548Y-111308452D01*
X105566534Y-111338897D01*
X105585102Y-111373636D01*
X105596535Y-111411323D01*
X105601000Y-111456661D01*
X105601000Y-112543339D01*
X105596535Y-112588677D01*
X105585102Y-112626364D01*
X105566534Y-112661103D01*
X105541548Y-112691548D01*
X105511103Y-112716534D01*
X105476364Y-112735102D01*
X105438677Y-112746535D01*
X105393339Y-112751000D01*
X104556661Y-112751000D01*
X104511323Y-112746535D01*
X104473636Y-112735102D01*
X104438897Y-112716534D01*
X104408452Y-112691548D01*
X104383466Y-112661103D01*
X104364898Y-112626364D01*
X104353465Y-112588677D01*
X104349000Y-112543339D01*
X104349000Y-111456661D01*
X104353465Y-111411323D01*
X104364898Y-111373636D01*
X104383466Y-111338897D01*
X104408452Y-111308452D01*
X104438897Y-111283466D01*
X104473636Y-111264898D01*
X104511323Y-111253465D01*
X104556661Y-111249000D01*
X105393339Y-111249000D01*
X105438677Y-111253465D01*
X105438677Y-111253465D01*
G37*
G36*
X107488677Y-111253465D02*
X107526364Y-111264898D01*
X107561103Y-111283466D01*
X107591548Y-111308452D01*
X107616534Y-111338897D01*
X107635102Y-111373636D01*
X107646535Y-111411323D01*
X107651000Y-111456661D01*
X107651000Y-112543339D01*
X107646535Y-112588677D01*
X107635102Y-112626364D01*
X107616534Y-112661103D01*
X107591548Y-112691548D01*
X107561103Y-112716534D01*
X107526364Y-112735102D01*
X107488677Y-112746535D01*
X107443339Y-112751000D01*
X106606661Y-112751000D01*
X106561323Y-112746535D01*
X106523636Y-112735102D01*
X106488897Y-112716534D01*
X106458452Y-112691548D01*
X106433466Y-112661103D01*
X106414898Y-112626364D01*
X106403465Y-112588677D01*
X106399000Y-112543339D01*
X106399000Y-111456661D01*
X106403465Y-111411323D01*
X106414898Y-111373636D01*
X106433466Y-111338897D01*
X106458452Y-111308452D01*
X106488897Y-111283466D01*
X106523636Y-111264898D01*
X106561323Y-111253465D01*
X106606661Y-111249000D01*
X107443339Y-111249000D01*
X107488677Y-111253465D01*
X107488677Y-111253465D01*
G37*
G36*
X129938677Y-110253465D02*
X129976364Y-110264898D01*
X130011103Y-110283466D01*
X130041548Y-110308452D01*
X130066534Y-110338897D01*
X130085102Y-110373636D01*
X130096535Y-110411323D01*
X130101000Y-110456661D01*
X130101000Y-111543339D01*
X130096535Y-111588677D01*
X130085102Y-111626364D01*
X130066534Y-111661103D01*
X130041548Y-111691548D01*
X130011103Y-111716534D01*
X129976364Y-111735102D01*
X129938677Y-111746535D01*
X129893339Y-111751000D01*
X129056661Y-111751000D01*
X129011323Y-111746535D01*
X128973636Y-111735102D01*
X128938897Y-111716534D01*
X128908452Y-111691548D01*
X128883466Y-111661103D01*
X128864898Y-111626364D01*
X128853465Y-111588677D01*
X128849000Y-111543339D01*
X128849000Y-110456661D01*
X128853465Y-110411323D01*
X128864898Y-110373636D01*
X128883466Y-110338897D01*
X128908452Y-110308452D01*
X128938897Y-110283466D01*
X128973636Y-110264898D01*
X129011323Y-110253465D01*
X129056661Y-110249000D01*
X129893339Y-110249000D01*
X129938677Y-110253465D01*
X129938677Y-110253465D01*
G37*
G36*
X131988677Y-110253465D02*
X132026364Y-110264898D01*
X132061103Y-110283466D01*
X132091548Y-110308452D01*
X132116534Y-110338897D01*
X132135102Y-110373636D01*
X132146535Y-110411323D01*
X132151000Y-110456661D01*
X132151000Y-111543339D01*
X132146535Y-111588677D01*
X132135102Y-111626364D01*
X132116534Y-111661103D01*
X132091548Y-111691548D01*
X132061103Y-111716534D01*
X132026364Y-111735102D01*
X131988677Y-111746535D01*
X131943339Y-111751000D01*
X131106661Y-111751000D01*
X131061323Y-111746535D01*
X131023636Y-111735102D01*
X130988897Y-111716534D01*
X130958452Y-111691548D01*
X130933466Y-111661103D01*
X130914898Y-111626364D01*
X130903465Y-111588677D01*
X130899000Y-111543339D01*
X130899000Y-110456661D01*
X130903465Y-110411323D01*
X130914898Y-110373636D01*
X130933466Y-110338897D01*
X130958452Y-110308452D01*
X130988897Y-110283466D01*
X131023636Y-110264898D01*
X131061323Y-110253465D01*
X131106661Y-110249000D01*
X131943339Y-110249000D01*
X131988677Y-110253465D01*
X131988677Y-110253465D01*
G37*
G36*
X160601286Y-109566629D02*
X160701266Y-109586516D01*
X160826838Y-109638530D01*
X160939850Y-109714042D01*
X161035958Y-109810150D01*
X161111470Y-109923162D01*
X161163484Y-110048734D01*
X161190000Y-110182041D01*
X161190000Y-110317959D01*
X161163484Y-110451266D01*
X161111470Y-110576838D01*
X161035958Y-110689850D01*
X160939850Y-110785958D01*
X160826838Y-110861470D01*
X160701266Y-110913484D01*
X160601286Y-110933371D01*
X160567960Y-110940000D01*
X160432040Y-110940000D01*
X160398714Y-110933371D01*
X160298734Y-110913484D01*
X160173162Y-110861470D01*
X160060150Y-110785958D01*
X159964042Y-110689850D01*
X159888530Y-110576838D01*
X159836516Y-110451266D01*
X159810000Y-110317959D01*
X159810000Y-110182041D01*
X159836516Y-110048734D01*
X159888530Y-109923162D01*
X159964042Y-109810150D01*
X160060150Y-109714042D01*
X160173162Y-109638530D01*
X160298734Y-109586516D01*
X160398714Y-109566629D01*
X160432040Y-109560000D01*
X160567960Y-109560000D01*
X160601286Y-109566629D01*
X160601286Y-109566629D01*
G37*
G36*
X105438677Y-109253465D02*
X105476364Y-109264898D01*
X105511103Y-109283466D01*
X105541548Y-109308452D01*
X105566534Y-109338897D01*
X105585102Y-109373636D01*
X105596535Y-109411323D01*
X105601000Y-109456661D01*
X105601000Y-110543339D01*
X105596535Y-110588677D01*
X105585102Y-110626364D01*
X105566534Y-110661103D01*
X105541548Y-110691548D01*
X105511103Y-110716534D01*
X105476364Y-110735102D01*
X105438677Y-110746535D01*
X105393339Y-110751000D01*
X104556661Y-110751000D01*
X104511323Y-110746535D01*
X104473636Y-110735102D01*
X104438897Y-110716534D01*
X104408452Y-110691548D01*
X104383466Y-110661103D01*
X104364898Y-110626364D01*
X104353465Y-110588677D01*
X104349000Y-110543339D01*
X104349000Y-109456661D01*
X104353465Y-109411323D01*
X104364898Y-109373636D01*
X104383466Y-109338897D01*
X104408452Y-109308452D01*
X104438897Y-109283466D01*
X104473636Y-109264898D01*
X104511323Y-109253465D01*
X104556661Y-109249000D01*
X105393339Y-109249000D01*
X105438677Y-109253465D01*
X105438677Y-109253465D01*
G37*
G36*
X107488677Y-109253465D02*
X107526364Y-109264898D01*
X107561103Y-109283466D01*
X107591548Y-109308452D01*
X107616534Y-109338897D01*
X107635102Y-109373636D01*
X107646535Y-109411323D01*
X107651000Y-109456661D01*
X107651000Y-110543339D01*
X107646535Y-110588677D01*
X107635102Y-110626364D01*
X107616534Y-110661103D01*
X107591548Y-110691548D01*
X107561103Y-110716534D01*
X107526364Y-110735102D01*
X107488677Y-110746535D01*
X107443339Y-110751000D01*
X106606661Y-110751000D01*
X106561323Y-110746535D01*
X106523636Y-110735102D01*
X106488897Y-110716534D01*
X106458452Y-110691548D01*
X106433466Y-110661103D01*
X106414898Y-110626364D01*
X106403465Y-110588677D01*
X106399000Y-110543339D01*
X106399000Y-109456661D01*
X106403465Y-109411323D01*
X106414898Y-109373636D01*
X106433466Y-109338897D01*
X106458452Y-109308452D01*
X106488897Y-109283466D01*
X106523636Y-109264898D01*
X106561323Y-109253465D01*
X106606661Y-109249000D01*
X107443339Y-109249000D01*
X107488677Y-109253465D01*
X107488677Y-109253465D01*
G37*
G36*
X112238677Y-108253465D02*
X112276364Y-108264898D01*
X112311103Y-108283466D01*
X112341548Y-108308452D01*
X112366534Y-108338897D01*
X112385102Y-108373636D01*
X112396535Y-108411323D01*
X112401000Y-108456661D01*
X112401000Y-109543339D01*
X112396535Y-109588677D01*
X112385102Y-109626364D01*
X112366534Y-109661103D01*
X112341548Y-109691548D01*
X112311103Y-109716534D01*
X112276364Y-109735102D01*
X112238677Y-109746535D01*
X112193339Y-109751000D01*
X111356661Y-109751000D01*
X111311323Y-109746535D01*
X111273636Y-109735102D01*
X111238897Y-109716534D01*
X111208452Y-109691548D01*
X111183466Y-109661103D01*
X111164898Y-109626364D01*
X111153465Y-109588677D01*
X111149000Y-109543339D01*
X111149000Y-108456661D01*
X111153465Y-108411323D01*
X111164898Y-108373636D01*
X111183466Y-108338897D01*
X111208452Y-108308452D01*
X111238897Y-108283466D01*
X111273636Y-108264898D01*
X111311323Y-108253465D01*
X111356661Y-108249000D01*
X112193339Y-108249000D01*
X112238677Y-108253465D01*
X112238677Y-108253465D01*
G37*
G36*
X110188677Y-108253465D02*
X110226364Y-108264898D01*
X110261103Y-108283466D01*
X110291548Y-108308452D01*
X110316534Y-108338897D01*
X110335102Y-108373636D01*
X110346535Y-108411323D01*
X110351000Y-108456661D01*
X110351000Y-109543339D01*
X110346535Y-109588677D01*
X110335102Y-109626364D01*
X110316534Y-109661103D01*
X110291548Y-109691548D01*
X110261103Y-109716534D01*
X110226364Y-109735102D01*
X110188677Y-109746535D01*
X110143339Y-109751000D01*
X109306661Y-109751000D01*
X109261323Y-109746535D01*
X109223636Y-109735102D01*
X109188897Y-109716534D01*
X109158452Y-109691548D01*
X109133466Y-109661103D01*
X109114898Y-109626364D01*
X109103465Y-109588677D01*
X109099000Y-109543339D01*
X109099000Y-108456661D01*
X109103465Y-108411323D01*
X109114898Y-108373636D01*
X109133466Y-108338897D01*
X109158452Y-108308452D01*
X109188897Y-108283466D01*
X109223636Y-108264898D01*
X109261323Y-108253465D01*
X109306661Y-108249000D01*
X110143339Y-108249000D01*
X110188677Y-108253465D01*
X110188677Y-108253465D01*
G37*
G36*
X94088677Y-108403465D02*
X94126364Y-108414898D01*
X94161103Y-108433466D01*
X94191548Y-108458452D01*
X94216534Y-108488897D01*
X94235102Y-108523636D01*
X94246535Y-108561323D01*
X94251000Y-108606661D01*
X94251000Y-109443339D01*
X94246535Y-109488677D01*
X94235102Y-109526364D01*
X94216534Y-109561103D01*
X94191548Y-109591548D01*
X94161103Y-109616534D01*
X94126364Y-109635102D01*
X94088677Y-109646535D01*
X94043339Y-109651000D01*
X92956661Y-109651000D01*
X92911323Y-109646535D01*
X92873636Y-109635102D01*
X92838897Y-109616534D01*
X92808452Y-109591548D01*
X92783466Y-109561103D01*
X92764898Y-109526364D01*
X92753465Y-109488677D01*
X92749000Y-109443339D01*
X92749000Y-108606661D01*
X92753465Y-108561323D01*
X92764898Y-108523636D01*
X92783466Y-108488897D01*
X92808452Y-108458452D01*
X92838897Y-108433466D01*
X92873636Y-108414898D01*
X92911323Y-108403465D01*
X92956661Y-108399000D01*
X94043339Y-108399000D01*
X94088677Y-108403465D01*
X94088677Y-108403465D01*
G37*
G36*
X96088677Y-108403465D02*
X96126364Y-108414898D01*
X96161103Y-108433466D01*
X96191548Y-108458452D01*
X96216534Y-108488897D01*
X96235102Y-108523636D01*
X96246535Y-108561323D01*
X96251000Y-108606661D01*
X96251000Y-109443339D01*
X96246535Y-109488677D01*
X96235102Y-109526364D01*
X96216534Y-109561103D01*
X96191548Y-109591548D01*
X96161103Y-109616534D01*
X96126364Y-109635102D01*
X96088677Y-109646535D01*
X96043339Y-109651000D01*
X94956661Y-109651000D01*
X94911323Y-109646535D01*
X94873636Y-109635102D01*
X94838897Y-109616534D01*
X94808452Y-109591548D01*
X94783466Y-109561103D01*
X94764898Y-109526364D01*
X94753465Y-109488677D01*
X94749000Y-109443339D01*
X94749000Y-108606661D01*
X94753465Y-108561323D01*
X94764898Y-108523636D01*
X94783466Y-108488897D01*
X94808452Y-108458452D01*
X94838897Y-108433466D01*
X94873636Y-108414898D01*
X94911323Y-108403465D01*
X94956661Y-108399000D01*
X96043339Y-108399000D01*
X96088677Y-108403465D01*
X96088677Y-108403465D01*
G37*
G36*
X107513677Y-107253465D02*
X107551364Y-107264898D01*
X107586103Y-107283466D01*
X107616548Y-107308452D01*
X107641534Y-107338897D01*
X107660102Y-107373636D01*
X107671535Y-107411323D01*
X107676000Y-107456661D01*
X107676000Y-108543339D01*
X107671535Y-108588677D01*
X107660102Y-108626364D01*
X107641534Y-108661103D01*
X107616548Y-108691548D01*
X107586103Y-108716534D01*
X107551364Y-108735102D01*
X107513677Y-108746535D01*
X107468339Y-108751000D01*
X106631661Y-108751000D01*
X106586323Y-108746535D01*
X106548636Y-108735102D01*
X106513897Y-108716534D01*
X106483452Y-108691548D01*
X106458466Y-108661103D01*
X106439898Y-108626364D01*
X106428465Y-108588677D01*
X106424000Y-108543339D01*
X106424000Y-107456661D01*
X106428465Y-107411323D01*
X106439898Y-107373636D01*
X106458466Y-107338897D01*
X106483452Y-107308452D01*
X106513897Y-107283466D01*
X106548636Y-107264898D01*
X106586323Y-107253465D01*
X106631661Y-107249000D01*
X107468339Y-107249000D01*
X107513677Y-107253465D01*
X107513677Y-107253465D01*
G37*
G36*
X105463677Y-107253465D02*
X105501364Y-107264898D01*
X105536103Y-107283466D01*
X105566548Y-107308452D01*
X105591534Y-107338897D01*
X105610102Y-107373636D01*
X105621535Y-107411323D01*
X105626000Y-107456661D01*
X105626000Y-108543339D01*
X105621535Y-108588677D01*
X105610102Y-108626364D01*
X105591534Y-108661103D01*
X105566548Y-108691548D01*
X105536103Y-108716534D01*
X105501364Y-108735102D01*
X105463677Y-108746535D01*
X105418339Y-108751000D01*
X104581661Y-108751000D01*
X104536323Y-108746535D01*
X104498636Y-108735102D01*
X104463897Y-108716534D01*
X104433452Y-108691548D01*
X104408466Y-108661103D01*
X104389898Y-108626364D01*
X104378465Y-108588677D01*
X104374000Y-108543339D01*
X104374000Y-107456661D01*
X104378465Y-107411323D01*
X104389898Y-107373636D01*
X104408466Y-107338897D01*
X104433452Y-107308452D01*
X104463897Y-107283466D01*
X104498636Y-107264898D01*
X104536323Y-107253465D01*
X104581661Y-107249000D01*
X105418339Y-107249000D01*
X105463677Y-107253465D01*
X105463677Y-107253465D01*
G37*
G36*
X160601286Y-107066629D02*
X160701266Y-107086516D01*
X160826838Y-107138530D01*
X160939850Y-107214042D01*
X161035958Y-107310150D01*
X161111470Y-107423162D01*
X161163484Y-107548734D01*
X161190000Y-107682041D01*
X161190000Y-107817959D01*
X161163484Y-107951266D01*
X161111470Y-108076838D01*
X161035958Y-108189850D01*
X160939850Y-108285958D01*
X160826838Y-108361470D01*
X160701266Y-108413484D01*
X160601286Y-108433371D01*
X160567960Y-108440000D01*
X160432040Y-108440000D01*
X160398714Y-108433371D01*
X160298734Y-108413484D01*
X160173162Y-108361470D01*
X160060150Y-108285958D01*
X159964042Y-108189850D01*
X159888530Y-108076838D01*
X159836516Y-107951266D01*
X159810000Y-107817959D01*
X159810000Y-107682041D01*
X159836516Y-107548734D01*
X159888530Y-107423162D01*
X159964042Y-107310150D01*
X160060150Y-107214042D01*
X160173162Y-107138530D01*
X160298734Y-107086516D01*
X160398714Y-107066629D01*
X160432040Y-107060000D01*
X160567960Y-107060000D01*
X160601286Y-107066629D01*
X160601286Y-107066629D01*
G37*
G36*
X133088677Y-106903465D02*
X133126364Y-106914898D01*
X133161103Y-106933466D01*
X133191548Y-106958452D01*
X133216534Y-106988897D01*
X133235102Y-107023636D01*
X133246535Y-107061323D01*
X133251000Y-107106661D01*
X133251000Y-107943339D01*
X133246535Y-107988677D01*
X133235102Y-108026364D01*
X133216534Y-108061103D01*
X133191548Y-108091548D01*
X133161103Y-108116534D01*
X133126364Y-108135102D01*
X133088677Y-108146535D01*
X133043339Y-108151000D01*
X131956661Y-108151000D01*
X131911323Y-108146535D01*
X131873636Y-108135102D01*
X131838897Y-108116534D01*
X131808452Y-108091548D01*
X131783466Y-108061103D01*
X131764898Y-108026364D01*
X131753465Y-107988677D01*
X131749000Y-107943339D01*
X131749000Y-107106661D01*
X131753465Y-107061323D01*
X131764898Y-107023636D01*
X131783466Y-106988897D01*
X131808452Y-106958452D01*
X131838897Y-106933466D01*
X131873636Y-106914898D01*
X131911323Y-106903465D01*
X131956661Y-106899000D01*
X133043339Y-106899000D01*
X133088677Y-106903465D01*
X133088677Y-106903465D01*
G37*
G36*
X135088677Y-106903465D02*
X135126364Y-106914898D01*
X135161103Y-106933466D01*
X135191548Y-106958452D01*
X135216534Y-106988897D01*
X135235102Y-107023636D01*
X135246535Y-107061323D01*
X135251000Y-107106661D01*
X135251000Y-107943339D01*
X135246535Y-107988677D01*
X135235102Y-108026364D01*
X135216534Y-108061103D01*
X135191548Y-108091548D01*
X135161103Y-108116534D01*
X135126364Y-108135102D01*
X135088677Y-108146535D01*
X135043339Y-108151000D01*
X133956661Y-108151000D01*
X133911323Y-108146535D01*
X133873636Y-108135102D01*
X133838897Y-108116534D01*
X133808452Y-108091548D01*
X133783466Y-108061103D01*
X133764898Y-108026364D01*
X133753465Y-107988677D01*
X133749000Y-107943339D01*
X133749000Y-107106661D01*
X133753465Y-107061323D01*
X133764898Y-107023636D01*
X133783466Y-106988897D01*
X133808452Y-106958452D01*
X133838897Y-106933466D01*
X133873636Y-106914898D01*
X133911323Y-106903465D01*
X133956661Y-106899000D01*
X135043339Y-106899000D01*
X135088677Y-106903465D01*
X135088677Y-106903465D01*
G37*
G36*
X131088677Y-106903465D02*
X131126364Y-106914898D01*
X131161103Y-106933466D01*
X131191548Y-106958452D01*
X131216534Y-106988897D01*
X131235102Y-107023636D01*
X131246535Y-107061323D01*
X131251000Y-107106661D01*
X131251000Y-107943339D01*
X131246535Y-107988677D01*
X131235102Y-108026364D01*
X131216534Y-108061103D01*
X131191548Y-108091548D01*
X131161103Y-108116534D01*
X131126364Y-108135102D01*
X131088677Y-108146535D01*
X131043339Y-108151000D01*
X129956661Y-108151000D01*
X129911323Y-108146535D01*
X129873636Y-108135102D01*
X129838897Y-108116534D01*
X129808452Y-108091548D01*
X129783466Y-108061103D01*
X129764898Y-108026364D01*
X129753465Y-107988677D01*
X129749000Y-107943339D01*
X129749000Y-107106661D01*
X129753465Y-107061323D01*
X129764898Y-107023636D01*
X129783466Y-106988897D01*
X129808452Y-106958452D01*
X129838897Y-106933466D01*
X129873636Y-106914898D01*
X129911323Y-106903465D01*
X129956661Y-106899000D01*
X131043339Y-106899000D01*
X131088677Y-106903465D01*
X131088677Y-106903465D01*
G37*
G36*
X112238677Y-106253465D02*
X112276364Y-106264898D01*
X112311103Y-106283466D01*
X112341548Y-106308452D01*
X112366534Y-106338897D01*
X112385102Y-106373636D01*
X112396535Y-106411323D01*
X112401000Y-106456661D01*
X112401000Y-107543339D01*
X112396535Y-107588677D01*
X112385102Y-107626364D01*
X112366534Y-107661103D01*
X112341548Y-107691548D01*
X112311103Y-107716534D01*
X112276364Y-107735102D01*
X112238677Y-107746535D01*
X112193339Y-107751000D01*
X111356661Y-107751000D01*
X111311323Y-107746535D01*
X111273636Y-107735102D01*
X111238897Y-107716534D01*
X111208452Y-107691548D01*
X111183466Y-107661103D01*
X111164898Y-107626364D01*
X111153465Y-107588677D01*
X111149000Y-107543339D01*
X111149000Y-106456661D01*
X111153465Y-106411323D01*
X111164898Y-106373636D01*
X111183466Y-106338897D01*
X111208452Y-106308452D01*
X111238897Y-106283466D01*
X111273636Y-106264898D01*
X111311323Y-106253465D01*
X111356661Y-106249000D01*
X112193339Y-106249000D01*
X112238677Y-106253465D01*
X112238677Y-106253465D01*
G37*
G36*
X110188677Y-106253465D02*
X110226364Y-106264898D01*
X110261103Y-106283466D01*
X110291548Y-106308452D01*
X110316534Y-106338897D01*
X110335102Y-106373636D01*
X110346535Y-106411323D01*
X110351000Y-106456661D01*
X110351000Y-107543339D01*
X110346535Y-107588677D01*
X110335102Y-107626364D01*
X110316534Y-107661103D01*
X110291548Y-107691548D01*
X110261103Y-107716534D01*
X110226364Y-107735102D01*
X110188677Y-107746535D01*
X110143339Y-107751000D01*
X109306661Y-107751000D01*
X109261323Y-107746535D01*
X109223636Y-107735102D01*
X109188897Y-107716534D01*
X109158452Y-107691548D01*
X109133466Y-107661103D01*
X109114898Y-107626364D01*
X109103465Y-107588677D01*
X109099000Y-107543339D01*
X109099000Y-106456661D01*
X109103465Y-106411323D01*
X109114898Y-106373636D01*
X109133466Y-106338897D01*
X109158452Y-106308452D01*
X109188897Y-106283466D01*
X109223636Y-106264898D01*
X109261323Y-106253465D01*
X109306661Y-106249000D01*
X110143339Y-106249000D01*
X110188677Y-106253465D01*
X110188677Y-106253465D01*
G37*
G36*
X121088677Y-106403465D02*
X121126364Y-106414898D01*
X121161103Y-106433466D01*
X121191548Y-106458452D01*
X121216534Y-106488897D01*
X121235102Y-106523636D01*
X121246535Y-106561323D01*
X121251000Y-106606661D01*
X121251000Y-107443339D01*
X121246535Y-107488677D01*
X121235102Y-107526364D01*
X121216534Y-107561103D01*
X121191548Y-107591548D01*
X121161103Y-107616534D01*
X121126364Y-107635102D01*
X121088677Y-107646535D01*
X121043339Y-107651000D01*
X119956661Y-107651000D01*
X119911323Y-107646535D01*
X119873636Y-107635102D01*
X119838897Y-107616534D01*
X119808452Y-107591548D01*
X119783466Y-107561103D01*
X119764898Y-107526364D01*
X119753465Y-107488677D01*
X119749000Y-107443339D01*
X119749000Y-106606661D01*
X119753465Y-106561323D01*
X119764898Y-106523636D01*
X119783466Y-106488897D01*
X119808452Y-106458452D01*
X119838897Y-106433466D01*
X119873636Y-106414898D01*
X119911323Y-106403465D01*
X119956661Y-106399000D01*
X121043339Y-106399000D01*
X121088677Y-106403465D01*
X121088677Y-106403465D01*
G37*
G36*
X119088677Y-106403465D02*
X119126364Y-106414898D01*
X119161103Y-106433466D01*
X119191548Y-106458452D01*
X119216534Y-106488897D01*
X119235102Y-106523636D01*
X119246535Y-106561323D01*
X119251000Y-106606661D01*
X119251000Y-107443339D01*
X119246535Y-107488677D01*
X119235102Y-107526364D01*
X119216534Y-107561103D01*
X119191548Y-107591548D01*
X119161103Y-107616534D01*
X119126364Y-107635102D01*
X119088677Y-107646535D01*
X119043339Y-107651000D01*
X117956661Y-107651000D01*
X117911323Y-107646535D01*
X117873636Y-107635102D01*
X117838897Y-107616534D01*
X117808452Y-107591548D01*
X117783466Y-107561103D01*
X117764898Y-107526364D01*
X117753465Y-107488677D01*
X117749000Y-107443339D01*
X117749000Y-106606661D01*
X117753465Y-106561323D01*
X117764898Y-106523636D01*
X117783466Y-106488897D01*
X117808452Y-106458452D01*
X117838897Y-106433466D01*
X117873636Y-106414898D01*
X117911323Y-106403465D01*
X117956661Y-106399000D01*
X119043339Y-106399000D01*
X119088677Y-106403465D01*
X119088677Y-106403465D01*
G37*
G36*
X94088677Y-106353465D02*
X94126364Y-106364898D01*
X94161103Y-106383466D01*
X94191548Y-106408452D01*
X94216534Y-106438897D01*
X94235102Y-106473636D01*
X94246535Y-106511323D01*
X94251000Y-106556661D01*
X94251000Y-107393339D01*
X94246535Y-107438677D01*
X94235102Y-107476364D01*
X94216534Y-107511103D01*
X94191548Y-107541548D01*
X94161103Y-107566534D01*
X94126364Y-107585102D01*
X94088677Y-107596535D01*
X94043339Y-107601000D01*
X92956661Y-107601000D01*
X92911323Y-107596535D01*
X92873636Y-107585102D01*
X92838897Y-107566534D01*
X92808452Y-107541548D01*
X92783466Y-107511103D01*
X92764898Y-107476364D01*
X92753465Y-107438677D01*
X92749000Y-107393339D01*
X92749000Y-106556661D01*
X92753465Y-106511323D01*
X92764898Y-106473636D01*
X92783466Y-106438897D01*
X92808452Y-106408452D01*
X92838897Y-106383466D01*
X92873636Y-106364898D01*
X92911323Y-106353465D01*
X92956661Y-106349000D01*
X94043339Y-106349000D01*
X94088677Y-106353465D01*
X94088677Y-106353465D01*
G37*
G36*
X96088677Y-106353465D02*
X96126364Y-106364898D01*
X96161103Y-106383466D01*
X96191548Y-106408452D01*
X96216534Y-106438897D01*
X96235102Y-106473636D01*
X96246535Y-106511323D01*
X96251000Y-106556661D01*
X96251000Y-107393339D01*
X96246535Y-107438677D01*
X96235102Y-107476364D01*
X96216534Y-107511103D01*
X96191548Y-107541548D01*
X96161103Y-107566534D01*
X96126364Y-107585102D01*
X96088677Y-107596535D01*
X96043339Y-107601000D01*
X94956661Y-107601000D01*
X94911323Y-107596535D01*
X94873636Y-107585102D01*
X94838897Y-107566534D01*
X94808452Y-107541548D01*
X94783466Y-107511103D01*
X94764898Y-107476364D01*
X94753465Y-107438677D01*
X94749000Y-107393339D01*
X94749000Y-106556661D01*
X94753465Y-106511323D01*
X94764898Y-106473636D01*
X94783466Y-106438897D01*
X94808452Y-106408452D01*
X94838897Y-106383466D01*
X94873636Y-106364898D01*
X94911323Y-106353465D01*
X94956661Y-106349000D01*
X96043339Y-106349000D01*
X96088677Y-106353465D01*
X96088677Y-106353465D01*
G37*
G36*
X85777119Y-104510228D02*
X85799499Y-104517017D01*
X85923399Y-104554601D01*
X85923401Y-104554602D01*
X86058210Y-104626659D01*
X86176369Y-104723631D01*
X86273341Y-104841790D01*
X86273342Y-104841792D01*
X86345399Y-104976601D01*
X86373147Y-105068075D01*
X86389772Y-105122881D01*
X86404754Y-105275000D01*
X86389772Y-105427119D01*
X86381511Y-105454352D01*
X86346494Y-105569790D01*
X86345398Y-105573401D01*
X86273341Y-105708210D01*
X86176369Y-105826369D01*
X86058210Y-105923341D01*
X85943084Y-105984877D01*
X85923399Y-105995399D01*
X85866509Y-106012656D01*
X85777119Y-106039772D01*
X85663118Y-106051000D01*
X85036882Y-106051000D01*
X84922881Y-106039772D01*
X84833491Y-106012656D01*
X84776601Y-105995399D01*
X84776599Y-105995398D01*
X84769208Y-105993156D01*
X84760754Y-105989655D01*
X84736721Y-105984877D01*
X84712216Y-105984879D01*
X84688183Y-105989662D01*
X84665545Y-105999041D01*
X84645172Y-106012656D01*
X84627846Y-106029985D01*
X84614234Y-106050361D01*
X84604858Y-106073001D01*
X84600080Y-106097034D01*
X84600082Y-106121539D01*
X84604865Y-106145572D01*
X84614244Y-106168210D01*
X84627850Y-106188571D01*
X84651496Y-106217385D01*
X84676807Y-106248225D01*
X84688295Y-106269718D01*
X84718686Y-106326575D01*
X84718687Y-106326579D01*
X84744475Y-106411587D01*
X84753182Y-106500000D01*
X84744475Y-106588413D01*
X84721710Y-106663456D01*
X84718686Y-106673425D01*
X84676807Y-106751774D01*
X84620448Y-106820448D01*
X84551774Y-106876807D01*
X84473425Y-106918686D01*
X84463456Y-106921710D01*
X84388413Y-106944475D01*
X84322158Y-106951000D01*
X84277842Y-106951000D01*
X84211587Y-106944475D01*
X84136544Y-106921710D01*
X84126575Y-106918686D01*
X84048226Y-106876807D01*
X83979552Y-106820448D01*
X83923193Y-106751774D01*
X83881314Y-106673425D01*
X83878290Y-106663456D01*
X83855525Y-106588413D01*
X83846818Y-106500000D01*
X83855525Y-106411587D01*
X83881313Y-106326579D01*
X83881314Y-106326575D01*
X83923193Y-106248226D01*
X83979552Y-106179552D01*
X84048226Y-106123193D01*
X84126575Y-106081314D01*
X84139719Y-106077327D01*
X84211587Y-106055525D01*
X84277842Y-106049000D01*
X84322158Y-106049000D01*
X84388411Y-106055525D01*
X84423489Y-106066167D01*
X84444524Y-106072547D01*
X84468551Y-106077327D01*
X84493055Y-106077327D01*
X84517089Y-106072547D01*
X84539728Y-106063170D01*
X84560103Y-106049556D01*
X84577430Y-106032230D01*
X84591044Y-106011855D01*
X84600422Y-105989216D01*
X84605203Y-105965183D01*
X84605203Y-105940679D01*
X84600423Y-105916645D01*
X84591046Y-105894006D01*
X84577432Y-105873631D01*
X84560105Y-105856304D01*
X84523632Y-105826370D01*
X84426659Y-105708210D01*
X84354602Y-105573401D01*
X84353507Y-105569790D01*
X84318489Y-105454352D01*
X84310228Y-105427119D01*
X84295246Y-105275000D01*
X84310228Y-105122881D01*
X84326853Y-105068075D01*
X84354601Y-104976601D01*
X84426658Y-104841792D01*
X84426659Y-104841790D01*
X84523631Y-104723631D01*
X84641790Y-104626659D01*
X84776599Y-104554602D01*
X84776601Y-104554601D01*
X84900501Y-104517017D01*
X84922881Y-104510228D01*
X85036882Y-104499000D01*
X85663118Y-104499000D01*
X85777119Y-104510228D01*
X85777119Y-104510228D01*
G37*
G36*
X107513677Y-105388511D02*
X107551364Y-105399944D01*
X107586103Y-105418512D01*
X107616548Y-105443498D01*
X107641534Y-105473943D01*
X107660102Y-105508682D01*
X107671535Y-105546369D01*
X107676000Y-105591707D01*
X107676000Y-106678385D01*
X107671535Y-106723723D01*
X107660102Y-106761410D01*
X107641534Y-106796149D01*
X107616548Y-106826594D01*
X107586103Y-106851580D01*
X107551364Y-106870148D01*
X107513677Y-106881581D01*
X107468339Y-106886046D01*
X106631661Y-106886046D01*
X106586323Y-106881581D01*
X106548636Y-106870148D01*
X106513897Y-106851580D01*
X106483452Y-106826594D01*
X106458466Y-106796149D01*
X106439898Y-106761410D01*
X106428465Y-106723723D01*
X106424000Y-106678385D01*
X106424000Y-105591707D01*
X106428465Y-105546369D01*
X106439898Y-105508682D01*
X106458466Y-105473943D01*
X106483452Y-105443498D01*
X106513897Y-105418512D01*
X106548636Y-105399944D01*
X106586323Y-105388511D01*
X106631661Y-105384046D01*
X107468339Y-105384046D01*
X107513677Y-105388511D01*
X107513677Y-105388511D01*
G37*
G36*
X105463677Y-105388511D02*
X105501364Y-105399944D01*
X105536103Y-105418512D01*
X105566548Y-105443498D01*
X105591534Y-105473943D01*
X105610102Y-105508682D01*
X105621535Y-105546369D01*
X105626000Y-105591707D01*
X105626000Y-106678385D01*
X105621535Y-106723723D01*
X105610102Y-106761410D01*
X105591534Y-106796149D01*
X105566548Y-106826594D01*
X105536103Y-106851580D01*
X105501364Y-106870148D01*
X105463677Y-106881581D01*
X105418339Y-106886046D01*
X104581661Y-106886046D01*
X104536323Y-106881581D01*
X104498636Y-106870148D01*
X104463897Y-106851580D01*
X104433452Y-106826594D01*
X104408466Y-106796149D01*
X104389898Y-106761410D01*
X104378465Y-106723723D01*
X104374000Y-106678385D01*
X104374000Y-105591707D01*
X104378465Y-105546369D01*
X104389898Y-105508682D01*
X104408466Y-105473943D01*
X104433452Y-105443498D01*
X104463897Y-105418512D01*
X104498636Y-105399944D01*
X104536323Y-105388511D01*
X104581661Y-105384046D01*
X105418339Y-105384046D01*
X105463677Y-105388511D01*
X105463677Y-105388511D01*
G37*
G36*
X131088677Y-104853465D02*
X131126364Y-104864898D01*
X131161103Y-104883466D01*
X131191548Y-104908452D01*
X131216534Y-104938897D01*
X131235102Y-104973636D01*
X131246535Y-105011323D01*
X131251000Y-105056661D01*
X131251000Y-105893339D01*
X131246535Y-105938677D01*
X131235102Y-105976364D01*
X131216534Y-106011103D01*
X131191548Y-106041548D01*
X131161103Y-106066534D01*
X131126364Y-106085102D01*
X131088677Y-106096535D01*
X131043339Y-106101000D01*
X129956661Y-106101000D01*
X129911323Y-106096535D01*
X129873636Y-106085102D01*
X129838897Y-106066534D01*
X129808452Y-106041548D01*
X129783466Y-106011103D01*
X129764898Y-105976364D01*
X129753465Y-105938677D01*
X129749000Y-105893339D01*
X129749000Y-105056661D01*
X129753465Y-105011323D01*
X129764898Y-104973636D01*
X129783466Y-104938897D01*
X129808452Y-104908452D01*
X129838897Y-104883466D01*
X129873636Y-104864898D01*
X129911323Y-104853465D01*
X129956661Y-104849000D01*
X131043339Y-104849000D01*
X131088677Y-104853465D01*
X131088677Y-104853465D01*
G37*
G36*
X135088677Y-104853465D02*
X135126364Y-104864898D01*
X135161103Y-104883466D01*
X135191548Y-104908452D01*
X135216534Y-104938897D01*
X135235102Y-104973636D01*
X135246535Y-105011323D01*
X135251000Y-105056661D01*
X135251000Y-105893339D01*
X135246535Y-105938677D01*
X135235102Y-105976364D01*
X135216534Y-106011103D01*
X135191548Y-106041548D01*
X135161103Y-106066534D01*
X135126364Y-106085102D01*
X135088677Y-106096535D01*
X135043339Y-106101000D01*
X133956661Y-106101000D01*
X133911323Y-106096535D01*
X133873636Y-106085102D01*
X133838897Y-106066534D01*
X133808452Y-106041548D01*
X133783466Y-106011103D01*
X133764898Y-105976364D01*
X133753465Y-105938677D01*
X133749000Y-105893339D01*
X133749000Y-105056661D01*
X133753465Y-105011323D01*
X133764898Y-104973636D01*
X133783466Y-104938897D01*
X133808452Y-104908452D01*
X133838897Y-104883466D01*
X133873636Y-104864898D01*
X133911323Y-104853465D01*
X133956661Y-104849000D01*
X135043339Y-104849000D01*
X135088677Y-104853465D01*
X135088677Y-104853465D01*
G37*
G36*
X133088677Y-104853465D02*
X133126364Y-104864898D01*
X133161103Y-104883466D01*
X133191548Y-104908452D01*
X133216534Y-104938897D01*
X133235102Y-104973636D01*
X133246535Y-105011323D01*
X133251000Y-105056661D01*
X133251000Y-105893339D01*
X133246535Y-105938677D01*
X133235102Y-105976364D01*
X133216534Y-106011103D01*
X133191548Y-106041548D01*
X133161103Y-106066534D01*
X133126364Y-106085102D01*
X133088677Y-106096535D01*
X133043339Y-106101000D01*
X131956661Y-106101000D01*
X131911323Y-106096535D01*
X131873636Y-106085102D01*
X131838897Y-106066534D01*
X131808452Y-106041548D01*
X131783466Y-106011103D01*
X131764898Y-105976364D01*
X131753465Y-105938677D01*
X131749000Y-105893339D01*
X131749000Y-105056661D01*
X131753465Y-105011323D01*
X131764898Y-104973636D01*
X131783466Y-104938897D01*
X131808452Y-104908452D01*
X131838897Y-104883466D01*
X131873636Y-104864898D01*
X131911323Y-104853465D01*
X131956661Y-104849000D01*
X133043339Y-104849000D01*
X133088677Y-104853465D01*
X133088677Y-104853465D01*
G37*
G36*
X81997714Y-104508058D02*
X82004871Y-104510229D01*
X82115719Y-104543854D01*
X82115721Y-104543855D01*
X82224471Y-104601983D01*
X82319790Y-104680210D01*
X82398017Y-104775529D01*
X82398018Y-104775531D01*
X82456146Y-104884281D01*
X82472713Y-104938897D01*
X82491942Y-105002286D01*
X82504028Y-105125000D01*
X82491942Y-105247714D01*
X82456145Y-105365721D01*
X82398017Y-105474471D01*
X82319790Y-105569790D01*
X82224471Y-105648017D01*
X82224469Y-105648018D01*
X82115719Y-105706146D01*
X82019683Y-105735278D01*
X81997714Y-105741942D01*
X81905747Y-105751000D01*
X81194253Y-105751000D01*
X81102286Y-105741942D01*
X81080317Y-105735278D01*
X80984281Y-105706146D01*
X80875531Y-105648018D01*
X80875529Y-105648017D01*
X80780210Y-105569790D01*
X80701983Y-105474471D01*
X80643855Y-105365721D01*
X80608058Y-105247714D01*
X80595972Y-105125000D01*
X80608058Y-105002286D01*
X80627287Y-104938897D01*
X80643854Y-104884281D01*
X80701982Y-104775531D01*
X80701983Y-104775529D01*
X80780210Y-104680210D01*
X80875529Y-104601983D01*
X80984279Y-104543855D01*
X80984281Y-104543854D01*
X81095129Y-104510229D01*
X81102286Y-104508058D01*
X81194253Y-104499000D01*
X81905747Y-104499000D01*
X81997714Y-104508058D01*
X81997714Y-104508058D01*
G37*
G36*
X119088677Y-104353465D02*
X119126364Y-104364898D01*
X119161103Y-104383466D01*
X119191548Y-104408452D01*
X119216534Y-104438897D01*
X119235102Y-104473636D01*
X119246535Y-104511323D01*
X119251000Y-104556661D01*
X119251000Y-105393339D01*
X119246535Y-105438677D01*
X119235102Y-105476364D01*
X119216534Y-105511103D01*
X119191548Y-105541548D01*
X119161103Y-105566534D01*
X119126364Y-105585102D01*
X119088677Y-105596535D01*
X119043339Y-105601000D01*
X117956661Y-105601000D01*
X117911323Y-105596535D01*
X117873636Y-105585102D01*
X117838897Y-105566534D01*
X117808452Y-105541548D01*
X117783466Y-105511103D01*
X117764898Y-105476364D01*
X117753465Y-105438677D01*
X117749000Y-105393339D01*
X117749000Y-104556661D01*
X117753465Y-104511323D01*
X117764898Y-104473636D01*
X117783466Y-104438897D01*
X117808452Y-104408452D01*
X117838897Y-104383466D01*
X117873636Y-104364898D01*
X117911323Y-104353465D01*
X117956661Y-104349000D01*
X119043339Y-104349000D01*
X119088677Y-104353465D01*
X119088677Y-104353465D01*
G37*
G36*
X121088677Y-104353465D02*
X121126364Y-104364898D01*
X121161103Y-104383466D01*
X121191548Y-104408452D01*
X121216534Y-104438897D01*
X121235102Y-104473636D01*
X121246535Y-104511323D01*
X121251000Y-104556661D01*
X121251000Y-105393339D01*
X121246535Y-105438677D01*
X121235102Y-105476364D01*
X121216534Y-105511103D01*
X121191548Y-105541548D01*
X121161103Y-105566534D01*
X121126364Y-105585102D01*
X121088677Y-105596535D01*
X121043339Y-105601000D01*
X119956661Y-105601000D01*
X119911323Y-105596535D01*
X119873636Y-105585102D01*
X119838897Y-105566534D01*
X119808452Y-105541548D01*
X119783466Y-105511103D01*
X119764898Y-105476364D01*
X119753465Y-105438677D01*
X119749000Y-105393339D01*
X119749000Y-104556661D01*
X119753465Y-104511323D01*
X119764898Y-104473636D01*
X119783466Y-104438897D01*
X119808452Y-104408452D01*
X119838897Y-104383466D01*
X119873636Y-104364898D01*
X119911323Y-104353465D01*
X119956661Y-104349000D01*
X121043339Y-104349000D01*
X121088677Y-104353465D01*
X121088677Y-104353465D01*
G37*
G36*
X105438677Y-103388511D02*
X105476364Y-103399944D01*
X105511103Y-103418512D01*
X105541548Y-103443498D01*
X105566534Y-103473943D01*
X105585102Y-103508682D01*
X105596535Y-103546369D01*
X105601000Y-103591707D01*
X105601000Y-104678385D01*
X105596535Y-104723723D01*
X105585102Y-104761410D01*
X105566534Y-104796149D01*
X105541548Y-104826594D01*
X105511103Y-104851580D01*
X105476364Y-104870148D01*
X105438677Y-104881581D01*
X105393339Y-104886046D01*
X104556661Y-104886046D01*
X104511323Y-104881581D01*
X104473636Y-104870148D01*
X104438897Y-104851580D01*
X104408452Y-104826594D01*
X104383466Y-104796149D01*
X104364898Y-104761410D01*
X104353465Y-104723723D01*
X104349000Y-104678385D01*
X104349000Y-103591707D01*
X104353465Y-103546369D01*
X104364898Y-103508682D01*
X104383466Y-103473943D01*
X104408452Y-103443498D01*
X104438897Y-103418512D01*
X104473636Y-103399944D01*
X104511323Y-103388511D01*
X104556661Y-103384046D01*
X105393339Y-103384046D01*
X105438677Y-103388511D01*
X105438677Y-103388511D01*
G37*
G36*
X107488677Y-103388511D02*
X107526364Y-103399944D01*
X107561103Y-103418512D01*
X107591548Y-103443498D01*
X107616534Y-103473943D01*
X107635102Y-103508682D01*
X107646535Y-103546369D01*
X107651000Y-103591707D01*
X107651000Y-104678385D01*
X107646535Y-104723723D01*
X107635102Y-104761410D01*
X107616534Y-104796149D01*
X107591548Y-104826594D01*
X107561103Y-104851580D01*
X107526364Y-104870148D01*
X107488677Y-104881581D01*
X107443339Y-104886046D01*
X106606661Y-104886046D01*
X106561323Y-104881581D01*
X106523636Y-104870148D01*
X106488897Y-104851580D01*
X106458452Y-104826594D01*
X106433466Y-104796149D01*
X106414898Y-104761410D01*
X106403465Y-104723723D01*
X106399000Y-104678385D01*
X106399000Y-103591707D01*
X106403465Y-103546369D01*
X106414898Y-103508682D01*
X106433466Y-103473943D01*
X106458452Y-103443498D01*
X106488897Y-103418512D01*
X106523636Y-103399944D01*
X106561323Y-103388511D01*
X106606661Y-103384046D01*
X107443339Y-103384046D01*
X107488677Y-103388511D01*
X107488677Y-103388511D01*
G37*
G36*
X99988677Y-101753465D02*
X100026364Y-101764898D01*
X100061103Y-101783466D01*
X100091548Y-101808452D01*
X100116534Y-101838897D01*
X100135102Y-101873636D01*
X100146535Y-101911323D01*
X100151000Y-101956661D01*
X100151000Y-103043339D01*
X100146535Y-103088677D01*
X100135102Y-103126364D01*
X100116534Y-103161103D01*
X100091548Y-103191548D01*
X100061103Y-103216534D01*
X100026364Y-103235102D01*
X99988677Y-103246535D01*
X99943339Y-103251000D01*
X99106661Y-103251000D01*
X99061323Y-103246535D01*
X99023636Y-103235102D01*
X98988897Y-103216534D01*
X98958452Y-103191548D01*
X98933466Y-103161103D01*
X98914898Y-103126364D01*
X98903465Y-103088677D01*
X98899000Y-103043339D01*
X98899000Y-101956661D01*
X98903465Y-101911323D01*
X98914898Y-101873636D01*
X98933466Y-101838897D01*
X98958452Y-101808452D01*
X98988897Y-101783466D01*
X99023636Y-101764898D01*
X99061323Y-101753465D01*
X99106661Y-101749000D01*
X99943339Y-101749000D01*
X99988677Y-101753465D01*
X99988677Y-101753465D01*
G37*
G36*
X97938677Y-101753465D02*
X97976364Y-101764898D01*
X98011103Y-101783466D01*
X98041548Y-101808452D01*
X98066534Y-101838897D01*
X98085102Y-101873636D01*
X98096535Y-101911323D01*
X98101000Y-101956661D01*
X98101000Y-103043339D01*
X98096535Y-103088677D01*
X98085102Y-103126364D01*
X98066534Y-103161103D01*
X98041548Y-103191548D01*
X98011103Y-103216534D01*
X97976364Y-103235102D01*
X97938677Y-103246535D01*
X97893339Y-103251000D01*
X97056661Y-103251000D01*
X97011323Y-103246535D01*
X96973636Y-103235102D01*
X96938897Y-103216534D01*
X96908452Y-103191548D01*
X96883466Y-103161103D01*
X96864898Y-103126364D01*
X96853465Y-103088677D01*
X96849000Y-103043339D01*
X96849000Y-101956661D01*
X96853465Y-101911323D01*
X96864898Y-101873636D01*
X96883466Y-101838897D01*
X96908452Y-101808452D01*
X96938897Y-101783466D01*
X96973636Y-101764898D01*
X97011323Y-101753465D01*
X97056661Y-101749000D01*
X97893339Y-101749000D01*
X97938677Y-101753465D01*
X97938677Y-101753465D01*
G37*
G36*
X95988677Y-101753465D02*
X96026364Y-101764898D01*
X96061103Y-101783466D01*
X96091548Y-101808452D01*
X96116534Y-101838897D01*
X96135102Y-101873636D01*
X96146535Y-101911323D01*
X96151000Y-101956661D01*
X96151000Y-103043339D01*
X96146535Y-103088677D01*
X96135102Y-103126364D01*
X96116534Y-103161103D01*
X96091548Y-103191548D01*
X96061103Y-103216534D01*
X96026364Y-103235102D01*
X95988677Y-103246535D01*
X95943339Y-103251000D01*
X95106661Y-103251000D01*
X95061323Y-103246535D01*
X95023636Y-103235102D01*
X94988897Y-103216534D01*
X94958452Y-103191548D01*
X94933466Y-103161103D01*
X94914898Y-103126364D01*
X94903465Y-103088677D01*
X94899000Y-103043339D01*
X94899000Y-101956661D01*
X94903465Y-101911323D01*
X94914898Y-101873636D01*
X94933466Y-101838897D01*
X94958452Y-101808452D01*
X94988897Y-101783466D01*
X95023636Y-101764898D01*
X95061323Y-101753465D01*
X95106661Y-101749000D01*
X95943339Y-101749000D01*
X95988677Y-101753465D01*
X95988677Y-101753465D01*
G37*
G36*
X93938677Y-101753465D02*
X93976364Y-101764898D01*
X94011103Y-101783466D01*
X94041548Y-101808452D01*
X94066534Y-101838897D01*
X94085102Y-101873636D01*
X94096535Y-101911323D01*
X94101000Y-101956661D01*
X94101000Y-103043339D01*
X94096535Y-103088677D01*
X94085102Y-103126364D01*
X94066534Y-103161103D01*
X94041548Y-103191548D01*
X94011103Y-103216534D01*
X93976364Y-103235102D01*
X93938677Y-103246535D01*
X93893339Y-103251000D01*
X93056661Y-103251000D01*
X93011323Y-103246535D01*
X92973636Y-103235102D01*
X92938897Y-103216534D01*
X92908452Y-103191548D01*
X92883466Y-103161103D01*
X92864898Y-103126364D01*
X92853465Y-103088677D01*
X92849000Y-103043339D01*
X92849000Y-101956661D01*
X92853465Y-101911323D01*
X92864898Y-101873636D01*
X92883466Y-101838897D01*
X92908452Y-101808452D01*
X92938897Y-101783466D01*
X92973636Y-101764898D01*
X93011323Y-101753465D01*
X93056661Y-101749000D01*
X93893339Y-101749000D01*
X93938677Y-101753465D01*
X93938677Y-101753465D01*
G37*
G36*
X146643442Y-101155689D02*
X146681129Y-101167122D01*
X146715868Y-101185690D01*
X146746313Y-101210676D01*
X146771299Y-101241121D01*
X146789867Y-101275860D01*
X146801300Y-101313547D01*
X146805765Y-101358885D01*
X146805765Y-102195563D01*
X146801300Y-102240901D01*
X146789867Y-102278588D01*
X146771299Y-102313327D01*
X146746313Y-102343772D01*
X146715868Y-102368758D01*
X146681129Y-102387326D01*
X146643442Y-102398759D01*
X146598104Y-102403224D01*
X145511426Y-102403224D01*
X145466088Y-102398759D01*
X145428401Y-102387326D01*
X145393662Y-102368758D01*
X145363217Y-102343772D01*
X145338231Y-102313327D01*
X145319663Y-102278588D01*
X145308230Y-102240901D01*
X145303765Y-102195563D01*
X145303765Y-101358885D01*
X145308230Y-101313547D01*
X145319663Y-101275860D01*
X145338231Y-101241121D01*
X145363217Y-101210676D01*
X145393662Y-101185690D01*
X145428401Y-101167122D01*
X145466088Y-101155689D01*
X145511426Y-101151224D01*
X146598104Y-101151224D01*
X146643442Y-101155689D01*
X146643442Y-101155689D01*
G37*
G36*
X148643442Y-101155689D02*
X148681129Y-101167122D01*
X148715868Y-101185690D01*
X148746313Y-101210676D01*
X148771299Y-101241121D01*
X148789867Y-101275860D01*
X148801300Y-101313547D01*
X148805765Y-101358885D01*
X148805765Y-102195563D01*
X148801300Y-102240901D01*
X148789867Y-102278588D01*
X148771299Y-102313327D01*
X148746313Y-102343772D01*
X148715868Y-102368758D01*
X148681129Y-102387326D01*
X148643442Y-102398759D01*
X148598104Y-102403224D01*
X147511426Y-102403224D01*
X147466088Y-102398759D01*
X147428401Y-102387326D01*
X147393662Y-102368758D01*
X147363217Y-102343772D01*
X147338231Y-102313327D01*
X147319663Y-102278588D01*
X147308230Y-102240901D01*
X147303765Y-102195563D01*
X147303765Y-101358885D01*
X147308230Y-101313547D01*
X147319663Y-101275860D01*
X147338231Y-101241121D01*
X147363217Y-101210676D01*
X147393662Y-101185690D01*
X147428401Y-101167122D01*
X147466088Y-101155689D01*
X147511426Y-101151224D01*
X148598104Y-101151224D01*
X148643442Y-101155689D01*
X148643442Y-101155689D01*
G37*
G36*
X158292205Y-100805200D02*
X158425097Y-100845513D01*
X158547572Y-100910977D01*
X158654922Y-100999078D01*
X158743023Y-101106428D01*
X158808487Y-101228903D01*
X158848800Y-101361795D01*
X158862411Y-101500000D01*
X158848800Y-101638205D01*
X158808487Y-101771097D01*
X158743023Y-101893572D01*
X158654922Y-102000922D01*
X158547572Y-102089023D01*
X158425097Y-102154487D01*
X158292205Y-102194800D01*
X158188636Y-102205000D01*
X156811364Y-102205000D01*
X156707795Y-102194800D01*
X156574903Y-102154487D01*
X156452428Y-102089023D01*
X156345078Y-102000922D01*
X156256977Y-101893572D01*
X156191513Y-101771097D01*
X156151200Y-101638205D01*
X156137589Y-101500000D01*
X156151200Y-101361795D01*
X156191513Y-101228903D01*
X156256977Y-101106428D01*
X156345078Y-100999078D01*
X156452428Y-100910977D01*
X156574903Y-100845513D01*
X156707795Y-100805200D01*
X156811364Y-100795000D01*
X158188636Y-100795000D01*
X158292205Y-100805200D01*
X158292205Y-100805200D01*
G37*
G36*
X90292205Y-100805200D02*
X90425097Y-100845513D01*
X90547572Y-100910977D01*
X90654922Y-100999078D01*
X90743023Y-101106428D01*
X90808487Y-101228903D01*
X90848800Y-101361795D01*
X90862411Y-101500000D01*
X90848800Y-101638205D01*
X90808487Y-101771097D01*
X90743023Y-101893572D01*
X90654922Y-102000922D01*
X90547572Y-102089023D01*
X90425097Y-102154487D01*
X90292205Y-102194800D01*
X90188636Y-102205000D01*
X88811364Y-102205000D01*
X88707795Y-102194800D01*
X88574903Y-102154487D01*
X88452428Y-102089023D01*
X88345078Y-102000922D01*
X88256977Y-101893572D01*
X88191513Y-101771097D01*
X88151200Y-101638205D01*
X88137589Y-101500000D01*
X88151200Y-101361795D01*
X88191513Y-101228903D01*
X88256977Y-101106428D01*
X88345078Y-100999078D01*
X88452428Y-100910977D01*
X88574903Y-100845513D01*
X88707795Y-100805200D01*
X88811364Y-100795000D01*
X90188636Y-100795000D01*
X90292205Y-100805200D01*
X90292205Y-100805200D01*
G37*
G36*
X165189890Y-100874017D02*
X165308361Y-100923089D01*
X165308364Y-100923091D01*
X165391779Y-100978827D01*
X165414992Y-100994338D01*
X165505662Y-101085008D01*
X165505664Y-101085011D01*
X165505665Y-101085012D01*
X165552890Y-101155689D01*
X165576911Y-101191639D01*
X165625983Y-101310110D01*
X165651000Y-101435881D01*
X165651000Y-101564119D01*
X165625983Y-101689890D01*
X165576911Y-101808361D01*
X165576909Y-101808364D01*
X165519975Y-101893572D01*
X165505662Y-101914992D01*
X165414992Y-102005662D01*
X165414989Y-102005664D01*
X165414988Y-102005665D01*
X165308364Y-102076909D01*
X165308361Y-102076911D01*
X165189890Y-102125983D01*
X165064119Y-102151000D01*
X164935881Y-102151000D01*
X164810110Y-102125983D01*
X164691639Y-102076911D01*
X164691636Y-102076909D01*
X164585012Y-102005665D01*
X164585011Y-102005664D01*
X164585008Y-102005662D01*
X164494338Y-101914992D01*
X164480026Y-101893572D01*
X164423091Y-101808364D01*
X164423089Y-101808361D01*
X164374017Y-101689890D01*
X164349000Y-101564119D01*
X164349000Y-101435881D01*
X164374017Y-101310110D01*
X164423089Y-101191639D01*
X164447110Y-101155689D01*
X164494335Y-101085012D01*
X164494336Y-101085011D01*
X164494338Y-101085008D01*
X164585008Y-100994338D01*
X164608222Y-100978827D01*
X164691636Y-100923091D01*
X164691639Y-100923089D01*
X164810110Y-100874017D01*
X164935881Y-100849000D01*
X165064119Y-100849000D01*
X165189890Y-100874017D01*
X165189890Y-100874017D01*
G37*
G36*
X82189890Y-100874017D02*
X82308361Y-100923089D01*
X82308364Y-100923091D01*
X82391779Y-100978827D01*
X82414992Y-100994338D01*
X82505662Y-101085008D01*
X82505664Y-101085011D01*
X82505665Y-101085012D01*
X82552890Y-101155689D01*
X82576911Y-101191639D01*
X82625983Y-101310110D01*
X82651000Y-101435881D01*
X82651000Y-101564119D01*
X82625983Y-101689890D01*
X82576911Y-101808361D01*
X82576909Y-101808364D01*
X82519975Y-101893572D01*
X82505662Y-101914992D01*
X82414992Y-102005662D01*
X82414989Y-102005664D01*
X82414988Y-102005665D01*
X82308364Y-102076909D01*
X82308361Y-102076911D01*
X82189890Y-102125983D01*
X82064119Y-102151000D01*
X81935881Y-102151000D01*
X81810110Y-102125983D01*
X81691639Y-102076911D01*
X81691636Y-102076909D01*
X81585012Y-102005665D01*
X81585011Y-102005664D01*
X81585008Y-102005662D01*
X81494338Y-101914992D01*
X81480026Y-101893572D01*
X81423091Y-101808364D01*
X81423089Y-101808361D01*
X81374017Y-101689890D01*
X81349000Y-101564119D01*
X81349000Y-101435881D01*
X81374017Y-101310110D01*
X81423089Y-101191639D01*
X81447110Y-101155689D01*
X81494335Y-101085012D01*
X81494336Y-101085011D01*
X81494338Y-101085008D01*
X81585008Y-100994338D01*
X81608222Y-100978827D01*
X81691636Y-100923091D01*
X81691639Y-100923089D01*
X81810110Y-100874017D01*
X81935881Y-100849000D01*
X82064119Y-100849000D01*
X82189890Y-100874017D01*
X82189890Y-100874017D01*
G37*
G36*
X84689890Y-100874017D02*
X84808361Y-100923089D01*
X84808364Y-100923091D01*
X84891779Y-100978827D01*
X84914992Y-100994338D01*
X85005662Y-101085008D01*
X85005664Y-101085011D01*
X85005665Y-101085012D01*
X85052890Y-101155689D01*
X85076911Y-101191639D01*
X85125983Y-101310110D01*
X85151000Y-101435881D01*
X85151000Y-101564119D01*
X85125983Y-101689890D01*
X85076911Y-101808361D01*
X85076909Y-101808364D01*
X85019975Y-101893572D01*
X85005662Y-101914992D01*
X84914992Y-102005662D01*
X84914989Y-102005664D01*
X84914988Y-102005665D01*
X84808364Y-102076909D01*
X84808361Y-102076911D01*
X84689890Y-102125983D01*
X84564119Y-102151000D01*
X84435881Y-102151000D01*
X84310110Y-102125983D01*
X84191639Y-102076911D01*
X84191636Y-102076909D01*
X84085012Y-102005665D01*
X84085011Y-102005664D01*
X84085008Y-102005662D01*
X83994338Y-101914992D01*
X83980026Y-101893572D01*
X83923091Y-101808364D01*
X83923089Y-101808361D01*
X83874017Y-101689890D01*
X83849000Y-101564119D01*
X83849000Y-101435881D01*
X83874017Y-101310110D01*
X83923089Y-101191639D01*
X83947110Y-101155689D01*
X83994335Y-101085012D01*
X83994336Y-101085011D01*
X83994338Y-101085008D01*
X84085008Y-100994338D01*
X84108222Y-100978827D01*
X84191636Y-100923091D01*
X84191639Y-100923089D01*
X84310110Y-100874017D01*
X84435881Y-100849000D01*
X84564119Y-100849000D01*
X84689890Y-100874017D01*
X84689890Y-100874017D01*
G37*
G36*
X162689890Y-100874017D02*
X162808361Y-100923089D01*
X162808364Y-100923091D01*
X162891779Y-100978827D01*
X162914992Y-100994338D01*
X163005662Y-101085008D01*
X163005664Y-101085011D01*
X163005665Y-101085012D01*
X163052890Y-101155689D01*
X163076911Y-101191639D01*
X163125983Y-101310110D01*
X163151000Y-101435881D01*
X163151000Y-101564119D01*
X163125983Y-101689890D01*
X163076911Y-101808361D01*
X163076909Y-101808364D01*
X163019975Y-101893572D01*
X163005662Y-101914992D01*
X162914992Y-102005662D01*
X162914989Y-102005664D01*
X162914988Y-102005665D01*
X162808364Y-102076909D01*
X162808361Y-102076911D01*
X162689890Y-102125983D01*
X162564119Y-102151000D01*
X162435881Y-102151000D01*
X162310110Y-102125983D01*
X162191639Y-102076911D01*
X162191636Y-102076909D01*
X162085012Y-102005665D01*
X162085011Y-102005664D01*
X162085008Y-102005662D01*
X161994338Y-101914992D01*
X161980026Y-101893572D01*
X161923091Y-101808364D01*
X161923089Y-101808361D01*
X161874017Y-101689890D01*
X161849000Y-101564119D01*
X161849000Y-101435881D01*
X161874017Y-101310110D01*
X161923089Y-101191639D01*
X161947110Y-101155689D01*
X161994335Y-101085012D01*
X161994336Y-101085011D01*
X161994338Y-101085008D01*
X162085008Y-100994338D01*
X162108222Y-100978827D01*
X162191636Y-100923091D01*
X162191639Y-100923089D01*
X162310110Y-100874017D01*
X162435881Y-100849000D01*
X162564119Y-100849000D01*
X162689890Y-100874017D01*
X162689890Y-100874017D01*
G37*
G36*
X95988677Y-99753465D02*
X96026364Y-99764898D01*
X96061103Y-99783466D01*
X96091548Y-99808452D01*
X96116534Y-99838897D01*
X96135102Y-99873636D01*
X96146535Y-99911323D01*
X96151000Y-99956661D01*
X96151000Y-101043339D01*
X96146535Y-101088677D01*
X96135102Y-101126364D01*
X96116534Y-101161103D01*
X96091548Y-101191548D01*
X96061103Y-101216534D01*
X96026364Y-101235102D01*
X95988677Y-101246535D01*
X95943339Y-101251000D01*
X95106661Y-101251000D01*
X95061323Y-101246535D01*
X95023636Y-101235102D01*
X94988897Y-101216534D01*
X94958452Y-101191548D01*
X94933466Y-101161103D01*
X94914898Y-101126364D01*
X94903465Y-101088677D01*
X94899000Y-101043339D01*
X94899000Y-99956661D01*
X94903465Y-99911323D01*
X94914898Y-99873636D01*
X94933466Y-99838897D01*
X94958452Y-99808452D01*
X94988897Y-99783466D01*
X95023636Y-99764898D01*
X95061323Y-99753465D01*
X95106661Y-99749000D01*
X95943339Y-99749000D01*
X95988677Y-99753465D01*
X95988677Y-99753465D01*
G37*
G36*
X93938677Y-99753465D02*
X93976364Y-99764898D01*
X94011103Y-99783466D01*
X94041548Y-99808452D01*
X94066534Y-99838897D01*
X94085102Y-99873636D01*
X94096535Y-99911323D01*
X94101000Y-99956661D01*
X94101000Y-101043339D01*
X94096535Y-101088677D01*
X94085102Y-101126364D01*
X94066534Y-101161103D01*
X94041548Y-101191548D01*
X94011103Y-101216534D01*
X93976364Y-101235102D01*
X93938677Y-101246535D01*
X93893339Y-101251000D01*
X93056661Y-101251000D01*
X93011323Y-101246535D01*
X92973636Y-101235102D01*
X92938897Y-101216534D01*
X92908452Y-101191548D01*
X92883466Y-101161103D01*
X92864898Y-101126364D01*
X92853465Y-101088677D01*
X92849000Y-101043339D01*
X92849000Y-99956661D01*
X92853465Y-99911323D01*
X92864898Y-99873636D01*
X92883466Y-99838897D01*
X92908452Y-99808452D01*
X92938897Y-99783466D01*
X92973636Y-99764898D01*
X93011323Y-99753465D01*
X93056661Y-99749000D01*
X93893339Y-99749000D01*
X93938677Y-99753465D01*
X93938677Y-99753465D01*
G37*
G36*
X97938677Y-99753465D02*
X97976364Y-99764898D01*
X98011103Y-99783466D01*
X98041548Y-99808452D01*
X98066534Y-99838897D01*
X98085102Y-99873636D01*
X98096535Y-99911323D01*
X98101000Y-99956661D01*
X98101000Y-101043339D01*
X98096535Y-101088677D01*
X98085102Y-101126364D01*
X98066534Y-101161103D01*
X98041548Y-101191548D01*
X98011103Y-101216534D01*
X97976364Y-101235102D01*
X97938677Y-101246535D01*
X97893339Y-101251000D01*
X97056661Y-101251000D01*
X97011323Y-101246535D01*
X96973636Y-101235102D01*
X96938897Y-101216534D01*
X96908452Y-101191548D01*
X96883466Y-101161103D01*
X96864898Y-101126364D01*
X96853465Y-101088677D01*
X96849000Y-101043339D01*
X96849000Y-99956661D01*
X96853465Y-99911323D01*
X96864898Y-99873636D01*
X96883466Y-99838897D01*
X96908452Y-99808452D01*
X96938897Y-99783466D01*
X96973636Y-99764898D01*
X97011323Y-99753465D01*
X97056661Y-99749000D01*
X97893339Y-99749000D01*
X97938677Y-99753465D01*
X97938677Y-99753465D01*
G37*
G36*
X99988677Y-99753465D02*
X100026364Y-99764898D01*
X100061103Y-99783466D01*
X100091548Y-99808452D01*
X100116534Y-99838897D01*
X100135102Y-99873636D01*
X100146535Y-99911323D01*
X100151000Y-99956661D01*
X100151000Y-101043339D01*
X100146535Y-101088677D01*
X100135102Y-101126364D01*
X100116534Y-101161103D01*
X100091548Y-101191548D01*
X100061103Y-101216534D01*
X100026364Y-101235102D01*
X99988677Y-101246535D01*
X99943339Y-101251000D01*
X99106661Y-101251000D01*
X99061323Y-101246535D01*
X99023636Y-101235102D01*
X98988897Y-101216534D01*
X98958452Y-101191548D01*
X98933466Y-101161103D01*
X98914898Y-101126364D01*
X98903465Y-101088677D01*
X98899000Y-101043339D01*
X98899000Y-99956661D01*
X98903465Y-99911323D01*
X98914898Y-99873636D01*
X98933466Y-99838897D01*
X98958452Y-99808452D01*
X98988897Y-99783466D01*
X99023636Y-99764898D01*
X99061323Y-99753465D01*
X99106661Y-99749000D01*
X99943339Y-99749000D01*
X99988677Y-99753465D01*
X99988677Y-99753465D01*
G37*
G36*
X146643442Y-99105689D02*
X146681129Y-99117122D01*
X146715868Y-99135690D01*
X146746313Y-99160676D01*
X146771299Y-99191121D01*
X146789867Y-99225860D01*
X146801300Y-99263547D01*
X146805765Y-99308885D01*
X146805765Y-100145563D01*
X146801300Y-100190901D01*
X146789867Y-100228588D01*
X146771299Y-100263327D01*
X146746313Y-100293772D01*
X146715868Y-100318758D01*
X146681129Y-100337326D01*
X146643442Y-100348759D01*
X146598104Y-100353224D01*
X145511426Y-100353224D01*
X145466088Y-100348759D01*
X145428401Y-100337326D01*
X145393662Y-100318758D01*
X145363217Y-100293772D01*
X145338231Y-100263327D01*
X145319663Y-100228588D01*
X145308230Y-100190901D01*
X145303765Y-100145563D01*
X145303765Y-99308885D01*
X145308230Y-99263547D01*
X145319663Y-99225860D01*
X145338231Y-99191121D01*
X145363217Y-99160676D01*
X145393662Y-99135690D01*
X145428401Y-99117122D01*
X145466088Y-99105689D01*
X145511426Y-99101224D01*
X146598104Y-99101224D01*
X146643442Y-99105689D01*
X146643442Y-99105689D01*
G37*
G36*
X148643442Y-99105689D02*
X148681129Y-99117122D01*
X148715868Y-99135690D01*
X148746313Y-99160676D01*
X148771299Y-99191121D01*
X148789867Y-99225860D01*
X148801300Y-99263547D01*
X148805765Y-99308885D01*
X148805765Y-100145563D01*
X148801300Y-100190901D01*
X148789867Y-100228588D01*
X148771299Y-100263327D01*
X148746313Y-100293772D01*
X148715868Y-100318758D01*
X148681129Y-100337326D01*
X148643442Y-100348759D01*
X148598104Y-100353224D01*
X147511426Y-100353224D01*
X147466088Y-100348759D01*
X147428401Y-100337326D01*
X147393662Y-100318758D01*
X147363217Y-100293772D01*
X147338231Y-100263327D01*
X147319663Y-100228588D01*
X147308230Y-100190901D01*
X147303765Y-100145563D01*
X147303765Y-99308885D01*
X147308230Y-99263547D01*
X147319663Y-99225860D01*
X147338231Y-99191121D01*
X147363217Y-99160676D01*
X147393662Y-99135690D01*
X147428401Y-99117122D01*
X147466088Y-99105689D01*
X147511426Y-99101224D01*
X148598104Y-99101224D01*
X148643442Y-99105689D01*
X148643442Y-99105689D01*
G37*
G36*
X158292205Y-98305200D02*
X158425097Y-98345513D01*
X158547572Y-98410977D01*
X158654922Y-98499078D01*
X158743023Y-98606428D01*
X158808487Y-98728903D01*
X158848800Y-98861795D01*
X158862411Y-99000000D01*
X158848800Y-99138205D01*
X158808487Y-99271097D01*
X158743023Y-99393572D01*
X158654922Y-99500922D01*
X158547572Y-99589023D01*
X158425097Y-99654487D01*
X158292205Y-99694800D01*
X158188636Y-99705000D01*
X156811364Y-99705000D01*
X156707795Y-99694800D01*
X156574903Y-99654487D01*
X156452428Y-99589023D01*
X156345078Y-99500922D01*
X156256977Y-99393572D01*
X156191513Y-99271097D01*
X156151200Y-99138205D01*
X156137589Y-99000000D01*
X156151200Y-98861795D01*
X156191513Y-98728903D01*
X156256977Y-98606428D01*
X156345078Y-98499078D01*
X156452428Y-98410977D01*
X156574903Y-98345513D01*
X156707795Y-98305200D01*
X156811364Y-98295000D01*
X158188636Y-98295000D01*
X158292205Y-98305200D01*
X158292205Y-98305200D01*
G37*
G36*
X90292205Y-98305200D02*
X90425097Y-98345513D01*
X90547572Y-98410977D01*
X90654922Y-98499078D01*
X90743023Y-98606428D01*
X90808487Y-98728903D01*
X90848800Y-98861795D01*
X90862411Y-99000000D01*
X90848800Y-99138205D01*
X90808487Y-99271097D01*
X90743023Y-99393572D01*
X90654922Y-99500922D01*
X90547572Y-99589023D01*
X90425097Y-99654487D01*
X90292205Y-99694800D01*
X90188636Y-99705000D01*
X88811364Y-99705000D01*
X88707795Y-99694800D01*
X88574903Y-99654487D01*
X88452428Y-99589023D01*
X88345078Y-99500922D01*
X88256977Y-99393572D01*
X88191513Y-99271097D01*
X88151200Y-99138205D01*
X88137589Y-99000000D01*
X88151200Y-98861795D01*
X88191513Y-98728903D01*
X88256977Y-98606428D01*
X88345078Y-98499078D01*
X88452428Y-98410977D01*
X88574903Y-98345513D01*
X88707795Y-98305200D01*
X88811364Y-98295000D01*
X90188636Y-98295000D01*
X90292205Y-98305200D01*
X90292205Y-98305200D01*
G37*
G36*
X99988677Y-97753465D02*
X100026364Y-97764898D01*
X100061103Y-97783466D01*
X100091548Y-97808452D01*
X100116534Y-97838897D01*
X100135102Y-97873636D01*
X100146535Y-97911323D01*
X100151000Y-97956661D01*
X100151000Y-99043339D01*
X100146535Y-99088677D01*
X100135102Y-99126364D01*
X100116534Y-99161103D01*
X100091548Y-99191548D01*
X100061103Y-99216534D01*
X100026364Y-99235102D01*
X99988677Y-99246535D01*
X99943339Y-99251000D01*
X99106661Y-99251000D01*
X99061323Y-99246535D01*
X99023636Y-99235102D01*
X98988897Y-99216534D01*
X98958452Y-99191548D01*
X98933466Y-99161103D01*
X98914898Y-99126364D01*
X98903465Y-99088677D01*
X98899000Y-99043339D01*
X98899000Y-97956661D01*
X98903465Y-97911323D01*
X98914898Y-97873636D01*
X98933466Y-97838897D01*
X98958452Y-97808452D01*
X98988897Y-97783466D01*
X99023636Y-97764898D01*
X99061323Y-97753465D01*
X99106661Y-97749000D01*
X99943339Y-97749000D01*
X99988677Y-97753465D01*
X99988677Y-97753465D01*
G37*
G36*
X93938677Y-97753465D02*
X93976364Y-97764898D01*
X94011103Y-97783466D01*
X94041548Y-97808452D01*
X94066534Y-97838897D01*
X94085102Y-97873636D01*
X94096535Y-97911323D01*
X94101000Y-97956661D01*
X94101000Y-99043339D01*
X94096535Y-99088677D01*
X94085102Y-99126364D01*
X94066534Y-99161103D01*
X94041548Y-99191548D01*
X94011103Y-99216534D01*
X93976364Y-99235102D01*
X93938677Y-99246535D01*
X93893339Y-99251000D01*
X93056661Y-99251000D01*
X93011323Y-99246535D01*
X92973636Y-99235102D01*
X92938897Y-99216534D01*
X92908452Y-99191548D01*
X92883466Y-99161103D01*
X92864898Y-99126364D01*
X92853465Y-99088677D01*
X92849000Y-99043339D01*
X92849000Y-97956661D01*
X92853465Y-97911323D01*
X92864898Y-97873636D01*
X92883466Y-97838897D01*
X92908452Y-97808452D01*
X92938897Y-97783466D01*
X92973636Y-97764898D01*
X93011323Y-97753465D01*
X93056661Y-97749000D01*
X93893339Y-97749000D01*
X93938677Y-97753465D01*
X93938677Y-97753465D01*
G37*
G36*
X95988677Y-97753465D02*
X96026364Y-97764898D01*
X96061103Y-97783466D01*
X96091548Y-97808452D01*
X96116534Y-97838897D01*
X96135102Y-97873636D01*
X96146535Y-97911323D01*
X96151000Y-97956661D01*
X96151000Y-99043339D01*
X96146535Y-99088677D01*
X96135102Y-99126364D01*
X96116534Y-99161103D01*
X96091548Y-99191548D01*
X96061103Y-99216534D01*
X96026364Y-99235102D01*
X95988677Y-99246535D01*
X95943339Y-99251000D01*
X95106661Y-99251000D01*
X95061323Y-99246535D01*
X95023636Y-99235102D01*
X94988897Y-99216534D01*
X94958452Y-99191548D01*
X94933466Y-99161103D01*
X94914898Y-99126364D01*
X94903465Y-99088677D01*
X94899000Y-99043339D01*
X94899000Y-97956661D01*
X94903465Y-97911323D01*
X94914898Y-97873636D01*
X94933466Y-97838897D01*
X94958452Y-97808452D01*
X94988897Y-97783466D01*
X95023636Y-97764898D01*
X95061323Y-97753465D01*
X95106661Y-97749000D01*
X95943339Y-97749000D01*
X95988677Y-97753465D01*
X95988677Y-97753465D01*
G37*
G36*
X97938677Y-97753465D02*
X97976364Y-97764898D01*
X98011103Y-97783466D01*
X98041548Y-97808452D01*
X98066534Y-97838897D01*
X98085102Y-97873636D01*
X98096535Y-97911323D01*
X98101000Y-97956661D01*
X98101000Y-99043339D01*
X98096535Y-99088677D01*
X98085102Y-99126364D01*
X98066534Y-99161103D01*
X98041548Y-99191548D01*
X98011103Y-99216534D01*
X97976364Y-99235102D01*
X97938677Y-99246535D01*
X97893339Y-99251000D01*
X97056661Y-99251000D01*
X97011323Y-99246535D01*
X96973636Y-99235102D01*
X96938897Y-99216534D01*
X96908452Y-99191548D01*
X96883466Y-99161103D01*
X96864898Y-99126364D01*
X96853465Y-99088677D01*
X96849000Y-99043339D01*
X96849000Y-97956661D01*
X96853465Y-97911323D01*
X96864898Y-97873636D01*
X96883466Y-97838897D01*
X96908452Y-97808452D01*
X96938897Y-97783466D01*
X96973636Y-97764898D01*
X97011323Y-97753465D01*
X97056661Y-97749000D01*
X97893339Y-97749000D01*
X97938677Y-97753465D01*
X97938677Y-97753465D01*
G37*
G36*
X84638204Y-95151200D02*
X84771096Y-95191513D01*
X84893571Y-95256977D01*
X85000922Y-95345078D01*
X85089023Y-95452428D01*
X85154487Y-95574903D01*
X85194800Y-95707795D01*
X85205000Y-95811364D01*
X85205000Y-97188636D01*
X85194800Y-97292205D01*
X85154487Y-97425097D01*
X85089023Y-97547572D01*
X85000922Y-97654922D01*
X84893572Y-97743023D01*
X84771097Y-97808487D01*
X84638205Y-97848800D01*
X84500000Y-97862411D01*
X84361796Y-97848800D01*
X84228904Y-97808487D01*
X84106429Y-97743023D01*
X83999079Y-97654922D01*
X83910978Y-97547572D01*
X83845514Y-97425097D01*
X83805201Y-97292205D01*
X83795001Y-97188636D01*
X83795000Y-95811365D01*
X83805200Y-95707796D01*
X83845513Y-95574904D01*
X83910977Y-95452429D01*
X83999078Y-95345078D01*
X84106428Y-95256977D01*
X84228903Y-95191513D01*
X84361795Y-95151200D01*
X84500000Y-95137589D01*
X84638204Y-95151200D01*
X84638204Y-95151200D01*
G37*
G36*
X162638205Y-95151200D02*
X162771097Y-95191513D01*
X162893572Y-95256977D01*
X163000922Y-95345078D01*
X163089023Y-95452428D01*
X163154487Y-95574903D01*
X163194800Y-95707795D01*
X163205000Y-95811364D01*
X163205000Y-97188636D01*
X163194800Y-97292205D01*
X163154487Y-97425097D01*
X163089023Y-97547572D01*
X163000922Y-97654922D01*
X162893571Y-97743023D01*
X162771096Y-97808487D01*
X162638204Y-97848800D01*
X162500000Y-97862411D01*
X162361795Y-97848800D01*
X162228903Y-97808487D01*
X162106428Y-97743023D01*
X161999078Y-97654922D01*
X161910977Y-97547571D01*
X161845513Y-97425096D01*
X161805200Y-97292204D01*
X161795000Y-97188635D01*
X161795001Y-95811364D01*
X161805201Y-95707795D01*
X161845514Y-95574903D01*
X161910978Y-95452428D01*
X161999079Y-95345078D01*
X162106429Y-95256977D01*
X162228904Y-95191513D01*
X162361796Y-95151200D01*
X162500000Y-95137589D01*
X162638205Y-95151200D01*
X162638205Y-95151200D01*
G37*
G36*
X97938677Y-95753465D02*
X97976364Y-95764898D01*
X98011103Y-95783466D01*
X98041548Y-95808452D01*
X98066534Y-95838897D01*
X98085102Y-95873636D01*
X98096535Y-95911323D01*
X98101000Y-95956661D01*
X98101000Y-97043339D01*
X98096535Y-97088677D01*
X98085102Y-97126364D01*
X98066534Y-97161103D01*
X98041548Y-97191548D01*
X98011103Y-97216534D01*
X97976364Y-97235102D01*
X97938677Y-97246535D01*
X97893339Y-97251000D01*
X97056661Y-97251000D01*
X97011323Y-97246535D01*
X96973636Y-97235102D01*
X96938897Y-97216534D01*
X96908452Y-97191548D01*
X96883466Y-97161103D01*
X96864898Y-97126364D01*
X96853465Y-97088677D01*
X96849000Y-97043339D01*
X96849000Y-95956661D01*
X96853465Y-95911323D01*
X96864898Y-95873636D01*
X96883466Y-95838897D01*
X96908452Y-95808452D01*
X96938897Y-95783466D01*
X96973636Y-95764898D01*
X97011323Y-95753465D01*
X97056661Y-95749000D01*
X97893339Y-95749000D01*
X97938677Y-95753465D01*
X97938677Y-95753465D01*
G37*
G36*
X93938677Y-95753465D02*
X93976364Y-95764898D01*
X94011103Y-95783466D01*
X94041548Y-95808452D01*
X94066534Y-95838897D01*
X94085102Y-95873636D01*
X94096535Y-95911323D01*
X94101000Y-95956661D01*
X94101000Y-97043339D01*
X94096535Y-97088677D01*
X94085102Y-97126364D01*
X94066534Y-97161103D01*
X94041548Y-97191548D01*
X94011103Y-97216534D01*
X93976364Y-97235102D01*
X93938677Y-97246535D01*
X93893339Y-97251000D01*
X93056661Y-97251000D01*
X93011323Y-97246535D01*
X92973636Y-97235102D01*
X92938897Y-97216534D01*
X92908452Y-97191548D01*
X92883466Y-97161103D01*
X92864898Y-97126364D01*
X92853465Y-97088677D01*
X92849000Y-97043339D01*
X92849000Y-95956661D01*
X92853465Y-95911323D01*
X92864898Y-95873636D01*
X92883466Y-95838897D01*
X92908452Y-95808452D01*
X92938897Y-95783466D01*
X92973636Y-95764898D01*
X93011323Y-95753465D01*
X93056661Y-95749000D01*
X93893339Y-95749000D01*
X93938677Y-95753465D01*
X93938677Y-95753465D01*
G37*
G36*
X99988677Y-95753465D02*
X100026364Y-95764898D01*
X100061103Y-95783466D01*
X100091548Y-95808452D01*
X100116534Y-95838897D01*
X100135102Y-95873636D01*
X100146535Y-95911323D01*
X100151000Y-95956661D01*
X100151000Y-97043339D01*
X100146535Y-97088677D01*
X100135102Y-97126364D01*
X100116534Y-97161103D01*
X100091548Y-97191548D01*
X100061103Y-97216534D01*
X100026364Y-97235102D01*
X99988677Y-97246535D01*
X99943339Y-97251000D01*
X99106661Y-97251000D01*
X99061323Y-97246535D01*
X99023636Y-97235102D01*
X98988897Y-97216534D01*
X98958452Y-97191548D01*
X98933466Y-97161103D01*
X98914898Y-97126364D01*
X98903465Y-97088677D01*
X98899000Y-97043339D01*
X98899000Y-95956661D01*
X98903465Y-95911323D01*
X98914898Y-95873636D01*
X98933466Y-95838897D01*
X98958452Y-95808452D01*
X98988897Y-95783466D01*
X99023636Y-95764898D01*
X99061323Y-95753465D01*
X99106661Y-95749000D01*
X99943339Y-95749000D01*
X99988677Y-95753465D01*
X99988677Y-95753465D01*
G37*
G36*
X95988677Y-95753465D02*
X96026364Y-95764898D01*
X96061103Y-95783466D01*
X96091548Y-95808452D01*
X96116534Y-95838897D01*
X96135102Y-95873636D01*
X96146535Y-95911323D01*
X96151000Y-95956661D01*
X96151000Y-97043339D01*
X96146535Y-97088677D01*
X96135102Y-97126364D01*
X96116534Y-97161103D01*
X96091548Y-97191548D01*
X96061103Y-97216534D01*
X96026364Y-97235102D01*
X95988677Y-97246535D01*
X95943339Y-97251000D01*
X95106661Y-97251000D01*
X95061323Y-97246535D01*
X95023636Y-97235102D01*
X94988897Y-97216534D01*
X94958452Y-97191548D01*
X94933466Y-97161103D01*
X94914898Y-97126364D01*
X94903465Y-97088677D01*
X94899000Y-97043339D01*
X94899000Y-95956661D01*
X94903465Y-95911323D01*
X94914898Y-95873636D01*
X94933466Y-95838897D01*
X94958452Y-95808452D01*
X94988897Y-95783466D01*
X95023636Y-95764898D01*
X95061323Y-95753465D01*
X95106661Y-95749000D01*
X95943339Y-95749000D01*
X95988677Y-95753465D01*
X95988677Y-95753465D01*
G37*
G36*
X157689890Y-95874017D02*
X157808361Y-95923089D01*
X157914992Y-95994338D01*
X158005662Y-96085008D01*
X158076911Y-96191639D01*
X158125983Y-96310110D01*
X158151000Y-96435881D01*
X158151000Y-96564119D01*
X158125983Y-96689890D01*
X158076911Y-96808361D01*
X158005662Y-96914992D01*
X157914992Y-97005662D01*
X157808361Y-97076911D01*
X157689890Y-97125983D01*
X157564119Y-97151000D01*
X157435881Y-97151000D01*
X157310110Y-97125983D01*
X157191639Y-97076911D01*
X157085008Y-97005662D01*
X156994338Y-96914992D01*
X156923089Y-96808361D01*
X156874017Y-96689890D01*
X156849000Y-96564119D01*
X156849000Y-96435881D01*
X156874017Y-96310110D01*
X156923089Y-96191639D01*
X156994338Y-96085008D01*
X157085008Y-95994338D01*
X157191639Y-95923089D01*
X157310110Y-95874017D01*
X157435881Y-95849000D01*
X157564119Y-95849000D01*
X157689890Y-95874017D01*
X157689890Y-95874017D01*
G37*
G36*
X89689890Y-95874017D02*
X89808361Y-95923089D01*
X89914992Y-95994338D01*
X90005662Y-96085008D01*
X90076911Y-96191639D01*
X90125983Y-96310110D01*
X90151000Y-96435881D01*
X90151000Y-96564119D01*
X90125983Y-96689890D01*
X90076911Y-96808361D01*
X90005662Y-96914992D01*
X89914992Y-97005662D01*
X89808361Y-97076911D01*
X89689890Y-97125983D01*
X89564119Y-97151000D01*
X89435881Y-97151000D01*
X89310110Y-97125983D01*
X89191639Y-97076911D01*
X89085008Y-97005662D01*
X88994338Y-96914992D01*
X88923089Y-96808361D01*
X88874017Y-96689890D01*
X88849000Y-96564119D01*
X88849000Y-96435881D01*
X88874017Y-96310110D01*
X88923089Y-96191639D01*
X88994338Y-96085008D01*
X89085008Y-95994338D01*
X89191639Y-95923089D01*
X89310110Y-95874017D01*
X89435881Y-95849000D01*
X89564119Y-95849000D01*
X89689890Y-95874017D01*
X89689890Y-95874017D01*
G37*
G36*
X114517142Y-93286242D02*
X114665102Y-93347530D01*
X114798258Y-93436502D01*
X114911498Y-93549742D01*
X115000470Y-93682898D01*
X115061758Y-93830858D01*
X115093000Y-93987925D01*
X115093000Y-94148075D01*
X115061758Y-94305142D01*
X115000470Y-94453102D01*
X114911498Y-94586258D01*
X114798258Y-94699498D01*
X114665102Y-94788470D01*
X114517142Y-94849758D01*
X114360075Y-94881000D01*
X114199925Y-94881000D01*
X114042858Y-94849758D01*
X113894898Y-94788470D01*
X113761742Y-94699498D01*
X113648502Y-94586258D01*
X113559530Y-94453102D01*
X113498242Y-94305142D01*
X113467000Y-94148075D01*
X113467000Y-93987925D01*
X113498242Y-93830858D01*
X113559530Y-93682898D01*
X113648502Y-93549742D01*
X113761742Y-93436502D01*
X113894898Y-93347530D01*
X114042858Y-93286242D01*
X114199925Y-93255000D01*
X114360075Y-93255000D01*
X114517142Y-93286242D01*
X114517142Y-93286242D01*
G37*
G36*
X99277142Y-93286242D02*
X99425102Y-93347530D01*
X99558258Y-93436502D01*
X99671498Y-93549742D01*
X99760470Y-93682898D01*
X99821758Y-93830858D01*
X99853000Y-93987925D01*
X99853000Y-94148075D01*
X99821758Y-94305142D01*
X99760470Y-94453102D01*
X99671498Y-94586258D01*
X99558258Y-94699498D01*
X99425102Y-94788470D01*
X99277142Y-94849758D01*
X99120075Y-94881000D01*
X98959925Y-94881000D01*
X98802858Y-94849758D01*
X98654898Y-94788470D01*
X98521742Y-94699498D01*
X98408502Y-94586258D01*
X98319530Y-94453102D01*
X98258242Y-94305142D01*
X98227000Y-94148075D01*
X98227000Y-93987925D01*
X98258242Y-93830858D01*
X98319530Y-93682898D01*
X98408502Y-93549742D01*
X98521742Y-93436502D01*
X98654898Y-93347530D01*
X98802858Y-93286242D01*
X98959925Y-93255000D01*
X99120075Y-93255000D01*
X99277142Y-93286242D01*
X99277142Y-93286242D01*
G37*
G36*
X96737142Y-93286242D02*
X96885102Y-93347530D01*
X97018258Y-93436502D01*
X97131498Y-93549742D01*
X97220470Y-93682898D01*
X97281758Y-93830858D01*
X97313000Y-93987925D01*
X97313000Y-94148075D01*
X97281758Y-94305142D01*
X97220470Y-94453102D01*
X97131498Y-94586258D01*
X97018258Y-94699498D01*
X96885102Y-94788470D01*
X96737142Y-94849758D01*
X96580075Y-94881000D01*
X96419925Y-94881000D01*
X96262858Y-94849758D01*
X96114898Y-94788470D01*
X95981742Y-94699498D01*
X95868502Y-94586258D01*
X95779530Y-94453102D01*
X95718242Y-94305142D01*
X95687000Y-94148075D01*
X95687000Y-93987925D01*
X95718242Y-93830858D01*
X95779530Y-93682898D01*
X95868502Y-93549742D01*
X95981742Y-93436502D01*
X96114898Y-93347530D01*
X96262858Y-93286242D01*
X96419925Y-93255000D01*
X96580075Y-93255000D01*
X96737142Y-93286242D01*
X96737142Y-93286242D01*
G37*
G36*
X106897142Y-93286242D02*
X107045102Y-93347530D01*
X107178258Y-93436502D01*
X107291498Y-93549742D01*
X107380470Y-93682898D01*
X107441758Y-93830858D01*
X107473000Y-93987925D01*
X107473000Y-94148075D01*
X107441758Y-94305142D01*
X107380470Y-94453102D01*
X107291498Y-94586258D01*
X107178258Y-94699498D01*
X107045102Y-94788470D01*
X106897142Y-94849758D01*
X106740075Y-94881000D01*
X106579925Y-94881000D01*
X106422858Y-94849758D01*
X106274898Y-94788470D01*
X106141742Y-94699498D01*
X106028502Y-94586258D01*
X105939530Y-94453102D01*
X105878242Y-94305142D01*
X105847000Y-94148075D01*
X105847000Y-93987925D01*
X105878242Y-93830858D01*
X105939530Y-93682898D01*
X106028502Y-93549742D01*
X106141742Y-93436502D01*
X106274898Y-93347530D01*
X106422858Y-93286242D01*
X106579925Y-93255000D01*
X106740075Y-93255000D01*
X106897142Y-93286242D01*
X106897142Y-93286242D01*
G37*
G36*
X109437142Y-93286242D02*
X109585102Y-93347530D01*
X109718258Y-93436502D01*
X109831498Y-93549742D01*
X109920470Y-93682898D01*
X109981758Y-93830858D01*
X110013000Y-93987925D01*
X110013000Y-94148075D01*
X109981758Y-94305142D01*
X109920470Y-94453102D01*
X109831498Y-94586258D01*
X109718258Y-94699498D01*
X109585102Y-94788470D01*
X109437142Y-94849758D01*
X109280075Y-94881000D01*
X109119925Y-94881000D01*
X108962858Y-94849758D01*
X108814898Y-94788470D01*
X108681742Y-94699498D01*
X108568502Y-94586258D01*
X108479530Y-94453102D01*
X108418242Y-94305142D01*
X108387000Y-94148075D01*
X108387000Y-93987925D01*
X108418242Y-93830858D01*
X108479530Y-93682898D01*
X108568502Y-93549742D01*
X108681742Y-93436502D01*
X108814898Y-93347530D01*
X108962858Y-93286242D01*
X109119925Y-93255000D01*
X109280075Y-93255000D01*
X109437142Y-93286242D01*
X109437142Y-93286242D01*
G37*
G36*
X111977142Y-93286242D02*
X112125102Y-93347530D01*
X112258258Y-93436502D01*
X112371498Y-93549742D01*
X112460470Y-93682898D01*
X112521758Y-93830858D01*
X112553000Y-93987925D01*
X112553000Y-94148075D01*
X112521758Y-94305142D01*
X112460470Y-94453102D01*
X112371498Y-94586258D01*
X112258258Y-94699498D01*
X112125102Y-94788470D01*
X111977142Y-94849758D01*
X111820075Y-94881000D01*
X111659925Y-94881000D01*
X111502858Y-94849758D01*
X111354898Y-94788470D01*
X111221742Y-94699498D01*
X111108502Y-94586258D01*
X111019530Y-94453102D01*
X110958242Y-94305142D01*
X110927000Y-94148075D01*
X110927000Y-93987925D01*
X110958242Y-93830858D01*
X111019530Y-93682898D01*
X111108502Y-93549742D01*
X111221742Y-93436502D01*
X111354898Y-93347530D01*
X111502858Y-93286242D01*
X111659925Y-93255000D01*
X111820075Y-93255000D01*
X111977142Y-93286242D01*
X111977142Y-93286242D01*
G37*
G36*
X101817142Y-93286242D02*
X101965102Y-93347530D01*
X102098258Y-93436502D01*
X102211498Y-93549742D01*
X102300470Y-93682898D01*
X102361758Y-93830858D01*
X102393000Y-93987925D01*
X102393000Y-94148075D01*
X102361758Y-94305142D01*
X102300470Y-94453102D01*
X102211498Y-94586258D01*
X102098258Y-94699498D01*
X101965102Y-94788470D01*
X101817142Y-94849758D01*
X101660075Y-94881000D01*
X101499925Y-94881000D01*
X101342858Y-94849758D01*
X101194898Y-94788470D01*
X101061742Y-94699498D01*
X100948502Y-94586258D01*
X100859530Y-94453102D01*
X100798242Y-94305142D01*
X100767000Y-94148075D01*
X100767000Y-93987925D01*
X100798242Y-93830858D01*
X100859530Y-93682898D01*
X100948502Y-93549742D01*
X101061742Y-93436502D01*
X101194898Y-93347530D01*
X101342858Y-93286242D01*
X101499925Y-93255000D01*
X101660075Y-93255000D01*
X101817142Y-93286242D01*
X101817142Y-93286242D01*
G37*
G36*
X121187142Y-93286242D02*
X121335102Y-93347530D01*
X121468258Y-93436502D01*
X121581498Y-93549742D01*
X121670470Y-93682898D01*
X121731758Y-93830858D01*
X121763000Y-93987925D01*
X121763000Y-94148075D01*
X121731758Y-94305142D01*
X121670470Y-94453102D01*
X121581498Y-94586258D01*
X121468258Y-94699498D01*
X121335102Y-94788470D01*
X121187142Y-94849758D01*
X121030075Y-94881000D01*
X120869925Y-94881000D01*
X120712858Y-94849758D01*
X120564898Y-94788470D01*
X120431742Y-94699498D01*
X120318502Y-94586258D01*
X120229530Y-94453102D01*
X120168242Y-94305142D01*
X120137000Y-94148075D01*
X120137000Y-93987925D01*
X120168242Y-93830858D01*
X120229530Y-93682898D01*
X120318502Y-93549742D01*
X120431742Y-93436502D01*
X120564898Y-93347530D01*
X120712858Y-93286242D01*
X120869925Y-93255000D01*
X121030075Y-93255000D01*
X121187142Y-93286242D01*
X121187142Y-93286242D01*
G37*
G36*
X123727142Y-93286242D02*
X123875102Y-93347530D01*
X124008258Y-93436502D01*
X124121498Y-93549742D01*
X124210470Y-93682898D01*
X124271758Y-93830858D01*
X124303000Y-93987925D01*
X124303000Y-94148075D01*
X124271758Y-94305142D01*
X124210470Y-94453102D01*
X124121498Y-94586258D01*
X124008258Y-94699498D01*
X123875102Y-94788470D01*
X123727142Y-94849758D01*
X123570075Y-94881000D01*
X123409925Y-94881000D01*
X123252858Y-94849758D01*
X123104898Y-94788470D01*
X122971742Y-94699498D01*
X122858502Y-94586258D01*
X122769530Y-94453102D01*
X122708242Y-94305142D01*
X122677000Y-94148075D01*
X122677000Y-93987925D01*
X122708242Y-93830858D01*
X122769530Y-93682898D01*
X122858502Y-93549742D01*
X122971742Y-93436502D01*
X123104898Y-93347530D01*
X123252858Y-93286242D01*
X123409925Y-93255000D01*
X123570075Y-93255000D01*
X123727142Y-93286242D01*
X123727142Y-93286242D01*
G37*
G36*
X126267142Y-93286242D02*
X126415102Y-93347530D01*
X126548258Y-93436502D01*
X126661498Y-93549742D01*
X126750470Y-93682898D01*
X126811758Y-93830858D01*
X126843000Y-93987925D01*
X126843000Y-94148075D01*
X126811758Y-94305142D01*
X126750470Y-94453102D01*
X126661498Y-94586258D01*
X126548258Y-94699498D01*
X126415102Y-94788470D01*
X126267142Y-94849758D01*
X126110075Y-94881000D01*
X125949925Y-94881000D01*
X125792858Y-94849758D01*
X125644898Y-94788470D01*
X125511742Y-94699498D01*
X125398502Y-94586258D01*
X125309530Y-94453102D01*
X125248242Y-94305142D01*
X125217000Y-94148075D01*
X125217000Y-93987925D01*
X125248242Y-93830858D01*
X125309530Y-93682898D01*
X125398502Y-93549742D01*
X125511742Y-93436502D01*
X125644898Y-93347530D01*
X125792858Y-93286242D01*
X125949925Y-93255000D01*
X126110075Y-93255000D01*
X126267142Y-93286242D01*
X126267142Y-93286242D01*
G37*
G36*
X128807142Y-93286242D02*
X128955102Y-93347530D01*
X129088258Y-93436502D01*
X129201498Y-93549742D01*
X129290470Y-93682898D01*
X129351758Y-93830858D01*
X129383000Y-93987925D01*
X129383000Y-94148075D01*
X129351758Y-94305142D01*
X129290470Y-94453102D01*
X129201498Y-94586258D01*
X129088258Y-94699498D01*
X128955102Y-94788470D01*
X128807142Y-94849758D01*
X128650075Y-94881000D01*
X128489925Y-94881000D01*
X128332858Y-94849758D01*
X128184898Y-94788470D01*
X128051742Y-94699498D01*
X127938502Y-94586258D01*
X127849530Y-94453102D01*
X127788242Y-94305142D01*
X127757000Y-94148075D01*
X127757000Y-93987925D01*
X127788242Y-93830858D01*
X127849530Y-93682898D01*
X127938502Y-93549742D01*
X128051742Y-93436502D01*
X128184898Y-93347530D01*
X128332858Y-93286242D01*
X128489925Y-93255000D01*
X128650075Y-93255000D01*
X128807142Y-93286242D01*
X128807142Y-93286242D01*
G37*
G36*
X131347142Y-93286242D02*
X131495102Y-93347530D01*
X131628258Y-93436502D01*
X131741498Y-93549742D01*
X131830470Y-93682898D01*
X131891758Y-93830858D01*
X131923000Y-93987925D01*
X131923000Y-94148075D01*
X131891758Y-94305142D01*
X131830470Y-94453102D01*
X131741498Y-94586258D01*
X131628258Y-94699498D01*
X131495102Y-94788470D01*
X131347142Y-94849758D01*
X131190075Y-94881000D01*
X131029925Y-94881000D01*
X130872858Y-94849758D01*
X130724898Y-94788470D01*
X130591742Y-94699498D01*
X130478502Y-94586258D01*
X130389530Y-94453102D01*
X130328242Y-94305142D01*
X130297000Y-94148075D01*
X130297000Y-93987925D01*
X130328242Y-93830858D01*
X130389530Y-93682898D01*
X130478502Y-93549742D01*
X130591742Y-93436502D01*
X130724898Y-93347530D01*
X130872858Y-93286242D01*
X131029925Y-93255000D01*
X131190075Y-93255000D01*
X131347142Y-93286242D01*
X131347142Y-93286242D01*
G37*
G36*
X133887142Y-93286242D02*
X134035102Y-93347530D01*
X134168258Y-93436502D01*
X134281498Y-93549742D01*
X134370470Y-93682898D01*
X134431758Y-93830858D01*
X134463000Y-93987925D01*
X134463000Y-94148075D01*
X134431758Y-94305142D01*
X134370470Y-94453102D01*
X134281498Y-94586258D01*
X134168258Y-94699498D01*
X134035102Y-94788470D01*
X133887142Y-94849758D01*
X133730075Y-94881000D01*
X133569925Y-94881000D01*
X133412858Y-94849758D01*
X133264898Y-94788470D01*
X133131742Y-94699498D01*
X133018502Y-94586258D01*
X132929530Y-94453102D01*
X132868242Y-94305142D01*
X132837000Y-94148075D01*
X132837000Y-93987925D01*
X132868242Y-93830858D01*
X132929530Y-93682898D01*
X133018502Y-93549742D01*
X133131742Y-93436502D01*
X133264898Y-93347530D01*
X133412858Y-93286242D01*
X133569925Y-93255000D01*
X133730075Y-93255000D01*
X133887142Y-93286242D01*
X133887142Y-93286242D01*
G37*
G36*
X104357142Y-93286242D02*
X104505102Y-93347530D01*
X104638258Y-93436502D01*
X104751498Y-93549742D01*
X104840470Y-93682898D01*
X104901758Y-93830858D01*
X104933000Y-93987925D01*
X104933000Y-94148075D01*
X104901758Y-94305142D01*
X104840470Y-94453102D01*
X104751498Y-94586258D01*
X104638258Y-94699498D01*
X104505102Y-94788470D01*
X104357142Y-94849758D01*
X104200075Y-94881000D01*
X104039925Y-94881000D01*
X103882858Y-94849758D01*
X103734898Y-94788470D01*
X103601742Y-94699498D01*
X103488502Y-94586258D01*
X103399530Y-94453102D01*
X103338242Y-94305142D01*
X103307000Y-94148075D01*
X103307000Y-93987925D01*
X103338242Y-93830858D01*
X103399530Y-93682898D01*
X103488502Y-93549742D01*
X103601742Y-93436502D01*
X103734898Y-93347530D01*
X103882858Y-93286242D01*
X104039925Y-93255000D01*
X104200075Y-93255000D01*
X104357142Y-93286242D01*
X104357142Y-93286242D01*
G37*
G36*
X118647142Y-93286242D02*
X118795102Y-93347530D01*
X118928258Y-93436502D01*
X119041498Y-93549742D01*
X119130470Y-93682898D01*
X119191758Y-93830858D01*
X119223000Y-93987925D01*
X119223000Y-94148075D01*
X119191758Y-94305142D01*
X119130470Y-94453102D01*
X119041498Y-94586258D01*
X118928258Y-94699498D01*
X118795102Y-94788470D01*
X118647142Y-94849758D01*
X118490075Y-94881000D01*
X118329925Y-94881000D01*
X118172858Y-94849758D01*
X118024898Y-94788470D01*
X117891742Y-94699498D01*
X117778502Y-94586258D01*
X117689530Y-94453102D01*
X117628242Y-94305142D01*
X117597000Y-94148075D01*
X117597000Y-93987925D01*
X117628242Y-93830858D01*
X117689530Y-93682898D01*
X117778502Y-93549742D01*
X117891742Y-93436502D01*
X118024898Y-93347530D01*
X118172858Y-93286242D01*
X118329925Y-93255000D01*
X118490075Y-93255000D01*
X118647142Y-93286242D01*
X118647142Y-93286242D01*
G37*
G36*
X136427142Y-93286242D02*
X136575102Y-93347530D01*
X136708258Y-93436502D01*
X136821498Y-93549742D01*
X136910470Y-93682898D01*
X136971758Y-93830858D01*
X137003000Y-93987925D01*
X137003000Y-94148075D01*
X136971758Y-94305142D01*
X136910470Y-94453102D01*
X136821498Y-94586258D01*
X136708258Y-94699498D01*
X136575102Y-94788470D01*
X136427142Y-94849758D01*
X136270075Y-94881000D01*
X136109925Y-94881000D01*
X135952858Y-94849758D01*
X135804898Y-94788470D01*
X135671742Y-94699498D01*
X135558502Y-94586258D01*
X135469530Y-94453102D01*
X135408242Y-94305142D01*
X135377000Y-94148075D01*
X135377000Y-93987925D01*
X135408242Y-93830858D01*
X135469530Y-93682898D01*
X135558502Y-93549742D01*
X135671742Y-93436502D01*
X135804898Y-93347530D01*
X135952858Y-93286242D01*
X136109925Y-93255000D01*
X136270075Y-93255000D01*
X136427142Y-93286242D01*
X136427142Y-93286242D01*
G37*
G36*
X90292205Y-93305200D02*
X90425097Y-93345513D01*
X90547572Y-93410977D01*
X90654922Y-93499078D01*
X90743023Y-93606428D01*
X90808487Y-93728903D01*
X90848800Y-93861795D01*
X90862411Y-94000000D01*
X90848800Y-94138205D01*
X90808487Y-94271097D01*
X90743023Y-94393572D01*
X90654922Y-94500922D01*
X90547572Y-94589023D01*
X90425097Y-94654487D01*
X90292205Y-94694800D01*
X90188636Y-94705000D01*
X88811364Y-94705000D01*
X88707795Y-94694800D01*
X88574903Y-94654487D01*
X88452428Y-94589023D01*
X88345078Y-94500922D01*
X88256977Y-94393572D01*
X88191513Y-94271097D01*
X88151200Y-94138205D01*
X88137589Y-94000000D01*
X88151200Y-93861795D01*
X88191513Y-93728903D01*
X88256977Y-93606428D01*
X88345078Y-93499078D01*
X88452428Y-93410977D01*
X88574903Y-93345513D01*
X88707795Y-93305200D01*
X88811364Y-93295000D01*
X90188636Y-93295000D01*
X90292205Y-93305200D01*
X90292205Y-93305200D01*
G37*
G36*
X158292205Y-93305200D02*
X158425097Y-93345513D01*
X158547572Y-93410977D01*
X158654922Y-93499078D01*
X158743023Y-93606428D01*
X158808487Y-93728903D01*
X158848800Y-93861795D01*
X158862411Y-94000000D01*
X158848800Y-94138205D01*
X158808487Y-94271097D01*
X158743023Y-94393572D01*
X158654922Y-94500922D01*
X158547572Y-94589023D01*
X158425097Y-94654487D01*
X158292205Y-94694800D01*
X158188636Y-94705000D01*
X156811364Y-94705000D01*
X156707795Y-94694800D01*
X156574903Y-94654487D01*
X156452428Y-94589023D01*
X156345078Y-94500922D01*
X156256977Y-94393572D01*
X156191513Y-94271097D01*
X156151200Y-94138205D01*
X156137589Y-94000000D01*
X156151200Y-93861795D01*
X156191513Y-93728903D01*
X156256977Y-93606428D01*
X156345078Y-93499078D01*
X156452428Y-93410977D01*
X156574903Y-93345513D01*
X156707795Y-93305200D01*
X156811364Y-93295000D01*
X158188636Y-93295000D01*
X158292205Y-93305200D01*
X158292205Y-93305200D01*
G37*
G36*
X90292205Y-90805200D02*
X90425097Y-90845513D01*
X90547572Y-90910977D01*
X90654922Y-90999078D01*
X90743023Y-91106428D01*
X90808487Y-91228903D01*
X90848800Y-91361795D01*
X90862411Y-91500000D01*
X90848800Y-91638205D01*
X90808487Y-91771097D01*
X90743023Y-91893572D01*
X90654922Y-92000922D01*
X90547572Y-92089023D01*
X90425097Y-92154487D01*
X90292205Y-92194800D01*
X90188636Y-92205000D01*
X88811364Y-92205000D01*
X88707795Y-92194800D01*
X88574903Y-92154487D01*
X88452428Y-92089023D01*
X88345078Y-92000922D01*
X88256977Y-91893572D01*
X88191513Y-91771097D01*
X88151200Y-91638205D01*
X88137589Y-91500000D01*
X88151200Y-91361795D01*
X88191513Y-91228903D01*
X88256977Y-91106428D01*
X88345078Y-90999078D01*
X88452428Y-90910977D01*
X88574903Y-90845513D01*
X88707795Y-90805200D01*
X88811364Y-90795000D01*
X90188636Y-90795000D01*
X90292205Y-90805200D01*
X90292205Y-90805200D01*
G37*
G36*
X158292205Y-90805200D02*
X158425097Y-90845513D01*
X158547572Y-90910977D01*
X158654922Y-90999078D01*
X158743023Y-91106428D01*
X158808487Y-91228903D01*
X158848800Y-91361795D01*
X158862411Y-91500000D01*
X158848800Y-91638205D01*
X158808487Y-91771097D01*
X158743023Y-91893572D01*
X158654922Y-92000922D01*
X158547572Y-92089023D01*
X158425097Y-92154487D01*
X158292205Y-92194800D01*
X158188636Y-92205000D01*
X156811364Y-92205000D01*
X156707795Y-92194800D01*
X156574903Y-92154487D01*
X156452428Y-92089023D01*
X156345078Y-92000922D01*
X156256977Y-91893572D01*
X156191513Y-91771097D01*
X156151200Y-91638205D01*
X156137589Y-91500000D01*
X156151200Y-91361795D01*
X156191513Y-91228903D01*
X156256977Y-91106428D01*
X156345078Y-90999078D01*
X156452428Y-90910977D01*
X156574903Y-90845513D01*
X156707795Y-90805200D01*
X156811364Y-90795000D01*
X158188636Y-90795000D01*
X158292205Y-90805200D01*
X158292205Y-90805200D01*
G37*
G36*
X165189890Y-90874017D02*
X165308361Y-90923089D01*
X165414992Y-90994338D01*
X165505662Y-91085008D01*
X165505664Y-91085011D01*
X165505665Y-91085012D01*
X165576909Y-91191636D01*
X165576911Y-91191639D01*
X165625983Y-91310110D01*
X165651000Y-91435881D01*
X165651000Y-91564119D01*
X165625983Y-91689890D01*
X165576911Y-91808361D01*
X165576909Y-91808364D01*
X165519975Y-91893572D01*
X165505662Y-91914992D01*
X165414992Y-92005662D01*
X165308361Y-92076911D01*
X165189890Y-92125983D01*
X165064119Y-92151000D01*
X164935881Y-92151000D01*
X164810110Y-92125983D01*
X164691639Y-92076911D01*
X164585008Y-92005662D01*
X164494338Y-91914992D01*
X164480026Y-91893572D01*
X164423091Y-91808364D01*
X164423089Y-91808361D01*
X164374017Y-91689890D01*
X164349000Y-91564119D01*
X164349000Y-91435881D01*
X164374017Y-91310110D01*
X164423089Y-91191639D01*
X164423091Y-91191636D01*
X164494335Y-91085012D01*
X164494336Y-91085011D01*
X164494338Y-91085008D01*
X164585008Y-90994338D01*
X164691639Y-90923089D01*
X164810110Y-90874017D01*
X164935881Y-90849000D01*
X165064119Y-90849000D01*
X165189890Y-90874017D01*
X165189890Y-90874017D01*
G37*
G36*
X162689890Y-90874017D02*
X162808361Y-90923089D01*
X162914992Y-90994338D01*
X163005662Y-91085008D01*
X163005664Y-91085011D01*
X163005665Y-91085012D01*
X163076909Y-91191636D01*
X163076911Y-91191639D01*
X163125983Y-91310110D01*
X163151000Y-91435881D01*
X163151000Y-91564119D01*
X163125983Y-91689890D01*
X163076911Y-91808361D01*
X163076909Y-91808364D01*
X163019975Y-91893572D01*
X163005662Y-91914992D01*
X162914992Y-92005662D01*
X162808361Y-92076911D01*
X162689890Y-92125983D01*
X162564119Y-92151000D01*
X162435881Y-92151000D01*
X162310110Y-92125983D01*
X162191639Y-92076911D01*
X162085008Y-92005662D01*
X161994338Y-91914992D01*
X161980026Y-91893572D01*
X161923091Y-91808364D01*
X161923089Y-91808361D01*
X161874017Y-91689890D01*
X161849000Y-91564119D01*
X161849000Y-91435881D01*
X161874017Y-91310110D01*
X161923089Y-91191639D01*
X161923091Y-91191636D01*
X161994335Y-91085012D01*
X161994336Y-91085011D01*
X161994338Y-91085008D01*
X162085008Y-90994338D01*
X162191639Y-90923089D01*
X162310110Y-90874017D01*
X162435881Y-90849000D01*
X162564119Y-90849000D01*
X162689890Y-90874017D01*
X162689890Y-90874017D01*
G37*
G36*
X84689890Y-90874017D02*
X84808361Y-90923089D01*
X84914992Y-90994338D01*
X85005662Y-91085008D01*
X85005664Y-91085011D01*
X85005665Y-91085012D01*
X85076909Y-91191636D01*
X85076911Y-91191639D01*
X85125983Y-91310110D01*
X85151000Y-91435881D01*
X85151000Y-91564119D01*
X85125983Y-91689890D01*
X85076911Y-91808361D01*
X85076909Y-91808364D01*
X85019975Y-91893572D01*
X85005662Y-91914992D01*
X84914992Y-92005662D01*
X84808361Y-92076911D01*
X84689890Y-92125983D01*
X84564119Y-92151000D01*
X84435881Y-92151000D01*
X84310110Y-92125983D01*
X84191639Y-92076911D01*
X84085008Y-92005662D01*
X83994338Y-91914992D01*
X83980026Y-91893572D01*
X83923091Y-91808364D01*
X83923089Y-91808361D01*
X83874017Y-91689890D01*
X83849000Y-91564119D01*
X83849000Y-91435881D01*
X83874017Y-91310110D01*
X83923089Y-91191639D01*
X83923091Y-91191636D01*
X83994335Y-91085012D01*
X83994336Y-91085011D01*
X83994338Y-91085008D01*
X84085008Y-90994338D01*
X84191639Y-90923089D01*
X84310110Y-90874017D01*
X84435881Y-90849000D01*
X84564119Y-90849000D01*
X84689890Y-90874017D01*
X84689890Y-90874017D01*
G37*
G36*
X82189890Y-90874017D02*
X82308361Y-90923089D01*
X82414992Y-90994338D01*
X82505662Y-91085008D01*
X82505664Y-91085011D01*
X82505665Y-91085012D01*
X82576909Y-91191636D01*
X82576911Y-91191639D01*
X82625983Y-91310110D01*
X82651000Y-91435881D01*
X82651000Y-91564119D01*
X82625983Y-91689890D01*
X82576911Y-91808361D01*
X82576909Y-91808364D01*
X82519975Y-91893572D01*
X82505662Y-91914992D01*
X82414992Y-92005662D01*
X82308361Y-92076911D01*
X82189890Y-92125983D01*
X82064119Y-92151000D01*
X81935881Y-92151000D01*
X81810110Y-92125983D01*
X81691639Y-92076911D01*
X81585008Y-92005662D01*
X81494338Y-91914992D01*
X81480026Y-91893572D01*
X81423091Y-91808364D01*
X81423089Y-91808361D01*
X81374017Y-91689890D01*
X81349000Y-91564119D01*
X81349000Y-91435881D01*
X81374017Y-91310110D01*
X81423089Y-91191639D01*
X81423091Y-91191636D01*
X81494335Y-91085012D01*
X81494336Y-91085011D01*
X81494338Y-91085008D01*
X81585008Y-90994338D01*
X81691639Y-90923089D01*
X81810110Y-90874017D01*
X81935881Y-90849000D01*
X82064119Y-90849000D01*
X82189890Y-90874017D01*
X82189890Y-90874017D01*
G37*
M02*
