G04 #@! TF.GenerationSoftware,KiCad,Pcbnew,(5.0.1)-3*
G04 #@! TF.CreationDate,2021-11-06T13:35:58+01:00*
G04 #@! TF.ProjectId,pocketDSP,706F636B65744453502E6B696361645F,rev?*
G04 #@! TF.SameCoordinates,Original*
G04 #@! TF.FileFunction,Legend,Bot*
G04 #@! TF.FilePolarity,Positive*
%FSLAX46Y46*%
G04 Gerber Fmt 4.6, Leading zero omitted, Abs format (unit mm)*
G04 Created by KiCad (PCBNEW (5.0.1)-3) date 06/11/2021 13:35:58*
%MOMM*%
%LPD*%
G01*
G04 APERTURE LIST*
%ADD10C,0.300000*%
%ADD11C,0.120000*%
%ADD12C,0.127000*%
%ADD13C,0.080000*%
%ADD14C,0.015000*%
%ADD15C,0.150000*%
G04 APERTURE END LIST*
D10*
X162000000Y-101178571D02*
X161714285Y-101178571D01*
X161571428Y-101250000D01*
X161428571Y-101392857D01*
X161357142Y-101678571D01*
X161357142Y-102178571D01*
X161428571Y-102464285D01*
X161571428Y-102607142D01*
X161714285Y-102678571D01*
X162000000Y-102678571D01*
X162142857Y-102607142D01*
X162285714Y-102464285D01*
X162357142Y-102178571D01*
X162357142Y-101678571D01*
X162285714Y-101392857D01*
X162142857Y-101250000D01*
X162000000Y-101178571D01*
X160714285Y-101178571D02*
X160714285Y-102392857D01*
X160642857Y-102535714D01*
X160571428Y-102607142D01*
X160428571Y-102678571D01*
X160142857Y-102678571D01*
X160000000Y-102607142D01*
X159928571Y-102535714D01*
X159857142Y-102392857D01*
X159857142Y-101178571D01*
X159357142Y-101178571D02*
X158500000Y-101178571D01*
X158928571Y-102678571D02*
X158928571Y-101178571D01*
X87285714Y-102678571D02*
X87285714Y-101178571D01*
X86571428Y-102678571D02*
X86571428Y-101178571D01*
X85714285Y-102678571D01*
X85714285Y-101178571D01*
X98964285Y-144678571D02*
X98964285Y-146178571D01*
X98964285Y-144750000D02*
X98821428Y-144678571D01*
X98535714Y-144678571D01*
X98392857Y-144750000D01*
X98321428Y-144821428D01*
X98250000Y-144964285D01*
X98250000Y-145392857D01*
X98321428Y-145535714D01*
X98392857Y-145607142D01*
X98535714Y-145678571D01*
X98821428Y-145678571D01*
X98964285Y-145607142D01*
X97392857Y-145678571D02*
X97535714Y-145607142D01*
X97607142Y-145535714D01*
X97678571Y-145392857D01*
X97678571Y-144964285D01*
X97607142Y-144821428D01*
X97535714Y-144750000D01*
X97392857Y-144678571D01*
X97178571Y-144678571D01*
X97035714Y-144750000D01*
X96964285Y-144821428D01*
X96892857Y-144964285D01*
X96892857Y-145392857D01*
X96964285Y-145535714D01*
X97035714Y-145607142D01*
X97178571Y-145678571D01*
X97392857Y-145678571D01*
X95607142Y-145607142D02*
X95750000Y-145678571D01*
X96035714Y-145678571D01*
X96178571Y-145607142D01*
X96250000Y-145535714D01*
X96321428Y-145392857D01*
X96321428Y-144964285D01*
X96250000Y-144821428D01*
X96178571Y-144750000D01*
X96035714Y-144678571D01*
X95750000Y-144678571D01*
X95607142Y-144750000D01*
X94964285Y-145678571D02*
X94964285Y-144178571D01*
X94821428Y-145107142D02*
X94392857Y-145678571D01*
X94392857Y-144678571D02*
X94964285Y-145250000D01*
X93178571Y-145607142D02*
X93321428Y-145678571D01*
X93607142Y-145678571D01*
X93750000Y-145607142D01*
X93821428Y-145464285D01*
X93821428Y-144892857D01*
X93750000Y-144750000D01*
X93607142Y-144678571D01*
X93321428Y-144678571D01*
X93178571Y-144750000D01*
X93107142Y-144892857D01*
X93107142Y-145035714D01*
X93821428Y-145178571D01*
X92678571Y-144678571D02*
X92107142Y-144678571D01*
X92464285Y-144178571D02*
X92464285Y-145464285D01*
X92392857Y-145607142D01*
X92250000Y-145678571D01*
X92107142Y-145678571D01*
X91607142Y-145678571D02*
X91607142Y-144178571D01*
X91250000Y-144178571D01*
X91035714Y-144250000D01*
X90892857Y-144392857D01*
X90821428Y-144535714D01*
X90750000Y-144821428D01*
X90750000Y-145035714D01*
X90821428Y-145321428D01*
X90892857Y-145464285D01*
X91035714Y-145607142D01*
X91250000Y-145678571D01*
X91607142Y-145678571D01*
X90178571Y-145607142D02*
X89964285Y-145678571D01*
X89607142Y-145678571D01*
X89464285Y-145607142D01*
X89392857Y-145535714D01*
X89321428Y-145392857D01*
X89321428Y-145250000D01*
X89392857Y-145107142D01*
X89464285Y-145035714D01*
X89607142Y-144964285D01*
X89892857Y-144892857D01*
X90035714Y-144821428D01*
X90107142Y-144750000D01*
X90178571Y-144607142D01*
X90178571Y-144464285D01*
X90107142Y-144321428D01*
X90035714Y-144250000D01*
X89892857Y-144178571D01*
X89535714Y-144178571D01*
X89321428Y-144250000D01*
X88678571Y-145678571D02*
X88678571Y-144178571D01*
X88107142Y-144178571D01*
X87964285Y-144250000D01*
X87892857Y-144321428D01*
X87821428Y-144464285D01*
X87821428Y-144678571D01*
X87892857Y-144821428D01*
X87964285Y-144892857D01*
X88107142Y-144964285D01*
X88678571Y-144964285D01*
X86178571Y-144678571D02*
X85821428Y-145678571D01*
X85464285Y-144678571D01*
X84107142Y-145678571D02*
X84964285Y-145678571D01*
X84535714Y-145678571D02*
X84535714Y-144178571D01*
X84678571Y-144392857D01*
X84821428Y-144535714D01*
X84964285Y-144607142D01*
X83464285Y-145535714D02*
X83392857Y-145607142D01*
X83464285Y-145678571D01*
X83535714Y-145607142D01*
X83464285Y-145535714D01*
X83464285Y-145678571D01*
X81964285Y-145678571D02*
X82821428Y-145678571D01*
X82392857Y-145678571D02*
X82392857Y-144178571D01*
X82535714Y-144392857D01*
X82678571Y-144535714D01*
X82821428Y-144607142D01*
D11*
G04 #@! TO.C,C12*
X121210000Y-105738748D02*
X121210000Y-106261252D01*
X119790000Y-105738748D02*
X119790000Y-106261252D01*
G04 #@! TO.C,C16*
X119238748Y-116710000D02*
X119761252Y-116710000D01*
X119238748Y-115290000D02*
X119761252Y-115290000D01*
D12*
G04 #@! TO.C,BT1*
X160480000Y-119510000D02*
X83520000Y-119510000D01*
X83520000Y-119510000D02*
X83520000Y-140490000D01*
X83520000Y-140490000D02*
X160480000Y-140490000D01*
X160480000Y-140490000D02*
X160480000Y-119510000D01*
X162630000Y-129000000D02*
X162630000Y-131000000D01*
X163630000Y-130000000D02*
X161630000Y-130000000D01*
X82370000Y-130000000D02*
X80370000Y-130000000D01*
D11*
G04 #@! TO.C,L1*
X131790000Y-106238748D02*
X131790000Y-106761252D01*
X133210000Y-106238748D02*
X133210000Y-106761252D01*
G04 #@! TO.C,C1*
X119761252Y-118710000D02*
X119238748Y-118710000D01*
X119761252Y-117290000D02*
X119238748Y-117290000D01*
G04 #@! TO.C,C2*
X119210000Y-106261252D02*
X119210000Y-105738748D01*
X117790000Y-106261252D02*
X117790000Y-105738748D01*
G04 #@! TO.C,C3*
X133238748Y-104210000D02*
X133761252Y-104210000D01*
X133238748Y-102790000D02*
X133761252Y-102790000D01*
G04 #@! TO.C,C4*
X130238748Y-113710000D02*
X130761252Y-113710000D01*
X130238748Y-112290000D02*
X130761252Y-112290000D01*
G04 #@! TO.C,C5*
X130238748Y-118210000D02*
X130761252Y-118210000D01*
X130238748Y-116790000D02*
X130761252Y-116790000D01*
G04 #@! TO.C,C6*
X133790000Y-106238748D02*
X133790000Y-106761252D01*
X135210000Y-106238748D02*
X135210000Y-106761252D01*
G04 #@! TO.C,C28*
X100261252Y-103710000D02*
X99738748Y-103710000D01*
X100261252Y-102290000D02*
X99738748Y-102290000D01*
G04 #@! TO.C,C29*
X106210000Y-110738748D02*
X106210000Y-111261252D01*
X104790000Y-110738748D02*
X104790000Y-111261252D01*
G04 #@! TO.C,C30*
X104790000Y-104738748D02*
X104790000Y-105261252D01*
X106210000Y-104738748D02*
X106210000Y-105261252D01*
G04 #@! TO.C,C31*
X138238748Y-100210000D02*
X138761252Y-100210000D01*
X138238748Y-98790000D02*
X138761252Y-98790000D01*
G04 #@! TO.C,C32*
X108210000Y-110738748D02*
X108210000Y-111261252D01*
X106790000Y-110738748D02*
X106790000Y-111261252D01*
G04 #@! TO.C,C33*
X108210000Y-104738748D02*
X108210000Y-105261252D01*
X106790000Y-104738748D02*
X106790000Y-105261252D01*
G04 #@! TO.C,C35*
X94261252Y-104290000D02*
X93738748Y-104290000D01*
X94261252Y-105710000D02*
X93738748Y-105710000D01*
G04 #@! TO.C,C36*
X94261252Y-110290000D02*
X93738748Y-110290000D01*
X94261252Y-111710000D02*
X93738748Y-111710000D01*
G04 #@! TO.C,C37*
X112210000Y-106261252D02*
X112210000Y-105738748D01*
X110790000Y-106261252D02*
X110790000Y-105738748D01*
G04 #@! TO.C,C38*
X112210000Y-109738748D02*
X112210000Y-110261252D01*
X110790000Y-109738748D02*
X110790000Y-110261252D01*
G04 #@! TO.C,C47*
X142790000Y-102238748D02*
X142790000Y-102761252D01*
X144210000Y-102238748D02*
X144210000Y-102761252D01*
G04 #@! TO.C,C48*
X140790000Y-102238748D02*
X140790000Y-102761252D01*
X142210000Y-102238748D02*
X142210000Y-102761252D01*
G04 #@! TO.C,C49*
X138210000Y-102238748D02*
X138210000Y-102761252D01*
X136790000Y-102238748D02*
X136790000Y-102761252D01*
G04 #@! TO.C,C50*
X140210000Y-102238748D02*
X140210000Y-102761252D01*
X138790000Y-102238748D02*
X138790000Y-102761252D01*
G04 #@! TO.C,C53*
X148513476Y-104155235D02*
X147990972Y-104155235D01*
X148513476Y-102735235D02*
X147990972Y-102735235D01*
G04 #@! TO.C,C54*
X148513476Y-100735235D02*
X147990972Y-100735235D01*
X148513476Y-102155235D02*
X147990972Y-102155235D01*
G04 #@! TO.C,R11*
X94261252Y-107710000D02*
X93738748Y-107710000D01*
X94261252Y-106290000D02*
X93738748Y-106290000D01*
G04 #@! TO.C,R12*
X94261252Y-108290000D02*
X93738748Y-108290000D01*
X94261252Y-109710000D02*
X93738748Y-109710000D01*
G04 #@! TO.C,R13*
X97738748Y-106290000D02*
X98261252Y-106290000D01*
X97738748Y-107710000D02*
X98261252Y-107710000D01*
G04 #@! TO.C,R14*
X98261252Y-104290000D02*
X97738748Y-104290000D01*
X98261252Y-105710000D02*
X97738748Y-105710000D01*
G04 #@! TO.C,R15*
X97738748Y-108290000D02*
X98261252Y-108290000D01*
X97738748Y-109710000D02*
X98261252Y-109710000D01*
G04 #@! TO.C,R16*
X98261252Y-110290000D02*
X97738748Y-110290000D01*
X98261252Y-111710000D02*
X97738748Y-111710000D01*
G04 #@! TO.C,R21*
X163738748Y-97210000D02*
X164261252Y-97210000D01*
X163738748Y-95790000D02*
X164261252Y-95790000D01*
G04 #@! TO.C,R22*
X156738748Y-95790000D02*
X157261252Y-95790000D01*
X156738748Y-97210000D02*
X157261252Y-97210000D01*
G04 #@! TO.C,C9*
X101710000Y-110261252D02*
X101710000Y-109738748D01*
X100290000Y-110261252D02*
X100290000Y-109738748D01*
G04 #@! TO.C,C11*
X104238748Y-107290000D02*
X104761252Y-107290000D01*
X104238748Y-108710000D02*
X104761252Y-108710000D01*
G04 #@! TO.C,C24*
X109761252Y-144290000D02*
X109238748Y-144290000D01*
X109761252Y-145710000D02*
X109238748Y-145710000D01*
G04 #@! TO.C,L3*
X100290000Y-105738748D02*
X100290000Y-106261252D01*
X101710000Y-105738748D02*
X101710000Y-106261252D01*
G04 #@! TO.C,L4*
X108761252Y-107290000D02*
X108238748Y-107290000D01*
X108761252Y-108710000D02*
X108238748Y-108710000D01*
G04 #@! TO.C,L5*
X142761252Y-100210000D02*
X142238748Y-100210000D01*
X142761252Y-98790000D02*
X142238748Y-98790000D01*
G04 #@! TO.C,C12*
D13*
X120885714Y-106214285D02*
X120914285Y-106242857D01*
X121000000Y-106271428D01*
X121057142Y-106271428D01*
X121142857Y-106242857D01*
X121200000Y-106185714D01*
X121228571Y-106128571D01*
X121257142Y-106014285D01*
X121257142Y-105928571D01*
X121228571Y-105814285D01*
X121200000Y-105757142D01*
X121142857Y-105700000D01*
X121057142Y-105671428D01*
X121000000Y-105671428D01*
X120914285Y-105700000D01*
X120885714Y-105728571D01*
X120314285Y-106271428D02*
X120657142Y-106271428D01*
X120485714Y-106271428D02*
X120485714Y-105671428D01*
X120542857Y-105757142D01*
X120600000Y-105814285D01*
X120657142Y-105842857D01*
X120085714Y-105728571D02*
X120057142Y-105700000D01*
X120000000Y-105671428D01*
X119857142Y-105671428D01*
X119800000Y-105700000D01*
X119771428Y-105728571D01*
X119742857Y-105785714D01*
X119742857Y-105842857D01*
X119771428Y-105928571D01*
X120114285Y-106271428D01*
X119742857Y-106271428D01*
G04 #@! TO.C,C16*
X119285714Y-116385714D02*
X119257142Y-116414285D01*
X119228571Y-116500000D01*
X119228571Y-116557142D01*
X119257142Y-116642857D01*
X119314285Y-116700000D01*
X119371428Y-116728571D01*
X119485714Y-116757142D01*
X119571428Y-116757142D01*
X119685714Y-116728571D01*
X119742857Y-116700000D01*
X119800000Y-116642857D01*
X119828571Y-116557142D01*
X119828571Y-116500000D01*
X119800000Y-116414285D01*
X119771428Y-116385714D01*
X119228571Y-115814285D02*
X119228571Y-116157142D01*
X119228571Y-115985714D02*
X119828571Y-115985714D01*
X119742857Y-116042857D01*
X119685714Y-116100000D01*
X119657142Y-116157142D01*
X119828571Y-115300000D02*
X119828571Y-115414285D01*
X119800000Y-115471428D01*
X119771428Y-115500000D01*
X119685714Y-115557142D01*
X119571428Y-115585714D01*
X119342857Y-115585714D01*
X119285714Y-115557142D01*
X119257142Y-115528571D01*
X119228571Y-115471428D01*
X119228571Y-115357142D01*
X119257142Y-115300000D01*
X119285714Y-115271428D01*
X119342857Y-115242857D01*
X119485714Y-115242857D01*
X119542857Y-115271428D01*
X119571428Y-115300000D01*
X119600000Y-115357142D01*
X119600000Y-115471428D01*
X119571428Y-115528571D01*
X119542857Y-115557142D01*
X119485714Y-115585714D01*
G04 #@! TO.C,BT1*
D14*
X159785714Y-120428571D02*
X159642857Y-120476190D01*
X159595238Y-120523809D01*
X159547619Y-120619047D01*
X159547619Y-120761904D01*
X159595238Y-120857142D01*
X159642857Y-120904761D01*
X159738095Y-120952380D01*
X160119047Y-120952380D01*
X160119047Y-119952380D01*
X159785714Y-119952380D01*
X159690476Y-120000000D01*
X159642857Y-120047619D01*
X159595238Y-120142857D01*
X159595238Y-120238095D01*
X159642857Y-120333333D01*
X159690476Y-120380952D01*
X159785714Y-120428571D01*
X160119047Y-120428571D01*
X159261904Y-119952380D02*
X158690476Y-119952380D01*
X158976190Y-120952380D02*
X158976190Y-119952380D01*
X157833333Y-120952380D02*
X158404761Y-120952380D01*
X158119047Y-120952380D02*
X158119047Y-119952380D01*
X158214285Y-120095238D01*
X158309523Y-120190476D01*
X158404761Y-120238095D01*
G04 #@! TO.C,L1*
D15*
X131302380Y-106333333D02*
X131302380Y-105857142D01*
X130302380Y-105857142D01*
X131302380Y-107190476D02*
X131302380Y-106619047D01*
X131302380Y-106904761D02*
X130302380Y-106904761D01*
X130445238Y-106809523D01*
X130540476Y-106714285D01*
X130588095Y-106619047D01*
G04 #@! TO.C,C1*
D13*
X119714285Y-117900000D02*
X119742857Y-117871428D01*
X119771428Y-117785714D01*
X119771428Y-117728571D01*
X119742857Y-117642857D01*
X119685714Y-117585714D01*
X119628571Y-117557142D01*
X119514285Y-117528571D01*
X119428571Y-117528571D01*
X119314285Y-117557142D01*
X119257142Y-117585714D01*
X119200000Y-117642857D01*
X119171428Y-117728571D01*
X119171428Y-117785714D01*
X119200000Y-117871428D01*
X119228571Y-117900000D01*
X119771428Y-118471428D02*
X119771428Y-118128571D01*
X119771428Y-118300000D02*
X119171428Y-118300000D01*
X119257142Y-118242857D01*
X119314285Y-118185714D01*
X119342857Y-118128571D01*
G04 #@! TO.C,C2*
X118600000Y-106214285D02*
X118628571Y-106242857D01*
X118714285Y-106271428D01*
X118771428Y-106271428D01*
X118857142Y-106242857D01*
X118914285Y-106185714D01*
X118942857Y-106128571D01*
X118971428Y-106014285D01*
X118971428Y-105928571D01*
X118942857Y-105814285D01*
X118914285Y-105757142D01*
X118857142Y-105700000D01*
X118771428Y-105671428D01*
X118714285Y-105671428D01*
X118628571Y-105700000D01*
X118600000Y-105728571D01*
X118371428Y-105728571D02*
X118342857Y-105700000D01*
X118285714Y-105671428D01*
X118142857Y-105671428D01*
X118085714Y-105700000D01*
X118057142Y-105728571D01*
X118028571Y-105785714D01*
X118028571Y-105842857D01*
X118057142Y-105928571D01*
X118400000Y-106271428D01*
X118028571Y-106271428D01*
G04 #@! TO.C,C3*
X133285714Y-103600000D02*
X133257142Y-103628571D01*
X133228571Y-103714285D01*
X133228571Y-103771428D01*
X133257142Y-103857142D01*
X133314285Y-103914285D01*
X133371428Y-103942857D01*
X133485714Y-103971428D01*
X133571428Y-103971428D01*
X133685714Y-103942857D01*
X133742857Y-103914285D01*
X133800000Y-103857142D01*
X133828571Y-103771428D01*
X133828571Y-103714285D01*
X133800000Y-103628571D01*
X133771428Y-103600000D01*
X133828571Y-103400000D02*
X133828571Y-103028571D01*
X133600000Y-103228571D01*
X133600000Y-103142857D01*
X133571428Y-103085714D01*
X133542857Y-103057142D01*
X133485714Y-103028571D01*
X133342857Y-103028571D01*
X133285714Y-103057142D01*
X133257142Y-103085714D01*
X133228571Y-103142857D01*
X133228571Y-103314285D01*
X133257142Y-103371428D01*
X133285714Y-103400000D01*
G04 #@! TO.C,C4*
X130285714Y-113100000D02*
X130257142Y-113128571D01*
X130228571Y-113214285D01*
X130228571Y-113271428D01*
X130257142Y-113357142D01*
X130314285Y-113414285D01*
X130371428Y-113442857D01*
X130485714Y-113471428D01*
X130571428Y-113471428D01*
X130685714Y-113442857D01*
X130742857Y-113414285D01*
X130800000Y-113357142D01*
X130828571Y-113271428D01*
X130828571Y-113214285D01*
X130800000Y-113128571D01*
X130771428Y-113100000D01*
X130628571Y-112585714D02*
X130228571Y-112585714D01*
X130857142Y-112728571D02*
X130428571Y-112871428D01*
X130428571Y-112500000D01*
G04 #@! TO.C,C5*
X130285714Y-117600000D02*
X130257142Y-117628571D01*
X130228571Y-117714285D01*
X130228571Y-117771428D01*
X130257142Y-117857142D01*
X130314285Y-117914285D01*
X130371428Y-117942857D01*
X130485714Y-117971428D01*
X130571428Y-117971428D01*
X130685714Y-117942857D01*
X130742857Y-117914285D01*
X130800000Y-117857142D01*
X130828571Y-117771428D01*
X130828571Y-117714285D01*
X130800000Y-117628571D01*
X130771428Y-117600000D01*
X130828571Y-117057142D02*
X130828571Y-117342857D01*
X130542857Y-117371428D01*
X130571428Y-117342857D01*
X130600000Y-117285714D01*
X130600000Y-117142857D01*
X130571428Y-117085714D01*
X130542857Y-117057142D01*
X130485714Y-117028571D01*
X130342857Y-117028571D01*
X130285714Y-117057142D01*
X130257142Y-117085714D01*
X130228571Y-117142857D01*
X130228571Y-117285714D01*
X130257142Y-117342857D01*
X130285714Y-117371428D01*
G04 #@! TO.C,C6*
X134600000Y-106714285D02*
X134628571Y-106742857D01*
X134714285Y-106771428D01*
X134771428Y-106771428D01*
X134857142Y-106742857D01*
X134914285Y-106685714D01*
X134942857Y-106628571D01*
X134971428Y-106514285D01*
X134971428Y-106428571D01*
X134942857Y-106314285D01*
X134914285Y-106257142D01*
X134857142Y-106200000D01*
X134771428Y-106171428D01*
X134714285Y-106171428D01*
X134628571Y-106200000D01*
X134600000Y-106228571D01*
X134085714Y-106171428D02*
X134200000Y-106171428D01*
X134257142Y-106200000D01*
X134285714Y-106228571D01*
X134342857Y-106314285D01*
X134371428Y-106428571D01*
X134371428Y-106657142D01*
X134342857Y-106714285D01*
X134314285Y-106742857D01*
X134257142Y-106771428D01*
X134142857Y-106771428D01*
X134085714Y-106742857D01*
X134057142Y-106714285D01*
X134028571Y-106657142D01*
X134028571Y-106514285D01*
X134057142Y-106457142D01*
X134085714Y-106428571D01*
X134142857Y-106400000D01*
X134257142Y-106400000D01*
X134314285Y-106428571D01*
X134342857Y-106457142D01*
X134371428Y-106514285D01*
G04 #@! TO.C,C28*
X100214285Y-102614285D02*
X100242857Y-102585714D01*
X100271428Y-102500000D01*
X100271428Y-102442857D01*
X100242857Y-102357142D01*
X100185714Y-102300000D01*
X100128571Y-102271428D01*
X100014285Y-102242857D01*
X99928571Y-102242857D01*
X99814285Y-102271428D01*
X99757142Y-102300000D01*
X99700000Y-102357142D01*
X99671428Y-102442857D01*
X99671428Y-102500000D01*
X99700000Y-102585714D01*
X99728571Y-102614285D01*
X99728571Y-102842857D02*
X99700000Y-102871428D01*
X99671428Y-102928571D01*
X99671428Y-103071428D01*
X99700000Y-103128571D01*
X99728571Y-103157142D01*
X99785714Y-103185714D01*
X99842857Y-103185714D01*
X99928571Y-103157142D01*
X100271428Y-102814285D01*
X100271428Y-103185714D01*
X99928571Y-103528571D02*
X99900000Y-103471428D01*
X99871428Y-103442857D01*
X99814285Y-103414285D01*
X99785714Y-103414285D01*
X99728571Y-103442857D01*
X99700000Y-103471428D01*
X99671428Y-103528571D01*
X99671428Y-103642857D01*
X99700000Y-103700000D01*
X99728571Y-103728571D01*
X99785714Y-103757142D01*
X99814285Y-103757142D01*
X99871428Y-103728571D01*
X99900000Y-103700000D01*
X99928571Y-103642857D01*
X99928571Y-103528571D01*
X99957142Y-103471428D01*
X99985714Y-103442857D01*
X100042857Y-103414285D01*
X100157142Y-103414285D01*
X100214285Y-103442857D01*
X100242857Y-103471428D01*
X100271428Y-103528571D01*
X100271428Y-103642857D01*
X100242857Y-103700000D01*
X100214285Y-103728571D01*
X100157142Y-103757142D01*
X100042857Y-103757142D01*
X99985714Y-103728571D01*
X99957142Y-103700000D01*
X99928571Y-103642857D01*
G04 #@! TO.C,C29*
X105885714Y-111214285D02*
X105914285Y-111242857D01*
X106000000Y-111271428D01*
X106057142Y-111271428D01*
X106142857Y-111242857D01*
X106200000Y-111185714D01*
X106228571Y-111128571D01*
X106257142Y-111014285D01*
X106257142Y-110928571D01*
X106228571Y-110814285D01*
X106200000Y-110757142D01*
X106142857Y-110700000D01*
X106057142Y-110671428D01*
X106000000Y-110671428D01*
X105914285Y-110700000D01*
X105885714Y-110728571D01*
X105657142Y-110728571D02*
X105628571Y-110700000D01*
X105571428Y-110671428D01*
X105428571Y-110671428D01*
X105371428Y-110700000D01*
X105342857Y-110728571D01*
X105314285Y-110785714D01*
X105314285Y-110842857D01*
X105342857Y-110928571D01*
X105685714Y-111271428D01*
X105314285Y-111271428D01*
X105028571Y-111271428D02*
X104914285Y-111271428D01*
X104857142Y-111242857D01*
X104828571Y-111214285D01*
X104771428Y-111128571D01*
X104742857Y-111014285D01*
X104742857Y-110785714D01*
X104771428Y-110728571D01*
X104800000Y-110700000D01*
X104857142Y-110671428D01*
X104971428Y-110671428D01*
X105028571Y-110700000D01*
X105057142Y-110728571D01*
X105085714Y-110785714D01*
X105085714Y-110928571D01*
X105057142Y-110985714D01*
X105028571Y-111014285D01*
X104971428Y-111042857D01*
X104857142Y-111042857D01*
X104800000Y-111014285D01*
X104771428Y-110985714D01*
X104742857Y-110928571D01*
G04 #@! TO.C,C30*
X105885714Y-105214285D02*
X105914285Y-105242857D01*
X106000000Y-105271428D01*
X106057142Y-105271428D01*
X106142857Y-105242857D01*
X106200000Y-105185714D01*
X106228571Y-105128571D01*
X106257142Y-105014285D01*
X106257142Y-104928571D01*
X106228571Y-104814285D01*
X106200000Y-104757142D01*
X106142857Y-104700000D01*
X106057142Y-104671428D01*
X106000000Y-104671428D01*
X105914285Y-104700000D01*
X105885714Y-104728571D01*
X105685714Y-104671428D02*
X105314285Y-104671428D01*
X105514285Y-104900000D01*
X105428571Y-104900000D01*
X105371428Y-104928571D01*
X105342857Y-104957142D01*
X105314285Y-105014285D01*
X105314285Y-105157142D01*
X105342857Y-105214285D01*
X105371428Y-105242857D01*
X105428571Y-105271428D01*
X105600000Y-105271428D01*
X105657142Y-105242857D01*
X105685714Y-105214285D01*
X104942857Y-104671428D02*
X104885714Y-104671428D01*
X104828571Y-104700000D01*
X104800000Y-104728571D01*
X104771428Y-104785714D01*
X104742857Y-104900000D01*
X104742857Y-105042857D01*
X104771428Y-105157142D01*
X104800000Y-105214285D01*
X104828571Y-105242857D01*
X104885714Y-105271428D01*
X104942857Y-105271428D01*
X105000000Y-105242857D01*
X105028571Y-105214285D01*
X105057142Y-105157142D01*
X105085714Y-105042857D01*
X105085714Y-104900000D01*
X105057142Y-104785714D01*
X105028571Y-104728571D01*
X105000000Y-104700000D01*
X104942857Y-104671428D01*
G04 #@! TO.C,C31*
X138285714Y-99885714D02*
X138257142Y-99914285D01*
X138228571Y-100000000D01*
X138228571Y-100057142D01*
X138257142Y-100142857D01*
X138314285Y-100200000D01*
X138371428Y-100228571D01*
X138485714Y-100257142D01*
X138571428Y-100257142D01*
X138685714Y-100228571D01*
X138742857Y-100200000D01*
X138800000Y-100142857D01*
X138828571Y-100057142D01*
X138828571Y-100000000D01*
X138800000Y-99914285D01*
X138771428Y-99885714D01*
X138828571Y-99685714D02*
X138828571Y-99314285D01*
X138600000Y-99514285D01*
X138600000Y-99428571D01*
X138571428Y-99371428D01*
X138542857Y-99342857D01*
X138485714Y-99314285D01*
X138342857Y-99314285D01*
X138285714Y-99342857D01*
X138257142Y-99371428D01*
X138228571Y-99428571D01*
X138228571Y-99600000D01*
X138257142Y-99657142D01*
X138285714Y-99685714D01*
X138228571Y-98742857D02*
X138228571Y-99085714D01*
X138228571Y-98914285D02*
X138828571Y-98914285D01*
X138742857Y-98971428D01*
X138685714Y-99028571D01*
X138657142Y-99085714D01*
G04 #@! TO.C,C32*
X107885714Y-111214285D02*
X107914285Y-111242857D01*
X108000000Y-111271428D01*
X108057142Y-111271428D01*
X108142857Y-111242857D01*
X108200000Y-111185714D01*
X108228571Y-111128571D01*
X108257142Y-111014285D01*
X108257142Y-110928571D01*
X108228571Y-110814285D01*
X108200000Y-110757142D01*
X108142857Y-110700000D01*
X108057142Y-110671428D01*
X108000000Y-110671428D01*
X107914285Y-110700000D01*
X107885714Y-110728571D01*
X107685714Y-110671428D02*
X107314285Y-110671428D01*
X107514285Y-110900000D01*
X107428571Y-110900000D01*
X107371428Y-110928571D01*
X107342857Y-110957142D01*
X107314285Y-111014285D01*
X107314285Y-111157142D01*
X107342857Y-111214285D01*
X107371428Y-111242857D01*
X107428571Y-111271428D01*
X107600000Y-111271428D01*
X107657142Y-111242857D01*
X107685714Y-111214285D01*
X107085714Y-110728571D02*
X107057142Y-110700000D01*
X107000000Y-110671428D01*
X106857142Y-110671428D01*
X106800000Y-110700000D01*
X106771428Y-110728571D01*
X106742857Y-110785714D01*
X106742857Y-110842857D01*
X106771428Y-110928571D01*
X107114285Y-111271428D01*
X106742857Y-111271428D01*
G04 #@! TO.C,C33*
X107885714Y-105214285D02*
X107914285Y-105242857D01*
X108000000Y-105271428D01*
X108057142Y-105271428D01*
X108142857Y-105242857D01*
X108200000Y-105185714D01*
X108228571Y-105128571D01*
X108257142Y-105014285D01*
X108257142Y-104928571D01*
X108228571Y-104814285D01*
X108200000Y-104757142D01*
X108142857Y-104700000D01*
X108057142Y-104671428D01*
X108000000Y-104671428D01*
X107914285Y-104700000D01*
X107885714Y-104728571D01*
X107685714Y-104671428D02*
X107314285Y-104671428D01*
X107514285Y-104900000D01*
X107428571Y-104900000D01*
X107371428Y-104928571D01*
X107342857Y-104957142D01*
X107314285Y-105014285D01*
X107314285Y-105157142D01*
X107342857Y-105214285D01*
X107371428Y-105242857D01*
X107428571Y-105271428D01*
X107600000Y-105271428D01*
X107657142Y-105242857D01*
X107685714Y-105214285D01*
X107114285Y-104671428D02*
X106742857Y-104671428D01*
X106942857Y-104900000D01*
X106857142Y-104900000D01*
X106800000Y-104928571D01*
X106771428Y-104957142D01*
X106742857Y-105014285D01*
X106742857Y-105157142D01*
X106771428Y-105214285D01*
X106800000Y-105242857D01*
X106857142Y-105271428D01*
X107028571Y-105271428D01*
X107085714Y-105242857D01*
X107114285Y-105214285D01*
G04 #@! TO.C,C35*
X94214285Y-104614285D02*
X94242857Y-104585714D01*
X94271428Y-104500000D01*
X94271428Y-104442857D01*
X94242857Y-104357142D01*
X94185714Y-104300000D01*
X94128571Y-104271428D01*
X94014285Y-104242857D01*
X93928571Y-104242857D01*
X93814285Y-104271428D01*
X93757142Y-104300000D01*
X93700000Y-104357142D01*
X93671428Y-104442857D01*
X93671428Y-104500000D01*
X93700000Y-104585714D01*
X93728571Y-104614285D01*
X93671428Y-104814285D02*
X93671428Y-105185714D01*
X93900000Y-104985714D01*
X93900000Y-105071428D01*
X93928571Y-105128571D01*
X93957142Y-105157142D01*
X94014285Y-105185714D01*
X94157142Y-105185714D01*
X94214285Y-105157142D01*
X94242857Y-105128571D01*
X94271428Y-105071428D01*
X94271428Y-104900000D01*
X94242857Y-104842857D01*
X94214285Y-104814285D01*
X93671428Y-105728571D02*
X93671428Y-105442857D01*
X93957142Y-105414285D01*
X93928571Y-105442857D01*
X93900000Y-105500000D01*
X93900000Y-105642857D01*
X93928571Y-105700000D01*
X93957142Y-105728571D01*
X94014285Y-105757142D01*
X94157142Y-105757142D01*
X94214285Y-105728571D01*
X94242857Y-105700000D01*
X94271428Y-105642857D01*
X94271428Y-105500000D01*
X94242857Y-105442857D01*
X94214285Y-105414285D01*
G04 #@! TO.C,C36*
X94214285Y-110614285D02*
X94242857Y-110585714D01*
X94271428Y-110500000D01*
X94271428Y-110442857D01*
X94242857Y-110357142D01*
X94185714Y-110300000D01*
X94128571Y-110271428D01*
X94014285Y-110242857D01*
X93928571Y-110242857D01*
X93814285Y-110271428D01*
X93757142Y-110300000D01*
X93700000Y-110357142D01*
X93671428Y-110442857D01*
X93671428Y-110500000D01*
X93700000Y-110585714D01*
X93728571Y-110614285D01*
X93671428Y-110814285D02*
X93671428Y-111185714D01*
X93900000Y-110985714D01*
X93900000Y-111071428D01*
X93928571Y-111128571D01*
X93957142Y-111157142D01*
X94014285Y-111185714D01*
X94157142Y-111185714D01*
X94214285Y-111157142D01*
X94242857Y-111128571D01*
X94271428Y-111071428D01*
X94271428Y-110900000D01*
X94242857Y-110842857D01*
X94214285Y-110814285D01*
X93671428Y-111700000D02*
X93671428Y-111585714D01*
X93700000Y-111528571D01*
X93728571Y-111500000D01*
X93814285Y-111442857D01*
X93928571Y-111414285D01*
X94157142Y-111414285D01*
X94214285Y-111442857D01*
X94242857Y-111471428D01*
X94271428Y-111528571D01*
X94271428Y-111642857D01*
X94242857Y-111700000D01*
X94214285Y-111728571D01*
X94157142Y-111757142D01*
X94014285Y-111757142D01*
X93957142Y-111728571D01*
X93928571Y-111700000D01*
X93900000Y-111642857D01*
X93900000Y-111528571D01*
X93928571Y-111471428D01*
X93957142Y-111442857D01*
X94014285Y-111414285D01*
G04 #@! TO.C,C37*
X111885714Y-106214285D02*
X111914285Y-106242857D01*
X112000000Y-106271428D01*
X112057142Y-106271428D01*
X112142857Y-106242857D01*
X112200000Y-106185714D01*
X112228571Y-106128571D01*
X112257142Y-106014285D01*
X112257142Y-105928571D01*
X112228571Y-105814285D01*
X112200000Y-105757142D01*
X112142857Y-105700000D01*
X112057142Y-105671428D01*
X112000000Y-105671428D01*
X111914285Y-105700000D01*
X111885714Y-105728571D01*
X111685714Y-105671428D02*
X111314285Y-105671428D01*
X111514285Y-105900000D01*
X111428571Y-105900000D01*
X111371428Y-105928571D01*
X111342857Y-105957142D01*
X111314285Y-106014285D01*
X111314285Y-106157142D01*
X111342857Y-106214285D01*
X111371428Y-106242857D01*
X111428571Y-106271428D01*
X111600000Y-106271428D01*
X111657142Y-106242857D01*
X111685714Y-106214285D01*
X111114285Y-105671428D02*
X110714285Y-105671428D01*
X110971428Y-106271428D01*
G04 #@! TO.C,C38*
X111885714Y-110214285D02*
X111914285Y-110242857D01*
X112000000Y-110271428D01*
X112057142Y-110271428D01*
X112142857Y-110242857D01*
X112200000Y-110185714D01*
X112228571Y-110128571D01*
X112257142Y-110014285D01*
X112257142Y-109928571D01*
X112228571Y-109814285D01*
X112200000Y-109757142D01*
X112142857Y-109700000D01*
X112057142Y-109671428D01*
X112000000Y-109671428D01*
X111914285Y-109700000D01*
X111885714Y-109728571D01*
X111685714Y-109671428D02*
X111314285Y-109671428D01*
X111514285Y-109900000D01*
X111428571Y-109900000D01*
X111371428Y-109928571D01*
X111342857Y-109957142D01*
X111314285Y-110014285D01*
X111314285Y-110157142D01*
X111342857Y-110214285D01*
X111371428Y-110242857D01*
X111428571Y-110271428D01*
X111600000Y-110271428D01*
X111657142Y-110242857D01*
X111685714Y-110214285D01*
X110971428Y-109928571D02*
X111028571Y-109900000D01*
X111057142Y-109871428D01*
X111085714Y-109814285D01*
X111085714Y-109785714D01*
X111057142Y-109728571D01*
X111028571Y-109700000D01*
X110971428Y-109671428D01*
X110857142Y-109671428D01*
X110800000Y-109700000D01*
X110771428Y-109728571D01*
X110742857Y-109785714D01*
X110742857Y-109814285D01*
X110771428Y-109871428D01*
X110800000Y-109900000D01*
X110857142Y-109928571D01*
X110971428Y-109928571D01*
X111028571Y-109957142D01*
X111057142Y-109985714D01*
X111085714Y-110042857D01*
X111085714Y-110157142D01*
X111057142Y-110214285D01*
X111028571Y-110242857D01*
X110971428Y-110271428D01*
X110857142Y-110271428D01*
X110800000Y-110242857D01*
X110771428Y-110214285D01*
X110742857Y-110157142D01*
X110742857Y-110042857D01*
X110771428Y-109985714D01*
X110800000Y-109957142D01*
X110857142Y-109928571D01*
G04 #@! TO.C,C47*
X143885714Y-102714285D02*
X143914285Y-102742857D01*
X144000000Y-102771428D01*
X144057142Y-102771428D01*
X144142857Y-102742857D01*
X144200000Y-102685714D01*
X144228571Y-102628571D01*
X144257142Y-102514285D01*
X144257142Y-102428571D01*
X144228571Y-102314285D01*
X144200000Y-102257142D01*
X144142857Y-102200000D01*
X144057142Y-102171428D01*
X144000000Y-102171428D01*
X143914285Y-102200000D01*
X143885714Y-102228571D01*
X143371428Y-102371428D02*
X143371428Y-102771428D01*
X143514285Y-102142857D02*
X143657142Y-102571428D01*
X143285714Y-102571428D01*
X143114285Y-102171428D02*
X142714285Y-102171428D01*
X142971428Y-102771428D01*
G04 #@! TO.C,C48*
X141885714Y-102714285D02*
X141914285Y-102742857D01*
X142000000Y-102771428D01*
X142057142Y-102771428D01*
X142142857Y-102742857D01*
X142200000Y-102685714D01*
X142228571Y-102628571D01*
X142257142Y-102514285D01*
X142257142Y-102428571D01*
X142228571Y-102314285D01*
X142200000Y-102257142D01*
X142142857Y-102200000D01*
X142057142Y-102171428D01*
X142000000Y-102171428D01*
X141914285Y-102200000D01*
X141885714Y-102228571D01*
X141371428Y-102371428D02*
X141371428Y-102771428D01*
X141514285Y-102142857D02*
X141657142Y-102571428D01*
X141285714Y-102571428D01*
X140971428Y-102428571D02*
X141028571Y-102400000D01*
X141057142Y-102371428D01*
X141085714Y-102314285D01*
X141085714Y-102285714D01*
X141057142Y-102228571D01*
X141028571Y-102200000D01*
X140971428Y-102171428D01*
X140857142Y-102171428D01*
X140800000Y-102200000D01*
X140771428Y-102228571D01*
X140742857Y-102285714D01*
X140742857Y-102314285D01*
X140771428Y-102371428D01*
X140800000Y-102400000D01*
X140857142Y-102428571D01*
X140971428Y-102428571D01*
X141028571Y-102457142D01*
X141057142Y-102485714D01*
X141085714Y-102542857D01*
X141085714Y-102657142D01*
X141057142Y-102714285D01*
X141028571Y-102742857D01*
X140971428Y-102771428D01*
X140857142Y-102771428D01*
X140800000Y-102742857D01*
X140771428Y-102714285D01*
X140742857Y-102657142D01*
X140742857Y-102542857D01*
X140771428Y-102485714D01*
X140800000Y-102457142D01*
X140857142Y-102428571D01*
G04 #@! TO.C,C49*
X137885714Y-102714285D02*
X137914285Y-102742857D01*
X138000000Y-102771428D01*
X138057142Y-102771428D01*
X138142857Y-102742857D01*
X138200000Y-102685714D01*
X138228571Y-102628571D01*
X138257142Y-102514285D01*
X138257142Y-102428571D01*
X138228571Y-102314285D01*
X138200000Y-102257142D01*
X138142857Y-102200000D01*
X138057142Y-102171428D01*
X138000000Y-102171428D01*
X137914285Y-102200000D01*
X137885714Y-102228571D01*
X137371428Y-102371428D02*
X137371428Y-102771428D01*
X137514285Y-102142857D02*
X137657142Y-102571428D01*
X137285714Y-102571428D01*
X137028571Y-102771428D02*
X136914285Y-102771428D01*
X136857142Y-102742857D01*
X136828571Y-102714285D01*
X136771428Y-102628571D01*
X136742857Y-102514285D01*
X136742857Y-102285714D01*
X136771428Y-102228571D01*
X136800000Y-102200000D01*
X136857142Y-102171428D01*
X136971428Y-102171428D01*
X137028571Y-102200000D01*
X137057142Y-102228571D01*
X137085714Y-102285714D01*
X137085714Y-102428571D01*
X137057142Y-102485714D01*
X137028571Y-102514285D01*
X136971428Y-102542857D01*
X136857142Y-102542857D01*
X136800000Y-102514285D01*
X136771428Y-102485714D01*
X136742857Y-102428571D01*
G04 #@! TO.C,C50*
X139885714Y-102714285D02*
X139914285Y-102742857D01*
X140000000Y-102771428D01*
X140057142Y-102771428D01*
X140142857Y-102742857D01*
X140200000Y-102685714D01*
X140228571Y-102628571D01*
X140257142Y-102514285D01*
X140257142Y-102428571D01*
X140228571Y-102314285D01*
X140200000Y-102257142D01*
X140142857Y-102200000D01*
X140057142Y-102171428D01*
X140000000Y-102171428D01*
X139914285Y-102200000D01*
X139885714Y-102228571D01*
X139342857Y-102171428D02*
X139628571Y-102171428D01*
X139657142Y-102457142D01*
X139628571Y-102428571D01*
X139571428Y-102400000D01*
X139428571Y-102400000D01*
X139371428Y-102428571D01*
X139342857Y-102457142D01*
X139314285Y-102514285D01*
X139314285Y-102657142D01*
X139342857Y-102714285D01*
X139371428Y-102742857D01*
X139428571Y-102771428D01*
X139571428Y-102771428D01*
X139628571Y-102742857D01*
X139657142Y-102714285D01*
X138942857Y-102171428D02*
X138885714Y-102171428D01*
X138828571Y-102200000D01*
X138800000Y-102228571D01*
X138771428Y-102285714D01*
X138742857Y-102400000D01*
X138742857Y-102542857D01*
X138771428Y-102657142D01*
X138800000Y-102714285D01*
X138828571Y-102742857D01*
X138885714Y-102771428D01*
X138942857Y-102771428D01*
X139000000Y-102742857D01*
X139028571Y-102714285D01*
X139057142Y-102657142D01*
X139085714Y-102542857D01*
X139085714Y-102400000D01*
X139057142Y-102285714D01*
X139028571Y-102228571D01*
X139000000Y-102200000D01*
X138942857Y-102171428D01*
G04 #@! TO.C,C53*
X148466509Y-103059520D02*
X148495081Y-103030949D01*
X148523652Y-102945235D01*
X148523652Y-102888092D01*
X148495081Y-102802377D01*
X148437938Y-102745235D01*
X148380795Y-102716663D01*
X148266509Y-102688092D01*
X148180795Y-102688092D01*
X148066509Y-102716663D01*
X148009366Y-102745235D01*
X147952224Y-102802377D01*
X147923652Y-102888092D01*
X147923652Y-102945235D01*
X147952224Y-103030949D01*
X147980795Y-103059520D01*
X147923652Y-103602377D02*
X147923652Y-103316663D01*
X148209366Y-103288092D01*
X148180795Y-103316663D01*
X148152224Y-103373806D01*
X148152224Y-103516663D01*
X148180795Y-103573806D01*
X148209366Y-103602377D01*
X148266509Y-103630949D01*
X148409366Y-103630949D01*
X148466509Y-103602377D01*
X148495081Y-103573806D01*
X148523652Y-103516663D01*
X148523652Y-103373806D01*
X148495081Y-103316663D01*
X148466509Y-103288092D01*
X147923652Y-103830949D02*
X147923652Y-104202377D01*
X148152224Y-104002377D01*
X148152224Y-104088092D01*
X148180795Y-104145235D01*
X148209366Y-104173806D01*
X148266509Y-104202377D01*
X148409366Y-104202377D01*
X148466509Y-104173806D01*
X148495081Y-104145235D01*
X148523652Y-104088092D01*
X148523652Y-103916663D01*
X148495081Y-103859520D01*
X148466509Y-103830949D01*
G04 #@! TO.C,C54*
X148466509Y-101059520D02*
X148495081Y-101030949D01*
X148523652Y-100945235D01*
X148523652Y-100888092D01*
X148495081Y-100802377D01*
X148437938Y-100745235D01*
X148380795Y-100716663D01*
X148266509Y-100688092D01*
X148180795Y-100688092D01*
X148066509Y-100716663D01*
X148009366Y-100745235D01*
X147952224Y-100802377D01*
X147923652Y-100888092D01*
X147923652Y-100945235D01*
X147952224Y-101030949D01*
X147980795Y-101059520D01*
X147923652Y-101602377D02*
X147923652Y-101316663D01*
X148209366Y-101288092D01*
X148180795Y-101316663D01*
X148152224Y-101373806D01*
X148152224Y-101516663D01*
X148180795Y-101573806D01*
X148209366Y-101602377D01*
X148266509Y-101630949D01*
X148409366Y-101630949D01*
X148466509Y-101602377D01*
X148495081Y-101573806D01*
X148523652Y-101516663D01*
X148523652Y-101373806D01*
X148495081Y-101316663D01*
X148466509Y-101288092D01*
X148123652Y-102145235D02*
X148523652Y-102145235D01*
X147895081Y-102002377D02*
X148323652Y-101859520D01*
X148323652Y-102230949D01*
G04 #@! TO.C,R11*
X94271428Y-106614285D02*
X93985714Y-106414285D01*
X94271428Y-106271428D02*
X93671428Y-106271428D01*
X93671428Y-106500000D01*
X93700000Y-106557142D01*
X93728571Y-106585714D01*
X93785714Y-106614285D01*
X93871428Y-106614285D01*
X93928571Y-106585714D01*
X93957142Y-106557142D01*
X93985714Y-106500000D01*
X93985714Y-106271428D01*
X94271428Y-107185714D02*
X94271428Y-106842857D01*
X94271428Y-107014285D02*
X93671428Y-107014285D01*
X93757142Y-106957142D01*
X93814285Y-106900000D01*
X93842857Y-106842857D01*
X94271428Y-107757142D02*
X94271428Y-107414285D01*
X94271428Y-107585714D02*
X93671428Y-107585714D01*
X93757142Y-107528571D01*
X93814285Y-107471428D01*
X93842857Y-107414285D01*
G04 #@! TO.C,R12*
X94271428Y-108614285D02*
X93985714Y-108414285D01*
X94271428Y-108271428D02*
X93671428Y-108271428D01*
X93671428Y-108500000D01*
X93700000Y-108557142D01*
X93728571Y-108585714D01*
X93785714Y-108614285D01*
X93871428Y-108614285D01*
X93928571Y-108585714D01*
X93957142Y-108557142D01*
X93985714Y-108500000D01*
X93985714Y-108271428D01*
X94271428Y-109185714D02*
X94271428Y-108842857D01*
X94271428Y-109014285D02*
X93671428Y-109014285D01*
X93757142Y-108957142D01*
X93814285Y-108900000D01*
X93842857Y-108842857D01*
X93728571Y-109414285D02*
X93700000Y-109442857D01*
X93671428Y-109500000D01*
X93671428Y-109642857D01*
X93700000Y-109700000D01*
X93728571Y-109728571D01*
X93785714Y-109757142D01*
X93842857Y-109757142D01*
X93928571Y-109728571D01*
X94271428Y-109385714D01*
X94271428Y-109757142D01*
G04 #@! TO.C,R13*
X98271428Y-106614285D02*
X97985714Y-106414285D01*
X98271428Y-106271428D02*
X97671428Y-106271428D01*
X97671428Y-106500000D01*
X97700000Y-106557142D01*
X97728571Y-106585714D01*
X97785714Y-106614285D01*
X97871428Y-106614285D01*
X97928571Y-106585714D01*
X97957142Y-106557142D01*
X97985714Y-106500000D01*
X97985714Y-106271428D01*
X98271428Y-107185714D02*
X98271428Y-106842857D01*
X98271428Y-107014285D02*
X97671428Y-107014285D01*
X97757142Y-106957142D01*
X97814285Y-106900000D01*
X97842857Y-106842857D01*
X97671428Y-107385714D02*
X97671428Y-107757142D01*
X97900000Y-107557142D01*
X97900000Y-107642857D01*
X97928571Y-107700000D01*
X97957142Y-107728571D01*
X98014285Y-107757142D01*
X98157142Y-107757142D01*
X98214285Y-107728571D01*
X98242857Y-107700000D01*
X98271428Y-107642857D01*
X98271428Y-107471428D01*
X98242857Y-107414285D01*
X98214285Y-107385714D01*
G04 #@! TO.C,R14*
X98271428Y-104614285D02*
X97985714Y-104414285D01*
X98271428Y-104271428D02*
X97671428Y-104271428D01*
X97671428Y-104500000D01*
X97700000Y-104557142D01*
X97728571Y-104585714D01*
X97785714Y-104614285D01*
X97871428Y-104614285D01*
X97928571Y-104585714D01*
X97957142Y-104557142D01*
X97985714Y-104500000D01*
X97985714Y-104271428D01*
X98271428Y-105185714D02*
X98271428Y-104842857D01*
X98271428Y-105014285D02*
X97671428Y-105014285D01*
X97757142Y-104957142D01*
X97814285Y-104900000D01*
X97842857Y-104842857D01*
X97871428Y-105700000D02*
X98271428Y-105700000D01*
X97642857Y-105557142D02*
X98071428Y-105414285D01*
X98071428Y-105785714D01*
G04 #@! TO.C,R15*
X98271428Y-108614285D02*
X97985714Y-108414285D01*
X98271428Y-108271428D02*
X97671428Y-108271428D01*
X97671428Y-108500000D01*
X97700000Y-108557142D01*
X97728571Y-108585714D01*
X97785714Y-108614285D01*
X97871428Y-108614285D01*
X97928571Y-108585714D01*
X97957142Y-108557142D01*
X97985714Y-108500000D01*
X97985714Y-108271428D01*
X98271428Y-109185714D02*
X98271428Y-108842857D01*
X98271428Y-109014285D02*
X97671428Y-109014285D01*
X97757142Y-108957142D01*
X97814285Y-108900000D01*
X97842857Y-108842857D01*
X97671428Y-109728571D02*
X97671428Y-109442857D01*
X97957142Y-109414285D01*
X97928571Y-109442857D01*
X97900000Y-109500000D01*
X97900000Y-109642857D01*
X97928571Y-109700000D01*
X97957142Y-109728571D01*
X98014285Y-109757142D01*
X98157142Y-109757142D01*
X98214285Y-109728571D01*
X98242857Y-109700000D01*
X98271428Y-109642857D01*
X98271428Y-109500000D01*
X98242857Y-109442857D01*
X98214285Y-109414285D01*
G04 #@! TO.C,R16*
X98271428Y-110614285D02*
X97985714Y-110414285D01*
X98271428Y-110271428D02*
X97671428Y-110271428D01*
X97671428Y-110500000D01*
X97700000Y-110557142D01*
X97728571Y-110585714D01*
X97785714Y-110614285D01*
X97871428Y-110614285D01*
X97928571Y-110585714D01*
X97957142Y-110557142D01*
X97985714Y-110500000D01*
X97985714Y-110271428D01*
X98271428Y-111185714D02*
X98271428Y-110842857D01*
X98271428Y-111014285D02*
X97671428Y-111014285D01*
X97757142Y-110957142D01*
X97814285Y-110900000D01*
X97842857Y-110842857D01*
X97671428Y-111700000D02*
X97671428Y-111585714D01*
X97700000Y-111528571D01*
X97728571Y-111500000D01*
X97814285Y-111442857D01*
X97928571Y-111414285D01*
X98157142Y-111414285D01*
X98214285Y-111442857D01*
X98242857Y-111471428D01*
X98271428Y-111528571D01*
X98271428Y-111642857D01*
X98242857Y-111700000D01*
X98214285Y-111728571D01*
X98157142Y-111757142D01*
X98014285Y-111757142D01*
X97957142Y-111728571D01*
X97928571Y-111700000D01*
X97900000Y-111642857D01*
X97900000Y-111528571D01*
X97928571Y-111471428D01*
X97957142Y-111442857D01*
X98014285Y-111414285D01*
G04 #@! TO.C,R21*
X164271428Y-96114285D02*
X163985714Y-95914285D01*
X164271428Y-95771428D02*
X163671428Y-95771428D01*
X163671428Y-96000000D01*
X163700000Y-96057142D01*
X163728571Y-96085714D01*
X163785714Y-96114285D01*
X163871428Y-96114285D01*
X163928571Y-96085714D01*
X163957142Y-96057142D01*
X163985714Y-96000000D01*
X163985714Y-95771428D01*
X163728571Y-96342857D02*
X163700000Y-96371428D01*
X163671428Y-96428571D01*
X163671428Y-96571428D01*
X163700000Y-96628571D01*
X163728571Y-96657142D01*
X163785714Y-96685714D01*
X163842857Y-96685714D01*
X163928571Y-96657142D01*
X164271428Y-96314285D01*
X164271428Y-96685714D01*
X164271428Y-97257142D02*
X164271428Y-96914285D01*
X164271428Y-97085714D02*
X163671428Y-97085714D01*
X163757142Y-97028571D01*
X163814285Y-96971428D01*
X163842857Y-96914285D01*
G04 #@! TO.C,R22*
X157271428Y-96114285D02*
X156985714Y-95914285D01*
X157271428Y-95771428D02*
X156671428Y-95771428D01*
X156671428Y-96000000D01*
X156700000Y-96057142D01*
X156728571Y-96085714D01*
X156785714Y-96114285D01*
X156871428Y-96114285D01*
X156928571Y-96085714D01*
X156957142Y-96057142D01*
X156985714Y-96000000D01*
X156985714Y-95771428D01*
X156728571Y-96342857D02*
X156700000Y-96371428D01*
X156671428Y-96428571D01*
X156671428Y-96571428D01*
X156700000Y-96628571D01*
X156728571Y-96657142D01*
X156785714Y-96685714D01*
X156842857Y-96685714D01*
X156928571Y-96657142D01*
X157271428Y-96314285D01*
X157271428Y-96685714D01*
X156728571Y-96914285D02*
X156700000Y-96942857D01*
X156671428Y-97000000D01*
X156671428Y-97142857D01*
X156700000Y-97200000D01*
X156728571Y-97228571D01*
X156785714Y-97257142D01*
X156842857Y-97257142D01*
X156928571Y-97228571D01*
X157271428Y-96885714D01*
X157271428Y-97257142D01*
G04 #@! TO.C,C9*
X101100000Y-110214285D02*
X101128571Y-110242857D01*
X101214285Y-110271428D01*
X101271428Y-110271428D01*
X101357142Y-110242857D01*
X101414285Y-110185714D01*
X101442857Y-110128571D01*
X101471428Y-110014285D01*
X101471428Y-109928571D01*
X101442857Y-109814285D01*
X101414285Y-109757142D01*
X101357142Y-109700000D01*
X101271428Y-109671428D01*
X101214285Y-109671428D01*
X101128571Y-109700000D01*
X101100000Y-109728571D01*
X100814285Y-110271428D02*
X100700000Y-110271428D01*
X100642857Y-110242857D01*
X100614285Y-110214285D01*
X100557142Y-110128571D01*
X100528571Y-110014285D01*
X100528571Y-109785714D01*
X100557142Y-109728571D01*
X100585714Y-109700000D01*
X100642857Y-109671428D01*
X100757142Y-109671428D01*
X100814285Y-109700000D01*
X100842857Y-109728571D01*
X100871428Y-109785714D01*
X100871428Y-109928571D01*
X100842857Y-109985714D01*
X100814285Y-110014285D01*
X100757142Y-110042857D01*
X100642857Y-110042857D01*
X100585714Y-110014285D01*
X100557142Y-109985714D01*
X100528571Y-109928571D01*
G04 #@! TO.C,C11*
X104285714Y-108385714D02*
X104257142Y-108414285D01*
X104228571Y-108500000D01*
X104228571Y-108557142D01*
X104257142Y-108642857D01*
X104314285Y-108700000D01*
X104371428Y-108728571D01*
X104485714Y-108757142D01*
X104571428Y-108757142D01*
X104685714Y-108728571D01*
X104742857Y-108700000D01*
X104800000Y-108642857D01*
X104828571Y-108557142D01*
X104828571Y-108500000D01*
X104800000Y-108414285D01*
X104771428Y-108385714D01*
X104228571Y-107814285D02*
X104228571Y-108157142D01*
X104228571Y-107985714D02*
X104828571Y-107985714D01*
X104742857Y-108042857D01*
X104685714Y-108100000D01*
X104657142Y-108157142D01*
X104228571Y-107242857D02*
X104228571Y-107585714D01*
X104228571Y-107414285D02*
X104828571Y-107414285D01*
X104742857Y-107471428D01*
X104685714Y-107528571D01*
X104657142Y-107585714D01*
G04 #@! TO.C,C24*
X109714285Y-144614285D02*
X109742857Y-144585714D01*
X109771428Y-144500000D01*
X109771428Y-144442857D01*
X109742857Y-144357142D01*
X109685714Y-144300000D01*
X109628571Y-144271428D01*
X109514285Y-144242857D01*
X109428571Y-144242857D01*
X109314285Y-144271428D01*
X109257142Y-144300000D01*
X109200000Y-144357142D01*
X109171428Y-144442857D01*
X109171428Y-144500000D01*
X109200000Y-144585714D01*
X109228571Y-144614285D01*
X109228571Y-144842857D02*
X109200000Y-144871428D01*
X109171428Y-144928571D01*
X109171428Y-145071428D01*
X109200000Y-145128571D01*
X109228571Y-145157142D01*
X109285714Y-145185714D01*
X109342857Y-145185714D01*
X109428571Y-145157142D01*
X109771428Y-144814285D01*
X109771428Y-145185714D01*
X109371428Y-145700000D02*
X109771428Y-145700000D01*
X109142857Y-145557142D02*
X109571428Y-145414285D01*
X109571428Y-145785714D01*
G04 #@! TO.C,L3*
X101100000Y-106271428D02*
X101385714Y-106271428D01*
X101385714Y-105671428D01*
X100957142Y-105671428D02*
X100585714Y-105671428D01*
X100785714Y-105900000D01*
X100700000Y-105900000D01*
X100642857Y-105928571D01*
X100614285Y-105957142D01*
X100585714Y-106014285D01*
X100585714Y-106157142D01*
X100614285Y-106214285D01*
X100642857Y-106242857D01*
X100700000Y-106271428D01*
X100871428Y-106271428D01*
X100928571Y-106242857D01*
X100957142Y-106214285D01*
G04 #@! TO.C,L4*
X108771428Y-107900000D02*
X108771428Y-107614285D01*
X108171428Y-107614285D01*
X108371428Y-108357142D02*
X108771428Y-108357142D01*
X108142857Y-108214285D02*
X108571428Y-108071428D01*
X108571428Y-108442857D01*
G04 #@! TO.C,L5*
X142771428Y-99400000D02*
X142771428Y-99114285D01*
X142171428Y-99114285D01*
X142171428Y-99885714D02*
X142171428Y-99600000D01*
X142457142Y-99571428D01*
X142428571Y-99600000D01*
X142400000Y-99657142D01*
X142400000Y-99800000D01*
X142428571Y-99857142D01*
X142457142Y-99885714D01*
X142514285Y-99914285D01*
X142657142Y-99914285D01*
X142714285Y-99885714D01*
X142742857Y-99857142D01*
X142771428Y-99800000D01*
X142771428Y-99657142D01*
X142742857Y-99600000D01*
X142714285Y-99571428D01*
G04 #@! TD*
M02*
