M48
;DRILL file {KiCad (5.0.1)-3} date 23/09/2021 20:30:52
;FORMAT={-:-/ absolute / metric / decimal}
FMAT,2
METRIC,TZ
T1C0.200
T2C0.300
T3C0.400
T4C0.550
T5C0.762
T6C0.770
T7C0.800
T8C0.850
T9C1.380
%
G90
G05
M71
T1
X90.85Y-136.
X90.85Y-137.
X90.85Y-138.
X92.15Y-136.
X92.15Y-137.
X92.15Y-138.
T2
X88.93Y-139.
X93.Y-107.
X96.5Y-110.
X97.5Y-98.5
X97.5Y-100.5
X104.Y-107.
X104.5Y-108.3
X104.5Y-109.6
X110.Y-109.
X112.5Y-107.
X112.5Y-109.
X113.5Y-107.
X114.5Y-125.
X118.5Y-105.
X119.Y-116.
X120.Y-105.1
X121.Y-100.
X121.5Y-101.5
X123.5Y-116.
X124.5Y-116.
X125.5Y-116.
X126.5Y-116.
X127.5Y-116.
X128.5Y-116.
X129.5Y-101.5
X130.3Y-105.1
X130.5Y-113.
X131.Y-108.25
X131.3Y-111.
X131.4Y-118.8
X132.Y-102.
X133.7Y-115.
X133.8Y-107.525
X134.5Y-109.
X134.5Y-110.
X139.Y-120.5
X139.475Y-100.1
X143.Y-100.75
X149.Y-103.
X151.25Y-116.025
X163.Y-120.025
T3
X87.5Y-122.
X88.Y-107.75
X90.5Y-105.5
X90.5Y-122.
X90.75Y-109.25
X92.Y-116.
X94.Y-113.5
X94.Y-135.095
X95.5Y-98.5
X97.Y-108.
X98.Y-116.5
X100.Y-135.
X100.Y-138.
X101.Y-96.5
X102.Y-146.
X103.Y-109.5
X103.5Y-99.5
X103.5Y-102.5
X105.Y-114.
X105.Y-116.5
X107.5Y-108.
X108.5Y-112.
X109.5Y-104.
X113.Y-138.
X114.5Y-114.
X114.5Y-116.5
X115.Y-111.5
X115.5Y-104.
X116.5Y-96.
X117.Y-120.5
X117.5Y-118.
X118.Y-101.5
X119.5Y-108.5
X119.5Y-111.5
X120.Y-144.5
X121.5Y-108.5
X121.5Y-138.
X122.Y-115.
X122.Y-117.
X122.5Y-121.5
X122.5Y-125.
X125.5Y-108.5
X128.Y-106.
X128.5Y-99.5
X130.Y-115.5
X130.Y-121.5
X130.Y-125.
X130.Y-144.5
X132.5Y-103.5
X133.5Y-98.
X134.5Y-120.
X134.5Y-126.5
X134.5Y-129.5
X134.5Y-131.5
X136.5Y-107.5
X136.5Y-123.5
X138.Y-100.5
X138.Y-144.5
X138.5Y-107.5
X139.Y-117.
X139.Y-136.
X140.5Y-107.5
X142.Y-136.
X142.5Y-111.
X143.5Y-98.
X143.5Y-103.
X143.5Y-119.
X145.Y-91.5
X145.Y-95.5
X146.5Y-114.
X147.Y-100.
X147.Y-125.
X147.Y-127.
X147.Y-139.5
X147.5Y-129.
X148.Y-110.5
X148.Y-130.
X148.5Y-139.5
X149.Y-119.
X150.Y-139.5
X150.5Y-99.5
X150.5Y-106.
X151.Y-112.
X151.Y-125.
X151.Y-133.
X151.5Y-139.5
X153.Y-97.5
X153.Y-139.5
X154.5Y-132.5
X154.5Y-139.5
X155.5Y-114.
X155.5Y-122.
X156.Y-139.5
X157.5Y-111.
X158.Y-119.
X160.5Y-122.
X165.5Y-110.5
T5
X96.5Y-94.068
X99.04Y-94.068
X101.58Y-94.068
X104.12Y-94.068
X105.47Y-142.388
X106.66Y-94.068
X108.01Y-142.388
X109.2Y-94.068
X110.55Y-142.388
X111.74Y-94.068
X113.09Y-142.388
X114.28Y-94.068
X115.63Y-142.388
X118.17Y-142.388
X118.41Y-94.068
X120.95Y-94.068
X123.3Y-142.388
X123.49Y-94.068
X125.84Y-142.388
X126.03Y-94.068
X128.38Y-142.388
X128.57Y-94.068
X130.92Y-142.388
X131.11Y-94.068
X133.46Y-142.388
X133.65Y-94.068
X136.Y-142.388
X136.19Y-94.068
T6
X160.5Y-107.75
X160.5Y-110.25
T4
X81.875Y-105.125G85X81.225Y-105.125
G05
X81.875Y-112.875G85X81.225Y-112.875
G05
T7
X157.85Y-91.5G85X157.15Y-91.5
G05
X157.85Y-94.G85X157.15Y-94.
G05
X157.85Y-99.G85X157.15Y-99.
G05
X157.85Y-101.5G85X157.15Y-101.5
G05
X162.5Y-96.85G85X162.5Y-96.15
G05
X84.5Y-96.15G85X84.5Y-96.85
G05
X89.15Y-91.5G85X89.85Y-91.5
G05
X89.15Y-94.G85X89.85Y-94.
G05
X89.15Y-99.G85X89.85Y-99.
G05
X89.15Y-101.5G85X89.85Y-101.5
G05
T8
X85.625Y-105.275G85X85.075Y-105.275
G05
X85.625Y-112.725G85X85.075Y-112.725
G05
T9
X85.4Y-130.51G85X85.4Y-129.49
G05
X158.3Y-130.51G85X158.3Y-129.49
G05
T0
M30
