G04 #@! TF.GenerationSoftware,KiCad,Pcbnew,(5.0.1)-3*
G04 #@! TF.CreationDate,2021-08-31T11:26:15+02:00*
G04 #@! TF.ProjectId,pocketDSP,706F636B65744453502E6B696361645F,rev?*
G04 #@! TF.SameCoordinates,Original*
G04 #@! TF.FileFunction,Legend,Bot*
G04 #@! TF.FilePolarity,Positive*
%FSLAX46Y46*%
G04 Gerber Fmt 4.6, Leading zero omitted, Abs format (unit mm)*
G04 Created by KiCad (PCBNEW (5.0.1)-3) date 31/08/2021 11:26:15*
%MOMM*%
%LPD*%
G01*
G04 APERTURE LIST*
%ADD10C,0.300000*%
%ADD11C,0.120000*%
%ADD12C,0.127000*%
%ADD13C,0.050000*%
%ADD14C,0.150000*%
%ADD15C,0.015000*%
G04 APERTURE END LIST*
D10*
X161250000Y-98678571D02*
X160964285Y-98678571D01*
X160821428Y-98750000D01*
X160678571Y-98892857D01*
X160607142Y-99178571D01*
X160607142Y-99678571D01*
X160678571Y-99964285D01*
X160821428Y-100107142D01*
X160964285Y-100178571D01*
X161250000Y-100178571D01*
X161392857Y-100107142D01*
X161535714Y-99964285D01*
X161607142Y-99678571D01*
X161607142Y-99178571D01*
X161535714Y-98892857D01*
X161392857Y-98750000D01*
X161250000Y-98678571D01*
X159964285Y-98678571D02*
X159964285Y-99892857D01*
X159892857Y-100035714D01*
X159821428Y-100107142D01*
X159678571Y-100178571D01*
X159392857Y-100178571D01*
X159250000Y-100107142D01*
X159178571Y-100035714D01*
X159107142Y-99892857D01*
X159107142Y-98678571D01*
X158607142Y-98678571D02*
X157750000Y-98678571D01*
X158178571Y-100178571D02*
X158178571Y-98678571D01*
X84285714Y-100178571D02*
X84285714Y-98678571D01*
X83571428Y-100178571D02*
X83571428Y-98678571D01*
X82714285Y-100178571D01*
X82714285Y-98678571D01*
X100464285Y-141678571D02*
X100464285Y-143178571D01*
X100464285Y-141750000D02*
X100321428Y-141678571D01*
X100035714Y-141678571D01*
X99892857Y-141750000D01*
X99821428Y-141821428D01*
X99750000Y-141964285D01*
X99750000Y-142392857D01*
X99821428Y-142535714D01*
X99892857Y-142607142D01*
X100035714Y-142678571D01*
X100321428Y-142678571D01*
X100464285Y-142607142D01*
X98892857Y-142678571D02*
X99035714Y-142607142D01*
X99107142Y-142535714D01*
X99178571Y-142392857D01*
X99178571Y-141964285D01*
X99107142Y-141821428D01*
X99035714Y-141750000D01*
X98892857Y-141678571D01*
X98678571Y-141678571D01*
X98535714Y-141750000D01*
X98464285Y-141821428D01*
X98392857Y-141964285D01*
X98392857Y-142392857D01*
X98464285Y-142535714D01*
X98535714Y-142607142D01*
X98678571Y-142678571D01*
X98892857Y-142678571D01*
X97107142Y-142607142D02*
X97250000Y-142678571D01*
X97535714Y-142678571D01*
X97678571Y-142607142D01*
X97750000Y-142535714D01*
X97821428Y-142392857D01*
X97821428Y-141964285D01*
X97750000Y-141821428D01*
X97678571Y-141750000D01*
X97535714Y-141678571D01*
X97250000Y-141678571D01*
X97107142Y-141750000D01*
X96464285Y-142678571D02*
X96464285Y-141178571D01*
X96321428Y-142107142D02*
X95892857Y-142678571D01*
X95892857Y-141678571D02*
X96464285Y-142250000D01*
X94678571Y-142607142D02*
X94821428Y-142678571D01*
X95107142Y-142678571D01*
X95250000Y-142607142D01*
X95321428Y-142464285D01*
X95321428Y-141892857D01*
X95250000Y-141750000D01*
X95107142Y-141678571D01*
X94821428Y-141678571D01*
X94678571Y-141750000D01*
X94607142Y-141892857D01*
X94607142Y-142035714D01*
X95321428Y-142178571D01*
X94178571Y-141678571D02*
X93607142Y-141678571D01*
X93964285Y-141178571D02*
X93964285Y-142464285D01*
X93892857Y-142607142D01*
X93750000Y-142678571D01*
X93607142Y-142678571D01*
X93107142Y-142678571D02*
X93107142Y-141178571D01*
X92750000Y-141178571D01*
X92535714Y-141250000D01*
X92392857Y-141392857D01*
X92321428Y-141535714D01*
X92250000Y-141821428D01*
X92250000Y-142035714D01*
X92321428Y-142321428D01*
X92392857Y-142464285D01*
X92535714Y-142607142D01*
X92750000Y-142678571D01*
X93107142Y-142678571D01*
X91678571Y-142607142D02*
X91464285Y-142678571D01*
X91107142Y-142678571D01*
X90964285Y-142607142D01*
X90892857Y-142535714D01*
X90821428Y-142392857D01*
X90821428Y-142250000D01*
X90892857Y-142107142D01*
X90964285Y-142035714D01*
X91107142Y-141964285D01*
X91392857Y-141892857D01*
X91535714Y-141821428D01*
X91607142Y-141750000D01*
X91678571Y-141607142D01*
X91678571Y-141464285D01*
X91607142Y-141321428D01*
X91535714Y-141250000D01*
X91392857Y-141178571D01*
X91035714Y-141178571D01*
X90821428Y-141250000D01*
X90178571Y-142678571D02*
X90178571Y-141178571D01*
X89607142Y-141178571D01*
X89464285Y-141250000D01*
X89392857Y-141321428D01*
X89321428Y-141464285D01*
X89321428Y-141678571D01*
X89392857Y-141821428D01*
X89464285Y-141892857D01*
X89607142Y-141964285D01*
X90178571Y-141964285D01*
X87678571Y-141678571D02*
X87321428Y-142678571D01*
X86964285Y-141678571D01*
X85607142Y-142678571D02*
X86464285Y-142678571D01*
X86035714Y-142678571D02*
X86035714Y-141178571D01*
X86178571Y-141392857D01*
X86321428Y-141535714D01*
X86464285Y-141607142D01*
X84964285Y-142535714D02*
X84892857Y-142607142D01*
X84964285Y-142678571D01*
X85035714Y-142607142D01*
X84964285Y-142535714D01*
X84964285Y-142678571D01*
X83964285Y-141178571D02*
X83821428Y-141178571D01*
X83678571Y-141250000D01*
X83607142Y-141321428D01*
X83535714Y-141464285D01*
X83464285Y-141750000D01*
X83464285Y-142107142D01*
X83535714Y-142392857D01*
X83607142Y-142535714D01*
X83678571Y-142607142D01*
X83821428Y-142678571D01*
X83964285Y-142678571D01*
X84107142Y-142607142D01*
X84178571Y-142535714D01*
X84250000Y-142392857D01*
X84321428Y-142107142D01*
X84321428Y-141750000D01*
X84250000Y-141464285D01*
X84178571Y-141321428D01*
X84107142Y-141250000D01*
X83964285Y-141178571D01*
D11*
G04 #@! TO.C,L1*
X124238748Y-108710000D02*
X124761252Y-108710000D01*
X124238748Y-107290000D02*
X124761252Y-107290000D01*
D12*
G04 #@! TO.C,BT1*
X160480000Y-118510000D02*
X83520000Y-118510000D01*
X83520000Y-118510000D02*
X83520000Y-139490000D01*
X83520000Y-139490000D02*
X160480000Y-139490000D01*
X160480000Y-139490000D02*
X160480000Y-118510000D01*
X162630000Y-128000000D02*
X162630000Y-130000000D01*
X163630000Y-129000000D02*
X161630000Y-129000000D01*
X82370000Y-129000000D02*
X80370000Y-129000000D01*
G04 #@! TO.C,C1*
D13*
X125642857Y-115933333D02*
X125661904Y-115914285D01*
X125680952Y-115857142D01*
X125680952Y-115819047D01*
X125661904Y-115761904D01*
X125623809Y-115723809D01*
X125585714Y-115704761D01*
X125509523Y-115685714D01*
X125452380Y-115685714D01*
X125376190Y-115704761D01*
X125338095Y-115723809D01*
X125300000Y-115761904D01*
X125280952Y-115819047D01*
X125280952Y-115857142D01*
X125300000Y-115914285D01*
X125319047Y-115933333D01*
X125680952Y-116314285D02*
X125680952Y-116085714D01*
X125680952Y-116200000D02*
X125280952Y-116200000D01*
X125338095Y-116161904D01*
X125376190Y-116123809D01*
X125395238Y-116085714D01*
G04 #@! TO.C,C3*
X124066666Y-110642857D02*
X124085714Y-110661904D01*
X124142857Y-110680952D01*
X124180952Y-110680952D01*
X124238095Y-110661904D01*
X124276190Y-110623809D01*
X124295238Y-110585714D01*
X124314285Y-110509523D01*
X124314285Y-110452380D01*
X124295238Y-110376190D01*
X124276190Y-110338095D01*
X124238095Y-110300000D01*
X124180952Y-110280952D01*
X124142857Y-110280952D01*
X124085714Y-110300000D01*
X124066666Y-110319047D01*
X123933333Y-110280952D02*
X123685714Y-110280952D01*
X123819047Y-110433333D01*
X123761904Y-110433333D01*
X123723809Y-110452380D01*
X123704761Y-110471428D01*
X123685714Y-110509523D01*
X123685714Y-110604761D01*
X123704761Y-110642857D01*
X123723809Y-110661904D01*
X123761904Y-110680952D01*
X123876190Y-110680952D01*
X123914285Y-110661904D01*
X123933333Y-110642857D01*
G04 #@! TO.C,C4*
X125642857Y-114933333D02*
X125661904Y-114914285D01*
X125680952Y-114857142D01*
X125680952Y-114819047D01*
X125661904Y-114761904D01*
X125623809Y-114723809D01*
X125585714Y-114704761D01*
X125509523Y-114685714D01*
X125452380Y-114685714D01*
X125376190Y-114704761D01*
X125338095Y-114723809D01*
X125300000Y-114761904D01*
X125280952Y-114819047D01*
X125280952Y-114857142D01*
X125300000Y-114914285D01*
X125319047Y-114933333D01*
X125414285Y-115276190D02*
X125680952Y-115276190D01*
X125261904Y-115180952D02*
X125547619Y-115085714D01*
X125547619Y-115333333D01*
G04 #@! TO.C,C6*
X127581666Y-107380857D02*
X127600714Y-107399904D01*
X127657857Y-107418952D01*
X127695952Y-107418952D01*
X127753095Y-107399904D01*
X127791190Y-107361809D01*
X127810238Y-107323714D01*
X127829285Y-107247523D01*
X127829285Y-107190380D01*
X127810238Y-107114190D01*
X127791190Y-107076095D01*
X127753095Y-107038000D01*
X127695952Y-107018952D01*
X127657857Y-107018952D01*
X127600714Y-107038000D01*
X127581666Y-107057047D01*
X127238809Y-107018952D02*
X127315000Y-107018952D01*
X127353095Y-107038000D01*
X127372142Y-107057047D01*
X127410238Y-107114190D01*
X127429285Y-107190380D01*
X127429285Y-107342761D01*
X127410238Y-107380857D01*
X127391190Y-107399904D01*
X127353095Y-107418952D01*
X127276904Y-107418952D01*
X127238809Y-107399904D01*
X127219761Y-107380857D01*
X127200714Y-107342761D01*
X127200714Y-107247523D01*
X127219761Y-107209428D01*
X127238809Y-107190380D01*
X127276904Y-107171333D01*
X127353095Y-107171333D01*
X127391190Y-107190380D01*
X127410238Y-107209428D01*
X127429285Y-107247523D01*
G04 #@! TO.C,C7*
X122066666Y-105392857D02*
X122085714Y-105411904D01*
X122142857Y-105430952D01*
X122180952Y-105430952D01*
X122238095Y-105411904D01*
X122276190Y-105373809D01*
X122295238Y-105335714D01*
X122314285Y-105259523D01*
X122314285Y-105202380D01*
X122295238Y-105126190D01*
X122276190Y-105088095D01*
X122238095Y-105050000D01*
X122180952Y-105030952D01*
X122142857Y-105030952D01*
X122085714Y-105050000D01*
X122066666Y-105069047D01*
X121933333Y-105030952D02*
X121666666Y-105030952D01*
X121838095Y-105430952D01*
G04 #@! TO.C,C8*
X112316666Y-107392857D02*
X112335714Y-107411904D01*
X112392857Y-107430952D01*
X112430952Y-107430952D01*
X112488095Y-107411904D01*
X112526190Y-107373809D01*
X112545238Y-107335714D01*
X112564285Y-107259523D01*
X112564285Y-107202380D01*
X112545238Y-107126190D01*
X112526190Y-107088095D01*
X112488095Y-107050000D01*
X112430952Y-107030952D01*
X112392857Y-107030952D01*
X112335714Y-107050000D01*
X112316666Y-107069047D01*
X112088095Y-107202380D02*
X112126190Y-107183333D01*
X112145238Y-107164285D01*
X112164285Y-107126190D01*
X112164285Y-107107142D01*
X112145238Y-107069047D01*
X112126190Y-107050000D01*
X112088095Y-107030952D01*
X112011904Y-107030952D01*
X111973809Y-107050000D01*
X111954761Y-107069047D01*
X111935714Y-107107142D01*
X111935714Y-107126190D01*
X111954761Y-107164285D01*
X111973809Y-107183333D01*
X112011904Y-107202380D01*
X112088095Y-107202380D01*
X112126190Y-107221428D01*
X112145238Y-107240476D01*
X112164285Y-107278571D01*
X112164285Y-107354761D01*
X112145238Y-107392857D01*
X112126190Y-107411904D01*
X112088095Y-107430952D01*
X112011904Y-107430952D01*
X111973809Y-107411904D01*
X111954761Y-107392857D01*
X111935714Y-107354761D01*
X111935714Y-107278571D01*
X111954761Y-107240476D01*
X111973809Y-107221428D01*
X112011904Y-107202380D01*
G04 #@! TO.C,C10*
X122257142Y-106392857D02*
X122276190Y-106411904D01*
X122333333Y-106430952D01*
X122371428Y-106430952D01*
X122428571Y-106411904D01*
X122466666Y-106373809D01*
X122485714Y-106335714D01*
X122504761Y-106259523D01*
X122504761Y-106202380D01*
X122485714Y-106126190D01*
X122466666Y-106088095D01*
X122428571Y-106050000D01*
X122371428Y-106030952D01*
X122333333Y-106030952D01*
X122276190Y-106050000D01*
X122257142Y-106069047D01*
X121876190Y-106430952D02*
X122104761Y-106430952D01*
X121990476Y-106430952D02*
X121990476Y-106030952D01*
X122028571Y-106088095D01*
X122066666Y-106126190D01*
X122104761Y-106145238D01*
X121628571Y-106030952D02*
X121590476Y-106030952D01*
X121552380Y-106050000D01*
X121533333Y-106069047D01*
X121514285Y-106107142D01*
X121495238Y-106183333D01*
X121495238Y-106278571D01*
X121514285Y-106354761D01*
X121533333Y-106392857D01*
X121552380Y-106411904D01*
X121590476Y-106430952D01*
X121628571Y-106430952D01*
X121666666Y-106411904D01*
X121685714Y-106392857D01*
X121704761Y-106354761D01*
X121723809Y-106278571D01*
X121723809Y-106183333D01*
X121704761Y-106107142D01*
X121685714Y-106069047D01*
X121666666Y-106050000D01*
X121628571Y-106030952D01*
G04 #@! TO.C,C15*
X126507142Y-111892857D02*
X126526190Y-111911904D01*
X126583333Y-111930952D01*
X126621428Y-111930952D01*
X126678571Y-111911904D01*
X126716666Y-111873809D01*
X126735714Y-111835714D01*
X126754761Y-111759523D01*
X126754761Y-111702380D01*
X126735714Y-111626190D01*
X126716666Y-111588095D01*
X126678571Y-111550000D01*
X126621428Y-111530952D01*
X126583333Y-111530952D01*
X126526190Y-111550000D01*
X126507142Y-111569047D01*
X126126190Y-111930952D02*
X126354761Y-111930952D01*
X126240476Y-111930952D02*
X126240476Y-111530952D01*
X126278571Y-111588095D01*
X126316666Y-111626190D01*
X126354761Y-111645238D01*
X125764285Y-111530952D02*
X125954761Y-111530952D01*
X125973809Y-111721428D01*
X125954761Y-111702380D01*
X125916666Y-111683333D01*
X125821428Y-111683333D01*
X125783333Y-111702380D01*
X125764285Y-111721428D01*
X125745238Y-111759523D01*
X125745238Y-111854761D01*
X125764285Y-111892857D01*
X125783333Y-111911904D01*
X125821428Y-111930952D01*
X125916666Y-111930952D01*
X125954761Y-111911904D01*
X125973809Y-111892857D01*
G04 #@! TO.C,C29*
X97507142Y-110892857D02*
X97526190Y-110911904D01*
X97583333Y-110930952D01*
X97621428Y-110930952D01*
X97678571Y-110911904D01*
X97716666Y-110873809D01*
X97735714Y-110835714D01*
X97754761Y-110759523D01*
X97754761Y-110702380D01*
X97735714Y-110626190D01*
X97716666Y-110588095D01*
X97678571Y-110550000D01*
X97621428Y-110530952D01*
X97583333Y-110530952D01*
X97526190Y-110550000D01*
X97507142Y-110569047D01*
X97354761Y-110569047D02*
X97335714Y-110550000D01*
X97297619Y-110530952D01*
X97202380Y-110530952D01*
X97164285Y-110550000D01*
X97145238Y-110569047D01*
X97126190Y-110607142D01*
X97126190Y-110645238D01*
X97145238Y-110702380D01*
X97373809Y-110930952D01*
X97126190Y-110930952D01*
X96935714Y-110930952D02*
X96859523Y-110930952D01*
X96821428Y-110911904D01*
X96802380Y-110892857D01*
X96764285Y-110835714D01*
X96745238Y-110759523D01*
X96745238Y-110607142D01*
X96764285Y-110569047D01*
X96783333Y-110550000D01*
X96821428Y-110530952D01*
X96897619Y-110530952D01*
X96935714Y-110550000D01*
X96954761Y-110569047D01*
X96973809Y-110607142D01*
X96973809Y-110702380D01*
X96954761Y-110740476D01*
X96935714Y-110759523D01*
X96897619Y-110778571D01*
X96821428Y-110778571D01*
X96783333Y-110759523D01*
X96764285Y-110740476D01*
X96745238Y-110702380D01*
G04 #@! TO.C,C30*
X97507142Y-106892857D02*
X97526190Y-106911904D01*
X97583333Y-106930952D01*
X97621428Y-106930952D01*
X97678571Y-106911904D01*
X97716666Y-106873809D01*
X97735714Y-106835714D01*
X97754761Y-106759523D01*
X97754761Y-106702380D01*
X97735714Y-106626190D01*
X97716666Y-106588095D01*
X97678571Y-106550000D01*
X97621428Y-106530952D01*
X97583333Y-106530952D01*
X97526190Y-106550000D01*
X97507142Y-106569047D01*
X97373809Y-106530952D02*
X97126190Y-106530952D01*
X97259523Y-106683333D01*
X97202380Y-106683333D01*
X97164285Y-106702380D01*
X97145238Y-106721428D01*
X97126190Y-106759523D01*
X97126190Y-106854761D01*
X97145238Y-106892857D01*
X97164285Y-106911904D01*
X97202380Y-106930952D01*
X97316666Y-106930952D01*
X97354761Y-106911904D01*
X97373809Y-106892857D01*
X96878571Y-106530952D02*
X96840476Y-106530952D01*
X96802380Y-106550000D01*
X96783333Y-106569047D01*
X96764285Y-106607142D01*
X96745238Y-106683333D01*
X96745238Y-106778571D01*
X96764285Y-106854761D01*
X96783333Y-106892857D01*
X96802380Y-106911904D01*
X96840476Y-106930952D01*
X96878571Y-106930952D01*
X96916666Y-106911904D01*
X96935714Y-106892857D01*
X96954761Y-106854761D01*
X96973809Y-106778571D01*
X96973809Y-106683333D01*
X96954761Y-106607142D01*
X96935714Y-106569047D01*
X96916666Y-106550000D01*
X96878571Y-106530952D01*
G04 #@! TO.C,C32*
X97507142Y-109892857D02*
X97526190Y-109911904D01*
X97583333Y-109930952D01*
X97621428Y-109930952D01*
X97678571Y-109911904D01*
X97716666Y-109873809D01*
X97735714Y-109835714D01*
X97754761Y-109759523D01*
X97754761Y-109702380D01*
X97735714Y-109626190D01*
X97716666Y-109588095D01*
X97678571Y-109550000D01*
X97621428Y-109530952D01*
X97583333Y-109530952D01*
X97526190Y-109550000D01*
X97507142Y-109569047D01*
X97373809Y-109530952D02*
X97126190Y-109530952D01*
X97259523Y-109683333D01*
X97202380Y-109683333D01*
X97164285Y-109702380D01*
X97145238Y-109721428D01*
X97126190Y-109759523D01*
X97126190Y-109854761D01*
X97145238Y-109892857D01*
X97164285Y-109911904D01*
X97202380Y-109930952D01*
X97316666Y-109930952D01*
X97354761Y-109911904D01*
X97373809Y-109892857D01*
X96973809Y-109569047D02*
X96954761Y-109550000D01*
X96916666Y-109530952D01*
X96821428Y-109530952D01*
X96783333Y-109550000D01*
X96764285Y-109569047D01*
X96745238Y-109607142D01*
X96745238Y-109645238D01*
X96764285Y-109702380D01*
X96992857Y-109930952D01*
X96745238Y-109930952D01*
G04 #@! TO.C,C33*
X97507142Y-107892857D02*
X97526190Y-107911904D01*
X97583333Y-107930952D01*
X97621428Y-107930952D01*
X97678571Y-107911904D01*
X97716666Y-107873809D01*
X97735714Y-107835714D01*
X97754761Y-107759523D01*
X97754761Y-107702380D01*
X97735714Y-107626190D01*
X97716666Y-107588095D01*
X97678571Y-107550000D01*
X97621428Y-107530952D01*
X97583333Y-107530952D01*
X97526190Y-107550000D01*
X97507142Y-107569047D01*
X97373809Y-107530952D02*
X97126190Y-107530952D01*
X97259523Y-107683333D01*
X97202380Y-107683333D01*
X97164285Y-107702380D01*
X97145238Y-107721428D01*
X97126190Y-107759523D01*
X97126190Y-107854761D01*
X97145238Y-107892857D01*
X97164285Y-107911904D01*
X97202380Y-107930952D01*
X97316666Y-107930952D01*
X97354761Y-107911904D01*
X97373809Y-107892857D01*
X96992857Y-107530952D02*
X96745238Y-107530952D01*
X96878571Y-107683333D01*
X96821428Y-107683333D01*
X96783333Y-107702380D01*
X96764285Y-107721428D01*
X96745238Y-107759523D01*
X96745238Y-107854761D01*
X96764285Y-107892857D01*
X96783333Y-107911904D01*
X96821428Y-107930952D01*
X96935714Y-107930952D01*
X96973809Y-107911904D01*
X96992857Y-107892857D01*
G04 #@! TO.C,C34*
X97507142Y-108892857D02*
X97526190Y-108911904D01*
X97583333Y-108930952D01*
X97621428Y-108930952D01*
X97678571Y-108911904D01*
X97716666Y-108873809D01*
X97735714Y-108835714D01*
X97754761Y-108759523D01*
X97754761Y-108702380D01*
X97735714Y-108626190D01*
X97716666Y-108588095D01*
X97678571Y-108550000D01*
X97621428Y-108530952D01*
X97583333Y-108530952D01*
X97526190Y-108550000D01*
X97507142Y-108569047D01*
X97373809Y-108530952D02*
X97126190Y-108530952D01*
X97259523Y-108683333D01*
X97202380Y-108683333D01*
X97164285Y-108702380D01*
X97145238Y-108721428D01*
X97126190Y-108759523D01*
X97126190Y-108854761D01*
X97145238Y-108892857D01*
X97164285Y-108911904D01*
X97202380Y-108930952D01*
X97316666Y-108930952D01*
X97354761Y-108911904D01*
X97373809Y-108892857D01*
X96783333Y-108664285D02*
X96783333Y-108930952D01*
X96878571Y-108511904D02*
X96973809Y-108797619D01*
X96726190Y-108797619D01*
G04 #@! TO.C,C37*
X103257142Y-107642857D02*
X103276190Y-107661904D01*
X103333333Y-107680952D01*
X103371428Y-107680952D01*
X103428571Y-107661904D01*
X103466666Y-107623809D01*
X103485714Y-107585714D01*
X103504761Y-107509523D01*
X103504761Y-107452380D01*
X103485714Y-107376190D01*
X103466666Y-107338095D01*
X103428571Y-107300000D01*
X103371428Y-107280952D01*
X103333333Y-107280952D01*
X103276190Y-107300000D01*
X103257142Y-107319047D01*
X103123809Y-107280952D02*
X102876190Y-107280952D01*
X103009523Y-107433333D01*
X102952380Y-107433333D01*
X102914285Y-107452380D01*
X102895238Y-107471428D01*
X102876190Y-107509523D01*
X102876190Y-107604761D01*
X102895238Y-107642857D01*
X102914285Y-107661904D01*
X102952380Y-107680952D01*
X103066666Y-107680952D01*
X103104761Y-107661904D01*
X103123809Y-107642857D01*
X102742857Y-107280952D02*
X102476190Y-107280952D01*
X102647619Y-107680952D01*
G04 #@! TO.C,C38*
X103257142Y-109642857D02*
X103276190Y-109661904D01*
X103333333Y-109680952D01*
X103371428Y-109680952D01*
X103428571Y-109661904D01*
X103466666Y-109623809D01*
X103485714Y-109585714D01*
X103504761Y-109509523D01*
X103504761Y-109452380D01*
X103485714Y-109376190D01*
X103466666Y-109338095D01*
X103428571Y-109300000D01*
X103371428Y-109280952D01*
X103333333Y-109280952D01*
X103276190Y-109300000D01*
X103257142Y-109319047D01*
X103123809Y-109280952D02*
X102876190Y-109280952D01*
X103009523Y-109433333D01*
X102952380Y-109433333D01*
X102914285Y-109452380D01*
X102895238Y-109471428D01*
X102876190Y-109509523D01*
X102876190Y-109604761D01*
X102895238Y-109642857D01*
X102914285Y-109661904D01*
X102952380Y-109680952D01*
X103066666Y-109680952D01*
X103104761Y-109661904D01*
X103123809Y-109642857D01*
X102647619Y-109452380D02*
X102685714Y-109433333D01*
X102704761Y-109414285D01*
X102723809Y-109376190D01*
X102723809Y-109357142D01*
X102704761Y-109319047D01*
X102685714Y-109300000D01*
X102647619Y-109280952D01*
X102571428Y-109280952D01*
X102533333Y-109300000D01*
X102514285Y-109319047D01*
X102495238Y-109357142D01*
X102495238Y-109376190D01*
X102514285Y-109414285D01*
X102533333Y-109433333D01*
X102571428Y-109452380D01*
X102647619Y-109452380D01*
X102685714Y-109471428D01*
X102704761Y-109490476D01*
X102723809Y-109528571D01*
X102723809Y-109604761D01*
X102704761Y-109642857D01*
X102685714Y-109661904D01*
X102647619Y-109680952D01*
X102571428Y-109680952D01*
X102533333Y-109661904D01*
X102514285Y-109642857D01*
X102495238Y-109604761D01*
X102495238Y-109528571D01*
X102514285Y-109490476D01*
X102533333Y-109471428D01*
X102571428Y-109452380D01*
G04 #@! TO.C,L1*
D14*
X121916666Y-108452380D02*
X122392857Y-108452380D01*
X122392857Y-107452380D01*
X121059523Y-108452380D02*
X121630952Y-108452380D01*
X121345238Y-108452380D02*
X121345238Y-107452380D01*
X121440476Y-107595238D01*
X121535714Y-107690476D01*
X121630952Y-107738095D01*
G04 #@! TO.C,BT1*
D15*
X159785714Y-119428571D02*
X159642857Y-119476190D01*
X159595238Y-119523809D01*
X159547619Y-119619047D01*
X159547619Y-119761904D01*
X159595238Y-119857142D01*
X159642857Y-119904761D01*
X159738095Y-119952380D01*
X160119047Y-119952380D01*
X160119047Y-118952380D01*
X159785714Y-118952380D01*
X159690476Y-119000000D01*
X159642857Y-119047619D01*
X159595238Y-119142857D01*
X159595238Y-119238095D01*
X159642857Y-119333333D01*
X159690476Y-119380952D01*
X159785714Y-119428571D01*
X160119047Y-119428571D01*
X159261904Y-118952380D02*
X158690476Y-118952380D01*
X158976190Y-119952380D02*
X158976190Y-118952380D01*
X157833333Y-119952380D02*
X158404761Y-119952380D01*
X158119047Y-119952380D02*
X158119047Y-118952380D01*
X158214285Y-119095238D01*
X158309523Y-119190476D01*
X158404761Y-119238095D01*
G04 #@! TD*
M02*
