G04 #@! TF.GenerationSoftware,KiCad,Pcbnew,(5.0.1)-3*
G04 #@! TF.CreationDate,2021-11-06T13:35:58+01:00*
G04 #@! TF.ProjectId,pocketDSP,706F636B65744453502E6B696361645F,rev?*
G04 #@! TF.SameCoordinates,Original*
G04 #@! TF.FileFunction,Paste,Bot*
G04 #@! TF.FilePolarity,Positive*
%FSLAX46Y46*%
G04 Gerber Fmt 4.6, Leading zero omitted, Abs format (unit mm)*
G04 Created by KiCad (PCBNEW (5.0.1)-3) date 06/11/2021 13:35:58*
%MOMM*%
%LPD*%
G01*
G04 APERTURE LIST*
%ADD10C,0.050800*%
%ADD11C,1.150000*%
G04 APERTURE END LIST*
D10*
G04 #@! TO.C,C12*
G36*
X120974505Y-106451204D02*
X120998773Y-106454804D01*
X121022572Y-106460765D01*
X121045671Y-106469030D01*
X121067850Y-106479520D01*
X121088893Y-106492132D01*
X121108599Y-106506747D01*
X121126777Y-106523223D01*
X121143253Y-106541401D01*
X121157868Y-106561107D01*
X121170480Y-106582150D01*
X121180970Y-106604329D01*
X121189235Y-106627428D01*
X121195196Y-106651227D01*
X121198796Y-106675495D01*
X121200000Y-106699999D01*
X121200000Y-107350001D01*
X121198796Y-107374505D01*
X121195196Y-107398773D01*
X121189235Y-107422572D01*
X121180970Y-107445671D01*
X121170480Y-107467850D01*
X121157868Y-107488893D01*
X121143253Y-107508599D01*
X121126777Y-107526777D01*
X121108599Y-107543253D01*
X121088893Y-107557868D01*
X121067850Y-107570480D01*
X121045671Y-107580970D01*
X121022572Y-107589235D01*
X120998773Y-107595196D01*
X120974505Y-107598796D01*
X120950001Y-107600000D01*
X120049999Y-107600000D01*
X120025495Y-107598796D01*
X120001227Y-107595196D01*
X119977428Y-107589235D01*
X119954329Y-107580970D01*
X119932150Y-107570480D01*
X119911107Y-107557868D01*
X119891401Y-107543253D01*
X119873223Y-107526777D01*
X119856747Y-107508599D01*
X119842132Y-107488893D01*
X119829520Y-107467850D01*
X119819030Y-107445671D01*
X119810765Y-107422572D01*
X119804804Y-107398773D01*
X119801204Y-107374505D01*
X119800000Y-107350001D01*
X119800000Y-106699999D01*
X119801204Y-106675495D01*
X119804804Y-106651227D01*
X119810765Y-106627428D01*
X119819030Y-106604329D01*
X119829520Y-106582150D01*
X119842132Y-106561107D01*
X119856747Y-106541401D01*
X119873223Y-106523223D01*
X119891401Y-106506747D01*
X119911107Y-106492132D01*
X119932150Y-106479520D01*
X119954329Y-106469030D01*
X119977428Y-106460765D01*
X120001227Y-106454804D01*
X120025495Y-106451204D01*
X120049999Y-106450000D01*
X120950001Y-106450000D01*
X120974505Y-106451204D01*
X120974505Y-106451204D01*
G37*
D11*
X120500000Y-107025000D03*
D10*
G36*
X120974505Y-104401204D02*
X120998773Y-104404804D01*
X121022572Y-104410765D01*
X121045671Y-104419030D01*
X121067850Y-104429520D01*
X121088893Y-104442132D01*
X121108599Y-104456747D01*
X121126777Y-104473223D01*
X121143253Y-104491401D01*
X121157868Y-104511107D01*
X121170480Y-104532150D01*
X121180970Y-104554329D01*
X121189235Y-104577428D01*
X121195196Y-104601227D01*
X121198796Y-104625495D01*
X121200000Y-104649999D01*
X121200000Y-105300001D01*
X121198796Y-105324505D01*
X121195196Y-105348773D01*
X121189235Y-105372572D01*
X121180970Y-105395671D01*
X121170480Y-105417850D01*
X121157868Y-105438893D01*
X121143253Y-105458599D01*
X121126777Y-105476777D01*
X121108599Y-105493253D01*
X121088893Y-105507868D01*
X121067850Y-105520480D01*
X121045671Y-105530970D01*
X121022572Y-105539235D01*
X120998773Y-105545196D01*
X120974505Y-105548796D01*
X120950001Y-105550000D01*
X120049999Y-105550000D01*
X120025495Y-105548796D01*
X120001227Y-105545196D01*
X119977428Y-105539235D01*
X119954329Y-105530970D01*
X119932150Y-105520480D01*
X119911107Y-105507868D01*
X119891401Y-105493253D01*
X119873223Y-105476777D01*
X119856747Y-105458599D01*
X119842132Y-105438893D01*
X119829520Y-105417850D01*
X119819030Y-105395671D01*
X119810765Y-105372572D01*
X119804804Y-105348773D01*
X119801204Y-105324505D01*
X119800000Y-105300001D01*
X119800000Y-104649999D01*
X119801204Y-104625495D01*
X119804804Y-104601227D01*
X119810765Y-104577428D01*
X119819030Y-104554329D01*
X119829520Y-104532150D01*
X119842132Y-104511107D01*
X119856747Y-104491401D01*
X119873223Y-104473223D01*
X119891401Y-104456747D01*
X119911107Y-104442132D01*
X119932150Y-104429520D01*
X119954329Y-104419030D01*
X119977428Y-104410765D01*
X120001227Y-104404804D01*
X120025495Y-104401204D01*
X120049999Y-104400000D01*
X120950001Y-104400000D01*
X120974505Y-104401204D01*
X120974505Y-104401204D01*
G37*
D11*
X120500000Y-104975000D03*
G04 #@! TD*
D10*
G04 #@! TO.C,C16*
G36*
X118824505Y-115301204D02*
X118848773Y-115304804D01*
X118872572Y-115310765D01*
X118895671Y-115319030D01*
X118917850Y-115329520D01*
X118938893Y-115342132D01*
X118958599Y-115356747D01*
X118976777Y-115373223D01*
X118993253Y-115391401D01*
X119007868Y-115411107D01*
X119020480Y-115432150D01*
X119030970Y-115454329D01*
X119039235Y-115477428D01*
X119045196Y-115501227D01*
X119048796Y-115525495D01*
X119050000Y-115549999D01*
X119050000Y-116450001D01*
X119048796Y-116474505D01*
X119045196Y-116498773D01*
X119039235Y-116522572D01*
X119030970Y-116545671D01*
X119020480Y-116567850D01*
X119007868Y-116588893D01*
X118993253Y-116608599D01*
X118976777Y-116626777D01*
X118958599Y-116643253D01*
X118938893Y-116657868D01*
X118917850Y-116670480D01*
X118895671Y-116680970D01*
X118872572Y-116689235D01*
X118848773Y-116695196D01*
X118824505Y-116698796D01*
X118800001Y-116700000D01*
X118149999Y-116700000D01*
X118125495Y-116698796D01*
X118101227Y-116695196D01*
X118077428Y-116689235D01*
X118054329Y-116680970D01*
X118032150Y-116670480D01*
X118011107Y-116657868D01*
X117991401Y-116643253D01*
X117973223Y-116626777D01*
X117956747Y-116608599D01*
X117942132Y-116588893D01*
X117929520Y-116567850D01*
X117919030Y-116545671D01*
X117910765Y-116522572D01*
X117904804Y-116498773D01*
X117901204Y-116474505D01*
X117900000Y-116450001D01*
X117900000Y-115549999D01*
X117901204Y-115525495D01*
X117904804Y-115501227D01*
X117910765Y-115477428D01*
X117919030Y-115454329D01*
X117929520Y-115432150D01*
X117942132Y-115411107D01*
X117956747Y-115391401D01*
X117973223Y-115373223D01*
X117991401Y-115356747D01*
X118011107Y-115342132D01*
X118032150Y-115329520D01*
X118054329Y-115319030D01*
X118077428Y-115310765D01*
X118101227Y-115304804D01*
X118125495Y-115301204D01*
X118149999Y-115300000D01*
X118800001Y-115300000D01*
X118824505Y-115301204D01*
X118824505Y-115301204D01*
G37*
D11*
X118475000Y-116000000D03*
D10*
G36*
X120874505Y-115301204D02*
X120898773Y-115304804D01*
X120922572Y-115310765D01*
X120945671Y-115319030D01*
X120967850Y-115329520D01*
X120988893Y-115342132D01*
X121008599Y-115356747D01*
X121026777Y-115373223D01*
X121043253Y-115391401D01*
X121057868Y-115411107D01*
X121070480Y-115432150D01*
X121080970Y-115454329D01*
X121089235Y-115477428D01*
X121095196Y-115501227D01*
X121098796Y-115525495D01*
X121100000Y-115549999D01*
X121100000Y-116450001D01*
X121098796Y-116474505D01*
X121095196Y-116498773D01*
X121089235Y-116522572D01*
X121080970Y-116545671D01*
X121070480Y-116567850D01*
X121057868Y-116588893D01*
X121043253Y-116608599D01*
X121026777Y-116626777D01*
X121008599Y-116643253D01*
X120988893Y-116657868D01*
X120967850Y-116670480D01*
X120945671Y-116680970D01*
X120922572Y-116689235D01*
X120898773Y-116695196D01*
X120874505Y-116698796D01*
X120850001Y-116700000D01*
X120199999Y-116700000D01*
X120175495Y-116698796D01*
X120151227Y-116695196D01*
X120127428Y-116689235D01*
X120104329Y-116680970D01*
X120082150Y-116670480D01*
X120061107Y-116657868D01*
X120041401Y-116643253D01*
X120023223Y-116626777D01*
X120006747Y-116608599D01*
X119992132Y-116588893D01*
X119979520Y-116567850D01*
X119969030Y-116545671D01*
X119960765Y-116522572D01*
X119954804Y-116498773D01*
X119951204Y-116474505D01*
X119950000Y-116450001D01*
X119950000Y-115549999D01*
X119951204Y-115525495D01*
X119954804Y-115501227D01*
X119960765Y-115477428D01*
X119969030Y-115454329D01*
X119979520Y-115432150D01*
X119992132Y-115411107D01*
X120006747Y-115391401D01*
X120023223Y-115373223D01*
X120041401Y-115356747D01*
X120061107Y-115342132D01*
X120082150Y-115329520D01*
X120104329Y-115319030D01*
X120127428Y-115310765D01*
X120151227Y-115304804D01*
X120175495Y-115301204D01*
X120199999Y-115300000D01*
X120850001Y-115300000D01*
X120874505Y-115301204D01*
X120874505Y-115301204D01*
G37*
D11*
X120525000Y-116000000D03*
G04 #@! TD*
D10*
G04 #@! TO.C,L1*
G36*
X132974505Y-104901204D02*
X132998773Y-104904804D01*
X133022572Y-104910765D01*
X133045671Y-104919030D01*
X133067850Y-104929520D01*
X133088893Y-104942132D01*
X133108599Y-104956747D01*
X133126777Y-104973223D01*
X133143253Y-104991401D01*
X133157868Y-105011107D01*
X133170480Y-105032150D01*
X133180970Y-105054329D01*
X133189235Y-105077428D01*
X133195196Y-105101227D01*
X133198796Y-105125495D01*
X133200000Y-105149999D01*
X133200000Y-105800001D01*
X133198796Y-105824505D01*
X133195196Y-105848773D01*
X133189235Y-105872572D01*
X133180970Y-105895671D01*
X133170480Y-105917850D01*
X133157868Y-105938893D01*
X133143253Y-105958599D01*
X133126777Y-105976777D01*
X133108599Y-105993253D01*
X133088893Y-106007868D01*
X133067850Y-106020480D01*
X133045671Y-106030970D01*
X133022572Y-106039235D01*
X132998773Y-106045196D01*
X132974505Y-106048796D01*
X132950001Y-106050000D01*
X132049999Y-106050000D01*
X132025495Y-106048796D01*
X132001227Y-106045196D01*
X131977428Y-106039235D01*
X131954329Y-106030970D01*
X131932150Y-106020480D01*
X131911107Y-106007868D01*
X131891401Y-105993253D01*
X131873223Y-105976777D01*
X131856747Y-105958599D01*
X131842132Y-105938893D01*
X131829520Y-105917850D01*
X131819030Y-105895671D01*
X131810765Y-105872572D01*
X131804804Y-105848773D01*
X131801204Y-105824505D01*
X131800000Y-105800001D01*
X131800000Y-105149999D01*
X131801204Y-105125495D01*
X131804804Y-105101227D01*
X131810765Y-105077428D01*
X131819030Y-105054329D01*
X131829520Y-105032150D01*
X131842132Y-105011107D01*
X131856747Y-104991401D01*
X131873223Y-104973223D01*
X131891401Y-104956747D01*
X131911107Y-104942132D01*
X131932150Y-104929520D01*
X131954329Y-104919030D01*
X131977428Y-104910765D01*
X132001227Y-104904804D01*
X132025495Y-104901204D01*
X132049999Y-104900000D01*
X132950001Y-104900000D01*
X132974505Y-104901204D01*
X132974505Y-104901204D01*
G37*
D11*
X132500000Y-105475000D03*
D10*
G36*
X132974505Y-106951204D02*
X132998773Y-106954804D01*
X133022572Y-106960765D01*
X133045671Y-106969030D01*
X133067850Y-106979520D01*
X133088893Y-106992132D01*
X133108599Y-107006747D01*
X133126777Y-107023223D01*
X133143253Y-107041401D01*
X133157868Y-107061107D01*
X133170480Y-107082150D01*
X133180970Y-107104329D01*
X133189235Y-107127428D01*
X133195196Y-107151227D01*
X133198796Y-107175495D01*
X133200000Y-107199999D01*
X133200000Y-107850001D01*
X133198796Y-107874505D01*
X133195196Y-107898773D01*
X133189235Y-107922572D01*
X133180970Y-107945671D01*
X133170480Y-107967850D01*
X133157868Y-107988893D01*
X133143253Y-108008599D01*
X133126777Y-108026777D01*
X133108599Y-108043253D01*
X133088893Y-108057868D01*
X133067850Y-108070480D01*
X133045671Y-108080970D01*
X133022572Y-108089235D01*
X132998773Y-108095196D01*
X132974505Y-108098796D01*
X132950001Y-108100000D01*
X132049999Y-108100000D01*
X132025495Y-108098796D01*
X132001227Y-108095196D01*
X131977428Y-108089235D01*
X131954329Y-108080970D01*
X131932150Y-108070480D01*
X131911107Y-108057868D01*
X131891401Y-108043253D01*
X131873223Y-108026777D01*
X131856747Y-108008599D01*
X131842132Y-107988893D01*
X131829520Y-107967850D01*
X131819030Y-107945671D01*
X131810765Y-107922572D01*
X131804804Y-107898773D01*
X131801204Y-107874505D01*
X131800000Y-107850001D01*
X131800000Y-107199999D01*
X131801204Y-107175495D01*
X131804804Y-107151227D01*
X131810765Y-107127428D01*
X131819030Y-107104329D01*
X131829520Y-107082150D01*
X131842132Y-107061107D01*
X131856747Y-107041401D01*
X131873223Y-107023223D01*
X131891401Y-107006747D01*
X131911107Y-106992132D01*
X131932150Y-106979520D01*
X131954329Y-106969030D01*
X131977428Y-106960765D01*
X132001227Y-106954804D01*
X132025495Y-106951204D01*
X132049999Y-106950000D01*
X132950001Y-106950000D01*
X132974505Y-106951204D01*
X132974505Y-106951204D01*
G37*
D11*
X132500000Y-107525000D03*
G04 #@! TD*
D10*
G04 #@! TO.C,C1*
G36*
X118824505Y-117301204D02*
X118848773Y-117304804D01*
X118872572Y-117310765D01*
X118895671Y-117319030D01*
X118917850Y-117329520D01*
X118938893Y-117342132D01*
X118958599Y-117356747D01*
X118976777Y-117373223D01*
X118993253Y-117391401D01*
X119007868Y-117411107D01*
X119020480Y-117432150D01*
X119030970Y-117454329D01*
X119039235Y-117477428D01*
X119045196Y-117501227D01*
X119048796Y-117525495D01*
X119050000Y-117549999D01*
X119050000Y-118450001D01*
X119048796Y-118474505D01*
X119045196Y-118498773D01*
X119039235Y-118522572D01*
X119030970Y-118545671D01*
X119020480Y-118567850D01*
X119007868Y-118588893D01*
X118993253Y-118608599D01*
X118976777Y-118626777D01*
X118958599Y-118643253D01*
X118938893Y-118657868D01*
X118917850Y-118670480D01*
X118895671Y-118680970D01*
X118872572Y-118689235D01*
X118848773Y-118695196D01*
X118824505Y-118698796D01*
X118800001Y-118700000D01*
X118149999Y-118700000D01*
X118125495Y-118698796D01*
X118101227Y-118695196D01*
X118077428Y-118689235D01*
X118054329Y-118680970D01*
X118032150Y-118670480D01*
X118011107Y-118657868D01*
X117991401Y-118643253D01*
X117973223Y-118626777D01*
X117956747Y-118608599D01*
X117942132Y-118588893D01*
X117929520Y-118567850D01*
X117919030Y-118545671D01*
X117910765Y-118522572D01*
X117904804Y-118498773D01*
X117901204Y-118474505D01*
X117900000Y-118450001D01*
X117900000Y-117549999D01*
X117901204Y-117525495D01*
X117904804Y-117501227D01*
X117910765Y-117477428D01*
X117919030Y-117454329D01*
X117929520Y-117432150D01*
X117942132Y-117411107D01*
X117956747Y-117391401D01*
X117973223Y-117373223D01*
X117991401Y-117356747D01*
X118011107Y-117342132D01*
X118032150Y-117329520D01*
X118054329Y-117319030D01*
X118077428Y-117310765D01*
X118101227Y-117304804D01*
X118125495Y-117301204D01*
X118149999Y-117300000D01*
X118800001Y-117300000D01*
X118824505Y-117301204D01*
X118824505Y-117301204D01*
G37*
D11*
X118475000Y-118000000D03*
D10*
G36*
X120874505Y-117301204D02*
X120898773Y-117304804D01*
X120922572Y-117310765D01*
X120945671Y-117319030D01*
X120967850Y-117329520D01*
X120988893Y-117342132D01*
X121008599Y-117356747D01*
X121026777Y-117373223D01*
X121043253Y-117391401D01*
X121057868Y-117411107D01*
X121070480Y-117432150D01*
X121080970Y-117454329D01*
X121089235Y-117477428D01*
X121095196Y-117501227D01*
X121098796Y-117525495D01*
X121100000Y-117549999D01*
X121100000Y-118450001D01*
X121098796Y-118474505D01*
X121095196Y-118498773D01*
X121089235Y-118522572D01*
X121080970Y-118545671D01*
X121070480Y-118567850D01*
X121057868Y-118588893D01*
X121043253Y-118608599D01*
X121026777Y-118626777D01*
X121008599Y-118643253D01*
X120988893Y-118657868D01*
X120967850Y-118670480D01*
X120945671Y-118680970D01*
X120922572Y-118689235D01*
X120898773Y-118695196D01*
X120874505Y-118698796D01*
X120850001Y-118700000D01*
X120199999Y-118700000D01*
X120175495Y-118698796D01*
X120151227Y-118695196D01*
X120127428Y-118689235D01*
X120104329Y-118680970D01*
X120082150Y-118670480D01*
X120061107Y-118657868D01*
X120041401Y-118643253D01*
X120023223Y-118626777D01*
X120006747Y-118608599D01*
X119992132Y-118588893D01*
X119979520Y-118567850D01*
X119969030Y-118545671D01*
X119960765Y-118522572D01*
X119954804Y-118498773D01*
X119951204Y-118474505D01*
X119950000Y-118450001D01*
X119950000Y-117549999D01*
X119951204Y-117525495D01*
X119954804Y-117501227D01*
X119960765Y-117477428D01*
X119969030Y-117454329D01*
X119979520Y-117432150D01*
X119992132Y-117411107D01*
X120006747Y-117391401D01*
X120023223Y-117373223D01*
X120041401Y-117356747D01*
X120061107Y-117342132D01*
X120082150Y-117329520D01*
X120104329Y-117319030D01*
X120127428Y-117310765D01*
X120151227Y-117304804D01*
X120175495Y-117301204D01*
X120199999Y-117300000D01*
X120850001Y-117300000D01*
X120874505Y-117301204D01*
X120874505Y-117301204D01*
G37*
D11*
X120525000Y-118000000D03*
G04 #@! TD*
D10*
G04 #@! TO.C,C2*
G36*
X118974505Y-106451204D02*
X118998773Y-106454804D01*
X119022572Y-106460765D01*
X119045671Y-106469030D01*
X119067850Y-106479520D01*
X119088893Y-106492132D01*
X119108599Y-106506747D01*
X119126777Y-106523223D01*
X119143253Y-106541401D01*
X119157868Y-106561107D01*
X119170480Y-106582150D01*
X119180970Y-106604329D01*
X119189235Y-106627428D01*
X119195196Y-106651227D01*
X119198796Y-106675495D01*
X119200000Y-106699999D01*
X119200000Y-107350001D01*
X119198796Y-107374505D01*
X119195196Y-107398773D01*
X119189235Y-107422572D01*
X119180970Y-107445671D01*
X119170480Y-107467850D01*
X119157868Y-107488893D01*
X119143253Y-107508599D01*
X119126777Y-107526777D01*
X119108599Y-107543253D01*
X119088893Y-107557868D01*
X119067850Y-107570480D01*
X119045671Y-107580970D01*
X119022572Y-107589235D01*
X118998773Y-107595196D01*
X118974505Y-107598796D01*
X118950001Y-107600000D01*
X118049999Y-107600000D01*
X118025495Y-107598796D01*
X118001227Y-107595196D01*
X117977428Y-107589235D01*
X117954329Y-107580970D01*
X117932150Y-107570480D01*
X117911107Y-107557868D01*
X117891401Y-107543253D01*
X117873223Y-107526777D01*
X117856747Y-107508599D01*
X117842132Y-107488893D01*
X117829520Y-107467850D01*
X117819030Y-107445671D01*
X117810765Y-107422572D01*
X117804804Y-107398773D01*
X117801204Y-107374505D01*
X117800000Y-107350001D01*
X117800000Y-106699999D01*
X117801204Y-106675495D01*
X117804804Y-106651227D01*
X117810765Y-106627428D01*
X117819030Y-106604329D01*
X117829520Y-106582150D01*
X117842132Y-106561107D01*
X117856747Y-106541401D01*
X117873223Y-106523223D01*
X117891401Y-106506747D01*
X117911107Y-106492132D01*
X117932150Y-106479520D01*
X117954329Y-106469030D01*
X117977428Y-106460765D01*
X118001227Y-106454804D01*
X118025495Y-106451204D01*
X118049999Y-106450000D01*
X118950001Y-106450000D01*
X118974505Y-106451204D01*
X118974505Y-106451204D01*
G37*
D11*
X118500000Y-107025000D03*
D10*
G36*
X118974505Y-104401204D02*
X118998773Y-104404804D01*
X119022572Y-104410765D01*
X119045671Y-104419030D01*
X119067850Y-104429520D01*
X119088893Y-104442132D01*
X119108599Y-104456747D01*
X119126777Y-104473223D01*
X119143253Y-104491401D01*
X119157868Y-104511107D01*
X119170480Y-104532150D01*
X119180970Y-104554329D01*
X119189235Y-104577428D01*
X119195196Y-104601227D01*
X119198796Y-104625495D01*
X119200000Y-104649999D01*
X119200000Y-105300001D01*
X119198796Y-105324505D01*
X119195196Y-105348773D01*
X119189235Y-105372572D01*
X119180970Y-105395671D01*
X119170480Y-105417850D01*
X119157868Y-105438893D01*
X119143253Y-105458599D01*
X119126777Y-105476777D01*
X119108599Y-105493253D01*
X119088893Y-105507868D01*
X119067850Y-105520480D01*
X119045671Y-105530970D01*
X119022572Y-105539235D01*
X118998773Y-105545196D01*
X118974505Y-105548796D01*
X118950001Y-105550000D01*
X118049999Y-105550000D01*
X118025495Y-105548796D01*
X118001227Y-105545196D01*
X117977428Y-105539235D01*
X117954329Y-105530970D01*
X117932150Y-105520480D01*
X117911107Y-105507868D01*
X117891401Y-105493253D01*
X117873223Y-105476777D01*
X117856747Y-105458599D01*
X117842132Y-105438893D01*
X117829520Y-105417850D01*
X117819030Y-105395671D01*
X117810765Y-105372572D01*
X117804804Y-105348773D01*
X117801204Y-105324505D01*
X117800000Y-105300001D01*
X117800000Y-104649999D01*
X117801204Y-104625495D01*
X117804804Y-104601227D01*
X117810765Y-104577428D01*
X117819030Y-104554329D01*
X117829520Y-104532150D01*
X117842132Y-104511107D01*
X117856747Y-104491401D01*
X117873223Y-104473223D01*
X117891401Y-104456747D01*
X117911107Y-104442132D01*
X117932150Y-104429520D01*
X117954329Y-104419030D01*
X117977428Y-104410765D01*
X118001227Y-104404804D01*
X118025495Y-104401204D01*
X118049999Y-104400000D01*
X118950001Y-104400000D01*
X118974505Y-104401204D01*
X118974505Y-104401204D01*
G37*
D11*
X118500000Y-104975000D03*
G04 #@! TD*
D10*
G04 #@! TO.C,C3*
G36*
X132824505Y-102801204D02*
X132848773Y-102804804D01*
X132872572Y-102810765D01*
X132895671Y-102819030D01*
X132917850Y-102829520D01*
X132938893Y-102842132D01*
X132958599Y-102856747D01*
X132976777Y-102873223D01*
X132993253Y-102891401D01*
X133007868Y-102911107D01*
X133020480Y-102932150D01*
X133030970Y-102954329D01*
X133039235Y-102977428D01*
X133045196Y-103001227D01*
X133048796Y-103025495D01*
X133050000Y-103049999D01*
X133050000Y-103950001D01*
X133048796Y-103974505D01*
X133045196Y-103998773D01*
X133039235Y-104022572D01*
X133030970Y-104045671D01*
X133020480Y-104067850D01*
X133007868Y-104088893D01*
X132993253Y-104108599D01*
X132976777Y-104126777D01*
X132958599Y-104143253D01*
X132938893Y-104157868D01*
X132917850Y-104170480D01*
X132895671Y-104180970D01*
X132872572Y-104189235D01*
X132848773Y-104195196D01*
X132824505Y-104198796D01*
X132800001Y-104200000D01*
X132149999Y-104200000D01*
X132125495Y-104198796D01*
X132101227Y-104195196D01*
X132077428Y-104189235D01*
X132054329Y-104180970D01*
X132032150Y-104170480D01*
X132011107Y-104157868D01*
X131991401Y-104143253D01*
X131973223Y-104126777D01*
X131956747Y-104108599D01*
X131942132Y-104088893D01*
X131929520Y-104067850D01*
X131919030Y-104045671D01*
X131910765Y-104022572D01*
X131904804Y-103998773D01*
X131901204Y-103974505D01*
X131900000Y-103950001D01*
X131900000Y-103049999D01*
X131901204Y-103025495D01*
X131904804Y-103001227D01*
X131910765Y-102977428D01*
X131919030Y-102954329D01*
X131929520Y-102932150D01*
X131942132Y-102911107D01*
X131956747Y-102891401D01*
X131973223Y-102873223D01*
X131991401Y-102856747D01*
X132011107Y-102842132D01*
X132032150Y-102829520D01*
X132054329Y-102819030D01*
X132077428Y-102810765D01*
X132101227Y-102804804D01*
X132125495Y-102801204D01*
X132149999Y-102800000D01*
X132800001Y-102800000D01*
X132824505Y-102801204D01*
X132824505Y-102801204D01*
G37*
D11*
X132475000Y-103500000D03*
D10*
G36*
X134874505Y-102801204D02*
X134898773Y-102804804D01*
X134922572Y-102810765D01*
X134945671Y-102819030D01*
X134967850Y-102829520D01*
X134988893Y-102842132D01*
X135008599Y-102856747D01*
X135026777Y-102873223D01*
X135043253Y-102891401D01*
X135057868Y-102911107D01*
X135070480Y-102932150D01*
X135080970Y-102954329D01*
X135089235Y-102977428D01*
X135095196Y-103001227D01*
X135098796Y-103025495D01*
X135100000Y-103049999D01*
X135100000Y-103950001D01*
X135098796Y-103974505D01*
X135095196Y-103998773D01*
X135089235Y-104022572D01*
X135080970Y-104045671D01*
X135070480Y-104067850D01*
X135057868Y-104088893D01*
X135043253Y-104108599D01*
X135026777Y-104126777D01*
X135008599Y-104143253D01*
X134988893Y-104157868D01*
X134967850Y-104170480D01*
X134945671Y-104180970D01*
X134922572Y-104189235D01*
X134898773Y-104195196D01*
X134874505Y-104198796D01*
X134850001Y-104200000D01*
X134199999Y-104200000D01*
X134175495Y-104198796D01*
X134151227Y-104195196D01*
X134127428Y-104189235D01*
X134104329Y-104180970D01*
X134082150Y-104170480D01*
X134061107Y-104157868D01*
X134041401Y-104143253D01*
X134023223Y-104126777D01*
X134006747Y-104108599D01*
X133992132Y-104088893D01*
X133979520Y-104067850D01*
X133969030Y-104045671D01*
X133960765Y-104022572D01*
X133954804Y-103998773D01*
X133951204Y-103974505D01*
X133950000Y-103950001D01*
X133950000Y-103049999D01*
X133951204Y-103025495D01*
X133954804Y-103001227D01*
X133960765Y-102977428D01*
X133969030Y-102954329D01*
X133979520Y-102932150D01*
X133992132Y-102911107D01*
X134006747Y-102891401D01*
X134023223Y-102873223D01*
X134041401Y-102856747D01*
X134061107Y-102842132D01*
X134082150Y-102829520D01*
X134104329Y-102819030D01*
X134127428Y-102810765D01*
X134151227Y-102804804D01*
X134175495Y-102801204D01*
X134199999Y-102800000D01*
X134850001Y-102800000D01*
X134874505Y-102801204D01*
X134874505Y-102801204D01*
G37*
D11*
X134525000Y-103500000D03*
G04 #@! TD*
D10*
G04 #@! TO.C,C4*
G36*
X129824505Y-112301204D02*
X129848773Y-112304804D01*
X129872572Y-112310765D01*
X129895671Y-112319030D01*
X129917850Y-112329520D01*
X129938893Y-112342132D01*
X129958599Y-112356747D01*
X129976777Y-112373223D01*
X129993253Y-112391401D01*
X130007868Y-112411107D01*
X130020480Y-112432150D01*
X130030970Y-112454329D01*
X130039235Y-112477428D01*
X130045196Y-112501227D01*
X130048796Y-112525495D01*
X130050000Y-112549999D01*
X130050000Y-113450001D01*
X130048796Y-113474505D01*
X130045196Y-113498773D01*
X130039235Y-113522572D01*
X130030970Y-113545671D01*
X130020480Y-113567850D01*
X130007868Y-113588893D01*
X129993253Y-113608599D01*
X129976777Y-113626777D01*
X129958599Y-113643253D01*
X129938893Y-113657868D01*
X129917850Y-113670480D01*
X129895671Y-113680970D01*
X129872572Y-113689235D01*
X129848773Y-113695196D01*
X129824505Y-113698796D01*
X129800001Y-113700000D01*
X129149999Y-113700000D01*
X129125495Y-113698796D01*
X129101227Y-113695196D01*
X129077428Y-113689235D01*
X129054329Y-113680970D01*
X129032150Y-113670480D01*
X129011107Y-113657868D01*
X128991401Y-113643253D01*
X128973223Y-113626777D01*
X128956747Y-113608599D01*
X128942132Y-113588893D01*
X128929520Y-113567850D01*
X128919030Y-113545671D01*
X128910765Y-113522572D01*
X128904804Y-113498773D01*
X128901204Y-113474505D01*
X128900000Y-113450001D01*
X128900000Y-112549999D01*
X128901204Y-112525495D01*
X128904804Y-112501227D01*
X128910765Y-112477428D01*
X128919030Y-112454329D01*
X128929520Y-112432150D01*
X128942132Y-112411107D01*
X128956747Y-112391401D01*
X128973223Y-112373223D01*
X128991401Y-112356747D01*
X129011107Y-112342132D01*
X129032150Y-112329520D01*
X129054329Y-112319030D01*
X129077428Y-112310765D01*
X129101227Y-112304804D01*
X129125495Y-112301204D01*
X129149999Y-112300000D01*
X129800001Y-112300000D01*
X129824505Y-112301204D01*
X129824505Y-112301204D01*
G37*
D11*
X129475000Y-113000000D03*
D10*
G36*
X131874505Y-112301204D02*
X131898773Y-112304804D01*
X131922572Y-112310765D01*
X131945671Y-112319030D01*
X131967850Y-112329520D01*
X131988893Y-112342132D01*
X132008599Y-112356747D01*
X132026777Y-112373223D01*
X132043253Y-112391401D01*
X132057868Y-112411107D01*
X132070480Y-112432150D01*
X132080970Y-112454329D01*
X132089235Y-112477428D01*
X132095196Y-112501227D01*
X132098796Y-112525495D01*
X132100000Y-112549999D01*
X132100000Y-113450001D01*
X132098796Y-113474505D01*
X132095196Y-113498773D01*
X132089235Y-113522572D01*
X132080970Y-113545671D01*
X132070480Y-113567850D01*
X132057868Y-113588893D01*
X132043253Y-113608599D01*
X132026777Y-113626777D01*
X132008599Y-113643253D01*
X131988893Y-113657868D01*
X131967850Y-113670480D01*
X131945671Y-113680970D01*
X131922572Y-113689235D01*
X131898773Y-113695196D01*
X131874505Y-113698796D01*
X131850001Y-113700000D01*
X131199999Y-113700000D01*
X131175495Y-113698796D01*
X131151227Y-113695196D01*
X131127428Y-113689235D01*
X131104329Y-113680970D01*
X131082150Y-113670480D01*
X131061107Y-113657868D01*
X131041401Y-113643253D01*
X131023223Y-113626777D01*
X131006747Y-113608599D01*
X130992132Y-113588893D01*
X130979520Y-113567850D01*
X130969030Y-113545671D01*
X130960765Y-113522572D01*
X130954804Y-113498773D01*
X130951204Y-113474505D01*
X130950000Y-113450001D01*
X130950000Y-112549999D01*
X130951204Y-112525495D01*
X130954804Y-112501227D01*
X130960765Y-112477428D01*
X130969030Y-112454329D01*
X130979520Y-112432150D01*
X130992132Y-112411107D01*
X131006747Y-112391401D01*
X131023223Y-112373223D01*
X131041401Y-112356747D01*
X131061107Y-112342132D01*
X131082150Y-112329520D01*
X131104329Y-112319030D01*
X131127428Y-112310765D01*
X131151227Y-112304804D01*
X131175495Y-112301204D01*
X131199999Y-112300000D01*
X131850001Y-112300000D01*
X131874505Y-112301204D01*
X131874505Y-112301204D01*
G37*
D11*
X131525000Y-113000000D03*
G04 #@! TD*
D10*
G04 #@! TO.C,C5*
G36*
X129824505Y-116801204D02*
X129848773Y-116804804D01*
X129872572Y-116810765D01*
X129895671Y-116819030D01*
X129917850Y-116829520D01*
X129938893Y-116842132D01*
X129958599Y-116856747D01*
X129976777Y-116873223D01*
X129993253Y-116891401D01*
X130007868Y-116911107D01*
X130020480Y-116932150D01*
X130030970Y-116954329D01*
X130039235Y-116977428D01*
X130045196Y-117001227D01*
X130048796Y-117025495D01*
X130050000Y-117049999D01*
X130050000Y-117950001D01*
X130048796Y-117974505D01*
X130045196Y-117998773D01*
X130039235Y-118022572D01*
X130030970Y-118045671D01*
X130020480Y-118067850D01*
X130007868Y-118088893D01*
X129993253Y-118108599D01*
X129976777Y-118126777D01*
X129958599Y-118143253D01*
X129938893Y-118157868D01*
X129917850Y-118170480D01*
X129895671Y-118180970D01*
X129872572Y-118189235D01*
X129848773Y-118195196D01*
X129824505Y-118198796D01*
X129800001Y-118200000D01*
X129149999Y-118200000D01*
X129125495Y-118198796D01*
X129101227Y-118195196D01*
X129077428Y-118189235D01*
X129054329Y-118180970D01*
X129032150Y-118170480D01*
X129011107Y-118157868D01*
X128991401Y-118143253D01*
X128973223Y-118126777D01*
X128956747Y-118108599D01*
X128942132Y-118088893D01*
X128929520Y-118067850D01*
X128919030Y-118045671D01*
X128910765Y-118022572D01*
X128904804Y-117998773D01*
X128901204Y-117974505D01*
X128900000Y-117950001D01*
X128900000Y-117049999D01*
X128901204Y-117025495D01*
X128904804Y-117001227D01*
X128910765Y-116977428D01*
X128919030Y-116954329D01*
X128929520Y-116932150D01*
X128942132Y-116911107D01*
X128956747Y-116891401D01*
X128973223Y-116873223D01*
X128991401Y-116856747D01*
X129011107Y-116842132D01*
X129032150Y-116829520D01*
X129054329Y-116819030D01*
X129077428Y-116810765D01*
X129101227Y-116804804D01*
X129125495Y-116801204D01*
X129149999Y-116800000D01*
X129800001Y-116800000D01*
X129824505Y-116801204D01*
X129824505Y-116801204D01*
G37*
D11*
X129475000Y-117500000D03*
D10*
G36*
X131874505Y-116801204D02*
X131898773Y-116804804D01*
X131922572Y-116810765D01*
X131945671Y-116819030D01*
X131967850Y-116829520D01*
X131988893Y-116842132D01*
X132008599Y-116856747D01*
X132026777Y-116873223D01*
X132043253Y-116891401D01*
X132057868Y-116911107D01*
X132070480Y-116932150D01*
X132080970Y-116954329D01*
X132089235Y-116977428D01*
X132095196Y-117001227D01*
X132098796Y-117025495D01*
X132100000Y-117049999D01*
X132100000Y-117950001D01*
X132098796Y-117974505D01*
X132095196Y-117998773D01*
X132089235Y-118022572D01*
X132080970Y-118045671D01*
X132070480Y-118067850D01*
X132057868Y-118088893D01*
X132043253Y-118108599D01*
X132026777Y-118126777D01*
X132008599Y-118143253D01*
X131988893Y-118157868D01*
X131967850Y-118170480D01*
X131945671Y-118180970D01*
X131922572Y-118189235D01*
X131898773Y-118195196D01*
X131874505Y-118198796D01*
X131850001Y-118200000D01*
X131199999Y-118200000D01*
X131175495Y-118198796D01*
X131151227Y-118195196D01*
X131127428Y-118189235D01*
X131104329Y-118180970D01*
X131082150Y-118170480D01*
X131061107Y-118157868D01*
X131041401Y-118143253D01*
X131023223Y-118126777D01*
X131006747Y-118108599D01*
X130992132Y-118088893D01*
X130979520Y-118067850D01*
X130969030Y-118045671D01*
X130960765Y-118022572D01*
X130954804Y-117998773D01*
X130951204Y-117974505D01*
X130950000Y-117950001D01*
X130950000Y-117049999D01*
X130951204Y-117025495D01*
X130954804Y-117001227D01*
X130960765Y-116977428D01*
X130969030Y-116954329D01*
X130979520Y-116932150D01*
X130992132Y-116911107D01*
X131006747Y-116891401D01*
X131023223Y-116873223D01*
X131041401Y-116856747D01*
X131061107Y-116842132D01*
X131082150Y-116829520D01*
X131104329Y-116819030D01*
X131127428Y-116810765D01*
X131151227Y-116804804D01*
X131175495Y-116801204D01*
X131199999Y-116800000D01*
X131850001Y-116800000D01*
X131874505Y-116801204D01*
X131874505Y-116801204D01*
G37*
D11*
X131525000Y-117500000D03*
G04 #@! TD*
D10*
G04 #@! TO.C,C6*
G36*
X134974505Y-104901204D02*
X134998773Y-104904804D01*
X135022572Y-104910765D01*
X135045671Y-104919030D01*
X135067850Y-104929520D01*
X135088893Y-104942132D01*
X135108599Y-104956747D01*
X135126777Y-104973223D01*
X135143253Y-104991401D01*
X135157868Y-105011107D01*
X135170480Y-105032150D01*
X135180970Y-105054329D01*
X135189235Y-105077428D01*
X135195196Y-105101227D01*
X135198796Y-105125495D01*
X135200000Y-105149999D01*
X135200000Y-105800001D01*
X135198796Y-105824505D01*
X135195196Y-105848773D01*
X135189235Y-105872572D01*
X135180970Y-105895671D01*
X135170480Y-105917850D01*
X135157868Y-105938893D01*
X135143253Y-105958599D01*
X135126777Y-105976777D01*
X135108599Y-105993253D01*
X135088893Y-106007868D01*
X135067850Y-106020480D01*
X135045671Y-106030970D01*
X135022572Y-106039235D01*
X134998773Y-106045196D01*
X134974505Y-106048796D01*
X134950001Y-106050000D01*
X134049999Y-106050000D01*
X134025495Y-106048796D01*
X134001227Y-106045196D01*
X133977428Y-106039235D01*
X133954329Y-106030970D01*
X133932150Y-106020480D01*
X133911107Y-106007868D01*
X133891401Y-105993253D01*
X133873223Y-105976777D01*
X133856747Y-105958599D01*
X133842132Y-105938893D01*
X133829520Y-105917850D01*
X133819030Y-105895671D01*
X133810765Y-105872572D01*
X133804804Y-105848773D01*
X133801204Y-105824505D01*
X133800000Y-105800001D01*
X133800000Y-105149999D01*
X133801204Y-105125495D01*
X133804804Y-105101227D01*
X133810765Y-105077428D01*
X133819030Y-105054329D01*
X133829520Y-105032150D01*
X133842132Y-105011107D01*
X133856747Y-104991401D01*
X133873223Y-104973223D01*
X133891401Y-104956747D01*
X133911107Y-104942132D01*
X133932150Y-104929520D01*
X133954329Y-104919030D01*
X133977428Y-104910765D01*
X134001227Y-104904804D01*
X134025495Y-104901204D01*
X134049999Y-104900000D01*
X134950001Y-104900000D01*
X134974505Y-104901204D01*
X134974505Y-104901204D01*
G37*
D11*
X134500000Y-105475000D03*
D10*
G36*
X134974505Y-106951204D02*
X134998773Y-106954804D01*
X135022572Y-106960765D01*
X135045671Y-106969030D01*
X135067850Y-106979520D01*
X135088893Y-106992132D01*
X135108599Y-107006747D01*
X135126777Y-107023223D01*
X135143253Y-107041401D01*
X135157868Y-107061107D01*
X135170480Y-107082150D01*
X135180970Y-107104329D01*
X135189235Y-107127428D01*
X135195196Y-107151227D01*
X135198796Y-107175495D01*
X135200000Y-107199999D01*
X135200000Y-107850001D01*
X135198796Y-107874505D01*
X135195196Y-107898773D01*
X135189235Y-107922572D01*
X135180970Y-107945671D01*
X135170480Y-107967850D01*
X135157868Y-107988893D01*
X135143253Y-108008599D01*
X135126777Y-108026777D01*
X135108599Y-108043253D01*
X135088893Y-108057868D01*
X135067850Y-108070480D01*
X135045671Y-108080970D01*
X135022572Y-108089235D01*
X134998773Y-108095196D01*
X134974505Y-108098796D01*
X134950001Y-108100000D01*
X134049999Y-108100000D01*
X134025495Y-108098796D01*
X134001227Y-108095196D01*
X133977428Y-108089235D01*
X133954329Y-108080970D01*
X133932150Y-108070480D01*
X133911107Y-108057868D01*
X133891401Y-108043253D01*
X133873223Y-108026777D01*
X133856747Y-108008599D01*
X133842132Y-107988893D01*
X133829520Y-107967850D01*
X133819030Y-107945671D01*
X133810765Y-107922572D01*
X133804804Y-107898773D01*
X133801204Y-107874505D01*
X133800000Y-107850001D01*
X133800000Y-107199999D01*
X133801204Y-107175495D01*
X133804804Y-107151227D01*
X133810765Y-107127428D01*
X133819030Y-107104329D01*
X133829520Y-107082150D01*
X133842132Y-107061107D01*
X133856747Y-107041401D01*
X133873223Y-107023223D01*
X133891401Y-107006747D01*
X133911107Y-106992132D01*
X133932150Y-106979520D01*
X133954329Y-106969030D01*
X133977428Y-106960765D01*
X134001227Y-106954804D01*
X134025495Y-106951204D01*
X134049999Y-106950000D01*
X134950001Y-106950000D01*
X134974505Y-106951204D01*
X134974505Y-106951204D01*
G37*
D11*
X134500000Y-107525000D03*
G04 #@! TD*
D10*
G04 #@! TO.C,C28*
G36*
X99324505Y-102301204D02*
X99348773Y-102304804D01*
X99372572Y-102310765D01*
X99395671Y-102319030D01*
X99417850Y-102329520D01*
X99438893Y-102342132D01*
X99458599Y-102356747D01*
X99476777Y-102373223D01*
X99493253Y-102391401D01*
X99507868Y-102411107D01*
X99520480Y-102432150D01*
X99530970Y-102454329D01*
X99539235Y-102477428D01*
X99545196Y-102501227D01*
X99548796Y-102525495D01*
X99550000Y-102549999D01*
X99550000Y-103450001D01*
X99548796Y-103474505D01*
X99545196Y-103498773D01*
X99539235Y-103522572D01*
X99530970Y-103545671D01*
X99520480Y-103567850D01*
X99507868Y-103588893D01*
X99493253Y-103608599D01*
X99476777Y-103626777D01*
X99458599Y-103643253D01*
X99438893Y-103657868D01*
X99417850Y-103670480D01*
X99395671Y-103680970D01*
X99372572Y-103689235D01*
X99348773Y-103695196D01*
X99324505Y-103698796D01*
X99300001Y-103700000D01*
X98649999Y-103700000D01*
X98625495Y-103698796D01*
X98601227Y-103695196D01*
X98577428Y-103689235D01*
X98554329Y-103680970D01*
X98532150Y-103670480D01*
X98511107Y-103657868D01*
X98491401Y-103643253D01*
X98473223Y-103626777D01*
X98456747Y-103608599D01*
X98442132Y-103588893D01*
X98429520Y-103567850D01*
X98419030Y-103545671D01*
X98410765Y-103522572D01*
X98404804Y-103498773D01*
X98401204Y-103474505D01*
X98400000Y-103450001D01*
X98400000Y-102549999D01*
X98401204Y-102525495D01*
X98404804Y-102501227D01*
X98410765Y-102477428D01*
X98419030Y-102454329D01*
X98429520Y-102432150D01*
X98442132Y-102411107D01*
X98456747Y-102391401D01*
X98473223Y-102373223D01*
X98491401Y-102356747D01*
X98511107Y-102342132D01*
X98532150Y-102329520D01*
X98554329Y-102319030D01*
X98577428Y-102310765D01*
X98601227Y-102304804D01*
X98625495Y-102301204D01*
X98649999Y-102300000D01*
X99300001Y-102300000D01*
X99324505Y-102301204D01*
X99324505Y-102301204D01*
G37*
D11*
X98975000Y-103000000D03*
D10*
G36*
X101374505Y-102301204D02*
X101398773Y-102304804D01*
X101422572Y-102310765D01*
X101445671Y-102319030D01*
X101467850Y-102329520D01*
X101488893Y-102342132D01*
X101508599Y-102356747D01*
X101526777Y-102373223D01*
X101543253Y-102391401D01*
X101557868Y-102411107D01*
X101570480Y-102432150D01*
X101580970Y-102454329D01*
X101589235Y-102477428D01*
X101595196Y-102501227D01*
X101598796Y-102525495D01*
X101600000Y-102549999D01*
X101600000Y-103450001D01*
X101598796Y-103474505D01*
X101595196Y-103498773D01*
X101589235Y-103522572D01*
X101580970Y-103545671D01*
X101570480Y-103567850D01*
X101557868Y-103588893D01*
X101543253Y-103608599D01*
X101526777Y-103626777D01*
X101508599Y-103643253D01*
X101488893Y-103657868D01*
X101467850Y-103670480D01*
X101445671Y-103680970D01*
X101422572Y-103689235D01*
X101398773Y-103695196D01*
X101374505Y-103698796D01*
X101350001Y-103700000D01*
X100699999Y-103700000D01*
X100675495Y-103698796D01*
X100651227Y-103695196D01*
X100627428Y-103689235D01*
X100604329Y-103680970D01*
X100582150Y-103670480D01*
X100561107Y-103657868D01*
X100541401Y-103643253D01*
X100523223Y-103626777D01*
X100506747Y-103608599D01*
X100492132Y-103588893D01*
X100479520Y-103567850D01*
X100469030Y-103545671D01*
X100460765Y-103522572D01*
X100454804Y-103498773D01*
X100451204Y-103474505D01*
X100450000Y-103450001D01*
X100450000Y-102549999D01*
X100451204Y-102525495D01*
X100454804Y-102501227D01*
X100460765Y-102477428D01*
X100469030Y-102454329D01*
X100479520Y-102432150D01*
X100492132Y-102411107D01*
X100506747Y-102391401D01*
X100523223Y-102373223D01*
X100541401Y-102356747D01*
X100561107Y-102342132D01*
X100582150Y-102329520D01*
X100604329Y-102319030D01*
X100627428Y-102310765D01*
X100651227Y-102304804D01*
X100675495Y-102301204D01*
X100699999Y-102300000D01*
X101350001Y-102300000D01*
X101374505Y-102301204D01*
X101374505Y-102301204D01*
G37*
D11*
X101025000Y-103000000D03*
G04 #@! TD*
D10*
G04 #@! TO.C,C29*
G36*
X105974505Y-111451204D02*
X105998773Y-111454804D01*
X106022572Y-111460765D01*
X106045671Y-111469030D01*
X106067850Y-111479520D01*
X106088893Y-111492132D01*
X106108599Y-111506747D01*
X106126777Y-111523223D01*
X106143253Y-111541401D01*
X106157868Y-111561107D01*
X106170480Y-111582150D01*
X106180970Y-111604329D01*
X106189235Y-111627428D01*
X106195196Y-111651227D01*
X106198796Y-111675495D01*
X106200000Y-111699999D01*
X106200000Y-112350001D01*
X106198796Y-112374505D01*
X106195196Y-112398773D01*
X106189235Y-112422572D01*
X106180970Y-112445671D01*
X106170480Y-112467850D01*
X106157868Y-112488893D01*
X106143253Y-112508599D01*
X106126777Y-112526777D01*
X106108599Y-112543253D01*
X106088893Y-112557868D01*
X106067850Y-112570480D01*
X106045671Y-112580970D01*
X106022572Y-112589235D01*
X105998773Y-112595196D01*
X105974505Y-112598796D01*
X105950001Y-112600000D01*
X105049999Y-112600000D01*
X105025495Y-112598796D01*
X105001227Y-112595196D01*
X104977428Y-112589235D01*
X104954329Y-112580970D01*
X104932150Y-112570480D01*
X104911107Y-112557868D01*
X104891401Y-112543253D01*
X104873223Y-112526777D01*
X104856747Y-112508599D01*
X104842132Y-112488893D01*
X104829520Y-112467850D01*
X104819030Y-112445671D01*
X104810765Y-112422572D01*
X104804804Y-112398773D01*
X104801204Y-112374505D01*
X104800000Y-112350001D01*
X104800000Y-111699999D01*
X104801204Y-111675495D01*
X104804804Y-111651227D01*
X104810765Y-111627428D01*
X104819030Y-111604329D01*
X104829520Y-111582150D01*
X104842132Y-111561107D01*
X104856747Y-111541401D01*
X104873223Y-111523223D01*
X104891401Y-111506747D01*
X104911107Y-111492132D01*
X104932150Y-111479520D01*
X104954329Y-111469030D01*
X104977428Y-111460765D01*
X105001227Y-111454804D01*
X105025495Y-111451204D01*
X105049999Y-111450000D01*
X105950001Y-111450000D01*
X105974505Y-111451204D01*
X105974505Y-111451204D01*
G37*
D11*
X105500000Y-112025000D03*
D10*
G36*
X105974505Y-109401204D02*
X105998773Y-109404804D01*
X106022572Y-109410765D01*
X106045671Y-109419030D01*
X106067850Y-109429520D01*
X106088893Y-109442132D01*
X106108599Y-109456747D01*
X106126777Y-109473223D01*
X106143253Y-109491401D01*
X106157868Y-109511107D01*
X106170480Y-109532150D01*
X106180970Y-109554329D01*
X106189235Y-109577428D01*
X106195196Y-109601227D01*
X106198796Y-109625495D01*
X106200000Y-109649999D01*
X106200000Y-110300001D01*
X106198796Y-110324505D01*
X106195196Y-110348773D01*
X106189235Y-110372572D01*
X106180970Y-110395671D01*
X106170480Y-110417850D01*
X106157868Y-110438893D01*
X106143253Y-110458599D01*
X106126777Y-110476777D01*
X106108599Y-110493253D01*
X106088893Y-110507868D01*
X106067850Y-110520480D01*
X106045671Y-110530970D01*
X106022572Y-110539235D01*
X105998773Y-110545196D01*
X105974505Y-110548796D01*
X105950001Y-110550000D01*
X105049999Y-110550000D01*
X105025495Y-110548796D01*
X105001227Y-110545196D01*
X104977428Y-110539235D01*
X104954329Y-110530970D01*
X104932150Y-110520480D01*
X104911107Y-110507868D01*
X104891401Y-110493253D01*
X104873223Y-110476777D01*
X104856747Y-110458599D01*
X104842132Y-110438893D01*
X104829520Y-110417850D01*
X104819030Y-110395671D01*
X104810765Y-110372572D01*
X104804804Y-110348773D01*
X104801204Y-110324505D01*
X104800000Y-110300001D01*
X104800000Y-109649999D01*
X104801204Y-109625495D01*
X104804804Y-109601227D01*
X104810765Y-109577428D01*
X104819030Y-109554329D01*
X104829520Y-109532150D01*
X104842132Y-109511107D01*
X104856747Y-109491401D01*
X104873223Y-109473223D01*
X104891401Y-109456747D01*
X104911107Y-109442132D01*
X104932150Y-109429520D01*
X104954329Y-109419030D01*
X104977428Y-109410765D01*
X105001227Y-109404804D01*
X105025495Y-109401204D01*
X105049999Y-109400000D01*
X105950001Y-109400000D01*
X105974505Y-109401204D01*
X105974505Y-109401204D01*
G37*
D11*
X105500000Y-109975000D03*
G04 #@! TD*
D10*
G04 #@! TO.C,C30*
G36*
X105974505Y-103401204D02*
X105998773Y-103404804D01*
X106022572Y-103410765D01*
X106045671Y-103419030D01*
X106067850Y-103429520D01*
X106088893Y-103442132D01*
X106108599Y-103456747D01*
X106126777Y-103473223D01*
X106143253Y-103491401D01*
X106157868Y-103511107D01*
X106170480Y-103532150D01*
X106180970Y-103554329D01*
X106189235Y-103577428D01*
X106195196Y-103601227D01*
X106198796Y-103625495D01*
X106200000Y-103649999D01*
X106200000Y-104300001D01*
X106198796Y-104324505D01*
X106195196Y-104348773D01*
X106189235Y-104372572D01*
X106180970Y-104395671D01*
X106170480Y-104417850D01*
X106157868Y-104438893D01*
X106143253Y-104458599D01*
X106126777Y-104476777D01*
X106108599Y-104493253D01*
X106088893Y-104507868D01*
X106067850Y-104520480D01*
X106045671Y-104530970D01*
X106022572Y-104539235D01*
X105998773Y-104545196D01*
X105974505Y-104548796D01*
X105950001Y-104550000D01*
X105049999Y-104550000D01*
X105025495Y-104548796D01*
X105001227Y-104545196D01*
X104977428Y-104539235D01*
X104954329Y-104530970D01*
X104932150Y-104520480D01*
X104911107Y-104507868D01*
X104891401Y-104493253D01*
X104873223Y-104476777D01*
X104856747Y-104458599D01*
X104842132Y-104438893D01*
X104829520Y-104417850D01*
X104819030Y-104395671D01*
X104810765Y-104372572D01*
X104804804Y-104348773D01*
X104801204Y-104324505D01*
X104800000Y-104300001D01*
X104800000Y-103649999D01*
X104801204Y-103625495D01*
X104804804Y-103601227D01*
X104810765Y-103577428D01*
X104819030Y-103554329D01*
X104829520Y-103532150D01*
X104842132Y-103511107D01*
X104856747Y-103491401D01*
X104873223Y-103473223D01*
X104891401Y-103456747D01*
X104911107Y-103442132D01*
X104932150Y-103429520D01*
X104954329Y-103419030D01*
X104977428Y-103410765D01*
X105001227Y-103404804D01*
X105025495Y-103401204D01*
X105049999Y-103400000D01*
X105950001Y-103400000D01*
X105974505Y-103401204D01*
X105974505Y-103401204D01*
G37*
D11*
X105500000Y-103975000D03*
D10*
G36*
X105974505Y-105451204D02*
X105998773Y-105454804D01*
X106022572Y-105460765D01*
X106045671Y-105469030D01*
X106067850Y-105479520D01*
X106088893Y-105492132D01*
X106108599Y-105506747D01*
X106126777Y-105523223D01*
X106143253Y-105541401D01*
X106157868Y-105561107D01*
X106170480Y-105582150D01*
X106180970Y-105604329D01*
X106189235Y-105627428D01*
X106195196Y-105651227D01*
X106198796Y-105675495D01*
X106200000Y-105699999D01*
X106200000Y-106350001D01*
X106198796Y-106374505D01*
X106195196Y-106398773D01*
X106189235Y-106422572D01*
X106180970Y-106445671D01*
X106170480Y-106467850D01*
X106157868Y-106488893D01*
X106143253Y-106508599D01*
X106126777Y-106526777D01*
X106108599Y-106543253D01*
X106088893Y-106557868D01*
X106067850Y-106570480D01*
X106045671Y-106580970D01*
X106022572Y-106589235D01*
X105998773Y-106595196D01*
X105974505Y-106598796D01*
X105950001Y-106600000D01*
X105049999Y-106600000D01*
X105025495Y-106598796D01*
X105001227Y-106595196D01*
X104977428Y-106589235D01*
X104954329Y-106580970D01*
X104932150Y-106570480D01*
X104911107Y-106557868D01*
X104891401Y-106543253D01*
X104873223Y-106526777D01*
X104856747Y-106508599D01*
X104842132Y-106488893D01*
X104829520Y-106467850D01*
X104819030Y-106445671D01*
X104810765Y-106422572D01*
X104804804Y-106398773D01*
X104801204Y-106374505D01*
X104800000Y-106350001D01*
X104800000Y-105699999D01*
X104801204Y-105675495D01*
X104804804Y-105651227D01*
X104810765Y-105627428D01*
X104819030Y-105604329D01*
X104829520Y-105582150D01*
X104842132Y-105561107D01*
X104856747Y-105541401D01*
X104873223Y-105523223D01*
X104891401Y-105506747D01*
X104911107Y-105492132D01*
X104932150Y-105479520D01*
X104954329Y-105469030D01*
X104977428Y-105460765D01*
X105001227Y-105454804D01*
X105025495Y-105451204D01*
X105049999Y-105450000D01*
X105950001Y-105450000D01*
X105974505Y-105451204D01*
X105974505Y-105451204D01*
G37*
D11*
X105500000Y-106025000D03*
G04 #@! TD*
D10*
G04 #@! TO.C,C31*
G36*
X137824505Y-98801204D02*
X137848773Y-98804804D01*
X137872572Y-98810765D01*
X137895671Y-98819030D01*
X137917850Y-98829520D01*
X137938893Y-98842132D01*
X137958599Y-98856747D01*
X137976777Y-98873223D01*
X137993253Y-98891401D01*
X138007868Y-98911107D01*
X138020480Y-98932150D01*
X138030970Y-98954329D01*
X138039235Y-98977428D01*
X138045196Y-99001227D01*
X138048796Y-99025495D01*
X138050000Y-99049999D01*
X138050000Y-99950001D01*
X138048796Y-99974505D01*
X138045196Y-99998773D01*
X138039235Y-100022572D01*
X138030970Y-100045671D01*
X138020480Y-100067850D01*
X138007868Y-100088893D01*
X137993253Y-100108599D01*
X137976777Y-100126777D01*
X137958599Y-100143253D01*
X137938893Y-100157868D01*
X137917850Y-100170480D01*
X137895671Y-100180970D01*
X137872572Y-100189235D01*
X137848773Y-100195196D01*
X137824505Y-100198796D01*
X137800001Y-100200000D01*
X137149999Y-100200000D01*
X137125495Y-100198796D01*
X137101227Y-100195196D01*
X137077428Y-100189235D01*
X137054329Y-100180970D01*
X137032150Y-100170480D01*
X137011107Y-100157868D01*
X136991401Y-100143253D01*
X136973223Y-100126777D01*
X136956747Y-100108599D01*
X136942132Y-100088893D01*
X136929520Y-100067850D01*
X136919030Y-100045671D01*
X136910765Y-100022572D01*
X136904804Y-99998773D01*
X136901204Y-99974505D01*
X136900000Y-99950001D01*
X136900000Y-99049999D01*
X136901204Y-99025495D01*
X136904804Y-99001227D01*
X136910765Y-98977428D01*
X136919030Y-98954329D01*
X136929520Y-98932150D01*
X136942132Y-98911107D01*
X136956747Y-98891401D01*
X136973223Y-98873223D01*
X136991401Y-98856747D01*
X137011107Y-98842132D01*
X137032150Y-98829520D01*
X137054329Y-98819030D01*
X137077428Y-98810765D01*
X137101227Y-98804804D01*
X137125495Y-98801204D01*
X137149999Y-98800000D01*
X137800001Y-98800000D01*
X137824505Y-98801204D01*
X137824505Y-98801204D01*
G37*
D11*
X137475000Y-99500000D03*
D10*
G36*
X139874505Y-98801204D02*
X139898773Y-98804804D01*
X139922572Y-98810765D01*
X139945671Y-98819030D01*
X139967850Y-98829520D01*
X139988893Y-98842132D01*
X140008599Y-98856747D01*
X140026777Y-98873223D01*
X140043253Y-98891401D01*
X140057868Y-98911107D01*
X140070480Y-98932150D01*
X140080970Y-98954329D01*
X140089235Y-98977428D01*
X140095196Y-99001227D01*
X140098796Y-99025495D01*
X140100000Y-99049999D01*
X140100000Y-99950001D01*
X140098796Y-99974505D01*
X140095196Y-99998773D01*
X140089235Y-100022572D01*
X140080970Y-100045671D01*
X140070480Y-100067850D01*
X140057868Y-100088893D01*
X140043253Y-100108599D01*
X140026777Y-100126777D01*
X140008599Y-100143253D01*
X139988893Y-100157868D01*
X139967850Y-100170480D01*
X139945671Y-100180970D01*
X139922572Y-100189235D01*
X139898773Y-100195196D01*
X139874505Y-100198796D01*
X139850001Y-100200000D01*
X139199999Y-100200000D01*
X139175495Y-100198796D01*
X139151227Y-100195196D01*
X139127428Y-100189235D01*
X139104329Y-100180970D01*
X139082150Y-100170480D01*
X139061107Y-100157868D01*
X139041401Y-100143253D01*
X139023223Y-100126777D01*
X139006747Y-100108599D01*
X138992132Y-100088893D01*
X138979520Y-100067850D01*
X138969030Y-100045671D01*
X138960765Y-100022572D01*
X138954804Y-99998773D01*
X138951204Y-99974505D01*
X138950000Y-99950001D01*
X138950000Y-99049999D01*
X138951204Y-99025495D01*
X138954804Y-99001227D01*
X138960765Y-98977428D01*
X138969030Y-98954329D01*
X138979520Y-98932150D01*
X138992132Y-98911107D01*
X139006747Y-98891401D01*
X139023223Y-98873223D01*
X139041401Y-98856747D01*
X139061107Y-98842132D01*
X139082150Y-98829520D01*
X139104329Y-98819030D01*
X139127428Y-98810765D01*
X139151227Y-98804804D01*
X139175495Y-98801204D01*
X139199999Y-98800000D01*
X139850001Y-98800000D01*
X139874505Y-98801204D01*
X139874505Y-98801204D01*
G37*
D11*
X139525000Y-99500000D03*
G04 #@! TD*
D10*
G04 #@! TO.C,C32*
G36*
X107974505Y-111451204D02*
X107998773Y-111454804D01*
X108022572Y-111460765D01*
X108045671Y-111469030D01*
X108067850Y-111479520D01*
X108088893Y-111492132D01*
X108108599Y-111506747D01*
X108126777Y-111523223D01*
X108143253Y-111541401D01*
X108157868Y-111561107D01*
X108170480Y-111582150D01*
X108180970Y-111604329D01*
X108189235Y-111627428D01*
X108195196Y-111651227D01*
X108198796Y-111675495D01*
X108200000Y-111699999D01*
X108200000Y-112350001D01*
X108198796Y-112374505D01*
X108195196Y-112398773D01*
X108189235Y-112422572D01*
X108180970Y-112445671D01*
X108170480Y-112467850D01*
X108157868Y-112488893D01*
X108143253Y-112508599D01*
X108126777Y-112526777D01*
X108108599Y-112543253D01*
X108088893Y-112557868D01*
X108067850Y-112570480D01*
X108045671Y-112580970D01*
X108022572Y-112589235D01*
X107998773Y-112595196D01*
X107974505Y-112598796D01*
X107950001Y-112600000D01*
X107049999Y-112600000D01*
X107025495Y-112598796D01*
X107001227Y-112595196D01*
X106977428Y-112589235D01*
X106954329Y-112580970D01*
X106932150Y-112570480D01*
X106911107Y-112557868D01*
X106891401Y-112543253D01*
X106873223Y-112526777D01*
X106856747Y-112508599D01*
X106842132Y-112488893D01*
X106829520Y-112467850D01*
X106819030Y-112445671D01*
X106810765Y-112422572D01*
X106804804Y-112398773D01*
X106801204Y-112374505D01*
X106800000Y-112350001D01*
X106800000Y-111699999D01*
X106801204Y-111675495D01*
X106804804Y-111651227D01*
X106810765Y-111627428D01*
X106819030Y-111604329D01*
X106829520Y-111582150D01*
X106842132Y-111561107D01*
X106856747Y-111541401D01*
X106873223Y-111523223D01*
X106891401Y-111506747D01*
X106911107Y-111492132D01*
X106932150Y-111479520D01*
X106954329Y-111469030D01*
X106977428Y-111460765D01*
X107001227Y-111454804D01*
X107025495Y-111451204D01*
X107049999Y-111450000D01*
X107950001Y-111450000D01*
X107974505Y-111451204D01*
X107974505Y-111451204D01*
G37*
D11*
X107500000Y-112025000D03*
D10*
G36*
X107974505Y-109401204D02*
X107998773Y-109404804D01*
X108022572Y-109410765D01*
X108045671Y-109419030D01*
X108067850Y-109429520D01*
X108088893Y-109442132D01*
X108108599Y-109456747D01*
X108126777Y-109473223D01*
X108143253Y-109491401D01*
X108157868Y-109511107D01*
X108170480Y-109532150D01*
X108180970Y-109554329D01*
X108189235Y-109577428D01*
X108195196Y-109601227D01*
X108198796Y-109625495D01*
X108200000Y-109649999D01*
X108200000Y-110300001D01*
X108198796Y-110324505D01*
X108195196Y-110348773D01*
X108189235Y-110372572D01*
X108180970Y-110395671D01*
X108170480Y-110417850D01*
X108157868Y-110438893D01*
X108143253Y-110458599D01*
X108126777Y-110476777D01*
X108108599Y-110493253D01*
X108088893Y-110507868D01*
X108067850Y-110520480D01*
X108045671Y-110530970D01*
X108022572Y-110539235D01*
X107998773Y-110545196D01*
X107974505Y-110548796D01*
X107950001Y-110550000D01*
X107049999Y-110550000D01*
X107025495Y-110548796D01*
X107001227Y-110545196D01*
X106977428Y-110539235D01*
X106954329Y-110530970D01*
X106932150Y-110520480D01*
X106911107Y-110507868D01*
X106891401Y-110493253D01*
X106873223Y-110476777D01*
X106856747Y-110458599D01*
X106842132Y-110438893D01*
X106829520Y-110417850D01*
X106819030Y-110395671D01*
X106810765Y-110372572D01*
X106804804Y-110348773D01*
X106801204Y-110324505D01*
X106800000Y-110300001D01*
X106800000Y-109649999D01*
X106801204Y-109625495D01*
X106804804Y-109601227D01*
X106810765Y-109577428D01*
X106819030Y-109554329D01*
X106829520Y-109532150D01*
X106842132Y-109511107D01*
X106856747Y-109491401D01*
X106873223Y-109473223D01*
X106891401Y-109456747D01*
X106911107Y-109442132D01*
X106932150Y-109429520D01*
X106954329Y-109419030D01*
X106977428Y-109410765D01*
X107001227Y-109404804D01*
X107025495Y-109401204D01*
X107049999Y-109400000D01*
X107950001Y-109400000D01*
X107974505Y-109401204D01*
X107974505Y-109401204D01*
G37*
D11*
X107500000Y-109975000D03*
G04 #@! TD*
D10*
G04 #@! TO.C,C33*
G36*
X107974505Y-105451204D02*
X107998773Y-105454804D01*
X108022572Y-105460765D01*
X108045671Y-105469030D01*
X108067850Y-105479520D01*
X108088893Y-105492132D01*
X108108599Y-105506747D01*
X108126777Y-105523223D01*
X108143253Y-105541401D01*
X108157868Y-105561107D01*
X108170480Y-105582150D01*
X108180970Y-105604329D01*
X108189235Y-105627428D01*
X108195196Y-105651227D01*
X108198796Y-105675495D01*
X108200000Y-105699999D01*
X108200000Y-106350001D01*
X108198796Y-106374505D01*
X108195196Y-106398773D01*
X108189235Y-106422572D01*
X108180970Y-106445671D01*
X108170480Y-106467850D01*
X108157868Y-106488893D01*
X108143253Y-106508599D01*
X108126777Y-106526777D01*
X108108599Y-106543253D01*
X108088893Y-106557868D01*
X108067850Y-106570480D01*
X108045671Y-106580970D01*
X108022572Y-106589235D01*
X107998773Y-106595196D01*
X107974505Y-106598796D01*
X107950001Y-106600000D01*
X107049999Y-106600000D01*
X107025495Y-106598796D01*
X107001227Y-106595196D01*
X106977428Y-106589235D01*
X106954329Y-106580970D01*
X106932150Y-106570480D01*
X106911107Y-106557868D01*
X106891401Y-106543253D01*
X106873223Y-106526777D01*
X106856747Y-106508599D01*
X106842132Y-106488893D01*
X106829520Y-106467850D01*
X106819030Y-106445671D01*
X106810765Y-106422572D01*
X106804804Y-106398773D01*
X106801204Y-106374505D01*
X106800000Y-106350001D01*
X106800000Y-105699999D01*
X106801204Y-105675495D01*
X106804804Y-105651227D01*
X106810765Y-105627428D01*
X106819030Y-105604329D01*
X106829520Y-105582150D01*
X106842132Y-105561107D01*
X106856747Y-105541401D01*
X106873223Y-105523223D01*
X106891401Y-105506747D01*
X106911107Y-105492132D01*
X106932150Y-105479520D01*
X106954329Y-105469030D01*
X106977428Y-105460765D01*
X107001227Y-105454804D01*
X107025495Y-105451204D01*
X107049999Y-105450000D01*
X107950001Y-105450000D01*
X107974505Y-105451204D01*
X107974505Y-105451204D01*
G37*
D11*
X107500000Y-106025000D03*
D10*
G36*
X107974505Y-103401204D02*
X107998773Y-103404804D01*
X108022572Y-103410765D01*
X108045671Y-103419030D01*
X108067850Y-103429520D01*
X108088893Y-103442132D01*
X108108599Y-103456747D01*
X108126777Y-103473223D01*
X108143253Y-103491401D01*
X108157868Y-103511107D01*
X108170480Y-103532150D01*
X108180970Y-103554329D01*
X108189235Y-103577428D01*
X108195196Y-103601227D01*
X108198796Y-103625495D01*
X108200000Y-103649999D01*
X108200000Y-104300001D01*
X108198796Y-104324505D01*
X108195196Y-104348773D01*
X108189235Y-104372572D01*
X108180970Y-104395671D01*
X108170480Y-104417850D01*
X108157868Y-104438893D01*
X108143253Y-104458599D01*
X108126777Y-104476777D01*
X108108599Y-104493253D01*
X108088893Y-104507868D01*
X108067850Y-104520480D01*
X108045671Y-104530970D01*
X108022572Y-104539235D01*
X107998773Y-104545196D01*
X107974505Y-104548796D01*
X107950001Y-104550000D01*
X107049999Y-104550000D01*
X107025495Y-104548796D01*
X107001227Y-104545196D01*
X106977428Y-104539235D01*
X106954329Y-104530970D01*
X106932150Y-104520480D01*
X106911107Y-104507868D01*
X106891401Y-104493253D01*
X106873223Y-104476777D01*
X106856747Y-104458599D01*
X106842132Y-104438893D01*
X106829520Y-104417850D01*
X106819030Y-104395671D01*
X106810765Y-104372572D01*
X106804804Y-104348773D01*
X106801204Y-104324505D01*
X106800000Y-104300001D01*
X106800000Y-103649999D01*
X106801204Y-103625495D01*
X106804804Y-103601227D01*
X106810765Y-103577428D01*
X106819030Y-103554329D01*
X106829520Y-103532150D01*
X106842132Y-103511107D01*
X106856747Y-103491401D01*
X106873223Y-103473223D01*
X106891401Y-103456747D01*
X106911107Y-103442132D01*
X106932150Y-103429520D01*
X106954329Y-103419030D01*
X106977428Y-103410765D01*
X107001227Y-103404804D01*
X107025495Y-103401204D01*
X107049999Y-103400000D01*
X107950001Y-103400000D01*
X107974505Y-103401204D01*
X107974505Y-103401204D01*
G37*
D11*
X107500000Y-103975000D03*
G04 #@! TD*
D10*
G04 #@! TO.C,C35*
G36*
X95374505Y-104301204D02*
X95398773Y-104304804D01*
X95422572Y-104310765D01*
X95445671Y-104319030D01*
X95467850Y-104329520D01*
X95488893Y-104342132D01*
X95508599Y-104356747D01*
X95526777Y-104373223D01*
X95543253Y-104391401D01*
X95557868Y-104411107D01*
X95570480Y-104432150D01*
X95580970Y-104454329D01*
X95589235Y-104477428D01*
X95595196Y-104501227D01*
X95598796Y-104525495D01*
X95600000Y-104549999D01*
X95600000Y-105450001D01*
X95598796Y-105474505D01*
X95595196Y-105498773D01*
X95589235Y-105522572D01*
X95580970Y-105545671D01*
X95570480Y-105567850D01*
X95557868Y-105588893D01*
X95543253Y-105608599D01*
X95526777Y-105626777D01*
X95508599Y-105643253D01*
X95488893Y-105657868D01*
X95467850Y-105670480D01*
X95445671Y-105680970D01*
X95422572Y-105689235D01*
X95398773Y-105695196D01*
X95374505Y-105698796D01*
X95350001Y-105700000D01*
X94699999Y-105700000D01*
X94675495Y-105698796D01*
X94651227Y-105695196D01*
X94627428Y-105689235D01*
X94604329Y-105680970D01*
X94582150Y-105670480D01*
X94561107Y-105657868D01*
X94541401Y-105643253D01*
X94523223Y-105626777D01*
X94506747Y-105608599D01*
X94492132Y-105588893D01*
X94479520Y-105567850D01*
X94469030Y-105545671D01*
X94460765Y-105522572D01*
X94454804Y-105498773D01*
X94451204Y-105474505D01*
X94450000Y-105450001D01*
X94450000Y-104549999D01*
X94451204Y-104525495D01*
X94454804Y-104501227D01*
X94460765Y-104477428D01*
X94469030Y-104454329D01*
X94479520Y-104432150D01*
X94492132Y-104411107D01*
X94506747Y-104391401D01*
X94523223Y-104373223D01*
X94541401Y-104356747D01*
X94561107Y-104342132D01*
X94582150Y-104329520D01*
X94604329Y-104319030D01*
X94627428Y-104310765D01*
X94651227Y-104304804D01*
X94675495Y-104301204D01*
X94699999Y-104300000D01*
X95350001Y-104300000D01*
X95374505Y-104301204D01*
X95374505Y-104301204D01*
G37*
D11*
X95025000Y-105000000D03*
D10*
G36*
X93324505Y-104301204D02*
X93348773Y-104304804D01*
X93372572Y-104310765D01*
X93395671Y-104319030D01*
X93417850Y-104329520D01*
X93438893Y-104342132D01*
X93458599Y-104356747D01*
X93476777Y-104373223D01*
X93493253Y-104391401D01*
X93507868Y-104411107D01*
X93520480Y-104432150D01*
X93530970Y-104454329D01*
X93539235Y-104477428D01*
X93545196Y-104501227D01*
X93548796Y-104525495D01*
X93550000Y-104549999D01*
X93550000Y-105450001D01*
X93548796Y-105474505D01*
X93545196Y-105498773D01*
X93539235Y-105522572D01*
X93530970Y-105545671D01*
X93520480Y-105567850D01*
X93507868Y-105588893D01*
X93493253Y-105608599D01*
X93476777Y-105626777D01*
X93458599Y-105643253D01*
X93438893Y-105657868D01*
X93417850Y-105670480D01*
X93395671Y-105680970D01*
X93372572Y-105689235D01*
X93348773Y-105695196D01*
X93324505Y-105698796D01*
X93300001Y-105700000D01*
X92649999Y-105700000D01*
X92625495Y-105698796D01*
X92601227Y-105695196D01*
X92577428Y-105689235D01*
X92554329Y-105680970D01*
X92532150Y-105670480D01*
X92511107Y-105657868D01*
X92491401Y-105643253D01*
X92473223Y-105626777D01*
X92456747Y-105608599D01*
X92442132Y-105588893D01*
X92429520Y-105567850D01*
X92419030Y-105545671D01*
X92410765Y-105522572D01*
X92404804Y-105498773D01*
X92401204Y-105474505D01*
X92400000Y-105450001D01*
X92400000Y-104549999D01*
X92401204Y-104525495D01*
X92404804Y-104501227D01*
X92410765Y-104477428D01*
X92419030Y-104454329D01*
X92429520Y-104432150D01*
X92442132Y-104411107D01*
X92456747Y-104391401D01*
X92473223Y-104373223D01*
X92491401Y-104356747D01*
X92511107Y-104342132D01*
X92532150Y-104329520D01*
X92554329Y-104319030D01*
X92577428Y-104310765D01*
X92601227Y-104304804D01*
X92625495Y-104301204D01*
X92649999Y-104300000D01*
X93300001Y-104300000D01*
X93324505Y-104301204D01*
X93324505Y-104301204D01*
G37*
D11*
X92975000Y-105000000D03*
G04 #@! TD*
D10*
G04 #@! TO.C,C36*
G36*
X95374505Y-110301204D02*
X95398773Y-110304804D01*
X95422572Y-110310765D01*
X95445671Y-110319030D01*
X95467850Y-110329520D01*
X95488893Y-110342132D01*
X95508599Y-110356747D01*
X95526777Y-110373223D01*
X95543253Y-110391401D01*
X95557868Y-110411107D01*
X95570480Y-110432150D01*
X95580970Y-110454329D01*
X95589235Y-110477428D01*
X95595196Y-110501227D01*
X95598796Y-110525495D01*
X95600000Y-110549999D01*
X95600000Y-111450001D01*
X95598796Y-111474505D01*
X95595196Y-111498773D01*
X95589235Y-111522572D01*
X95580970Y-111545671D01*
X95570480Y-111567850D01*
X95557868Y-111588893D01*
X95543253Y-111608599D01*
X95526777Y-111626777D01*
X95508599Y-111643253D01*
X95488893Y-111657868D01*
X95467850Y-111670480D01*
X95445671Y-111680970D01*
X95422572Y-111689235D01*
X95398773Y-111695196D01*
X95374505Y-111698796D01*
X95350001Y-111700000D01*
X94699999Y-111700000D01*
X94675495Y-111698796D01*
X94651227Y-111695196D01*
X94627428Y-111689235D01*
X94604329Y-111680970D01*
X94582150Y-111670480D01*
X94561107Y-111657868D01*
X94541401Y-111643253D01*
X94523223Y-111626777D01*
X94506747Y-111608599D01*
X94492132Y-111588893D01*
X94479520Y-111567850D01*
X94469030Y-111545671D01*
X94460765Y-111522572D01*
X94454804Y-111498773D01*
X94451204Y-111474505D01*
X94450000Y-111450001D01*
X94450000Y-110549999D01*
X94451204Y-110525495D01*
X94454804Y-110501227D01*
X94460765Y-110477428D01*
X94469030Y-110454329D01*
X94479520Y-110432150D01*
X94492132Y-110411107D01*
X94506747Y-110391401D01*
X94523223Y-110373223D01*
X94541401Y-110356747D01*
X94561107Y-110342132D01*
X94582150Y-110329520D01*
X94604329Y-110319030D01*
X94627428Y-110310765D01*
X94651227Y-110304804D01*
X94675495Y-110301204D01*
X94699999Y-110300000D01*
X95350001Y-110300000D01*
X95374505Y-110301204D01*
X95374505Y-110301204D01*
G37*
D11*
X95025000Y-111000000D03*
D10*
G36*
X93324505Y-110301204D02*
X93348773Y-110304804D01*
X93372572Y-110310765D01*
X93395671Y-110319030D01*
X93417850Y-110329520D01*
X93438893Y-110342132D01*
X93458599Y-110356747D01*
X93476777Y-110373223D01*
X93493253Y-110391401D01*
X93507868Y-110411107D01*
X93520480Y-110432150D01*
X93530970Y-110454329D01*
X93539235Y-110477428D01*
X93545196Y-110501227D01*
X93548796Y-110525495D01*
X93550000Y-110549999D01*
X93550000Y-111450001D01*
X93548796Y-111474505D01*
X93545196Y-111498773D01*
X93539235Y-111522572D01*
X93530970Y-111545671D01*
X93520480Y-111567850D01*
X93507868Y-111588893D01*
X93493253Y-111608599D01*
X93476777Y-111626777D01*
X93458599Y-111643253D01*
X93438893Y-111657868D01*
X93417850Y-111670480D01*
X93395671Y-111680970D01*
X93372572Y-111689235D01*
X93348773Y-111695196D01*
X93324505Y-111698796D01*
X93300001Y-111700000D01*
X92649999Y-111700000D01*
X92625495Y-111698796D01*
X92601227Y-111695196D01*
X92577428Y-111689235D01*
X92554329Y-111680970D01*
X92532150Y-111670480D01*
X92511107Y-111657868D01*
X92491401Y-111643253D01*
X92473223Y-111626777D01*
X92456747Y-111608599D01*
X92442132Y-111588893D01*
X92429520Y-111567850D01*
X92419030Y-111545671D01*
X92410765Y-111522572D01*
X92404804Y-111498773D01*
X92401204Y-111474505D01*
X92400000Y-111450001D01*
X92400000Y-110549999D01*
X92401204Y-110525495D01*
X92404804Y-110501227D01*
X92410765Y-110477428D01*
X92419030Y-110454329D01*
X92429520Y-110432150D01*
X92442132Y-110411107D01*
X92456747Y-110391401D01*
X92473223Y-110373223D01*
X92491401Y-110356747D01*
X92511107Y-110342132D01*
X92532150Y-110329520D01*
X92554329Y-110319030D01*
X92577428Y-110310765D01*
X92601227Y-110304804D01*
X92625495Y-110301204D01*
X92649999Y-110300000D01*
X93300001Y-110300000D01*
X93324505Y-110301204D01*
X93324505Y-110301204D01*
G37*
D11*
X92975000Y-111000000D03*
G04 #@! TD*
D10*
G04 #@! TO.C,C37*
G36*
X111974505Y-106451204D02*
X111998773Y-106454804D01*
X112022572Y-106460765D01*
X112045671Y-106469030D01*
X112067850Y-106479520D01*
X112088893Y-106492132D01*
X112108599Y-106506747D01*
X112126777Y-106523223D01*
X112143253Y-106541401D01*
X112157868Y-106561107D01*
X112170480Y-106582150D01*
X112180970Y-106604329D01*
X112189235Y-106627428D01*
X112195196Y-106651227D01*
X112198796Y-106675495D01*
X112200000Y-106699999D01*
X112200000Y-107350001D01*
X112198796Y-107374505D01*
X112195196Y-107398773D01*
X112189235Y-107422572D01*
X112180970Y-107445671D01*
X112170480Y-107467850D01*
X112157868Y-107488893D01*
X112143253Y-107508599D01*
X112126777Y-107526777D01*
X112108599Y-107543253D01*
X112088893Y-107557868D01*
X112067850Y-107570480D01*
X112045671Y-107580970D01*
X112022572Y-107589235D01*
X111998773Y-107595196D01*
X111974505Y-107598796D01*
X111950001Y-107600000D01*
X111049999Y-107600000D01*
X111025495Y-107598796D01*
X111001227Y-107595196D01*
X110977428Y-107589235D01*
X110954329Y-107580970D01*
X110932150Y-107570480D01*
X110911107Y-107557868D01*
X110891401Y-107543253D01*
X110873223Y-107526777D01*
X110856747Y-107508599D01*
X110842132Y-107488893D01*
X110829520Y-107467850D01*
X110819030Y-107445671D01*
X110810765Y-107422572D01*
X110804804Y-107398773D01*
X110801204Y-107374505D01*
X110800000Y-107350001D01*
X110800000Y-106699999D01*
X110801204Y-106675495D01*
X110804804Y-106651227D01*
X110810765Y-106627428D01*
X110819030Y-106604329D01*
X110829520Y-106582150D01*
X110842132Y-106561107D01*
X110856747Y-106541401D01*
X110873223Y-106523223D01*
X110891401Y-106506747D01*
X110911107Y-106492132D01*
X110932150Y-106479520D01*
X110954329Y-106469030D01*
X110977428Y-106460765D01*
X111001227Y-106454804D01*
X111025495Y-106451204D01*
X111049999Y-106450000D01*
X111950001Y-106450000D01*
X111974505Y-106451204D01*
X111974505Y-106451204D01*
G37*
D11*
X111500000Y-107025000D03*
D10*
G36*
X111974505Y-104401204D02*
X111998773Y-104404804D01*
X112022572Y-104410765D01*
X112045671Y-104419030D01*
X112067850Y-104429520D01*
X112088893Y-104442132D01*
X112108599Y-104456747D01*
X112126777Y-104473223D01*
X112143253Y-104491401D01*
X112157868Y-104511107D01*
X112170480Y-104532150D01*
X112180970Y-104554329D01*
X112189235Y-104577428D01*
X112195196Y-104601227D01*
X112198796Y-104625495D01*
X112200000Y-104649999D01*
X112200000Y-105300001D01*
X112198796Y-105324505D01*
X112195196Y-105348773D01*
X112189235Y-105372572D01*
X112180970Y-105395671D01*
X112170480Y-105417850D01*
X112157868Y-105438893D01*
X112143253Y-105458599D01*
X112126777Y-105476777D01*
X112108599Y-105493253D01*
X112088893Y-105507868D01*
X112067850Y-105520480D01*
X112045671Y-105530970D01*
X112022572Y-105539235D01*
X111998773Y-105545196D01*
X111974505Y-105548796D01*
X111950001Y-105550000D01*
X111049999Y-105550000D01*
X111025495Y-105548796D01*
X111001227Y-105545196D01*
X110977428Y-105539235D01*
X110954329Y-105530970D01*
X110932150Y-105520480D01*
X110911107Y-105507868D01*
X110891401Y-105493253D01*
X110873223Y-105476777D01*
X110856747Y-105458599D01*
X110842132Y-105438893D01*
X110829520Y-105417850D01*
X110819030Y-105395671D01*
X110810765Y-105372572D01*
X110804804Y-105348773D01*
X110801204Y-105324505D01*
X110800000Y-105300001D01*
X110800000Y-104649999D01*
X110801204Y-104625495D01*
X110804804Y-104601227D01*
X110810765Y-104577428D01*
X110819030Y-104554329D01*
X110829520Y-104532150D01*
X110842132Y-104511107D01*
X110856747Y-104491401D01*
X110873223Y-104473223D01*
X110891401Y-104456747D01*
X110911107Y-104442132D01*
X110932150Y-104429520D01*
X110954329Y-104419030D01*
X110977428Y-104410765D01*
X111001227Y-104404804D01*
X111025495Y-104401204D01*
X111049999Y-104400000D01*
X111950001Y-104400000D01*
X111974505Y-104401204D01*
X111974505Y-104401204D01*
G37*
D11*
X111500000Y-104975000D03*
G04 #@! TD*
D10*
G04 #@! TO.C,C38*
G36*
X111974505Y-110451204D02*
X111998773Y-110454804D01*
X112022572Y-110460765D01*
X112045671Y-110469030D01*
X112067850Y-110479520D01*
X112088893Y-110492132D01*
X112108599Y-110506747D01*
X112126777Y-110523223D01*
X112143253Y-110541401D01*
X112157868Y-110561107D01*
X112170480Y-110582150D01*
X112180970Y-110604329D01*
X112189235Y-110627428D01*
X112195196Y-110651227D01*
X112198796Y-110675495D01*
X112200000Y-110699999D01*
X112200000Y-111350001D01*
X112198796Y-111374505D01*
X112195196Y-111398773D01*
X112189235Y-111422572D01*
X112180970Y-111445671D01*
X112170480Y-111467850D01*
X112157868Y-111488893D01*
X112143253Y-111508599D01*
X112126777Y-111526777D01*
X112108599Y-111543253D01*
X112088893Y-111557868D01*
X112067850Y-111570480D01*
X112045671Y-111580970D01*
X112022572Y-111589235D01*
X111998773Y-111595196D01*
X111974505Y-111598796D01*
X111950001Y-111600000D01*
X111049999Y-111600000D01*
X111025495Y-111598796D01*
X111001227Y-111595196D01*
X110977428Y-111589235D01*
X110954329Y-111580970D01*
X110932150Y-111570480D01*
X110911107Y-111557868D01*
X110891401Y-111543253D01*
X110873223Y-111526777D01*
X110856747Y-111508599D01*
X110842132Y-111488893D01*
X110829520Y-111467850D01*
X110819030Y-111445671D01*
X110810765Y-111422572D01*
X110804804Y-111398773D01*
X110801204Y-111374505D01*
X110800000Y-111350001D01*
X110800000Y-110699999D01*
X110801204Y-110675495D01*
X110804804Y-110651227D01*
X110810765Y-110627428D01*
X110819030Y-110604329D01*
X110829520Y-110582150D01*
X110842132Y-110561107D01*
X110856747Y-110541401D01*
X110873223Y-110523223D01*
X110891401Y-110506747D01*
X110911107Y-110492132D01*
X110932150Y-110479520D01*
X110954329Y-110469030D01*
X110977428Y-110460765D01*
X111001227Y-110454804D01*
X111025495Y-110451204D01*
X111049999Y-110450000D01*
X111950001Y-110450000D01*
X111974505Y-110451204D01*
X111974505Y-110451204D01*
G37*
D11*
X111500000Y-111025000D03*
D10*
G36*
X111974505Y-108401204D02*
X111998773Y-108404804D01*
X112022572Y-108410765D01*
X112045671Y-108419030D01*
X112067850Y-108429520D01*
X112088893Y-108442132D01*
X112108599Y-108456747D01*
X112126777Y-108473223D01*
X112143253Y-108491401D01*
X112157868Y-108511107D01*
X112170480Y-108532150D01*
X112180970Y-108554329D01*
X112189235Y-108577428D01*
X112195196Y-108601227D01*
X112198796Y-108625495D01*
X112200000Y-108649999D01*
X112200000Y-109300001D01*
X112198796Y-109324505D01*
X112195196Y-109348773D01*
X112189235Y-109372572D01*
X112180970Y-109395671D01*
X112170480Y-109417850D01*
X112157868Y-109438893D01*
X112143253Y-109458599D01*
X112126777Y-109476777D01*
X112108599Y-109493253D01*
X112088893Y-109507868D01*
X112067850Y-109520480D01*
X112045671Y-109530970D01*
X112022572Y-109539235D01*
X111998773Y-109545196D01*
X111974505Y-109548796D01*
X111950001Y-109550000D01*
X111049999Y-109550000D01*
X111025495Y-109548796D01*
X111001227Y-109545196D01*
X110977428Y-109539235D01*
X110954329Y-109530970D01*
X110932150Y-109520480D01*
X110911107Y-109507868D01*
X110891401Y-109493253D01*
X110873223Y-109476777D01*
X110856747Y-109458599D01*
X110842132Y-109438893D01*
X110829520Y-109417850D01*
X110819030Y-109395671D01*
X110810765Y-109372572D01*
X110804804Y-109348773D01*
X110801204Y-109324505D01*
X110800000Y-109300001D01*
X110800000Y-108649999D01*
X110801204Y-108625495D01*
X110804804Y-108601227D01*
X110810765Y-108577428D01*
X110819030Y-108554329D01*
X110829520Y-108532150D01*
X110842132Y-108511107D01*
X110856747Y-108491401D01*
X110873223Y-108473223D01*
X110891401Y-108456747D01*
X110911107Y-108442132D01*
X110932150Y-108429520D01*
X110954329Y-108419030D01*
X110977428Y-108410765D01*
X111001227Y-108404804D01*
X111025495Y-108401204D01*
X111049999Y-108400000D01*
X111950001Y-108400000D01*
X111974505Y-108401204D01*
X111974505Y-108401204D01*
G37*
D11*
X111500000Y-108975000D03*
G04 #@! TD*
D10*
G04 #@! TO.C,C47*
G36*
X143974505Y-100901204D02*
X143998773Y-100904804D01*
X144022572Y-100910765D01*
X144045671Y-100919030D01*
X144067850Y-100929520D01*
X144088893Y-100942132D01*
X144108599Y-100956747D01*
X144126777Y-100973223D01*
X144143253Y-100991401D01*
X144157868Y-101011107D01*
X144170480Y-101032150D01*
X144180970Y-101054329D01*
X144189235Y-101077428D01*
X144195196Y-101101227D01*
X144198796Y-101125495D01*
X144200000Y-101149999D01*
X144200000Y-101800001D01*
X144198796Y-101824505D01*
X144195196Y-101848773D01*
X144189235Y-101872572D01*
X144180970Y-101895671D01*
X144170480Y-101917850D01*
X144157868Y-101938893D01*
X144143253Y-101958599D01*
X144126777Y-101976777D01*
X144108599Y-101993253D01*
X144088893Y-102007868D01*
X144067850Y-102020480D01*
X144045671Y-102030970D01*
X144022572Y-102039235D01*
X143998773Y-102045196D01*
X143974505Y-102048796D01*
X143950001Y-102050000D01*
X143049999Y-102050000D01*
X143025495Y-102048796D01*
X143001227Y-102045196D01*
X142977428Y-102039235D01*
X142954329Y-102030970D01*
X142932150Y-102020480D01*
X142911107Y-102007868D01*
X142891401Y-101993253D01*
X142873223Y-101976777D01*
X142856747Y-101958599D01*
X142842132Y-101938893D01*
X142829520Y-101917850D01*
X142819030Y-101895671D01*
X142810765Y-101872572D01*
X142804804Y-101848773D01*
X142801204Y-101824505D01*
X142800000Y-101800001D01*
X142800000Y-101149999D01*
X142801204Y-101125495D01*
X142804804Y-101101227D01*
X142810765Y-101077428D01*
X142819030Y-101054329D01*
X142829520Y-101032150D01*
X142842132Y-101011107D01*
X142856747Y-100991401D01*
X142873223Y-100973223D01*
X142891401Y-100956747D01*
X142911107Y-100942132D01*
X142932150Y-100929520D01*
X142954329Y-100919030D01*
X142977428Y-100910765D01*
X143001227Y-100904804D01*
X143025495Y-100901204D01*
X143049999Y-100900000D01*
X143950001Y-100900000D01*
X143974505Y-100901204D01*
X143974505Y-100901204D01*
G37*
D11*
X143500000Y-101475000D03*
D10*
G36*
X143974505Y-102951204D02*
X143998773Y-102954804D01*
X144022572Y-102960765D01*
X144045671Y-102969030D01*
X144067850Y-102979520D01*
X144088893Y-102992132D01*
X144108599Y-103006747D01*
X144126777Y-103023223D01*
X144143253Y-103041401D01*
X144157868Y-103061107D01*
X144170480Y-103082150D01*
X144180970Y-103104329D01*
X144189235Y-103127428D01*
X144195196Y-103151227D01*
X144198796Y-103175495D01*
X144200000Y-103199999D01*
X144200000Y-103850001D01*
X144198796Y-103874505D01*
X144195196Y-103898773D01*
X144189235Y-103922572D01*
X144180970Y-103945671D01*
X144170480Y-103967850D01*
X144157868Y-103988893D01*
X144143253Y-104008599D01*
X144126777Y-104026777D01*
X144108599Y-104043253D01*
X144088893Y-104057868D01*
X144067850Y-104070480D01*
X144045671Y-104080970D01*
X144022572Y-104089235D01*
X143998773Y-104095196D01*
X143974505Y-104098796D01*
X143950001Y-104100000D01*
X143049999Y-104100000D01*
X143025495Y-104098796D01*
X143001227Y-104095196D01*
X142977428Y-104089235D01*
X142954329Y-104080970D01*
X142932150Y-104070480D01*
X142911107Y-104057868D01*
X142891401Y-104043253D01*
X142873223Y-104026777D01*
X142856747Y-104008599D01*
X142842132Y-103988893D01*
X142829520Y-103967850D01*
X142819030Y-103945671D01*
X142810765Y-103922572D01*
X142804804Y-103898773D01*
X142801204Y-103874505D01*
X142800000Y-103850001D01*
X142800000Y-103199999D01*
X142801204Y-103175495D01*
X142804804Y-103151227D01*
X142810765Y-103127428D01*
X142819030Y-103104329D01*
X142829520Y-103082150D01*
X142842132Y-103061107D01*
X142856747Y-103041401D01*
X142873223Y-103023223D01*
X142891401Y-103006747D01*
X142911107Y-102992132D01*
X142932150Y-102979520D01*
X142954329Y-102969030D01*
X142977428Y-102960765D01*
X143001227Y-102954804D01*
X143025495Y-102951204D01*
X143049999Y-102950000D01*
X143950001Y-102950000D01*
X143974505Y-102951204D01*
X143974505Y-102951204D01*
G37*
D11*
X143500000Y-103525000D03*
G04 #@! TD*
D10*
G04 #@! TO.C,C48*
G36*
X141974505Y-100901204D02*
X141998773Y-100904804D01*
X142022572Y-100910765D01*
X142045671Y-100919030D01*
X142067850Y-100929520D01*
X142088893Y-100942132D01*
X142108599Y-100956747D01*
X142126777Y-100973223D01*
X142143253Y-100991401D01*
X142157868Y-101011107D01*
X142170480Y-101032150D01*
X142180970Y-101054329D01*
X142189235Y-101077428D01*
X142195196Y-101101227D01*
X142198796Y-101125495D01*
X142200000Y-101149999D01*
X142200000Y-101800001D01*
X142198796Y-101824505D01*
X142195196Y-101848773D01*
X142189235Y-101872572D01*
X142180970Y-101895671D01*
X142170480Y-101917850D01*
X142157868Y-101938893D01*
X142143253Y-101958599D01*
X142126777Y-101976777D01*
X142108599Y-101993253D01*
X142088893Y-102007868D01*
X142067850Y-102020480D01*
X142045671Y-102030970D01*
X142022572Y-102039235D01*
X141998773Y-102045196D01*
X141974505Y-102048796D01*
X141950001Y-102050000D01*
X141049999Y-102050000D01*
X141025495Y-102048796D01*
X141001227Y-102045196D01*
X140977428Y-102039235D01*
X140954329Y-102030970D01*
X140932150Y-102020480D01*
X140911107Y-102007868D01*
X140891401Y-101993253D01*
X140873223Y-101976777D01*
X140856747Y-101958599D01*
X140842132Y-101938893D01*
X140829520Y-101917850D01*
X140819030Y-101895671D01*
X140810765Y-101872572D01*
X140804804Y-101848773D01*
X140801204Y-101824505D01*
X140800000Y-101800001D01*
X140800000Y-101149999D01*
X140801204Y-101125495D01*
X140804804Y-101101227D01*
X140810765Y-101077428D01*
X140819030Y-101054329D01*
X140829520Y-101032150D01*
X140842132Y-101011107D01*
X140856747Y-100991401D01*
X140873223Y-100973223D01*
X140891401Y-100956747D01*
X140911107Y-100942132D01*
X140932150Y-100929520D01*
X140954329Y-100919030D01*
X140977428Y-100910765D01*
X141001227Y-100904804D01*
X141025495Y-100901204D01*
X141049999Y-100900000D01*
X141950001Y-100900000D01*
X141974505Y-100901204D01*
X141974505Y-100901204D01*
G37*
D11*
X141500000Y-101475000D03*
D10*
G36*
X141974505Y-102951204D02*
X141998773Y-102954804D01*
X142022572Y-102960765D01*
X142045671Y-102969030D01*
X142067850Y-102979520D01*
X142088893Y-102992132D01*
X142108599Y-103006747D01*
X142126777Y-103023223D01*
X142143253Y-103041401D01*
X142157868Y-103061107D01*
X142170480Y-103082150D01*
X142180970Y-103104329D01*
X142189235Y-103127428D01*
X142195196Y-103151227D01*
X142198796Y-103175495D01*
X142200000Y-103199999D01*
X142200000Y-103850001D01*
X142198796Y-103874505D01*
X142195196Y-103898773D01*
X142189235Y-103922572D01*
X142180970Y-103945671D01*
X142170480Y-103967850D01*
X142157868Y-103988893D01*
X142143253Y-104008599D01*
X142126777Y-104026777D01*
X142108599Y-104043253D01*
X142088893Y-104057868D01*
X142067850Y-104070480D01*
X142045671Y-104080970D01*
X142022572Y-104089235D01*
X141998773Y-104095196D01*
X141974505Y-104098796D01*
X141950001Y-104100000D01*
X141049999Y-104100000D01*
X141025495Y-104098796D01*
X141001227Y-104095196D01*
X140977428Y-104089235D01*
X140954329Y-104080970D01*
X140932150Y-104070480D01*
X140911107Y-104057868D01*
X140891401Y-104043253D01*
X140873223Y-104026777D01*
X140856747Y-104008599D01*
X140842132Y-103988893D01*
X140829520Y-103967850D01*
X140819030Y-103945671D01*
X140810765Y-103922572D01*
X140804804Y-103898773D01*
X140801204Y-103874505D01*
X140800000Y-103850001D01*
X140800000Y-103199999D01*
X140801204Y-103175495D01*
X140804804Y-103151227D01*
X140810765Y-103127428D01*
X140819030Y-103104329D01*
X140829520Y-103082150D01*
X140842132Y-103061107D01*
X140856747Y-103041401D01*
X140873223Y-103023223D01*
X140891401Y-103006747D01*
X140911107Y-102992132D01*
X140932150Y-102979520D01*
X140954329Y-102969030D01*
X140977428Y-102960765D01*
X141001227Y-102954804D01*
X141025495Y-102951204D01*
X141049999Y-102950000D01*
X141950001Y-102950000D01*
X141974505Y-102951204D01*
X141974505Y-102951204D01*
G37*
D11*
X141500000Y-103525000D03*
G04 #@! TD*
D10*
G04 #@! TO.C,C49*
G36*
X137974505Y-102951204D02*
X137998773Y-102954804D01*
X138022572Y-102960765D01*
X138045671Y-102969030D01*
X138067850Y-102979520D01*
X138088893Y-102992132D01*
X138108599Y-103006747D01*
X138126777Y-103023223D01*
X138143253Y-103041401D01*
X138157868Y-103061107D01*
X138170480Y-103082150D01*
X138180970Y-103104329D01*
X138189235Y-103127428D01*
X138195196Y-103151227D01*
X138198796Y-103175495D01*
X138200000Y-103199999D01*
X138200000Y-103850001D01*
X138198796Y-103874505D01*
X138195196Y-103898773D01*
X138189235Y-103922572D01*
X138180970Y-103945671D01*
X138170480Y-103967850D01*
X138157868Y-103988893D01*
X138143253Y-104008599D01*
X138126777Y-104026777D01*
X138108599Y-104043253D01*
X138088893Y-104057868D01*
X138067850Y-104070480D01*
X138045671Y-104080970D01*
X138022572Y-104089235D01*
X137998773Y-104095196D01*
X137974505Y-104098796D01*
X137950001Y-104100000D01*
X137049999Y-104100000D01*
X137025495Y-104098796D01*
X137001227Y-104095196D01*
X136977428Y-104089235D01*
X136954329Y-104080970D01*
X136932150Y-104070480D01*
X136911107Y-104057868D01*
X136891401Y-104043253D01*
X136873223Y-104026777D01*
X136856747Y-104008599D01*
X136842132Y-103988893D01*
X136829520Y-103967850D01*
X136819030Y-103945671D01*
X136810765Y-103922572D01*
X136804804Y-103898773D01*
X136801204Y-103874505D01*
X136800000Y-103850001D01*
X136800000Y-103199999D01*
X136801204Y-103175495D01*
X136804804Y-103151227D01*
X136810765Y-103127428D01*
X136819030Y-103104329D01*
X136829520Y-103082150D01*
X136842132Y-103061107D01*
X136856747Y-103041401D01*
X136873223Y-103023223D01*
X136891401Y-103006747D01*
X136911107Y-102992132D01*
X136932150Y-102979520D01*
X136954329Y-102969030D01*
X136977428Y-102960765D01*
X137001227Y-102954804D01*
X137025495Y-102951204D01*
X137049999Y-102950000D01*
X137950001Y-102950000D01*
X137974505Y-102951204D01*
X137974505Y-102951204D01*
G37*
D11*
X137500000Y-103525000D03*
D10*
G36*
X137974505Y-100901204D02*
X137998773Y-100904804D01*
X138022572Y-100910765D01*
X138045671Y-100919030D01*
X138067850Y-100929520D01*
X138088893Y-100942132D01*
X138108599Y-100956747D01*
X138126777Y-100973223D01*
X138143253Y-100991401D01*
X138157868Y-101011107D01*
X138170480Y-101032150D01*
X138180970Y-101054329D01*
X138189235Y-101077428D01*
X138195196Y-101101227D01*
X138198796Y-101125495D01*
X138200000Y-101149999D01*
X138200000Y-101800001D01*
X138198796Y-101824505D01*
X138195196Y-101848773D01*
X138189235Y-101872572D01*
X138180970Y-101895671D01*
X138170480Y-101917850D01*
X138157868Y-101938893D01*
X138143253Y-101958599D01*
X138126777Y-101976777D01*
X138108599Y-101993253D01*
X138088893Y-102007868D01*
X138067850Y-102020480D01*
X138045671Y-102030970D01*
X138022572Y-102039235D01*
X137998773Y-102045196D01*
X137974505Y-102048796D01*
X137950001Y-102050000D01*
X137049999Y-102050000D01*
X137025495Y-102048796D01*
X137001227Y-102045196D01*
X136977428Y-102039235D01*
X136954329Y-102030970D01*
X136932150Y-102020480D01*
X136911107Y-102007868D01*
X136891401Y-101993253D01*
X136873223Y-101976777D01*
X136856747Y-101958599D01*
X136842132Y-101938893D01*
X136829520Y-101917850D01*
X136819030Y-101895671D01*
X136810765Y-101872572D01*
X136804804Y-101848773D01*
X136801204Y-101824505D01*
X136800000Y-101800001D01*
X136800000Y-101149999D01*
X136801204Y-101125495D01*
X136804804Y-101101227D01*
X136810765Y-101077428D01*
X136819030Y-101054329D01*
X136829520Y-101032150D01*
X136842132Y-101011107D01*
X136856747Y-100991401D01*
X136873223Y-100973223D01*
X136891401Y-100956747D01*
X136911107Y-100942132D01*
X136932150Y-100929520D01*
X136954329Y-100919030D01*
X136977428Y-100910765D01*
X137001227Y-100904804D01*
X137025495Y-100901204D01*
X137049999Y-100900000D01*
X137950001Y-100900000D01*
X137974505Y-100901204D01*
X137974505Y-100901204D01*
G37*
D11*
X137500000Y-101475000D03*
G04 #@! TD*
D10*
G04 #@! TO.C,C50*
G36*
X139974505Y-102951204D02*
X139998773Y-102954804D01*
X140022572Y-102960765D01*
X140045671Y-102969030D01*
X140067850Y-102979520D01*
X140088893Y-102992132D01*
X140108599Y-103006747D01*
X140126777Y-103023223D01*
X140143253Y-103041401D01*
X140157868Y-103061107D01*
X140170480Y-103082150D01*
X140180970Y-103104329D01*
X140189235Y-103127428D01*
X140195196Y-103151227D01*
X140198796Y-103175495D01*
X140200000Y-103199999D01*
X140200000Y-103850001D01*
X140198796Y-103874505D01*
X140195196Y-103898773D01*
X140189235Y-103922572D01*
X140180970Y-103945671D01*
X140170480Y-103967850D01*
X140157868Y-103988893D01*
X140143253Y-104008599D01*
X140126777Y-104026777D01*
X140108599Y-104043253D01*
X140088893Y-104057868D01*
X140067850Y-104070480D01*
X140045671Y-104080970D01*
X140022572Y-104089235D01*
X139998773Y-104095196D01*
X139974505Y-104098796D01*
X139950001Y-104100000D01*
X139049999Y-104100000D01*
X139025495Y-104098796D01*
X139001227Y-104095196D01*
X138977428Y-104089235D01*
X138954329Y-104080970D01*
X138932150Y-104070480D01*
X138911107Y-104057868D01*
X138891401Y-104043253D01*
X138873223Y-104026777D01*
X138856747Y-104008599D01*
X138842132Y-103988893D01*
X138829520Y-103967850D01*
X138819030Y-103945671D01*
X138810765Y-103922572D01*
X138804804Y-103898773D01*
X138801204Y-103874505D01*
X138800000Y-103850001D01*
X138800000Y-103199999D01*
X138801204Y-103175495D01*
X138804804Y-103151227D01*
X138810765Y-103127428D01*
X138819030Y-103104329D01*
X138829520Y-103082150D01*
X138842132Y-103061107D01*
X138856747Y-103041401D01*
X138873223Y-103023223D01*
X138891401Y-103006747D01*
X138911107Y-102992132D01*
X138932150Y-102979520D01*
X138954329Y-102969030D01*
X138977428Y-102960765D01*
X139001227Y-102954804D01*
X139025495Y-102951204D01*
X139049999Y-102950000D01*
X139950001Y-102950000D01*
X139974505Y-102951204D01*
X139974505Y-102951204D01*
G37*
D11*
X139500000Y-103525000D03*
D10*
G36*
X139974505Y-100901204D02*
X139998773Y-100904804D01*
X140022572Y-100910765D01*
X140045671Y-100919030D01*
X140067850Y-100929520D01*
X140088893Y-100942132D01*
X140108599Y-100956747D01*
X140126777Y-100973223D01*
X140143253Y-100991401D01*
X140157868Y-101011107D01*
X140170480Y-101032150D01*
X140180970Y-101054329D01*
X140189235Y-101077428D01*
X140195196Y-101101227D01*
X140198796Y-101125495D01*
X140200000Y-101149999D01*
X140200000Y-101800001D01*
X140198796Y-101824505D01*
X140195196Y-101848773D01*
X140189235Y-101872572D01*
X140180970Y-101895671D01*
X140170480Y-101917850D01*
X140157868Y-101938893D01*
X140143253Y-101958599D01*
X140126777Y-101976777D01*
X140108599Y-101993253D01*
X140088893Y-102007868D01*
X140067850Y-102020480D01*
X140045671Y-102030970D01*
X140022572Y-102039235D01*
X139998773Y-102045196D01*
X139974505Y-102048796D01*
X139950001Y-102050000D01*
X139049999Y-102050000D01*
X139025495Y-102048796D01*
X139001227Y-102045196D01*
X138977428Y-102039235D01*
X138954329Y-102030970D01*
X138932150Y-102020480D01*
X138911107Y-102007868D01*
X138891401Y-101993253D01*
X138873223Y-101976777D01*
X138856747Y-101958599D01*
X138842132Y-101938893D01*
X138829520Y-101917850D01*
X138819030Y-101895671D01*
X138810765Y-101872572D01*
X138804804Y-101848773D01*
X138801204Y-101824505D01*
X138800000Y-101800001D01*
X138800000Y-101149999D01*
X138801204Y-101125495D01*
X138804804Y-101101227D01*
X138810765Y-101077428D01*
X138819030Y-101054329D01*
X138829520Y-101032150D01*
X138842132Y-101011107D01*
X138856747Y-100991401D01*
X138873223Y-100973223D01*
X138891401Y-100956747D01*
X138911107Y-100942132D01*
X138932150Y-100929520D01*
X138954329Y-100919030D01*
X138977428Y-100910765D01*
X139001227Y-100904804D01*
X139025495Y-100901204D01*
X139049999Y-100900000D01*
X139950001Y-100900000D01*
X139974505Y-100901204D01*
X139974505Y-100901204D01*
G37*
D11*
X139500000Y-101475000D03*
G04 #@! TD*
D10*
G04 #@! TO.C,C53*
G36*
X147576729Y-102746439D02*
X147600997Y-102750039D01*
X147624796Y-102756000D01*
X147647895Y-102764265D01*
X147670074Y-102774755D01*
X147691117Y-102787367D01*
X147710823Y-102801982D01*
X147729001Y-102818458D01*
X147745477Y-102836636D01*
X147760092Y-102856342D01*
X147772704Y-102877385D01*
X147783194Y-102899564D01*
X147791459Y-102922663D01*
X147797420Y-102946462D01*
X147801020Y-102970730D01*
X147802224Y-102995234D01*
X147802224Y-103895236D01*
X147801020Y-103919740D01*
X147797420Y-103944008D01*
X147791459Y-103967807D01*
X147783194Y-103990906D01*
X147772704Y-104013085D01*
X147760092Y-104034128D01*
X147745477Y-104053834D01*
X147729001Y-104072012D01*
X147710823Y-104088488D01*
X147691117Y-104103103D01*
X147670074Y-104115715D01*
X147647895Y-104126205D01*
X147624796Y-104134470D01*
X147600997Y-104140431D01*
X147576729Y-104144031D01*
X147552225Y-104145235D01*
X146902223Y-104145235D01*
X146877719Y-104144031D01*
X146853451Y-104140431D01*
X146829652Y-104134470D01*
X146806553Y-104126205D01*
X146784374Y-104115715D01*
X146763331Y-104103103D01*
X146743625Y-104088488D01*
X146725447Y-104072012D01*
X146708971Y-104053834D01*
X146694356Y-104034128D01*
X146681744Y-104013085D01*
X146671254Y-103990906D01*
X146662989Y-103967807D01*
X146657028Y-103944008D01*
X146653428Y-103919740D01*
X146652224Y-103895236D01*
X146652224Y-102995234D01*
X146653428Y-102970730D01*
X146657028Y-102946462D01*
X146662989Y-102922663D01*
X146671254Y-102899564D01*
X146681744Y-102877385D01*
X146694356Y-102856342D01*
X146708971Y-102836636D01*
X146725447Y-102818458D01*
X146743625Y-102801982D01*
X146763331Y-102787367D01*
X146784374Y-102774755D01*
X146806553Y-102764265D01*
X146829652Y-102756000D01*
X146853451Y-102750039D01*
X146877719Y-102746439D01*
X146902223Y-102745235D01*
X147552225Y-102745235D01*
X147576729Y-102746439D01*
X147576729Y-102746439D01*
G37*
D11*
X147227224Y-103445235D03*
D10*
G36*
X149626729Y-102746439D02*
X149650997Y-102750039D01*
X149674796Y-102756000D01*
X149697895Y-102764265D01*
X149720074Y-102774755D01*
X149741117Y-102787367D01*
X149760823Y-102801982D01*
X149779001Y-102818458D01*
X149795477Y-102836636D01*
X149810092Y-102856342D01*
X149822704Y-102877385D01*
X149833194Y-102899564D01*
X149841459Y-102922663D01*
X149847420Y-102946462D01*
X149851020Y-102970730D01*
X149852224Y-102995234D01*
X149852224Y-103895236D01*
X149851020Y-103919740D01*
X149847420Y-103944008D01*
X149841459Y-103967807D01*
X149833194Y-103990906D01*
X149822704Y-104013085D01*
X149810092Y-104034128D01*
X149795477Y-104053834D01*
X149779001Y-104072012D01*
X149760823Y-104088488D01*
X149741117Y-104103103D01*
X149720074Y-104115715D01*
X149697895Y-104126205D01*
X149674796Y-104134470D01*
X149650997Y-104140431D01*
X149626729Y-104144031D01*
X149602225Y-104145235D01*
X148952223Y-104145235D01*
X148927719Y-104144031D01*
X148903451Y-104140431D01*
X148879652Y-104134470D01*
X148856553Y-104126205D01*
X148834374Y-104115715D01*
X148813331Y-104103103D01*
X148793625Y-104088488D01*
X148775447Y-104072012D01*
X148758971Y-104053834D01*
X148744356Y-104034128D01*
X148731744Y-104013085D01*
X148721254Y-103990906D01*
X148712989Y-103967807D01*
X148707028Y-103944008D01*
X148703428Y-103919740D01*
X148702224Y-103895236D01*
X148702224Y-102995234D01*
X148703428Y-102970730D01*
X148707028Y-102946462D01*
X148712989Y-102922663D01*
X148721254Y-102899564D01*
X148731744Y-102877385D01*
X148744356Y-102856342D01*
X148758971Y-102836636D01*
X148775447Y-102818458D01*
X148793625Y-102801982D01*
X148813331Y-102787367D01*
X148834374Y-102774755D01*
X148856553Y-102764265D01*
X148879652Y-102756000D01*
X148903451Y-102750039D01*
X148927719Y-102746439D01*
X148952223Y-102745235D01*
X149602225Y-102745235D01*
X149626729Y-102746439D01*
X149626729Y-102746439D01*
G37*
D11*
X149277224Y-103445235D03*
G04 #@! TD*
D10*
G04 #@! TO.C,C54*
G36*
X149626729Y-100746439D02*
X149650997Y-100750039D01*
X149674796Y-100756000D01*
X149697895Y-100764265D01*
X149720074Y-100774755D01*
X149741117Y-100787367D01*
X149760823Y-100801982D01*
X149779001Y-100818458D01*
X149795477Y-100836636D01*
X149810092Y-100856342D01*
X149822704Y-100877385D01*
X149833194Y-100899564D01*
X149841459Y-100922663D01*
X149847420Y-100946462D01*
X149851020Y-100970730D01*
X149852224Y-100995234D01*
X149852224Y-101895236D01*
X149851020Y-101919740D01*
X149847420Y-101944008D01*
X149841459Y-101967807D01*
X149833194Y-101990906D01*
X149822704Y-102013085D01*
X149810092Y-102034128D01*
X149795477Y-102053834D01*
X149779001Y-102072012D01*
X149760823Y-102088488D01*
X149741117Y-102103103D01*
X149720074Y-102115715D01*
X149697895Y-102126205D01*
X149674796Y-102134470D01*
X149650997Y-102140431D01*
X149626729Y-102144031D01*
X149602225Y-102145235D01*
X148952223Y-102145235D01*
X148927719Y-102144031D01*
X148903451Y-102140431D01*
X148879652Y-102134470D01*
X148856553Y-102126205D01*
X148834374Y-102115715D01*
X148813331Y-102103103D01*
X148793625Y-102088488D01*
X148775447Y-102072012D01*
X148758971Y-102053834D01*
X148744356Y-102034128D01*
X148731744Y-102013085D01*
X148721254Y-101990906D01*
X148712989Y-101967807D01*
X148707028Y-101944008D01*
X148703428Y-101919740D01*
X148702224Y-101895236D01*
X148702224Y-100995234D01*
X148703428Y-100970730D01*
X148707028Y-100946462D01*
X148712989Y-100922663D01*
X148721254Y-100899564D01*
X148731744Y-100877385D01*
X148744356Y-100856342D01*
X148758971Y-100836636D01*
X148775447Y-100818458D01*
X148793625Y-100801982D01*
X148813331Y-100787367D01*
X148834374Y-100774755D01*
X148856553Y-100764265D01*
X148879652Y-100756000D01*
X148903451Y-100750039D01*
X148927719Y-100746439D01*
X148952223Y-100745235D01*
X149602225Y-100745235D01*
X149626729Y-100746439D01*
X149626729Y-100746439D01*
G37*
D11*
X149277224Y-101445235D03*
D10*
G36*
X147576729Y-100746439D02*
X147600997Y-100750039D01*
X147624796Y-100756000D01*
X147647895Y-100764265D01*
X147670074Y-100774755D01*
X147691117Y-100787367D01*
X147710823Y-100801982D01*
X147729001Y-100818458D01*
X147745477Y-100836636D01*
X147760092Y-100856342D01*
X147772704Y-100877385D01*
X147783194Y-100899564D01*
X147791459Y-100922663D01*
X147797420Y-100946462D01*
X147801020Y-100970730D01*
X147802224Y-100995234D01*
X147802224Y-101895236D01*
X147801020Y-101919740D01*
X147797420Y-101944008D01*
X147791459Y-101967807D01*
X147783194Y-101990906D01*
X147772704Y-102013085D01*
X147760092Y-102034128D01*
X147745477Y-102053834D01*
X147729001Y-102072012D01*
X147710823Y-102088488D01*
X147691117Y-102103103D01*
X147670074Y-102115715D01*
X147647895Y-102126205D01*
X147624796Y-102134470D01*
X147600997Y-102140431D01*
X147576729Y-102144031D01*
X147552225Y-102145235D01*
X146902223Y-102145235D01*
X146877719Y-102144031D01*
X146853451Y-102140431D01*
X146829652Y-102134470D01*
X146806553Y-102126205D01*
X146784374Y-102115715D01*
X146763331Y-102103103D01*
X146743625Y-102088488D01*
X146725447Y-102072012D01*
X146708971Y-102053834D01*
X146694356Y-102034128D01*
X146681744Y-102013085D01*
X146671254Y-101990906D01*
X146662989Y-101967807D01*
X146657028Y-101944008D01*
X146653428Y-101919740D01*
X146652224Y-101895236D01*
X146652224Y-100995234D01*
X146653428Y-100970730D01*
X146657028Y-100946462D01*
X146662989Y-100922663D01*
X146671254Y-100899564D01*
X146681744Y-100877385D01*
X146694356Y-100856342D01*
X146708971Y-100836636D01*
X146725447Y-100818458D01*
X146743625Y-100801982D01*
X146763331Y-100787367D01*
X146784374Y-100774755D01*
X146806553Y-100764265D01*
X146829652Y-100756000D01*
X146853451Y-100750039D01*
X146877719Y-100746439D01*
X146902223Y-100745235D01*
X147552225Y-100745235D01*
X147576729Y-100746439D01*
X147576729Y-100746439D01*
G37*
D11*
X147227224Y-101445235D03*
G04 #@! TD*
D10*
G04 #@! TO.C,R11*
G36*
X93324505Y-106301204D02*
X93348773Y-106304804D01*
X93372572Y-106310765D01*
X93395671Y-106319030D01*
X93417850Y-106329520D01*
X93438893Y-106342132D01*
X93458599Y-106356747D01*
X93476777Y-106373223D01*
X93493253Y-106391401D01*
X93507868Y-106411107D01*
X93520480Y-106432150D01*
X93530970Y-106454329D01*
X93539235Y-106477428D01*
X93545196Y-106501227D01*
X93548796Y-106525495D01*
X93550000Y-106549999D01*
X93550000Y-107450001D01*
X93548796Y-107474505D01*
X93545196Y-107498773D01*
X93539235Y-107522572D01*
X93530970Y-107545671D01*
X93520480Y-107567850D01*
X93507868Y-107588893D01*
X93493253Y-107608599D01*
X93476777Y-107626777D01*
X93458599Y-107643253D01*
X93438893Y-107657868D01*
X93417850Y-107670480D01*
X93395671Y-107680970D01*
X93372572Y-107689235D01*
X93348773Y-107695196D01*
X93324505Y-107698796D01*
X93300001Y-107700000D01*
X92649999Y-107700000D01*
X92625495Y-107698796D01*
X92601227Y-107695196D01*
X92577428Y-107689235D01*
X92554329Y-107680970D01*
X92532150Y-107670480D01*
X92511107Y-107657868D01*
X92491401Y-107643253D01*
X92473223Y-107626777D01*
X92456747Y-107608599D01*
X92442132Y-107588893D01*
X92429520Y-107567850D01*
X92419030Y-107545671D01*
X92410765Y-107522572D01*
X92404804Y-107498773D01*
X92401204Y-107474505D01*
X92400000Y-107450001D01*
X92400000Y-106549999D01*
X92401204Y-106525495D01*
X92404804Y-106501227D01*
X92410765Y-106477428D01*
X92419030Y-106454329D01*
X92429520Y-106432150D01*
X92442132Y-106411107D01*
X92456747Y-106391401D01*
X92473223Y-106373223D01*
X92491401Y-106356747D01*
X92511107Y-106342132D01*
X92532150Y-106329520D01*
X92554329Y-106319030D01*
X92577428Y-106310765D01*
X92601227Y-106304804D01*
X92625495Y-106301204D01*
X92649999Y-106300000D01*
X93300001Y-106300000D01*
X93324505Y-106301204D01*
X93324505Y-106301204D01*
G37*
D11*
X92975000Y-107000000D03*
D10*
G36*
X95374505Y-106301204D02*
X95398773Y-106304804D01*
X95422572Y-106310765D01*
X95445671Y-106319030D01*
X95467850Y-106329520D01*
X95488893Y-106342132D01*
X95508599Y-106356747D01*
X95526777Y-106373223D01*
X95543253Y-106391401D01*
X95557868Y-106411107D01*
X95570480Y-106432150D01*
X95580970Y-106454329D01*
X95589235Y-106477428D01*
X95595196Y-106501227D01*
X95598796Y-106525495D01*
X95600000Y-106549999D01*
X95600000Y-107450001D01*
X95598796Y-107474505D01*
X95595196Y-107498773D01*
X95589235Y-107522572D01*
X95580970Y-107545671D01*
X95570480Y-107567850D01*
X95557868Y-107588893D01*
X95543253Y-107608599D01*
X95526777Y-107626777D01*
X95508599Y-107643253D01*
X95488893Y-107657868D01*
X95467850Y-107670480D01*
X95445671Y-107680970D01*
X95422572Y-107689235D01*
X95398773Y-107695196D01*
X95374505Y-107698796D01*
X95350001Y-107700000D01*
X94699999Y-107700000D01*
X94675495Y-107698796D01*
X94651227Y-107695196D01*
X94627428Y-107689235D01*
X94604329Y-107680970D01*
X94582150Y-107670480D01*
X94561107Y-107657868D01*
X94541401Y-107643253D01*
X94523223Y-107626777D01*
X94506747Y-107608599D01*
X94492132Y-107588893D01*
X94479520Y-107567850D01*
X94469030Y-107545671D01*
X94460765Y-107522572D01*
X94454804Y-107498773D01*
X94451204Y-107474505D01*
X94450000Y-107450001D01*
X94450000Y-106549999D01*
X94451204Y-106525495D01*
X94454804Y-106501227D01*
X94460765Y-106477428D01*
X94469030Y-106454329D01*
X94479520Y-106432150D01*
X94492132Y-106411107D01*
X94506747Y-106391401D01*
X94523223Y-106373223D01*
X94541401Y-106356747D01*
X94561107Y-106342132D01*
X94582150Y-106329520D01*
X94604329Y-106319030D01*
X94627428Y-106310765D01*
X94651227Y-106304804D01*
X94675495Y-106301204D01*
X94699999Y-106300000D01*
X95350001Y-106300000D01*
X95374505Y-106301204D01*
X95374505Y-106301204D01*
G37*
D11*
X95025000Y-107000000D03*
G04 #@! TD*
D10*
G04 #@! TO.C,R12*
G36*
X95374505Y-108301204D02*
X95398773Y-108304804D01*
X95422572Y-108310765D01*
X95445671Y-108319030D01*
X95467850Y-108329520D01*
X95488893Y-108342132D01*
X95508599Y-108356747D01*
X95526777Y-108373223D01*
X95543253Y-108391401D01*
X95557868Y-108411107D01*
X95570480Y-108432150D01*
X95580970Y-108454329D01*
X95589235Y-108477428D01*
X95595196Y-108501227D01*
X95598796Y-108525495D01*
X95600000Y-108549999D01*
X95600000Y-109450001D01*
X95598796Y-109474505D01*
X95595196Y-109498773D01*
X95589235Y-109522572D01*
X95580970Y-109545671D01*
X95570480Y-109567850D01*
X95557868Y-109588893D01*
X95543253Y-109608599D01*
X95526777Y-109626777D01*
X95508599Y-109643253D01*
X95488893Y-109657868D01*
X95467850Y-109670480D01*
X95445671Y-109680970D01*
X95422572Y-109689235D01*
X95398773Y-109695196D01*
X95374505Y-109698796D01*
X95350001Y-109700000D01*
X94699999Y-109700000D01*
X94675495Y-109698796D01*
X94651227Y-109695196D01*
X94627428Y-109689235D01*
X94604329Y-109680970D01*
X94582150Y-109670480D01*
X94561107Y-109657868D01*
X94541401Y-109643253D01*
X94523223Y-109626777D01*
X94506747Y-109608599D01*
X94492132Y-109588893D01*
X94479520Y-109567850D01*
X94469030Y-109545671D01*
X94460765Y-109522572D01*
X94454804Y-109498773D01*
X94451204Y-109474505D01*
X94450000Y-109450001D01*
X94450000Y-108549999D01*
X94451204Y-108525495D01*
X94454804Y-108501227D01*
X94460765Y-108477428D01*
X94469030Y-108454329D01*
X94479520Y-108432150D01*
X94492132Y-108411107D01*
X94506747Y-108391401D01*
X94523223Y-108373223D01*
X94541401Y-108356747D01*
X94561107Y-108342132D01*
X94582150Y-108329520D01*
X94604329Y-108319030D01*
X94627428Y-108310765D01*
X94651227Y-108304804D01*
X94675495Y-108301204D01*
X94699999Y-108300000D01*
X95350001Y-108300000D01*
X95374505Y-108301204D01*
X95374505Y-108301204D01*
G37*
D11*
X95025000Y-109000000D03*
D10*
G36*
X93324505Y-108301204D02*
X93348773Y-108304804D01*
X93372572Y-108310765D01*
X93395671Y-108319030D01*
X93417850Y-108329520D01*
X93438893Y-108342132D01*
X93458599Y-108356747D01*
X93476777Y-108373223D01*
X93493253Y-108391401D01*
X93507868Y-108411107D01*
X93520480Y-108432150D01*
X93530970Y-108454329D01*
X93539235Y-108477428D01*
X93545196Y-108501227D01*
X93548796Y-108525495D01*
X93550000Y-108549999D01*
X93550000Y-109450001D01*
X93548796Y-109474505D01*
X93545196Y-109498773D01*
X93539235Y-109522572D01*
X93530970Y-109545671D01*
X93520480Y-109567850D01*
X93507868Y-109588893D01*
X93493253Y-109608599D01*
X93476777Y-109626777D01*
X93458599Y-109643253D01*
X93438893Y-109657868D01*
X93417850Y-109670480D01*
X93395671Y-109680970D01*
X93372572Y-109689235D01*
X93348773Y-109695196D01*
X93324505Y-109698796D01*
X93300001Y-109700000D01*
X92649999Y-109700000D01*
X92625495Y-109698796D01*
X92601227Y-109695196D01*
X92577428Y-109689235D01*
X92554329Y-109680970D01*
X92532150Y-109670480D01*
X92511107Y-109657868D01*
X92491401Y-109643253D01*
X92473223Y-109626777D01*
X92456747Y-109608599D01*
X92442132Y-109588893D01*
X92429520Y-109567850D01*
X92419030Y-109545671D01*
X92410765Y-109522572D01*
X92404804Y-109498773D01*
X92401204Y-109474505D01*
X92400000Y-109450001D01*
X92400000Y-108549999D01*
X92401204Y-108525495D01*
X92404804Y-108501227D01*
X92410765Y-108477428D01*
X92419030Y-108454329D01*
X92429520Y-108432150D01*
X92442132Y-108411107D01*
X92456747Y-108391401D01*
X92473223Y-108373223D01*
X92491401Y-108356747D01*
X92511107Y-108342132D01*
X92532150Y-108329520D01*
X92554329Y-108319030D01*
X92577428Y-108310765D01*
X92601227Y-108304804D01*
X92625495Y-108301204D01*
X92649999Y-108300000D01*
X93300001Y-108300000D01*
X93324505Y-108301204D01*
X93324505Y-108301204D01*
G37*
D11*
X92975000Y-109000000D03*
G04 #@! TD*
D10*
G04 #@! TO.C,R13*
G36*
X99374505Y-106301204D02*
X99398773Y-106304804D01*
X99422572Y-106310765D01*
X99445671Y-106319030D01*
X99467850Y-106329520D01*
X99488893Y-106342132D01*
X99508599Y-106356747D01*
X99526777Y-106373223D01*
X99543253Y-106391401D01*
X99557868Y-106411107D01*
X99570480Y-106432150D01*
X99580970Y-106454329D01*
X99589235Y-106477428D01*
X99595196Y-106501227D01*
X99598796Y-106525495D01*
X99600000Y-106549999D01*
X99600000Y-107450001D01*
X99598796Y-107474505D01*
X99595196Y-107498773D01*
X99589235Y-107522572D01*
X99580970Y-107545671D01*
X99570480Y-107567850D01*
X99557868Y-107588893D01*
X99543253Y-107608599D01*
X99526777Y-107626777D01*
X99508599Y-107643253D01*
X99488893Y-107657868D01*
X99467850Y-107670480D01*
X99445671Y-107680970D01*
X99422572Y-107689235D01*
X99398773Y-107695196D01*
X99374505Y-107698796D01*
X99350001Y-107700000D01*
X98699999Y-107700000D01*
X98675495Y-107698796D01*
X98651227Y-107695196D01*
X98627428Y-107689235D01*
X98604329Y-107680970D01*
X98582150Y-107670480D01*
X98561107Y-107657868D01*
X98541401Y-107643253D01*
X98523223Y-107626777D01*
X98506747Y-107608599D01*
X98492132Y-107588893D01*
X98479520Y-107567850D01*
X98469030Y-107545671D01*
X98460765Y-107522572D01*
X98454804Y-107498773D01*
X98451204Y-107474505D01*
X98450000Y-107450001D01*
X98450000Y-106549999D01*
X98451204Y-106525495D01*
X98454804Y-106501227D01*
X98460765Y-106477428D01*
X98469030Y-106454329D01*
X98479520Y-106432150D01*
X98492132Y-106411107D01*
X98506747Y-106391401D01*
X98523223Y-106373223D01*
X98541401Y-106356747D01*
X98561107Y-106342132D01*
X98582150Y-106329520D01*
X98604329Y-106319030D01*
X98627428Y-106310765D01*
X98651227Y-106304804D01*
X98675495Y-106301204D01*
X98699999Y-106300000D01*
X99350001Y-106300000D01*
X99374505Y-106301204D01*
X99374505Y-106301204D01*
G37*
D11*
X99025000Y-107000000D03*
D10*
G36*
X97324505Y-106301204D02*
X97348773Y-106304804D01*
X97372572Y-106310765D01*
X97395671Y-106319030D01*
X97417850Y-106329520D01*
X97438893Y-106342132D01*
X97458599Y-106356747D01*
X97476777Y-106373223D01*
X97493253Y-106391401D01*
X97507868Y-106411107D01*
X97520480Y-106432150D01*
X97530970Y-106454329D01*
X97539235Y-106477428D01*
X97545196Y-106501227D01*
X97548796Y-106525495D01*
X97550000Y-106549999D01*
X97550000Y-107450001D01*
X97548796Y-107474505D01*
X97545196Y-107498773D01*
X97539235Y-107522572D01*
X97530970Y-107545671D01*
X97520480Y-107567850D01*
X97507868Y-107588893D01*
X97493253Y-107608599D01*
X97476777Y-107626777D01*
X97458599Y-107643253D01*
X97438893Y-107657868D01*
X97417850Y-107670480D01*
X97395671Y-107680970D01*
X97372572Y-107689235D01*
X97348773Y-107695196D01*
X97324505Y-107698796D01*
X97300001Y-107700000D01*
X96649999Y-107700000D01*
X96625495Y-107698796D01*
X96601227Y-107695196D01*
X96577428Y-107689235D01*
X96554329Y-107680970D01*
X96532150Y-107670480D01*
X96511107Y-107657868D01*
X96491401Y-107643253D01*
X96473223Y-107626777D01*
X96456747Y-107608599D01*
X96442132Y-107588893D01*
X96429520Y-107567850D01*
X96419030Y-107545671D01*
X96410765Y-107522572D01*
X96404804Y-107498773D01*
X96401204Y-107474505D01*
X96400000Y-107450001D01*
X96400000Y-106549999D01*
X96401204Y-106525495D01*
X96404804Y-106501227D01*
X96410765Y-106477428D01*
X96419030Y-106454329D01*
X96429520Y-106432150D01*
X96442132Y-106411107D01*
X96456747Y-106391401D01*
X96473223Y-106373223D01*
X96491401Y-106356747D01*
X96511107Y-106342132D01*
X96532150Y-106329520D01*
X96554329Y-106319030D01*
X96577428Y-106310765D01*
X96601227Y-106304804D01*
X96625495Y-106301204D01*
X96649999Y-106300000D01*
X97300001Y-106300000D01*
X97324505Y-106301204D01*
X97324505Y-106301204D01*
G37*
D11*
X96975000Y-107000000D03*
G04 #@! TD*
D10*
G04 #@! TO.C,R14*
G36*
X99374505Y-104301204D02*
X99398773Y-104304804D01*
X99422572Y-104310765D01*
X99445671Y-104319030D01*
X99467850Y-104329520D01*
X99488893Y-104342132D01*
X99508599Y-104356747D01*
X99526777Y-104373223D01*
X99543253Y-104391401D01*
X99557868Y-104411107D01*
X99570480Y-104432150D01*
X99580970Y-104454329D01*
X99589235Y-104477428D01*
X99595196Y-104501227D01*
X99598796Y-104525495D01*
X99600000Y-104549999D01*
X99600000Y-105450001D01*
X99598796Y-105474505D01*
X99595196Y-105498773D01*
X99589235Y-105522572D01*
X99580970Y-105545671D01*
X99570480Y-105567850D01*
X99557868Y-105588893D01*
X99543253Y-105608599D01*
X99526777Y-105626777D01*
X99508599Y-105643253D01*
X99488893Y-105657868D01*
X99467850Y-105670480D01*
X99445671Y-105680970D01*
X99422572Y-105689235D01*
X99398773Y-105695196D01*
X99374505Y-105698796D01*
X99350001Y-105700000D01*
X98699999Y-105700000D01*
X98675495Y-105698796D01*
X98651227Y-105695196D01*
X98627428Y-105689235D01*
X98604329Y-105680970D01*
X98582150Y-105670480D01*
X98561107Y-105657868D01*
X98541401Y-105643253D01*
X98523223Y-105626777D01*
X98506747Y-105608599D01*
X98492132Y-105588893D01*
X98479520Y-105567850D01*
X98469030Y-105545671D01*
X98460765Y-105522572D01*
X98454804Y-105498773D01*
X98451204Y-105474505D01*
X98450000Y-105450001D01*
X98450000Y-104549999D01*
X98451204Y-104525495D01*
X98454804Y-104501227D01*
X98460765Y-104477428D01*
X98469030Y-104454329D01*
X98479520Y-104432150D01*
X98492132Y-104411107D01*
X98506747Y-104391401D01*
X98523223Y-104373223D01*
X98541401Y-104356747D01*
X98561107Y-104342132D01*
X98582150Y-104329520D01*
X98604329Y-104319030D01*
X98627428Y-104310765D01*
X98651227Y-104304804D01*
X98675495Y-104301204D01*
X98699999Y-104300000D01*
X99350001Y-104300000D01*
X99374505Y-104301204D01*
X99374505Y-104301204D01*
G37*
D11*
X99025000Y-105000000D03*
D10*
G36*
X97324505Y-104301204D02*
X97348773Y-104304804D01*
X97372572Y-104310765D01*
X97395671Y-104319030D01*
X97417850Y-104329520D01*
X97438893Y-104342132D01*
X97458599Y-104356747D01*
X97476777Y-104373223D01*
X97493253Y-104391401D01*
X97507868Y-104411107D01*
X97520480Y-104432150D01*
X97530970Y-104454329D01*
X97539235Y-104477428D01*
X97545196Y-104501227D01*
X97548796Y-104525495D01*
X97550000Y-104549999D01*
X97550000Y-105450001D01*
X97548796Y-105474505D01*
X97545196Y-105498773D01*
X97539235Y-105522572D01*
X97530970Y-105545671D01*
X97520480Y-105567850D01*
X97507868Y-105588893D01*
X97493253Y-105608599D01*
X97476777Y-105626777D01*
X97458599Y-105643253D01*
X97438893Y-105657868D01*
X97417850Y-105670480D01*
X97395671Y-105680970D01*
X97372572Y-105689235D01*
X97348773Y-105695196D01*
X97324505Y-105698796D01*
X97300001Y-105700000D01*
X96649999Y-105700000D01*
X96625495Y-105698796D01*
X96601227Y-105695196D01*
X96577428Y-105689235D01*
X96554329Y-105680970D01*
X96532150Y-105670480D01*
X96511107Y-105657868D01*
X96491401Y-105643253D01*
X96473223Y-105626777D01*
X96456747Y-105608599D01*
X96442132Y-105588893D01*
X96429520Y-105567850D01*
X96419030Y-105545671D01*
X96410765Y-105522572D01*
X96404804Y-105498773D01*
X96401204Y-105474505D01*
X96400000Y-105450001D01*
X96400000Y-104549999D01*
X96401204Y-104525495D01*
X96404804Y-104501227D01*
X96410765Y-104477428D01*
X96419030Y-104454329D01*
X96429520Y-104432150D01*
X96442132Y-104411107D01*
X96456747Y-104391401D01*
X96473223Y-104373223D01*
X96491401Y-104356747D01*
X96511107Y-104342132D01*
X96532150Y-104329520D01*
X96554329Y-104319030D01*
X96577428Y-104310765D01*
X96601227Y-104304804D01*
X96625495Y-104301204D01*
X96649999Y-104300000D01*
X97300001Y-104300000D01*
X97324505Y-104301204D01*
X97324505Y-104301204D01*
G37*
D11*
X96975000Y-105000000D03*
G04 #@! TD*
D10*
G04 #@! TO.C,R15*
G36*
X99374505Y-108301204D02*
X99398773Y-108304804D01*
X99422572Y-108310765D01*
X99445671Y-108319030D01*
X99467850Y-108329520D01*
X99488893Y-108342132D01*
X99508599Y-108356747D01*
X99526777Y-108373223D01*
X99543253Y-108391401D01*
X99557868Y-108411107D01*
X99570480Y-108432150D01*
X99580970Y-108454329D01*
X99589235Y-108477428D01*
X99595196Y-108501227D01*
X99598796Y-108525495D01*
X99600000Y-108549999D01*
X99600000Y-109450001D01*
X99598796Y-109474505D01*
X99595196Y-109498773D01*
X99589235Y-109522572D01*
X99580970Y-109545671D01*
X99570480Y-109567850D01*
X99557868Y-109588893D01*
X99543253Y-109608599D01*
X99526777Y-109626777D01*
X99508599Y-109643253D01*
X99488893Y-109657868D01*
X99467850Y-109670480D01*
X99445671Y-109680970D01*
X99422572Y-109689235D01*
X99398773Y-109695196D01*
X99374505Y-109698796D01*
X99350001Y-109700000D01*
X98699999Y-109700000D01*
X98675495Y-109698796D01*
X98651227Y-109695196D01*
X98627428Y-109689235D01*
X98604329Y-109680970D01*
X98582150Y-109670480D01*
X98561107Y-109657868D01*
X98541401Y-109643253D01*
X98523223Y-109626777D01*
X98506747Y-109608599D01*
X98492132Y-109588893D01*
X98479520Y-109567850D01*
X98469030Y-109545671D01*
X98460765Y-109522572D01*
X98454804Y-109498773D01*
X98451204Y-109474505D01*
X98450000Y-109450001D01*
X98450000Y-108549999D01*
X98451204Y-108525495D01*
X98454804Y-108501227D01*
X98460765Y-108477428D01*
X98469030Y-108454329D01*
X98479520Y-108432150D01*
X98492132Y-108411107D01*
X98506747Y-108391401D01*
X98523223Y-108373223D01*
X98541401Y-108356747D01*
X98561107Y-108342132D01*
X98582150Y-108329520D01*
X98604329Y-108319030D01*
X98627428Y-108310765D01*
X98651227Y-108304804D01*
X98675495Y-108301204D01*
X98699999Y-108300000D01*
X99350001Y-108300000D01*
X99374505Y-108301204D01*
X99374505Y-108301204D01*
G37*
D11*
X99025000Y-109000000D03*
D10*
G36*
X97324505Y-108301204D02*
X97348773Y-108304804D01*
X97372572Y-108310765D01*
X97395671Y-108319030D01*
X97417850Y-108329520D01*
X97438893Y-108342132D01*
X97458599Y-108356747D01*
X97476777Y-108373223D01*
X97493253Y-108391401D01*
X97507868Y-108411107D01*
X97520480Y-108432150D01*
X97530970Y-108454329D01*
X97539235Y-108477428D01*
X97545196Y-108501227D01*
X97548796Y-108525495D01*
X97550000Y-108549999D01*
X97550000Y-109450001D01*
X97548796Y-109474505D01*
X97545196Y-109498773D01*
X97539235Y-109522572D01*
X97530970Y-109545671D01*
X97520480Y-109567850D01*
X97507868Y-109588893D01*
X97493253Y-109608599D01*
X97476777Y-109626777D01*
X97458599Y-109643253D01*
X97438893Y-109657868D01*
X97417850Y-109670480D01*
X97395671Y-109680970D01*
X97372572Y-109689235D01*
X97348773Y-109695196D01*
X97324505Y-109698796D01*
X97300001Y-109700000D01*
X96649999Y-109700000D01*
X96625495Y-109698796D01*
X96601227Y-109695196D01*
X96577428Y-109689235D01*
X96554329Y-109680970D01*
X96532150Y-109670480D01*
X96511107Y-109657868D01*
X96491401Y-109643253D01*
X96473223Y-109626777D01*
X96456747Y-109608599D01*
X96442132Y-109588893D01*
X96429520Y-109567850D01*
X96419030Y-109545671D01*
X96410765Y-109522572D01*
X96404804Y-109498773D01*
X96401204Y-109474505D01*
X96400000Y-109450001D01*
X96400000Y-108549999D01*
X96401204Y-108525495D01*
X96404804Y-108501227D01*
X96410765Y-108477428D01*
X96419030Y-108454329D01*
X96429520Y-108432150D01*
X96442132Y-108411107D01*
X96456747Y-108391401D01*
X96473223Y-108373223D01*
X96491401Y-108356747D01*
X96511107Y-108342132D01*
X96532150Y-108329520D01*
X96554329Y-108319030D01*
X96577428Y-108310765D01*
X96601227Y-108304804D01*
X96625495Y-108301204D01*
X96649999Y-108300000D01*
X97300001Y-108300000D01*
X97324505Y-108301204D01*
X97324505Y-108301204D01*
G37*
D11*
X96975000Y-109000000D03*
G04 #@! TD*
D10*
G04 #@! TO.C,R16*
G36*
X99374505Y-110301204D02*
X99398773Y-110304804D01*
X99422572Y-110310765D01*
X99445671Y-110319030D01*
X99467850Y-110329520D01*
X99488893Y-110342132D01*
X99508599Y-110356747D01*
X99526777Y-110373223D01*
X99543253Y-110391401D01*
X99557868Y-110411107D01*
X99570480Y-110432150D01*
X99580970Y-110454329D01*
X99589235Y-110477428D01*
X99595196Y-110501227D01*
X99598796Y-110525495D01*
X99600000Y-110549999D01*
X99600000Y-111450001D01*
X99598796Y-111474505D01*
X99595196Y-111498773D01*
X99589235Y-111522572D01*
X99580970Y-111545671D01*
X99570480Y-111567850D01*
X99557868Y-111588893D01*
X99543253Y-111608599D01*
X99526777Y-111626777D01*
X99508599Y-111643253D01*
X99488893Y-111657868D01*
X99467850Y-111670480D01*
X99445671Y-111680970D01*
X99422572Y-111689235D01*
X99398773Y-111695196D01*
X99374505Y-111698796D01*
X99350001Y-111700000D01*
X98699999Y-111700000D01*
X98675495Y-111698796D01*
X98651227Y-111695196D01*
X98627428Y-111689235D01*
X98604329Y-111680970D01*
X98582150Y-111670480D01*
X98561107Y-111657868D01*
X98541401Y-111643253D01*
X98523223Y-111626777D01*
X98506747Y-111608599D01*
X98492132Y-111588893D01*
X98479520Y-111567850D01*
X98469030Y-111545671D01*
X98460765Y-111522572D01*
X98454804Y-111498773D01*
X98451204Y-111474505D01*
X98450000Y-111450001D01*
X98450000Y-110549999D01*
X98451204Y-110525495D01*
X98454804Y-110501227D01*
X98460765Y-110477428D01*
X98469030Y-110454329D01*
X98479520Y-110432150D01*
X98492132Y-110411107D01*
X98506747Y-110391401D01*
X98523223Y-110373223D01*
X98541401Y-110356747D01*
X98561107Y-110342132D01*
X98582150Y-110329520D01*
X98604329Y-110319030D01*
X98627428Y-110310765D01*
X98651227Y-110304804D01*
X98675495Y-110301204D01*
X98699999Y-110300000D01*
X99350001Y-110300000D01*
X99374505Y-110301204D01*
X99374505Y-110301204D01*
G37*
D11*
X99025000Y-111000000D03*
D10*
G36*
X97324505Y-110301204D02*
X97348773Y-110304804D01*
X97372572Y-110310765D01*
X97395671Y-110319030D01*
X97417850Y-110329520D01*
X97438893Y-110342132D01*
X97458599Y-110356747D01*
X97476777Y-110373223D01*
X97493253Y-110391401D01*
X97507868Y-110411107D01*
X97520480Y-110432150D01*
X97530970Y-110454329D01*
X97539235Y-110477428D01*
X97545196Y-110501227D01*
X97548796Y-110525495D01*
X97550000Y-110549999D01*
X97550000Y-111450001D01*
X97548796Y-111474505D01*
X97545196Y-111498773D01*
X97539235Y-111522572D01*
X97530970Y-111545671D01*
X97520480Y-111567850D01*
X97507868Y-111588893D01*
X97493253Y-111608599D01*
X97476777Y-111626777D01*
X97458599Y-111643253D01*
X97438893Y-111657868D01*
X97417850Y-111670480D01*
X97395671Y-111680970D01*
X97372572Y-111689235D01*
X97348773Y-111695196D01*
X97324505Y-111698796D01*
X97300001Y-111700000D01*
X96649999Y-111700000D01*
X96625495Y-111698796D01*
X96601227Y-111695196D01*
X96577428Y-111689235D01*
X96554329Y-111680970D01*
X96532150Y-111670480D01*
X96511107Y-111657868D01*
X96491401Y-111643253D01*
X96473223Y-111626777D01*
X96456747Y-111608599D01*
X96442132Y-111588893D01*
X96429520Y-111567850D01*
X96419030Y-111545671D01*
X96410765Y-111522572D01*
X96404804Y-111498773D01*
X96401204Y-111474505D01*
X96400000Y-111450001D01*
X96400000Y-110549999D01*
X96401204Y-110525495D01*
X96404804Y-110501227D01*
X96410765Y-110477428D01*
X96419030Y-110454329D01*
X96429520Y-110432150D01*
X96442132Y-110411107D01*
X96456747Y-110391401D01*
X96473223Y-110373223D01*
X96491401Y-110356747D01*
X96511107Y-110342132D01*
X96532150Y-110329520D01*
X96554329Y-110319030D01*
X96577428Y-110310765D01*
X96601227Y-110304804D01*
X96625495Y-110301204D01*
X96649999Y-110300000D01*
X97300001Y-110300000D01*
X97324505Y-110301204D01*
X97324505Y-110301204D01*
G37*
D11*
X96975000Y-111000000D03*
G04 #@! TD*
D10*
G04 #@! TO.C,R21*
G36*
X163324505Y-95801204D02*
X163348773Y-95804804D01*
X163372572Y-95810765D01*
X163395671Y-95819030D01*
X163417850Y-95829520D01*
X163438893Y-95842132D01*
X163458599Y-95856747D01*
X163476777Y-95873223D01*
X163493253Y-95891401D01*
X163507868Y-95911107D01*
X163520480Y-95932150D01*
X163530970Y-95954329D01*
X163539235Y-95977428D01*
X163545196Y-96001227D01*
X163548796Y-96025495D01*
X163550000Y-96049999D01*
X163550000Y-96950001D01*
X163548796Y-96974505D01*
X163545196Y-96998773D01*
X163539235Y-97022572D01*
X163530970Y-97045671D01*
X163520480Y-97067850D01*
X163507868Y-97088893D01*
X163493253Y-97108599D01*
X163476777Y-97126777D01*
X163458599Y-97143253D01*
X163438893Y-97157868D01*
X163417850Y-97170480D01*
X163395671Y-97180970D01*
X163372572Y-97189235D01*
X163348773Y-97195196D01*
X163324505Y-97198796D01*
X163300001Y-97200000D01*
X162649999Y-97200000D01*
X162625495Y-97198796D01*
X162601227Y-97195196D01*
X162577428Y-97189235D01*
X162554329Y-97180970D01*
X162532150Y-97170480D01*
X162511107Y-97157868D01*
X162491401Y-97143253D01*
X162473223Y-97126777D01*
X162456747Y-97108599D01*
X162442132Y-97088893D01*
X162429520Y-97067850D01*
X162419030Y-97045671D01*
X162410765Y-97022572D01*
X162404804Y-96998773D01*
X162401204Y-96974505D01*
X162400000Y-96950001D01*
X162400000Y-96049999D01*
X162401204Y-96025495D01*
X162404804Y-96001227D01*
X162410765Y-95977428D01*
X162419030Y-95954329D01*
X162429520Y-95932150D01*
X162442132Y-95911107D01*
X162456747Y-95891401D01*
X162473223Y-95873223D01*
X162491401Y-95856747D01*
X162511107Y-95842132D01*
X162532150Y-95829520D01*
X162554329Y-95819030D01*
X162577428Y-95810765D01*
X162601227Y-95804804D01*
X162625495Y-95801204D01*
X162649999Y-95800000D01*
X163300001Y-95800000D01*
X163324505Y-95801204D01*
X163324505Y-95801204D01*
G37*
D11*
X162975000Y-96500000D03*
D10*
G36*
X165374505Y-95801204D02*
X165398773Y-95804804D01*
X165422572Y-95810765D01*
X165445671Y-95819030D01*
X165467850Y-95829520D01*
X165488893Y-95842132D01*
X165508599Y-95856747D01*
X165526777Y-95873223D01*
X165543253Y-95891401D01*
X165557868Y-95911107D01*
X165570480Y-95932150D01*
X165580970Y-95954329D01*
X165589235Y-95977428D01*
X165595196Y-96001227D01*
X165598796Y-96025495D01*
X165600000Y-96049999D01*
X165600000Y-96950001D01*
X165598796Y-96974505D01*
X165595196Y-96998773D01*
X165589235Y-97022572D01*
X165580970Y-97045671D01*
X165570480Y-97067850D01*
X165557868Y-97088893D01*
X165543253Y-97108599D01*
X165526777Y-97126777D01*
X165508599Y-97143253D01*
X165488893Y-97157868D01*
X165467850Y-97170480D01*
X165445671Y-97180970D01*
X165422572Y-97189235D01*
X165398773Y-97195196D01*
X165374505Y-97198796D01*
X165350001Y-97200000D01*
X164699999Y-97200000D01*
X164675495Y-97198796D01*
X164651227Y-97195196D01*
X164627428Y-97189235D01*
X164604329Y-97180970D01*
X164582150Y-97170480D01*
X164561107Y-97157868D01*
X164541401Y-97143253D01*
X164523223Y-97126777D01*
X164506747Y-97108599D01*
X164492132Y-97088893D01*
X164479520Y-97067850D01*
X164469030Y-97045671D01*
X164460765Y-97022572D01*
X164454804Y-96998773D01*
X164451204Y-96974505D01*
X164450000Y-96950001D01*
X164450000Y-96049999D01*
X164451204Y-96025495D01*
X164454804Y-96001227D01*
X164460765Y-95977428D01*
X164469030Y-95954329D01*
X164479520Y-95932150D01*
X164492132Y-95911107D01*
X164506747Y-95891401D01*
X164523223Y-95873223D01*
X164541401Y-95856747D01*
X164561107Y-95842132D01*
X164582150Y-95829520D01*
X164604329Y-95819030D01*
X164627428Y-95810765D01*
X164651227Y-95804804D01*
X164675495Y-95801204D01*
X164699999Y-95800000D01*
X165350001Y-95800000D01*
X165374505Y-95801204D01*
X165374505Y-95801204D01*
G37*
D11*
X165025000Y-96500000D03*
G04 #@! TD*
D10*
G04 #@! TO.C,R22*
G36*
X158374505Y-95801204D02*
X158398773Y-95804804D01*
X158422572Y-95810765D01*
X158445671Y-95819030D01*
X158467850Y-95829520D01*
X158488893Y-95842132D01*
X158508599Y-95856747D01*
X158526777Y-95873223D01*
X158543253Y-95891401D01*
X158557868Y-95911107D01*
X158570480Y-95932150D01*
X158580970Y-95954329D01*
X158589235Y-95977428D01*
X158595196Y-96001227D01*
X158598796Y-96025495D01*
X158600000Y-96049999D01*
X158600000Y-96950001D01*
X158598796Y-96974505D01*
X158595196Y-96998773D01*
X158589235Y-97022572D01*
X158580970Y-97045671D01*
X158570480Y-97067850D01*
X158557868Y-97088893D01*
X158543253Y-97108599D01*
X158526777Y-97126777D01*
X158508599Y-97143253D01*
X158488893Y-97157868D01*
X158467850Y-97170480D01*
X158445671Y-97180970D01*
X158422572Y-97189235D01*
X158398773Y-97195196D01*
X158374505Y-97198796D01*
X158350001Y-97200000D01*
X157699999Y-97200000D01*
X157675495Y-97198796D01*
X157651227Y-97195196D01*
X157627428Y-97189235D01*
X157604329Y-97180970D01*
X157582150Y-97170480D01*
X157561107Y-97157868D01*
X157541401Y-97143253D01*
X157523223Y-97126777D01*
X157506747Y-97108599D01*
X157492132Y-97088893D01*
X157479520Y-97067850D01*
X157469030Y-97045671D01*
X157460765Y-97022572D01*
X157454804Y-96998773D01*
X157451204Y-96974505D01*
X157450000Y-96950001D01*
X157450000Y-96049999D01*
X157451204Y-96025495D01*
X157454804Y-96001227D01*
X157460765Y-95977428D01*
X157469030Y-95954329D01*
X157479520Y-95932150D01*
X157492132Y-95911107D01*
X157506747Y-95891401D01*
X157523223Y-95873223D01*
X157541401Y-95856747D01*
X157561107Y-95842132D01*
X157582150Y-95829520D01*
X157604329Y-95819030D01*
X157627428Y-95810765D01*
X157651227Y-95804804D01*
X157675495Y-95801204D01*
X157699999Y-95800000D01*
X158350001Y-95800000D01*
X158374505Y-95801204D01*
X158374505Y-95801204D01*
G37*
D11*
X158025000Y-96500000D03*
D10*
G36*
X156324505Y-95801204D02*
X156348773Y-95804804D01*
X156372572Y-95810765D01*
X156395671Y-95819030D01*
X156417850Y-95829520D01*
X156438893Y-95842132D01*
X156458599Y-95856747D01*
X156476777Y-95873223D01*
X156493253Y-95891401D01*
X156507868Y-95911107D01*
X156520480Y-95932150D01*
X156530970Y-95954329D01*
X156539235Y-95977428D01*
X156545196Y-96001227D01*
X156548796Y-96025495D01*
X156550000Y-96049999D01*
X156550000Y-96950001D01*
X156548796Y-96974505D01*
X156545196Y-96998773D01*
X156539235Y-97022572D01*
X156530970Y-97045671D01*
X156520480Y-97067850D01*
X156507868Y-97088893D01*
X156493253Y-97108599D01*
X156476777Y-97126777D01*
X156458599Y-97143253D01*
X156438893Y-97157868D01*
X156417850Y-97170480D01*
X156395671Y-97180970D01*
X156372572Y-97189235D01*
X156348773Y-97195196D01*
X156324505Y-97198796D01*
X156300001Y-97200000D01*
X155649999Y-97200000D01*
X155625495Y-97198796D01*
X155601227Y-97195196D01*
X155577428Y-97189235D01*
X155554329Y-97180970D01*
X155532150Y-97170480D01*
X155511107Y-97157868D01*
X155491401Y-97143253D01*
X155473223Y-97126777D01*
X155456747Y-97108599D01*
X155442132Y-97088893D01*
X155429520Y-97067850D01*
X155419030Y-97045671D01*
X155410765Y-97022572D01*
X155404804Y-96998773D01*
X155401204Y-96974505D01*
X155400000Y-96950001D01*
X155400000Y-96049999D01*
X155401204Y-96025495D01*
X155404804Y-96001227D01*
X155410765Y-95977428D01*
X155419030Y-95954329D01*
X155429520Y-95932150D01*
X155442132Y-95911107D01*
X155456747Y-95891401D01*
X155473223Y-95873223D01*
X155491401Y-95856747D01*
X155511107Y-95842132D01*
X155532150Y-95829520D01*
X155554329Y-95819030D01*
X155577428Y-95810765D01*
X155601227Y-95804804D01*
X155625495Y-95801204D01*
X155649999Y-95800000D01*
X156300001Y-95800000D01*
X156324505Y-95801204D01*
X156324505Y-95801204D01*
G37*
D11*
X155975000Y-96500000D03*
G04 #@! TD*
D10*
G04 #@! TO.C,C9*
G36*
X101474505Y-110451204D02*
X101498773Y-110454804D01*
X101522572Y-110460765D01*
X101545671Y-110469030D01*
X101567850Y-110479520D01*
X101588893Y-110492132D01*
X101608599Y-110506747D01*
X101626777Y-110523223D01*
X101643253Y-110541401D01*
X101657868Y-110561107D01*
X101670480Y-110582150D01*
X101680970Y-110604329D01*
X101689235Y-110627428D01*
X101695196Y-110651227D01*
X101698796Y-110675495D01*
X101700000Y-110699999D01*
X101700000Y-111350001D01*
X101698796Y-111374505D01*
X101695196Y-111398773D01*
X101689235Y-111422572D01*
X101680970Y-111445671D01*
X101670480Y-111467850D01*
X101657868Y-111488893D01*
X101643253Y-111508599D01*
X101626777Y-111526777D01*
X101608599Y-111543253D01*
X101588893Y-111557868D01*
X101567850Y-111570480D01*
X101545671Y-111580970D01*
X101522572Y-111589235D01*
X101498773Y-111595196D01*
X101474505Y-111598796D01*
X101450001Y-111600000D01*
X100549999Y-111600000D01*
X100525495Y-111598796D01*
X100501227Y-111595196D01*
X100477428Y-111589235D01*
X100454329Y-111580970D01*
X100432150Y-111570480D01*
X100411107Y-111557868D01*
X100391401Y-111543253D01*
X100373223Y-111526777D01*
X100356747Y-111508599D01*
X100342132Y-111488893D01*
X100329520Y-111467850D01*
X100319030Y-111445671D01*
X100310765Y-111422572D01*
X100304804Y-111398773D01*
X100301204Y-111374505D01*
X100300000Y-111350001D01*
X100300000Y-110699999D01*
X100301204Y-110675495D01*
X100304804Y-110651227D01*
X100310765Y-110627428D01*
X100319030Y-110604329D01*
X100329520Y-110582150D01*
X100342132Y-110561107D01*
X100356747Y-110541401D01*
X100373223Y-110523223D01*
X100391401Y-110506747D01*
X100411107Y-110492132D01*
X100432150Y-110479520D01*
X100454329Y-110469030D01*
X100477428Y-110460765D01*
X100501227Y-110454804D01*
X100525495Y-110451204D01*
X100549999Y-110450000D01*
X101450001Y-110450000D01*
X101474505Y-110451204D01*
X101474505Y-110451204D01*
G37*
D11*
X101000000Y-111025000D03*
D10*
G36*
X101474505Y-108401204D02*
X101498773Y-108404804D01*
X101522572Y-108410765D01*
X101545671Y-108419030D01*
X101567850Y-108429520D01*
X101588893Y-108442132D01*
X101608599Y-108456747D01*
X101626777Y-108473223D01*
X101643253Y-108491401D01*
X101657868Y-108511107D01*
X101670480Y-108532150D01*
X101680970Y-108554329D01*
X101689235Y-108577428D01*
X101695196Y-108601227D01*
X101698796Y-108625495D01*
X101700000Y-108649999D01*
X101700000Y-109300001D01*
X101698796Y-109324505D01*
X101695196Y-109348773D01*
X101689235Y-109372572D01*
X101680970Y-109395671D01*
X101670480Y-109417850D01*
X101657868Y-109438893D01*
X101643253Y-109458599D01*
X101626777Y-109476777D01*
X101608599Y-109493253D01*
X101588893Y-109507868D01*
X101567850Y-109520480D01*
X101545671Y-109530970D01*
X101522572Y-109539235D01*
X101498773Y-109545196D01*
X101474505Y-109548796D01*
X101450001Y-109550000D01*
X100549999Y-109550000D01*
X100525495Y-109548796D01*
X100501227Y-109545196D01*
X100477428Y-109539235D01*
X100454329Y-109530970D01*
X100432150Y-109520480D01*
X100411107Y-109507868D01*
X100391401Y-109493253D01*
X100373223Y-109476777D01*
X100356747Y-109458599D01*
X100342132Y-109438893D01*
X100329520Y-109417850D01*
X100319030Y-109395671D01*
X100310765Y-109372572D01*
X100304804Y-109348773D01*
X100301204Y-109324505D01*
X100300000Y-109300001D01*
X100300000Y-108649999D01*
X100301204Y-108625495D01*
X100304804Y-108601227D01*
X100310765Y-108577428D01*
X100319030Y-108554329D01*
X100329520Y-108532150D01*
X100342132Y-108511107D01*
X100356747Y-108491401D01*
X100373223Y-108473223D01*
X100391401Y-108456747D01*
X100411107Y-108442132D01*
X100432150Y-108429520D01*
X100454329Y-108419030D01*
X100477428Y-108410765D01*
X100501227Y-108404804D01*
X100525495Y-108401204D01*
X100549999Y-108400000D01*
X101450001Y-108400000D01*
X101474505Y-108401204D01*
X101474505Y-108401204D01*
G37*
D11*
X101000000Y-108975000D03*
G04 #@! TD*
D10*
G04 #@! TO.C,C11*
G36*
X105874505Y-107301204D02*
X105898773Y-107304804D01*
X105922572Y-107310765D01*
X105945671Y-107319030D01*
X105967850Y-107329520D01*
X105988893Y-107342132D01*
X106008599Y-107356747D01*
X106026777Y-107373223D01*
X106043253Y-107391401D01*
X106057868Y-107411107D01*
X106070480Y-107432150D01*
X106080970Y-107454329D01*
X106089235Y-107477428D01*
X106095196Y-107501227D01*
X106098796Y-107525495D01*
X106100000Y-107549999D01*
X106100000Y-108450001D01*
X106098796Y-108474505D01*
X106095196Y-108498773D01*
X106089235Y-108522572D01*
X106080970Y-108545671D01*
X106070480Y-108567850D01*
X106057868Y-108588893D01*
X106043253Y-108608599D01*
X106026777Y-108626777D01*
X106008599Y-108643253D01*
X105988893Y-108657868D01*
X105967850Y-108670480D01*
X105945671Y-108680970D01*
X105922572Y-108689235D01*
X105898773Y-108695196D01*
X105874505Y-108698796D01*
X105850001Y-108700000D01*
X105199999Y-108700000D01*
X105175495Y-108698796D01*
X105151227Y-108695196D01*
X105127428Y-108689235D01*
X105104329Y-108680970D01*
X105082150Y-108670480D01*
X105061107Y-108657868D01*
X105041401Y-108643253D01*
X105023223Y-108626777D01*
X105006747Y-108608599D01*
X104992132Y-108588893D01*
X104979520Y-108567850D01*
X104969030Y-108545671D01*
X104960765Y-108522572D01*
X104954804Y-108498773D01*
X104951204Y-108474505D01*
X104950000Y-108450001D01*
X104950000Y-107549999D01*
X104951204Y-107525495D01*
X104954804Y-107501227D01*
X104960765Y-107477428D01*
X104969030Y-107454329D01*
X104979520Y-107432150D01*
X104992132Y-107411107D01*
X105006747Y-107391401D01*
X105023223Y-107373223D01*
X105041401Y-107356747D01*
X105061107Y-107342132D01*
X105082150Y-107329520D01*
X105104329Y-107319030D01*
X105127428Y-107310765D01*
X105151227Y-107304804D01*
X105175495Y-107301204D01*
X105199999Y-107300000D01*
X105850001Y-107300000D01*
X105874505Y-107301204D01*
X105874505Y-107301204D01*
G37*
D11*
X105525000Y-108000000D03*
D10*
G36*
X103824505Y-107301204D02*
X103848773Y-107304804D01*
X103872572Y-107310765D01*
X103895671Y-107319030D01*
X103917850Y-107329520D01*
X103938893Y-107342132D01*
X103958599Y-107356747D01*
X103976777Y-107373223D01*
X103993253Y-107391401D01*
X104007868Y-107411107D01*
X104020480Y-107432150D01*
X104030970Y-107454329D01*
X104039235Y-107477428D01*
X104045196Y-107501227D01*
X104048796Y-107525495D01*
X104050000Y-107549999D01*
X104050000Y-108450001D01*
X104048796Y-108474505D01*
X104045196Y-108498773D01*
X104039235Y-108522572D01*
X104030970Y-108545671D01*
X104020480Y-108567850D01*
X104007868Y-108588893D01*
X103993253Y-108608599D01*
X103976777Y-108626777D01*
X103958599Y-108643253D01*
X103938893Y-108657868D01*
X103917850Y-108670480D01*
X103895671Y-108680970D01*
X103872572Y-108689235D01*
X103848773Y-108695196D01*
X103824505Y-108698796D01*
X103800001Y-108700000D01*
X103149999Y-108700000D01*
X103125495Y-108698796D01*
X103101227Y-108695196D01*
X103077428Y-108689235D01*
X103054329Y-108680970D01*
X103032150Y-108670480D01*
X103011107Y-108657868D01*
X102991401Y-108643253D01*
X102973223Y-108626777D01*
X102956747Y-108608599D01*
X102942132Y-108588893D01*
X102929520Y-108567850D01*
X102919030Y-108545671D01*
X102910765Y-108522572D01*
X102904804Y-108498773D01*
X102901204Y-108474505D01*
X102900000Y-108450001D01*
X102900000Y-107549999D01*
X102901204Y-107525495D01*
X102904804Y-107501227D01*
X102910765Y-107477428D01*
X102919030Y-107454329D01*
X102929520Y-107432150D01*
X102942132Y-107411107D01*
X102956747Y-107391401D01*
X102973223Y-107373223D01*
X102991401Y-107356747D01*
X103011107Y-107342132D01*
X103032150Y-107329520D01*
X103054329Y-107319030D01*
X103077428Y-107310765D01*
X103101227Y-107304804D01*
X103125495Y-107301204D01*
X103149999Y-107300000D01*
X103800001Y-107300000D01*
X103824505Y-107301204D01*
X103824505Y-107301204D01*
G37*
D11*
X103475000Y-108000000D03*
G04 #@! TD*
D10*
G04 #@! TO.C,C24*
G36*
X110874505Y-144301204D02*
X110898773Y-144304804D01*
X110922572Y-144310765D01*
X110945671Y-144319030D01*
X110967850Y-144329520D01*
X110988893Y-144342132D01*
X111008599Y-144356747D01*
X111026777Y-144373223D01*
X111043253Y-144391401D01*
X111057868Y-144411107D01*
X111070480Y-144432150D01*
X111080970Y-144454329D01*
X111089235Y-144477428D01*
X111095196Y-144501227D01*
X111098796Y-144525495D01*
X111100000Y-144549999D01*
X111100000Y-145450001D01*
X111098796Y-145474505D01*
X111095196Y-145498773D01*
X111089235Y-145522572D01*
X111080970Y-145545671D01*
X111070480Y-145567850D01*
X111057868Y-145588893D01*
X111043253Y-145608599D01*
X111026777Y-145626777D01*
X111008599Y-145643253D01*
X110988893Y-145657868D01*
X110967850Y-145670480D01*
X110945671Y-145680970D01*
X110922572Y-145689235D01*
X110898773Y-145695196D01*
X110874505Y-145698796D01*
X110850001Y-145700000D01*
X110199999Y-145700000D01*
X110175495Y-145698796D01*
X110151227Y-145695196D01*
X110127428Y-145689235D01*
X110104329Y-145680970D01*
X110082150Y-145670480D01*
X110061107Y-145657868D01*
X110041401Y-145643253D01*
X110023223Y-145626777D01*
X110006747Y-145608599D01*
X109992132Y-145588893D01*
X109979520Y-145567850D01*
X109969030Y-145545671D01*
X109960765Y-145522572D01*
X109954804Y-145498773D01*
X109951204Y-145474505D01*
X109950000Y-145450001D01*
X109950000Y-144549999D01*
X109951204Y-144525495D01*
X109954804Y-144501227D01*
X109960765Y-144477428D01*
X109969030Y-144454329D01*
X109979520Y-144432150D01*
X109992132Y-144411107D01*
X110006747Y-144391401D01*
X110023223Y-144373223D01*
X110041401Y-144356747D01*
X110061107Y-144342132D01*
X110082150Y-144329520D01*
X110104329Y-144319030D01*
X110127428Y-144310765D01*
X110151227Y-144304804D01*
X110175495Y-144301204D01*
X110199999Y-144300000D01*
X110850001Y-144300000D01*
X110874505Y-144301204D01*
X110874505Y-144301204D01*
G37*
D11*
X110525000Y-145000000D03*
D10*
G36*
X108824505Y-144301204D02*
X108848773Y-144304804D01*
X108872572Y-144310765D01*
X108895671Y-144319030D01*
X108917850Y-144329520D01*
X108938893Y-144342132D01*
X108958599Y-144356747D01*
X108976777Y-144373223D01*
X108993253Y-144391401D01*
X109007868Y-144411107D01*
X109020480Y-144432150D01*
X109030970Y-144454329D01*
X109039235Y-144477428D01*
X109045196Y-144501227D01*
X109048796Y-144525495D01*
X109050000Y-144549999D01*
X109050000Y-145450001D01*
X109048796Y-145474505D01*
X109045196Y-145498773D01*
X109039235Y-145522572D01*
X109030970Y-145545671D01*
X109020480Y-145567850D01*
X109007868Y-145588893D01*
X108993253Y-145608599D01*
X108976777Y-145626777D01*
X108958599Y-145643253D01*
X108938893Y-145657868D01*
X108917850Y-145670480D01*
X108895671Y-145680970D01*
X108872572Y-145689235D01*
X108848773Y-145695196D01*
X108824505Y-145698796D01*
X108800001Y-145700000D01*
X108149999Y-145700000D01*
X108125495Y-145698796D01*
X108101227Y-145695196D01*
X108077428Y-145689235D01*
X108054329Y-145680970D01*
X108032150Y-145670480D01*
X108011107Y-145657868D01*
X107991401Y-145643253D01*
X107973223Y-145626777D01*
X107956747Y-145608599D01*
X107942132Y-145588893D01*
X107929520Y-145567850D01*
X107919030Y-145545671D01*
X107910765Y-145522572D01*
X107904804Y-145498773D01*
X107901204Y-145474505D01*
X107900000Y-145450001D01*
X107900000Y-144549999D01*
X107901204Y-144525495D01*
X107904804Y-144501227D01*
X107910765Y-144477428D01*
X107919030Y-144454329D01*
X107929520Y-144432150D01*
X107942132Y-144411107D01*
X107956747Y-144391401D01*
X107973223Y-144373223D01*
X107991401Y-144356747D01*
X108011107Y-144342132D01*
X108032150Y-144329520D01*
X108054329Y-144319030D01*
X108077428Y-144310765D01*
X108101227Y-144304804D01*
X108125495Y-144301204D01*
X108149999Y-144300000D01*
X108800001Y-144300000D01*
X108824505Y-144301204D01*
X108824505Y-144301204D01*
G37*
D11*
X108475000Y-145000000D03*
G04 #@! TD*
D10*
G04 #@! TO.C,L3*
G36*
X101474505Y-104401204D02*
X101498773Y-104404804D01*
X101522572Y-104410765D01*
X101545671Y-104419030D01*
X101567850Y-104429520D01*
X101588893Y-104442132D01*
X101608599Y-104456747D01*
X101626777Y-104473223D01*
X101643253Y-104491401D01*
X101657868Y-104511107D01*
X101670480Y-104532150D01*
X101680970Y-104554329D01*
X101689235Y-104577428D01*
X101695196Y-104601227D01*
X101698796Y-104625495D01*
X101700000Y-104649999D01*
X101700000Y-105300001D01*
X101698796Y-105324505D01*
X101695196Y-105348773D01*
X101689235Y-105372572D01*
X101680970Y-105395671D01*
X101670480Y-105417850D01*
X101657868Y-105438893D01*
X101643253Y-105458599D01*
X101626777Y-105476777D01*
X101608599Y-105493253D01*
X101588893Y-105507868D01*
X101567850Y-105520480D01*
X101545671Y-105530970D01*
X101522572Y-105539235D01*
X101498773Y-105545196D01*
X101474505Y-105548796D01*
X101450001Y-105550000D01*
X100549999Y-105550000D01*
X100525495Y-105548796D01*
X100501227Y-105545196D01*
X100477428Y-105539235D01*
X100454329Y-105530970D01*
X100432150Y-105520480D01*
X100411107Y-105507868D01*
X100391401Y-105493253D01*
X100373223Y-105476777D01*
X100356747Y-105458599D01*
X100342132Y-105438893D01*
X100329520Y-105417850D01*
X100319030Y-105395671D01*
X100310765Y-105372572D01*
X100304804Y-105348773D01*
X100301204Y-105324505D01*
X100300000Y-105300001D01*
X100300000Y-104649999D01*
X100301204Y-104625495D01*
X100304804Y-104601227D01*
X100310765Y-104577428D01*
X100319030Y-104554329D01*
X100329520Y-104532150D01*
X100342132Y-104511107D01*
X100356747Y-104491401D01*
X100373223Y-104473223D01*
X100391401Y-104456747D01*
X100411107Y-104442132D01*
X100432150Y-104429520D01*
X100454329Y-104419030D01*
X100477428Y-104410765D01*
X100501227Y-104404804D01*
X100525495Y-104401204D01*
X100549999Y-104400000D01*
X101450001Y-104400000D01*
X101474505Y-104401204D01*
X101474505Y-104401204D01*
G37*
D11*
X101000000Y-104975000D03*
D10*
G36*
X101474505Y-106451204D02*
X101498773Y-106454804D01*
X101522572Y-106460765D01*
X101545671Y-106469030D01*
X101567850Y-106479520D01*
X101588893Y-106492132D01*
X101608599Y-106506747D01*
X101626777Y-106523223D01*
X101643253Y-106541401D01*
X101657868Y-106561107D01*
X101670480Y-106582150D01*
X101680970Y-106604329D01*
X101689235Y-106627428D01*
X101695196Y-106651227D01*
X101698796Y-106675495D01*
X101700000Y-106699999D01*
X101700000Y-107350001D01*
X101698796Y-107374505D01*
X101695196Y-107398773D01*
X101689235Y-107422572D01*
X101680970Y-107445671D01*
X101670480Y-107467850D01*
X101657868Y-107488893D01*
X101643253Y-107508599D01*
X101626777Y-107526777D01*
X101608599Y-107543253D01*
X101588893Y-107557868D01*
X101567850Y-107570480D01*
X101545671Y-107580970D01*
X101522572Y-107589235D01*
X101498773Y-107595196D01*
X101474505Y-107598796D01*
X101450001Y-107600000D01*
X100549999Y-107600000D01*
X100525495Y-107598796D01*
X100501227Y-107595196D01*
X100477428Y-107589235D01*
X100454329Y-107580970D01*
X100432150Y-107570480D01*
X100411107Y-107557868D01*
X100391401Y-107543253D01*
X100373223Y-107526777D01*
X100356747Y-107508599D01*
X100342132Y-107488893D01*
X100329520Y-107467850D01*
X100319030Y-107445671D01*
X100310765Y-107422572D01*
X100304804Y-107398773D01*
X100301204Y-107374505D01*
X100300000Y-107350001D01*
X100300000Y-106699999D01*
X100301204Y-106675495D01*
X100304804Y-106651227D01*
X100310765Y-106627428D01*
X100319030Y-106604329D01*
X100329520Y-106582150D01*
X100342132Y-106561107D01*
X100356747Y-106541401D01*
X100373223Y-106523223D01*
X100391401Y-106506747D01*
X100411107Y-106492132D01*
X100432150Y-106479520D01*
X100454329Y-106469030D01*
X100477428Y-106460765D01*
X100501227Y-106454804D01*
X100525495Y-106451204D01*
X100549999Y-106450000D01*
X101450001Y-106450000D01*
X101474505Y-106451204D01*
X101474505Y-106451204D01*
G37*
D11*
X101000000Y-107025000D03*
G04 #@! TD*
D10*
G04 #@! TO.C,L4*
G36*
X109874505Y-107301204D02*
X109898773Y-107304804D01*
X109922572Y-107310765D01*
X109945671Y-107319030D01*
X109967850Y-107329520D01*
X109988893Y-107342132D01*
X110008599Y-107356747D01*
X110026777Y-107373223D01*
X110043253Y-107391401D01*
X110057868Y-107411107D01*
X110070480Y-107432150D01*
X110080970Y-107454329D01*
X110089235Y-107477428D01*
X110095196Y-107501227D01*
X110098796Y-107525495D01*
X110100000Y-107549999D01*
X110100000Y-108450001D01*
X110098796Y-108474505D01*
X110095196Y-108498773D01*
X110089235Y-108522572D01*
X110080970Y-108545671D01*
X110070480Y-108567850D01*
X110057868Y-108588893D01*
X110043253Y-108608599D01*
X110026777Y-108626777D01*
X110008599Y-108643253D01*
X109988893Y-108657868D01*
X109967850Y-108670480D01*
X109945671Y-108680970D01*
X109922572Y-108689235D01*
X109898773Y-108695196D01*
X109874505Y-108698796D01*
X109850001Y-108700000D01*
X109199999Y-108700000D01*
X109175495Y-108698796D01*
X109151227Y-108695196D01*
X109127428Y-108689235D01*
X109104329Y-108680970D01*
X109082150Y-108670480D01*
X109061107Y-108657868D01*
X109041401Y-108643253D01*
X109023223Y-108626777D01*
X109006747Y-108608599D01*
X108992132Y-108588893D01*
X108979520Y-108567850D01*
X108969030Y-108545671D01*
X108960765Y-108522572D01*
X108954804Y-108498773D01*
X108951204Y-108474505D01*
X108950000Y-108450001D01*
X108950000Y-107549999D01*
X108951204Y-107525495D01*
X108954804Y-107501227D01*
X108960765Y-107477428D01*
X108969030Y-107454329D01*
X108979520Y-107432150D01*
X108992132Y-107411107D01*
X109006747Y-107391401D01*
X109023223Y-107373223D01*
X109041401Y-107356747D01*
X109061107Y-107342132D01*
X109082150Y-107329520D01*
X109104329Y-107319030D01*
X109127428Y-107310765D01*
X109151227Y-107304804D01*
X109175495Y-107301204D01*
X109199999Y-107300000D01*
X109850001Y-107300000D01*
X109874505Y-107301204D01*
X109874505Y-107301204D01*
G37*
D11*
X109525000Y-108000000D03*
D10*
G36*
X107824505Y-107301204D02*
X107848773Y-107304804D01*
X107872572Y-107310765D01*
X107895671Y-107319030D01*
X107917850Y-107329520D01*
X107938893Y-107342132D01*
X107958599Y-107356747D01*
X107976777Y-107373223D01*
X107993253Y-107391401D01*
X108007868Y-107411107D01*
X108020480Y-107432150D01*
X108030970Y-107454329D01*
X108039235Y-107477428D01*
X108045196Y-107501227D01*
X108048796Y-107525495D01*
X108050000Y-107549999D01*
X108050000Y-108450001D01*
X108048796Y-108474505D01*
X108045196Y-108498773D01*
X108039235Y-108522572D01*
X108030970Y-108545671D01*
X108020480Y-108567850D01*
X108007868Y-108588893D01*
X107993253Y-108608599D01*
X107976777Y-108626777D01*
X107958599Y-108643253D01*
X107938893Y-108657868D01*
X107917850Y-108670480D01*
X107895671Y-108680970D01*
X107872572Y-108689235D01*
X107848773Y-108695196D01*
X107824505Y-108698796D01*
X107800001Y-108700000D01*
X107149999Y-108700000D01*
X107125495Y-108698796D01*
X107101227Y-108695196D01*
X107077428Y-108689235D01*
X107054329Y-108680970D01*
X107032150Y-108670480D01*
X107011107Y-108657868D01*
X106991401Y-108643253D01*
X106973223Y-108626777D01*
X106956747Y-108608599D01*
X106942132Y-108588893D01*
X106929520Y-108567850D01*
X106919030Y-108545671D01*
X106910765Y-108522572D01*
X106904804Y-108498773D01*
X106901204Y-108474505D01*
X106900000Y-108450001D01*
X106900000Y-107549999D01*
X106901204Y-107525495D01*
X106904804Y-107501227D01*
X106910765Y-107477428D01*
X106919030Y-107454329D01*
X106929520Y-107432150D01*
X106942132Y-107411107D01*
X106956747Y-107391401D01*
X106973223Y-107373223D01*
X106991401Y-107356747D01*
X107011107Y-107342132D01*
X107032150Y-107329520D01*
X107054329Y-107319030D01*
X107077428Y-107310765D01*
X107101227Y-107304804D01*
X107125495Y-107301204D01*
X107149999Y-107300000D01*
X107800001Y-107300000D01*
X107824505Y-107301204D01*
X107824505Y-107301204D01*
G37*
D11*
X107475000Y-108000000D03*
G04 #@! TD*
D10*
G04 #@! TO.C,L5*
G36*
X141824505Y-98801204D02*
X141848773Y-98804804D01*
X141872572Y-98810765D01*
X141895671Y-98819030D01*
X141917850Y-98829520D01*
X141938893Y-98842132D01*
X141958599Y-98856747D01*
X141976777Y-98873223D01*
X141993253Y-98891401D01*
X142007868Y-98911107D01*
X142020480Y-98932150D01*
X142030970Y-98954329D01*
X142039235Y-98977428D01*
X142045196Y-99001227D01*
X142048796Y-99025495D01*
X142050000Y-99049999D01*
X142050000Y-99950001D01*
X142048796Y-99974505D01*
X142045196Y-99998773D01*
X142039235Y-100022572D01*
X142030970Y-100045671D01*
X142020480Y-100067850D01*
X142007868Y-100088893D01*
X141993253Y-100108599D01*
X141976777Y-100126777D01*
X141958599Y-100143253D01*
X141938893Y-100157868D01*
X141917850Y-100170480D01*
X141895671Y-100180970D01*
X141872572Y-100189235D01*
X141848773Y-100195196D01*
X141824505Y-100198796D01*
X141800001Y-100200000D01*
X141149999Y-100200000D01*
X141125495Y-100198796D01*
X141101227Y-100195196D01*
X141077428Y-100189235D01*
X141054329Y-100180970D01*
X141032150Y-100170480D01*
X141011107Y-100157868D01*
X140991401Y-100143253D01*
X140973223Y-100126777D01*
X140956747Y-100108599D01*
X140942132Y-100088893D01*
X140929520Y-100067850D01*
X140919030Y-100045671D01*
X140910765Y-100022572D01*
X140904804Y-99998773D01*
X140901204Y-99974505D01*
X140900000Y-99950001D01*
X140900000Y-99049999D01*
X140901204Y-99025495D01*
X140904804Y-99001227D01*
X140910765Y-98977428D01*
X140919030Y-98954329D01*
X140929520Y-98932150D01*
X140942132Y-98911107D01*
X140956747Y-98891401D01*
X140973223Y-98873223D01*
X140991401Y-98856747D01*
X141011107Y-98842132D01*
X141032150Y-98829520D01*
X141054329Y-98819030D01*
X141077428Y-98810765D01*
X141101227Y-98804804D01*
X141125495Y-98801204D01*
X141149999Y-98800000D01*
X141800001Y-98800000D01*
X141824505Y-98801204D01*
X141824505Y-98801204D01*
G37*
D11*
X141475000Y-99500000D03*
D10*
G36*
X143874505Y-98801204D02*
X143898773Y-98804804D01*
X143922572Y-98810765D01*
X143945671Y-98819030D01*
X143967850Y-98829520D01*
X143988893Y-98842132D01*
X144008599Y-98856747D01*
X144026777Y-98873223D01*
X144043253Y-98891401D01*
X144057868Y-98911107D01*
X144070480Y-98932150D01*
X144080970Y-98954329D01*
X144089235Y-98977428D01*
X144095196Y-99001227D01*
X144098796Y-99025495D01*
X144100000Y-99049999D01*
X144100000Y-99950001D01*
X144098796Y-99974505D01*
X144095196Y-99998773D01*
X144089235Y-100022572D01*
X144080970Y-100045671D01*
X144070480Y-100067850D01*
X144057868Y-100088893D01*
X144043253Y-100108599D01*
X144026777Y-100126777D01*
X144008599Y-100143253D01*
X143988893Y-100157868D01*
X143967850Y-100170480D01*
X143945671Y-100180970D01*
X143922572Y-100189235D01*
X143898773Y-100195196D01*
X143874505Y-100198796D01*
X143850001Y-100200000D01*
X143199999Y-100200000D01*
X143175495Y-100198796D01*
X143151227Y-100195196D01*
X143127428Y-100189235D01*
X143104329Y-100180970D01*
X143082150Y-100170480D01*
X143061107Y-100157868D01*
X143041401Y-100143253D01*
X143023223Y-100126777D01*
X143006747Y-100108599D01*
X142992132Y-100088893D01*
X142979520Y-100067850D01*
X142969030Y-100045671D01*
X142960765Y-100022572D01*
X142954804Y-99998773D01*
X142951204Y-99974505D01*
X142950000Y-99950001D01*
X142950000Y-99049999D01*
X142951204Y-99025495D01*
X142954804Y-99001227D01*
X142960765Y-98977428D01*
X142969030Y-98954329D01*
X142979520Y-98932150D01*
X142992132Y-98911107D01*
X143006747Y-98891401D01*
X143023223Y-98873223D01*
X143041401Y-98856747D01*
X143061107Y-98842132D01*
X143082150Y-98829520D01*
X143104329Y-98819030D01*
X143127428Y-98810765D01*
X143151227Y-98804804D01*
X143175495Y-98801204D01*
X143199999Y-98800000D01*
X143850001Y-98800000D01*
X143874505Y-98801204D01*
X143874505Y-98801204D01*
G37*
D11*
X143525000Y-99500000D03*
G04 #@! TD*
M02*
