G04 #@! TF.GenerationSoftware,KiCad,Pcbnew,(5.0.1)-3*
G04 #@! TF.CreationDate,2021-11-06T13:35:58+01:00*
G04 #@! TF.ProjectId,pocketDSP,706F636B65744453502E6B696361645F,rev?*
G04 #@! TF.SameCoordinates,Original*
G04 #@! TF.FileFunction,Legend,Top*
G04 #@! TF.FilePolarity,Positive*
%FSLAX46Y46*%
G04 Gerber Fmt 4.6, Leading zero omitted, Abs format (unit mm)*
G04 Created by KiCad (PCBNEW (5.0.1)-3) date 06/11/2021 13:35:58*
%MOMM*%
%LPD*%
G01*
G04 APERTURE LIST*
%ADD10C,0.200000*%
%ADD11C,0.300000*%
%ADD12C,0.120000*%
%ADD13C,0.150000*%
%ADD14C,0.127000*%
%ADD15C,0.340000*%
%ADD16C,0.080000*%
%ADD17C,0.015000*%
%ADD18C,0.100000*%
G04 APERTURE END LIST*
D10*
X104142857Y-120728571D02*
X104285714Y-120776190D01*
X104333333Y-120823809D01*
X104380952Y-120919047D01*
X104380952Y-121061904D01*
X104333333Y-121157142D01*
X104285714Y-121204761D01*
X104190476Y-121252380D01*
X103809523Y-121252380D01*
X103809523Y-120252380D01*
X104142857Y-120252380D01*
X104238095Y-120300000D01*
X104285714Y-120347619D01*
X104333333Y-120442857D01*
X104333333Y-120538095D01*
X104285714Y-120633333D01*
X104238095Y-120680952D01*
X104142857Y-120728571D01*
X103809523Y-120728571D01*
X105000000Y-120252380D02*
X105190476Y-120252380D01*
X105285714Y-120300000D01*
X105380952Y-120395238D01*
X105428571Y-120585714D01*
X105428571Y-120919047D01*
X105380952Y-121109523D01*
X105285714Y-121204761D01*
X105190476Y-121252380D01*
X105000000Y-121252380D01*
X104904761Y-121204761D01*
X104809523Y-121109523D01*
X104761904Y-120919047D01*
X104761904Y-120585714D01*
X104809523Y-120395238D01*
X104904761Y-120300000D01*
X105000000Y-120252380D01*
X106047619Y-120252380D02*
X106238095Y-120252380D01*
X106333333Y-120300000D01*
X106428571Y-120395238D01*
X106476190Y-120585714D01*
X106476190Y-120919047D01*
X106428571Y-121109523D01*
X106333333Y-121204761D01*
X106238095Y-121252380D01*
X106047619Y-121252380D01*
X105952380Y-121204761D01*
X105857142Y-121109523D01*
X105809523Y-120919047D01*
X105809523Y-120585714D01*
X105857142Y-120395238D01*
X105952380Y-120300000D01*
X106047619Y-120252380D01*
X106761904Y-120252380D02*
X107333333Y-120252380D01*
X107047619Y-121252380D02*
X107047619Y-120252380D01*
X104285714Y-124652380D02*
X104285714Y-123652380D01*
X104523809Y-123652380D01*
X104666666Y-123700000D01*
X104761904Y-123795238D01*
X104809523Y-123890476D01*
X104857142Y-124080952D01*
X104857142Y-124223809D01*
X104809523Y-124414285D01*
X104761904Y-124509523D01*
X104666666Y-124604761D01*
X104523809Y-124652380D01*
X104285714Y-124652380D01*
X105619047Y-124128571D02*
X105285714Y-124128571D01*
X105285714Y-124652380D02*
X105285714Y-123652380D01*
X105761904Y-123652380D01*
X106142857Y-123652380D02*
X106142857Y-124461904D01*
X106190476Y-124557142D01*
X106238095Y-124604761D01*
X106333333Y-124652380D01*
X106523809Y-124652380D01*
X106619047Y-124604761D01*
X106666666Y-124557142D01*
X106714285Y-124461904D01*
X106714285Y-123652380D01*
D11*
X145107142Y-135714285D02*
X145107142Y-136857142D01*
X145678571Y-136285714D02*
X144535714Y-136285714D01*
X145107142Y-142142857D02*
X145107142Y-143285714D01*
D10*
X138250000Y-98500000D02*
G75*
G03X138250000Y-98500000I-250000J0D01*
G01*
X95500000Y-139750000D02*
G75*
G03X95500000Y-139750000I-250000J0D01*
G01*
X113250000Y-110500000D02*
G75*
G03X113250000Y-110500000I-250000J0D01*
G01*
X100250000Y-104500000D02*
G75*
G03X100250000Y-104500000I-250000J0D01*
G01*
X150750000Y-97000000D02*
G75*
G03X150750000Y-97000000I-250000J0D01*
G01*
X134500000Y-117750000D02*
G75*
G03X134500000Y-117750000I-250000J0D01*
G01*
D12*
G04 #@! TO.C,C19*
X155210000Y-129738748D02*
X155210000Y-130261252D01*
X153790000Y-129738748D02*
X153790000Y-130261252D01*
G04 #@! TO.C,C23*
X144738748Y-124290000D02*
X145261252Y-124290000D01*
X144738748Y-125710000D02*
X145261252Y-125710000D01*
G04 #@! TO.C,C25*
X144738748Y-127710000D02*
X145261252Y-127710000D01*
X144738748Y-126290000D02*
X145261252Y-126290000D01*
G04 #@! TO.C,C27*
X135738748Y-128290000D02*
X136261252Y-128290000D01*
X135738748Y-129710000D02*
X136261252Y-129710000D01*
G04 #@! TO.C,D1*
X165185000Y-118540000D02*
X162500000Y-118540000D01*
X165185000Y-120460000D02*
X165185000Y-118540000D01*
X162500000Y-120460000D02*
X165185000Y-120460000D01*
G04 #@! TO.C,D2*
X82960000Y-140000000D02*
X82960000Y-137315000D01*
X82960000Y-137315000D02*
X81040000Y-137315000D01*
X81040000Y-137315000D02*
X81040000Y-140000000D01*
G04 #@! TO.C,D3*
X143250000Y-121500000D02*
X143250000Y-123500000D01*
X143250000Y-123500000D02*
X147150000Y-123500000D01*
X143250000Y-121500000D02*
X147150000Y-121500000D01*
G04 #@! TO.C,D4*
X81040000Y-134000000D02*
X81040000Y-136685000D01*
X81040000Y-136685000D02*
X82960000Y-136685000D01*
X82960000Y-136685000D02*
X82960000Y-134000000D01*
G04 #@! TO.C,D5*
X165800000Y-139750000D02*
X165800000Y-146250000D01*
X165800000Y-139750000D02*
X154600000Y-139750000D01*
X165800000Y-146250000D02*
X154600000Y-146250000D01*
D13*
G04 #@! TO.C,F1*
X165365000Y-138015000D02*
X155635000Y-138015000D01*
X155635000Y-132985000D02*
X155635000Y-133220000D01*
X155635000Y-137780000D02*
X155635000Y-138015000D01*
X165365000Y-132985000D02*
X155635000Y-132985000D01*
X165365000Y-132985000D02*
X165365000Y-133220000D01*
X165365000Y-137780000D02*
X165365000Y-138015000D01*
G04 #@! TO.C,J2*
X84150000Y-116850000D02*
X82750000Y-116850000D01*
X80350000Y-116850000D02*
X80200000Y-116850000D01*
X80200000Y-116850000D02*
X80200000Y-117150000D01*
X80200000Y-117150000D02*
X79750000Y-117150000D01*
X79750000Y-124850000D02*
X80200000Y-124850000D01*
X80200000Y-124850000D02*
X80200000Y-125150000D01*
X80200000Y-125150000D02*
X80350000Y-125150000D01*
X82750000Y-125150000D02*
X84150000Y-125150000D01*
X86325000Y-119925000D02*
X86325000Y-119200000D01*
X86325000Y-119200000D02*
X85900000Y-119200000D01*
X85900000Y-119200000D02*
X85900000Y-118200000D01*
X85900000Y-122800000D02*
X85900000Y-123800000D01*
D14*
G04 #@! TO.C,J3*
X92700000Y-102000000D02*
X80300000Y-102000000D01*
X80300000Y-102000000D02*
X80300000Y-91000000D01*
X92700000Y-102000000D02*
X92700000Y-91000000D01*
X92700000Y-91000000D02*
X91000000Y-91000000D01*
X82000000Y-91000000D02*
X80300000Y-91000000D01*
X91000000Y-91000000D02*
X91000000Y-90200000D01*
X82000000Y-91000000D02*
X82000000Y-90200000D01*
D15*
X93470000Y-94500000D02*
G75*
G03X93470000Y-94500000I-170000J0D01*
G01*
G04 #@! TO.C,J4*
X167470000Y-94500000D02*
G75*
G03X167470000Y-94500000I-170000J0D01*
G01*
D14*
X156000000Y-91000000D02*
X156000000Y-90200000D01*
X165000000Y-91000000D02*
X165000000Y-90200000D01*
X156000000Y-91000000D02*
X154300000Y-91000000D01*
X166700000Y-91000000D02*
X165000000Y-91000000D01*
X166700000Y-102000000D02*
X166700000Y-91000000D01*
X154300000Y-102000000D02*
X154300000Y-91000000D01*
X166700000Y-102000000D02*
X154300000Y-102000000D01*
D12*
G04 #@! TO.C,U2*
X118415000Y-104390000D02*
X117715000Y-104390000D01*
X117715000Y-104390000D02*
X117715000Y-105090000D01*
X131235000Y-104390000D02*
X131935000Y-104390000D01*
X131935000Y-104390000D02*
X131935000Y-105090000D01*
X118415000Y-118610000D02*
X117715000Y-118610000D01*
X117715000Y-118610000D02*
X117715000Y-117910000D01*
X131235000Y-118610000D02*
X131935000Y-118610000D01*
X131935000Y-118610000D02*
X131935000Y-117910000D01*
X131935000Y-117910000D02*
X133300000Y-117910000D01*
G04 #@! TO.C,U3*
X150100000Y-131610000D02*
X151900000Y-131610000D01*
X151900000Y-128390000D02*
X149450000Y-128390000D01*
G04 #@! TO.C,U4*
X140910000Y-121090000D02*
X139650000Y-121090000D01*
X134090000Y-121090000D02*
X135350000Y-121090000D01*
X140910000Y-124850000D02*
X140910000Y-121090000D01*
X134090000Y-127100000D02*
X134090000Y-121090000D01*
G04 #@! TO.C,U5*
X94440000Y-108000000D02*
X94440000Y-109950000D01*
X94440000Y-108000000D02*
X94440000Y-106050000D01*
X99560000Y-108000000D02*
X99560000Y-109950000D01*
X99560000Y-108000000D02*
X99560000Y-104550000D01*
D13*
G04 #@! TO.C,U6*
X110700000Y-105275000D02*
X106300000Y-105275000D01*
X112275000Y-110800000D02*
X106300000Y-110800000D01*
G04 #@! TO.C,U7*
X138875000Y-98875000D02*
X138875000Y-99050000D01*
X142125000Y-98875000D02*
X142125000Y-99150000D01*
X142125000Y-102125000D02*
X142125000Y-101850000D01*
X138875000Y-102125000D02*
X138875000Y-101850000D01*
X138875000Y-98875000D02*
X142125000Y-98875000D01*
X138875000Y-102125000D02*
X142125000Y-102125000D01*
X138875000Y-99050000D02*
X137800000Y-99050000D01*
D12*
G04 #@! TO.C,Y1*
X141700000Y-112450000D02*
X134450000Y-112450000D01*
X134450000Y-112450000D02*
X134450000Y-116050000D01*
X134450000Y-116050000D02*
X141700000Y-116050000D01*
G04 #@! TO.C,SW2*
X163880000Y-126100000D02*
X163880000Y-125900000D01*
X168020000Y-128900000D02*
X168230000Y-128700000D01*
X168020000Y-127600000D02*
X168230000Y-127800000D01*
X166730000Y-128900000D02*
X168020000Y-128900000D01*
X168230000Y-128700000D02*
X168230000Y-127800000D01*
X168020000Y-127600000D02*
X166730000Y-127600000D01*
X166730000Y-130350000D02*
X166730000Y-124650000D01*
X163880000Y-129100000D02*
X163880000Y-127400000D01*
X164930000Y-130950000D02*
X165720000Y-130950000D01*
X165720000Y-124050000D02*
X164930000Y-124050000D01*
G04 #@! TO.C,SW3*
X112620000Y-123900000D02*
X112620000Y-124100000D01*
X108480000Y-121100000D02*
X108270000Y-121300000D01*
X108480000Y-122400000D02*
X108270000Y-122200000D01*
X109770000Y-121100000D02*
X108480000Y-121100000D01*
X108270000Y-121300000D02*
X108270000Y-122200000D01*
X108480000Y-122400000D02*
X109770000Y-122400000D01*
X109770000Y-119650000D02*
X109770000Y-125350000D01*
X112620000Y-120900000D02*
X112620000Y-122600000D01*
X111570000Y-119050000D02*
X110780000Y-119050000D01*
X110780000Y-125950000D02*
X111570000Y-125950000D01*
G04 #@! TO.C,U8*
X144940000Y-100500000D02*
X144940000Y-102450000D01*
X144940000Y-100500000D02*
X144940000Y-98550000D01*
X150060000Y-100500000D02*
X150060000Y-102450000D01*
X150060000Y-100500000D02*
X150060000Y-97050000D01*
G04 #@! TO.C,IC1*
X91500000Y-134440000D02*
X89550000Y-134440000D01*
X91500000Y-134440000D02*
X93450000Y-134440000D01*
X91500000Y-139560000D02*
X89550000Y-139560000D01*
X91500000Y-139560000D02*
X94950000Y-139560000D01*
G04 #@! TO.C,L2*
X151500000Y-127510000D02*
X150500000Y-127510000D01*
X151500000Y-122490000D02*
X150500000Y-122490000D01*
G04 #@! TO.C,C13*
X136738748Y-117960000D02*
X137261252Y-117960000D01*
X136738748Y-116540000D02*
X137261252Y-116540000D01*
G04 #@! TO.C,C14*
X140738748Y-116540000D02*
X141261252Y-116540000D01*
X140738748Y-117960000D02*
X141261252Y-117960000D01*
G04 #@! TO.C,C15*
X143238748Y-110290000D02*
X143761252Y-110290000D01*
X143238748Y-111710000D02*
X143761252Y-111710000D01*
G04 #@! TO.C,C17*
X148790000Y-106238748D02*
X148790000Y-106761252D01*
X150210000Y-106238748D02*
X150210000Y-106761252D01*
G04 #@! TO.C,C18*
X149261252Y-94790000D02*
X148738748Y-94790000D01*
X149261252Y-96210000D02*
X148738748Y-96210000D01*
G04 #@! TO.C,C20*
X151710000Y-119261252D02*
X151710000Y-118738748D01*
X150290000Y-119261252D02*
X150290000Y-118738748D01*
G04 #@! TO.C,C21*
X97761252Y-135710000D02*
X97238748Y-135710000D01*
X97761252Y-134290000D02*
X97238748Y-134290000D01*
G04 #@! TO.C,C22*
X141290000Y-130261252D02*
X141290000Y-129738748D01*
X142710000Y-130261252D02*
X142710000Y-129738748D01*
G04 #@! TO.C,C26*
X135738748Y-130290000D02*
X136261252Y-130290000D01*
X135738748Y-131710000D02*
X136261252Y-131710000D01*
G04 #@! TO.C,C39*
X97261252Y-112290000D02*
X96738748Y-112290000D01*
X97261252Y-113710000D02*
X96738748Y-113710000D01*
G04 #@! TO.C,C40*
X98261252Y-103710000D02*
X97738748Y-103710000D01*
X98261252Y-102290000D02*
X97738748Y-102290000D01*
G04 #@! TO.C,C41*
X99290000Y-115738748D02*
X99290000Y-116261252D01*
X100710000Y-115738748D02*
X100710000Y-116261252D01*
G04 #@! TO.C,C42*
X95710000Y-100261252D02*
X95710000Y-99738748D01*
X94290000Y-100261252D02*
X94290000Y-99738748D01*
G04 #@! TO.C,C51*
X152238748Y-104210000D02*
X152761252Y-104210000D01*
X152238748Y-102790000D02*
X152761252Y-102790000D01*
G04 #@! TO.C,C52*
X146710000Y-92761252D02*
X146710000Y-92238748D01*
X145290000Y-92761252D02*
X145290000Y-92238748D01*
G04 #@! TO.C,J1*
X146800000Y-137700000D02*
X146800000Y-134300000D01*
X150200000Y-137700000D02*
X146800000Y-137700000D01*
X150200000Y-134300000D02*
X150200000Y-137700000D01*
X146800000Y-134300000D02*
X150200000Y-134300000D01*
G04 #@! TO.C,J5*
X146800000Y-141300000D02*
X150200000Y-141300000D01*
X150200000Y-141300000D02*
X150200000Y-144700000D01*
X150200000Y-144700000D02*
X146800000Y-144700000D01*
X146800000Y-144700000D02*
X146800000Y-141300000D01*
D14*
G04 #@! TO.C,MK1*
X165850000Y-110500000D02*
G75*
G03X165850000Y-110500000I-4850000J0D01*
G01*
D12*
G04 #@! TO.C,R1*
X116761252Y-123710000D02*
X116238748Y-123710000D01*
X116761252Y-122290000D02*
X116238748Y-122290000D01*
G04 #@! TO.C,R2*
X152761252Y-106790000D02*
X152238748Y-106790000D01*
X152761252Y-108210000D02*
X152238748Y-108210000D01*
G04 #@! TO.C,R3*
X159761252Y-118790000D02*
X159238748Y-118790000D01*
X159761252Y-120210000D02*
X159238748Y-120210000D01*
G04 #@! TO.C,R4*
X152790000Y-119261252D02*
X152790000Y-118738748D01*
X154210000Y-119261252D02*
X154210000Y-118738748D01*
G04 #@! TO.C,R5*
X147790000Y-118738748D02*
X147790000Y-119261252D01*
X149210000Y-118738748D02*
X149210000Y-119261252D01*
G04 #@! TO.C,R6*
X85238748Y-137290000D02*
X85761252Y-137290000D01*
X85238748Y-138710000D02*
X85761252Y-138710000D01*
G04 #@! TO.C,R7*
X143290000Y-129738748D02*
X143290000Y-130261252D01*
X144710000Y-129738748D02*
X144710000Y-130261252D01*
G04 #@! TO.C,R8*
X145290000Y-130261252D02*
X145290000Y-129738748D01*
X146710000Y-130261252D02*
X146710000Y-129738748D01*
G04 #@! TO.C,R9*
X85238748Y-135290000D02*
X85761252Y-135290000D01*
X85238748Y-136710000D02*
X85761252Y-136710000D01*
G04 #@! TO.C,R10*
X97238748Y-138710000D02*
X97761252Y-138710000D01*
X97238748Y-137290000D02*
X97761252Y-137290000D01*
G04 #@! TO.C,R17*
X96710000Y-116261252D02*
X96710000Y-115738748D01*
X95290000Y-116261252D02*
X95290000Y-115738748D01*
G04 #@! TO.C,R18*
X96290000Y-99738748D02*
X96290000Y-100261252D01*
X97710000Y-99738748D02*
X97710000Y-100261252D01*
G04 #@! TO.C,R19*
X98710000Y-115738748D02*
X98710000Y-116261252D01*
X97290000Y-115738748D02*
X97290000Y-116261252D01*
G04 #@! TO.C,R20*
X98290000Y-100261252D02*
X98290000Y-99738748D01*
X99710000Y-100261252D02*
X99710000Y-99738748D01*
G04 #@! TO.C,R23*
X147290000Y-92238748D02*
X147290000Y-92761252D01*
X148710000Y-92238748D02*
X148710000Y-92761252D01*
G04 #@! TO.C,R24*
X152238748Y-104790000D02*
X152761252Y-104790000D01*
X152238748Y-106210000D02*
X152761252Y-106210000D01*
G04 #@! TO.C,R25*
X149290000Y-92761252D02*
X149290000Y-92238748D01*
X150710000Y-92761252D02*
X150710000Y-92238748D01*
G04 #@! TO.C,R26*
X159238748Y-117710000D02*
X159761252Y-117710000D01*
X159238748Y-116290000D02*
X159761252Y-116290000D01*
G04 #@! TO.C,R27*
X163761252Y-117710000D02*
X163238748Y-117710000D01*
X163761252Y-116290000D02*
X163238748Y-116290000D01*
G04 #@! TO.C,SW1*
X140120000Y-107380000D02*
X140120000Y-110620000D01*
X140120000Y-110620000D02*
X140020000Y-110620000D01*
X140120000Y-107380000D02*
X140020000Y-107380000D01*
X137880000Y-107380000D02*
X137880000Y-110620000D01*
X137980000Y-110620000D02*
X137880000Y-110620000D01*
X137980000Y-107380000D02*
X137880000Y-107380000D01*
D10*
G04 #@! TO.C,U1*
X80000000Y-90000000D02*
X167000000Y-90000000D01*
X80000000Y-147500000D02*
X167000000Y-147500000D01*
X80000000Y-90000000D02*
X80000000Y-147500000D01*
X167000000Y-90000000D02*
X167000000Y-147500000D01*
D12*
G04 #@! TO.C,C7*
X140435000Y-132100000D02*
X140435000Y-128015000D01*
X140435000Y-128015000D02*
X138565000Y-128015000D01*
X138565000Y-128015000D02*
X138565000Y-132100000D01*
G04 #@! TO.C,C10*
X159238748Y-121290000D02*
X159761252Y-121290000D01*
X159238748Y-122710000D02*
X159761252Y-122710000D01*
G04 #@! TO.C,C43*
X161515000Y-104435000D02*
X165600000Y-104435000D01*
X161515000Y-102565000D02*
X161515000Y-104435000D01*
X165600000Y-102565000D02*
X161515000Y-102565000D01*
G04 #@! TO.C,C44*
X153435000Y-96100000D02*
X153435000Y-92015000D01*
X153435000Y-92015000D02*
X151565000Y-92015000D01*
X151565000Y-92015000D02*
X151565000Y-96100000D01*
G04 #@! TO.C,C19*
D16*
X154114285Y-130214285D02*
X154085714Y-130242857D01*
X154000000Y-130271428D01*
X153942857Y-130271428D01*
X153857142Y-130242857D01*
X153800000Y-130185714D01*
X153771428Y-130128571D01*
X153742857Y-130014285D01*
X153742857Y-129928571D01*
X153771428Y-129814285D01*
X153800000Y-129757142D01*
X153857142Y-129700000D01*
X153942857Y-129671428D01*
X154000000Y-129671428D01*
X154085714Y-129700000D01*
X154114285Y-129728571D01*
X154685714Y-130271428D02*
X154342857Y-130271428D01*
X154514285Y-130271428D02*
X154514285Y-129671428D01*
X154457142Y-129757142D01*
X154400000Y-129814285D01*
X154342857Y-129842857D01*
X154971428Y-130271428D02*
X155085714Y-130271428D01*
X155142857Y-130242857D01*
X155171428Y-130214285D01*
X155228571Y-130128571D01*
X155257142Y-130014285D01*
X155257142Y-129785714D01*
X155228571Y-129728571D01*
X155200000Y-129700000D01*
X155142857Y-129671428D01*
X155028571Y-129671428D01*
X154971428Y-129700000D01*
X154942857Y-129728571D01*
X154914285Y-129785714D01*
X154914285Y-129928571D01*
X154942857Y-129985714D01*
X154971428Y-130014285D01*
X155028571Y-130042857D01*
X155142857Y-130042857D01*
X155200000Y-130014285D01*
X155228571Y-129985714D01*
X155257142Y-129928571D01*
G04 #@! TO.C,C23*
X145214285Y-125385714D02*
X145242857Y-125414285D01*
X145271428Y-125500000D01*
X145271428Y-125557142D01*
X145242857Y-125642857D01*
X145185714Y-125700000D01*
X145128571Y-125728571D01*
X145014285Y-125757142D01*
X144928571Y-125757142D01*
X144814285Y-125728571D01*
X144757142Y-125700000D01*
X144700000Y-125642857D01*
X144671428Y-125557142D01*
X144671428Y-125500000D01*
X144700000Y-125414285D01*
X144728571Y-125385714D01*
X144728571Y-125157142D02*
X144700000Y-125128571D01*
X144671428Y-125071428D01*
X144671428Y-124928571D01*
X144700000Y-124871428D01*
X144728571Y-124842857D01*
X144785714Y-124814285D01*
X144842857Y-124814285D01*
X144928571Y-124842857D01*
X145271428Y-125185714D01*
X145271428Y-124814285D01*
X144671428Y-124614285D02*
X144671428Y-124242857D01*
X144900000Y-124442857D01*
X144900000Y-124357142D01*
X144928571Y-124300000D01*
X144957142Y-124271428D01*
X145014285Y-124242857D01*
X145157142Y-124242857D01*
X145214285Y-124271428D01*
X145242857Y-124300000D01*
X145271428Y-124357142D01*
X145271428Y-124528571D01*
X145242857Y-124585714D01*
X145214285Y-124614285D01*
G04 #@! TO.C,C25*
X145214285Y-127385714D02*
X145242857Y-127414285D01*
X145271428Y-127500000D01*
X145271428Y-127557142D01*
X145242857Y-127642857D01*
X145185714Y-127700000D01*
X145128571Y-127728571D01*
X145014285Y-127757142D01*
X144928571Y-127757142D01*
X144814285Y-127728571D01*
X144757142Y-127700000D01*
X144700000Y-127642857D01*
X144671428Y-127557142D01*
X144671428Y-127500000D01*
X144700000Y-127414285D01*
X144728571Y-127385714D01*
X144728571Y-127157142D02*
X144700000Y-127128571D01*
X144671428Y-127071428D01*
X144671428Y-126928571D01*
X144700000Y-126871428D01*
X144728571Y-126842857D01*
X144785714Y-126814285D01*
X144842857Y-126814285D01*
X144928571Y-126842857D01*
X145271428Y-127185714D01*
X145271428Y-126814285D01*
X144671428Y-126271428D02*
X144671428Y-126557142D01*
X144957142Y-126585714D01*
X144928571Y-126557142D01*
X144900000Y-126500000D01*
X144900000Y-126357142D01*
X144928571Y-126300000D01*
X144957142Y-126271428D01*
X145014285Y-126242857D01*
X145157142Y-126242857D01*
X145214285Y-126271428D01*
X145242857Y-126300000D01*
X145271428Y-126357142D01*
X145271428Y-126500000D01*
X145242857Y-126557142D01*
X145214285Y-126585714D01*
G04 #@! TO.C,C27*
X136214285Y-129385714D02*
X136242857Y-129414285D01*
X136271428Y-129500000D01*
X136271428Y-129557142D01*
X136242857Y-129642857D01*
X136185714Y-129700000D01*
X136128571Y-129728571D01*
X136014285Y-129757142D01*
X135928571Y-129757142D01*
X135814285Y-129728571D01*
X135757142Y-129700000D01*
X135700000Y-129642857D01*
X135671428Y-129557142D01*
X135671428Y-129500000D01*
X135700000Y-129414285D01*
X135728571Y-129385714D01*
X135728571Y-129157142D02*
X135700000Y-129128571D01*
X135671428Y-129071428D01*
X135671428Y-128928571D01*
X135700000Y-128871428D01*
X135728571Y-128842857D01*
X135785714Y-128814285D01*
X135842857Y-128814285D01*
X135928571Y-128842857D01*
X136271428Y-129185714D01*
X136271428Y-128814285D01*
X135671428Y-128614285D02*
X135671428Y-128214285D01*
X136271428Y-128471428D01*
G04 #@! TO.C,D1*
X163771428Y-119942857D02*
X163171428Y-119942857D01*
X163171428Y-119800000D01*
X163200000Y-119714285D01*
X163257142Y-119657142D01*
X163314285Y-119628571D01*
X163428571Y-119600000D01*
X163514285Y-119600000D01*
X163628571Y-119628571D01*
X163685714Y-119657142D01*
X163742857Y-119714285D01*
X163771428Y-119800000D01*
X163771428Y-119942857D01*
X163771428Y-119028571D02*
X163771428Y-119371428D01*
X163771428Y-119200000D02*
X163171428Y-119200000D01*
X163257142Y-119257142D01*
X163314285Y-119314285D01*
X163342857Y-119371428D01*
G04 #@! TO.C,D2*
X81557142Y-139271428D02*
X81557142Y-138671428D01*
X81700000Y-138671428D01*
X81785714Y-138700000D01*
X81842857Y-138757142D01*
X81871428Y-138814285D01*
X81900000Y-138928571D01*
X81900000Y-139014285D01*
X81871428Y-139128571D01*
X81842857Y-139185714D01*
X81785714Y-139242857D01*
X81700000Y-139271428D01*
X81557142Y-139271428D01*
X82128571Y-138728571D02*
X82157142Y-138700000D01*
X82214285Y-138671428D01*
X82357142Y-138671428D01*
X82414285Y-138700000D01*
X82442857Y-138728571D01*
X82471428Y-138785714D01*
X82471428Y-138842857D01*
X82442857Y-138928571D01*
X82100000Y-139271428D01*
X82471428Y-139271428D01*
G04 #@! TO.C,D3*
D13*
X144761904Y-120952380D02*
X144761904Y-119952380D01*
X145000000Y-119952380D01*
X145142857Y-120000000D01*
X145238095Y-120095238D01*
X145285714Y-120190476D01*
X145333333Y-120380952D01*
X145333333Y-120523809D01*
X145285714Y-120714285D01*
X145238095Y-120809523D01*
X145142857Y-120904761D01*
X145000000Y-120952380D01*
X144761904Y-120952380D01*
X145666666Y-119952380D02*
X146285714Y-119952380D01*
X145952380Y-120333333D01*
X146095238Y-120333333D01*
X146190476Y-120380952D01*
X146238095Y-120428571D01*
X146285714Y-120523809D01*
X146285714Y-120761904D01*
X146238095Y-120857142D01*
X146190476Y-120904761D01*
X146095238Y-120952380D01*
X145809523Y-120952380D01*
X145714285Y-120904761D01*
X145666666Y-120857142D01*
G04 #@! TO.C,D4*
D16*
X81557142Y-135271428D02*
X81557142Y-134671428D01*
X81700000Y-134671428D01*
X81785714Y-134700000D01*
X81842857Y-134757142D01*
X81871428Y-134814285D01*
X81900000Y-134928571D01*
X81900000Y-135014285D01*
X81871428Y-135128571D01*
X81842857Y-135185714D01*
X81785714Y-135242857D01*
X81700000Y-135271428D01*
X81557142Y-135271428D01*
X82414285Y-134871428D02*
X82414285Y-135271428D01*
X82271428Y-134642857D02*
X82128571Y-135071428D01*
X82500000Y-135071428D01*
G04 #@! TO.C,D5*
D13*
X159047619Y-142261904D02*
X160047619Y-142261904D01*
X160047619Y-142500000D01*
X160000000Y-142642857D01*
X159904761Y-142738095D01*
X159809523Y-142785714D01*
X159619047Y-142833333D01*
X159476190Y-142833333D01*
X159285714Y-142785714D01*
X159190476Y-142738095D01*
X159095238Y-142642857D01*
X159047619Y-142500000D01*
X159047619Y-142261904D01*
X160047619Y-143738095D02*
X160047619Y-143261904D01*
X159571428Y-143214285D01*
X159619047Y-143261904D01*
X159666666Y-143357142D01*
X159666666Y-143595238D01*
X159619047Y-143690476D01*
X159571428Y-143738095D01*
X159476190Y-143785714D01*
X159238095Y-143785714D01*
X159142857Y-143738095D01*
X159095238Y-143690476D01*
X159047619Y-143595238D01*
X159047619Y-143357142D01*
X159095238Y-143261904D01*
X159142857Y-143214285D01*
G04 #@! TO.C,F1*
X158168928Y-138928571D02*
X157835595Y-138928571D01*
X157835595Y-139452380D02*
X157835595Y-138452380D01*
X158311785Y-138452380D01*
X159216547Y-139452380D02*
X158645119Y-139452380D01*
X158930833Y-139452380D02*
X158930833Y-138452380D01*
X158835595Y-138595238D01*
X158740357Y-138690476D01*
X158645119Y-138738095D01*
X160409285Y-136951428D02*
X160409285Y-137374761D01*
X161074523Y-137374761D02*
X159804523Y-137374761D01*
X159804523Y-136770000D01*
X160227857Y-135741904D02*
X161074523Y-135741904D01*
X160227857Y-136286190D02*
X160893095Y-136286190D01*
X161014047Y-136225714D01*
X161074523Y-136104761D01*
X161074523Y-135923333D01*
X161014047Y-135802380D01*
X160953571Y-135741904D01*
X161014047Y-135197619D02*
X161074523Y-135076666D01*
X161074523Y-134834761D01*
X161014047Y-134713809D01*
X160893095Y-134653333D01*
X160832619Y-134653333D01*
X160711666Y-134713809D01*
X160651190Y-134834761D01*
X160651190Y-135016190D01*
X160590714Y-135137142D01*
X160469761Y-135197619D01*
X160409285Y-135197619D01*
X160288333Y-135137142D01*
X160227857Y-135016190D01*
X160227857Y-134834761D01*
X160288333Y-134713809D01*
X161014047Y-133625238D02*
X161074523Y-133746190D01*
X161074523Y-133988095D01*
X161014047Y-134109047D01*
X160893095Y-134169523D01*
X160409285Y-134169523D01*
X160288333Y-134109047D01*
X160227857Y-133988095D01*
X160227857Y-133746190D01*
X160288333Y-133625238D01*
X160409285Y-133564761D01*
X160530238Y-133564761D01*
X160651190Y-134169523D01*
G04 #@! TO.C,J2*
X81452380Y-121333333D02*
X82166666Y-121333333D01*
X82309523Y-121380952D01*
X82404761Y-121476190D01*
X82452380Y-121619047D01*
X82452380Y-121714285D01*
X81547619Y-120904761D02*
X81500000Y-120857142D01*
X81452380Y-120761904D01*
X81452380Y-120523809D01*
X81500000Y-120428571D01*
X81547619Y-120380952D01*
X81642857Y-120333333D01*
X81738095Y-120333333D01*
X81880952Y-120380952D01*
X82452380Y-120952380D01*
X82452380Y-120333333D01*
G04 #@! TO.C,J3*
D17*
X86166514Y-95952130D02*
X86166514Y-96666742D01*
X86118873Y-96809665D01*
X86023591Y-96904946D01*
X85880669Y-96952587D01*
X85785387Y-96952587D01*
X86547640Y-95952130D02*
X87166971Y-95952130D01*
X86833485Y-96333257D01*
X86976408Y-96333257D01*
X87071689Y-96380897D01*
X87119330Y-96428538D01*
X87166971Y-96523820D01*
X87166971Y-96762024D01*
X87119330Y-96857306D01*
X87071689Y-96904946D01*
X86976408Y-96952587D01*
X86690563Y-96952587D01*
X86595281Y-96904946D01*
X86547640Y-96857306D01*
G04 #@! TO.C,J4*
X160166514Y-95952130D02*
X160166514Y-96666742D01*
X160118873Y-96809665D01*
X160023591Y-96904946D01*
X159880669Y-96952587D01*
X159785387Y-96952587D01*
X161071689Y-96285616D02*
X161071689Y-96952587D01*
X160833485Y-95904489D02*
X160595281Y-96619102D01*
X161214612Y-96619102D01*
G04 #@! TO.C,U2*
D13*
X123988095Y-105452380D02*
X123988095Y-106261904D01*
X124035714Y-106357142D01*
X124083333Y-106404761D01*
X124178571Y-106452380D01*
X124369047Y-106452380D01*
X124464285Y-106404761D01*
X124511904Y-106357142D01*
X124559523Y-106261904D01*
X124559523Y-105452380D01*
X124988095Y-105547619D02*
X125035714Y-105500000D01*
X125130952Y-105452380D01*
X125369047Y-105452380D01*
X125464285Y-105500000D01*
X125511904Y-105547619D01*
X125559523Y-105642857D01*
X125559523Y-105738095D01*
X125511904Y-105880952D01*
X124940476Y-106452380D01*
X125559523Y-106452380D01*
G04 #@! TO.C,U3*
X150238095Y-131952380D02*
X150238095Y-132761904D01*
X150285714Y-132857142D01*
X150333333Y-132904761D01*
X150428571Y-132952380D01*
X150619047Y-132952380D01*
X150714285Y-132904761D01*
X150761904Y-132857142D01*
X150809523Y-132761904D01*
X150809523Y-131952380D01*
X151190476Y-131952380D02*
X151809523Y-131952380D01*
X151476190Y-132333333D01*
X151619047Y-132333333D01*
X151714285Y-132380952D01*
X151761904Y-132428571D01*
X151809523Y-132523809D01*
X151809523Y-132761904D01*
X151761904Y-132857142D01*
X151714285Y-132904761D01*
X151619047Y-132952380D01*
X151333333Y-132952380D01*
X151238095Y-132904761D01*
X151190476Y-132857142D01*
G04 #@! TO.C,U4*
X136738095Y-122452380D02*
X136738095Y-123261904D01*
X136785714Y-123357142D01*
X136833333Y-123404761D01*
X136928571Y-123452380D01*
X137119047Y-123452380D01*
X137214285Y-123404761D01*
X137261904Y-123357142D01*
X137309523Y-123261904D01*
X137309523Y-122452380D01*
X138214285Y-122785714D02*
X138214285Y-123452380D01*
X137976190Y-122404761D02*
X137738095Y-123119047D01*
X138357142Y-123119047D01*
G04 #@! TO.C,U5*
X96452380Y-108761904D02*
X97261904Y-108761904D01*
X97357142Y-108714285D01*
X97404761Y-108666666D01*
X97452380Y-108571428D01*
X97452380Y-108380952D01*
X97404761Y-108285714D01*
X97357142Y-108238095D01*
X97261904Y-108190476D01*
X96452380Y-108190476D01*
X96452380Y-107238095D02*
X96452380Y-107714285D01*
X96928571Y-107761904D01*
X96880952Y-107714285D01*
X96833333Y-107619047D01*
X96833333Y-107380952D01*
X96880952Y-107285714D01*
X96928571Y-107238095D01*
X97023809Y-107190476D01*
X97261904Y-107190476D01*
X97357142Y-107238095D01*
X97404761Y-107285714D01*
X97452380Y-107380952D01*
X97452380Y-107619047D01*
X97404761Y-107714285D01*
X97357142Y-107761904D01*
G04 #@! TO.C,U6*
X107738095Y-107452380D02*
X107738095Y-108261904D01*
X107785714Y-108357142D01*
X107833333Y-108404761D01*
X107928571Y-108452380D01*
X108119047Y-108452380D01*
X108214285Y-108404761D01*
X108261904Y-108357142D01*
X108309523Y-108261904D01*
X108309523Y-107452380D01*
X109214285Y-107452380D02*
X109023809Y-107452380D01*
X108928571Y-107500000D01*
X108880952Y-107547619D01*
X108785714Y-107690476D01*
X108738095Y-107880952D01*
X108738095Y-108261904D01*
X108785714Y-108357142D01*
X108833333Y-108404761D01*
X108928571Y-108452380D01*
X109119047Y-108452380D01*
X109214285Y-108404761D01*
X109261904Y-108357142D01*
X109309523Y-108261904D01*
X109309523Y-108023809D01*
X109261904Y-107928571D01*
X109214285Y-107880952D01*
X109119047Y-107833333D01*
X108928571Y-107833333D01*
X108833333Y-107880952D01*
X108785714Y-107928571D01*
X108738095Y-108023809D01*
G04 #@! TO.C,U7*
X139738095Y-99952380D02*
X139738095Y-100761904D01*
X139785714Y-100857142D01*
X139833333Y-100904761D01*
X139928571Y-100952380D01*
X140119047Y-100952380D01*
X140214285Y-100904761D01*
X140261904Y-100857142D01*
X140309523Y-100761904D01*
X140309523Y-99952380D01*
X140690476Y-99952380D02*
X141357142Y-99952380D01*
X140928571Y-100952380D01*
G04 #@! TO.C,Y1*
X138976190Y-114726190D02*
X139452380Y-114726190D01*
X138452380Y-115059523D02*
X138976190Y-114726190D01*
X138452380Y-114392857D01*
X139452380Y-113535714D02*
X139452380Y-114107142D01*
X139452380Y-113821428D02*
X138452380Y-113821428D01*
X138595238Y-113916666D01*
X138690476Y-114011904D01*
X138738095Y-114107142D01*
G04 #@! TO.C,SW2*
D16*
X164700000Y-127742857D02*
X164785714Y-127771428D01*
X164928571Y-127771428D01*
X164985714Y-127742857D01*
X165014285Y-127714285D01*
X165042857Y-127657142D01*
X165042857Y-127600000D01*
X165014285Y-127542857D01*
X164985714Y-127514285D01*
X164928571Y-127485714D01*
X164814285Y-127457142D01*
X164757142Y-127428571D01*
X164728571Y-127400000D01*
X164700000Y-127342857D01*
X164700000Y-127285714D01*
X164728571Y-127228571D01*
X164757142Y-127200000D01*
X164814285Y-127171428D01*
X164957142Y-127171428D01*
X165042857Y-127200000D01*
X165242857Y-127171428D02*
X165385714Y-127771428D01*
X165500000Y-127342857D01*
X165614285Y-127771428D01*
X165757142Y-127171428D01*
X165957142Y-127228571D02*
X165985714Y-127200000D01*
X166042857Y-127171428D01*
X166185714Y-127171428D01*
X166242857Y-127200000D01*
X166271428Y-127228571D01*
X166300000Y-127285714D01*
X166300000Y-127342857D01*
X166271428Y-127428571D01*
X165928571Y-127771428D01*
X166300000Y-127771428D01*
G04 #@! TO.C,SW3*
X110200000Y-122742857D02*
X110285714Y-122771428D01*
X110428571Y-122771428D01*
X110485714Y-122742857D01*
X110514285Y-122714285D01*
X110542857Y-122657142D01*
X110542857Y-122600000D01*
X110514285Y-122542857D01*
X110485714Y-122514285D01*
X110428571Y-122485714D01*
X110314285Y-122457142D01*
X110257142Y-122428571D01*
X110228571Y-122400000D01*
X110200000Y-122342857D01*
X110200000Y-122285714D01*
X110228571Y-122228571D01*
X110257142Y-122200000D01*
X110314285Y-122171428D01*
X110457142Y-122171428D01*
X110542857Y-122200000D01*
X110742857Y-122171428D02*
X110885714Y-122771428D01*
X111000000Y-122342857D01*
X111114285Y-122771428D01*
X111257142Y-122171428D01*
X111428571Y-122171428D02*
X111800000Y-122171428D01*
X111600000Y-122400000D01*
X111685714Y-122400000D01*
X111742857Y-122428571D01*
X111771428Y-122457142D01*
X111800000Y-122514285D01*
X111800000Y-122657142D01*
X111771428Y-122714285D01*
X111742857Y-122742857D01*
X111685714Y-122771428D01*
X111514285Y-122771428D01*
X111457142Y-122742857D01*
X111428571Y-122714285D01*
G04 #@! TO.C,U8*
D13*
X146738095Y-99952380D02*
X146738095Y-100761904D01*
X146785714Y-100857142D01*
X146833333Y-100904761D01*
X146928571Y-100952380D01*
X147119047Y-100952380D01*
X147214285Y-100904761D01*
X147261904Y-100857142D01*
X147309523Y-100761904D01*
X147309523Y-99952380D01*
X147928571Y-100380952D02*
X147833333Y-100333333D01*
X147785714Y-100285714D01*
X147738095Y-100190476D01*
X147738095Y-100142857D01*
X147785714Y-100047619D01*
X147833333Y-100000000D01*
X147928571Y-99952380D01*
X148119047Y-99952380D01*
X148214285Y-100000000D01*
X148261904Y-100047619D01*
X148309523Y-100142857D01*
X148309523Y-100190476D01*
X148261904Y-100285714D01*
X148214285Y-100333333D01*
X148119047Y-100380952D01*
X147928571Y-100380952D01*
X147833333Y-100428571D01*
X147785714Y-100476190D01*
X147738095Y-100571428D01*
X147738095Y-100761904D01*
X147785714Y-100857142D01*
X147833333Y-100904761D01*
X147928571Y-100952380D01*
X148119047Y-100952380D01*
X148214285Y-100904761D01*
X148261904Y-100857142D01*
X148309523Y-100761904D01*
X148309523Y-100571428D01*
X148261904Y-100476190D01*
X148214285Y-100428571D01*
X148119047Y-100380952D01*
G04 #@! TO.C,IC1*
D16*
X90914285Y-135271428D02*
X90914285Y-134671428D01*
X91542857Y-135214285D02*
X91514285Y-135242857D01*
X91428571Y-135271428D01*
X91371428Y-135271428D01*
X91285714Y-135242857D01*
X91228571Y-135185714D01*
X91200000Y-135128571D01*
X91171428Y-135014285D01*
X91171428Y-134928571D01*
X91200000Y-134814285D01*
X91228571Y-134757142D01*
X91285714Y-134700000D01*
X91371428Y-134671428D01*
X91428571Y-134671428D01*
X91514285Y-134700000D01*
X91542857Y-134728571D01*
X92114285Y-135271428D02*
X91771428Y-135271428D01*
X91942857Y-135271428D02*
X91942857Y-134671428D01*
X91885714Y-134757142D01*
X91828571Y-134814285D01*
X91771428Y-134842857D01*
G04 #@! TO.C,L2*
D13*
X150833333Y-125452380D02*
X150357142Y-125452380D01*
X150357142Y-124452380D01*
X151119047Y-124547619D02*
X151166666Y-124500000D01*
X151261904Y-124452380D01*
X151500000Y-124452380D01*
X151595238Y-124500000D01*
X151642857Y-124547619D01*
X151690476Y-124642857D01*
X151690476Y-124738095D01*
X151642857Y-124880952D01*
X151071428Y-125452380D01*
X151690476Y-125452380D01*
G04 #@! TO.C,C13*
D16*
X137214285Y-117635714D02*
X137242857Y-117664285D01*
X137271428Y-117750000D01*
X137271428Y-117807142D01*
X137242857Y-117892857D01*
X137185714Y-117950000D01*
X137128571Y-117978571D01*
X137014285Y-118007142D01*
X136928571Y-118007142D01*
X136814285Y-117978571D01*
X136757142Y-117950000D01*
X136700000Y-117892857D01*
X136671428Y-117807142D01*
X136671428Y-117750000D01*
X136700000Y-117664285D01*
X136728571Y-117635714D01*
X137271428Y-117064285D02*
X137271428Y-117407142D01*
X137271428Y-117235714D02*
X136671428Y-117235714D01*
X136757142Y-117292857D01*
X136814285Y-117350000D01*
X136842857Y-117407142D01*
X136671428Y-116864285D02*
X136671428Y-116492857D01*
X136900000Y-116692857D01*
X136900000Y-116607142D01*
X136928571Y-116550000D01*
X136957142Y-116521428D01*
X137014285Y-116492857D01*
X137157142Y-116492857D01*
X137214285Y-116521428D01*
X137242857Y-116550000D01*
X137271428Y-116607142D01*
X137271428Y-116778571D01*
X137242857Y-116835714D01*
X137214285Y-116864285D01*
G04 #@! TO.C,C14*
X141214285Y-117635714D02*
X141242857Y-117664285D01*
X141271428Y-117750000D01*
X141271428Y-117807142D01*
X141242857Y-117892857D01*
X141185714Y-117950000D01*
X141128571Y-117978571D01*
X141014285Y-118007142D01*
X140928571Y-118007142D01*
X140814285Y-117978571D01*
X140757142Y-117950000D01*
X140700000Y-117892857D01*
X140671428Y-117807142D01*
X140671428Y-117750000D01*
X140700000Y-117664285D01*
X140728571Y-117635714D01*
X141271428Y-117064285D02*
X141271428Y-117407142D01*
X141271428Y-117235714D02*
X140671428Y-117235714D01*
X140757142Y-117292857D01*
X140814285Y-117350000D01*
X140842857Y-117407142D01*
X140871428Y-116550000D02*
X141271428Y-116550000D01*
X140642857Y-116692857D02*
X141071428Y-116835714D01*
X141071428Y-116464285D01*
G04 #@! TO.C,C15*
X143714285Y-111385714D02*
X143742857Y-111414285D01*
X143771428Y-111500000D01*
X143771428Y-111557142D01*
X143742857Y-111642857D01*
X143685714Y-111700000D01*
X143628571Y-111728571D01*
X143514285Y-111757142D01*
X143428571Y-111757142D01*
X143314285Y-111728571D01*
X143257142Y-111700000D01*
X143200000Y-111642857D01*
X143171428Y-111557142D01*
X143171428Y-111500000D01*
X143200000Y-111414285D01*
X143228571Y-111385714D01*
X143771428Y-110814285D02*
X143771428Y-111157142D01*
X143771428Y-110985714D02*
X143171428Y-110985714D01*
X143257142Y-111042857D01*
X143314285Y-111100000D01*
X143342857Y-111157142D01*
X143171428Y-110271428D02*
X143171428Y-110557142D01*
X143457142Y-110585714D01*
X143428571Y-110557142D01*
X143400000Y-110500000D01*
X143400000Y-110357142D01*
X143428571Y-110300000D01*
X143457142Y-110271428D01*
X143514285Y-110242857D01*
X143657142Y-110242857D01*
X143714285Y-110271428D01*
X143742857Y-110300000D01*
X143771428Y-110357142D01*
X143771428Y-110500000D01*
X143742857Y-110557142D01*
X143714285Y-110585714D01*
G04 #@! TO.C,C17*
X149114285Y-106714285D02*
X149085714Y-106742857D01*
X149000000Y-106771428D01*
X148942857Y-106771428D01*
X148857142Y-106742857D01*
X148800000Y-106685714D01*
X148771428Y-106628571D01*
X148742857Y-106514285D01*
X148742857Y-106428571D01*
X148771428Y-106314285D01*
X148800000Y-106257142D01*
X148857142Y-106200000D01*
X148942857Y-106171428D01*
X149000000Y-106171428D01*
X149085714Y-106200000D01*
X149114285Y-106228571D01*
X149685714Y-106771428D02*
X149342857Y-106771428D01*
X149514285Y-106771428D02*
X149514285Y-106171428D01*
X149457142Y-106257142D01*
X149400000Y-106314285D01*
X149342857Y-106342857D01*
X149885714Y-106171428D02*
X150285714Y-106171428D01*
X150028571Y-106771428D01*
G04 #@! TO.C,C18*
X149214285Y-95885714D02*
X149242857Y-95914285D01*
X149271428Y-96000000D01*
X149271428Y-96057142D01*
X149242857Y-96142857D01*
X149185714Y-96200000D01*
X149128571Y-96228571D01*
X149014285Y-96257142D01*
X148928571Y-96257142D01*
X148814285Y-96228571D01*
X148757142Y-96200000D01*
X148700000Y-96142857D01*
X148671428Y-96057142D01*
X148671428Y-96000000D01*
X148700000Y-95914285D01*
X148728571Y-95885714D01*
X149271428Y-95314285D02*
X149271428Y-95657142D01*
X149271428Y-95485714D02*
X148671428Y-95485714D01*
X148757142Y-95542857D01*
X148814285Y-95600000D01*
X148842857Y-95657142D01*
X148928571Y-94971428D02*
X148900000Y-95028571D01*
X148871428Y-95057142D01*
X148814285Y-95085714D01*
X148785714Y-95085714D01*
X148728571Y-95057142D01*
X148700000Y-95028571D01*
X148671428Y-94971428D01*
X148671428Y-94857142D01*
X148700000Y-94800000D01*
X148728571Y-94771428D01*
X148785714Y-94742857D01*
X148814285Y-94742857D01*
X148871428Y-94771428D01*
X148900000Y-94800000D01*
X148928571Y-94857142D01*
X148928571Y-94971428D01*
X148957142Y-95028571D01*
X148985714Y-95057142D01*
X149042857Y-95085714D01*
X149157142Y-95085714D01*
X149214285Y-95057142D01*
X149242857Y-95028571D01*
X149271428Y-94971428D01*
X149271428Y-94857142D01*
X149242857Y-94800000D01*
X149214285Y-94771428D01*
X149157142Y-94742857D01*
X149042857Y-94742857D01*
X148985714Y-94771428D01*
X148957142Y-94800000D01*
X148928571Y-94857142D01*
G04 #@! TO.C,C20*
X150614285Y-119214285D02*
X150585714Y-119242857D01*
X150500000Y-119271428D01*
X150442857Y-119271428D01*
X150357142Y-119242857D01*
X150300000Y-119185714D01*
X150271428Y-119128571D01*
X150242857Y-119014285D01*
X150242857Y-118928571D01*
X150271428Y-118814285D01*
X150300000Y-118757142D01*
X150357142Y-118700000D01*
X150442857Y-118671428D01*
X150500000Y-118671428D01*
X150585714Y-118700000D01*
X150614285Y-118728571D01*
X150842857Y-118728571D02*
X150871428Y-118700000D01*
X150928571Y-118671428D01*
X151071428Y-118671428D01*
X151128571Y-118700000D01*
X151157142Y-118728571D01*
X151185714Y-118785714D01*
X151185714Y-118842857D01*
X151157142Y-118928571D01*
X150814285Y-119271428D01*
X151185714Y-119271428D01*
X151557142Y-118671428D02*
X151614285Y-118671428D01*
X151671428Y-118700000D01*
X151700000Y-118728571D01*
X151728571Y-118785714D01*
X151757142Y-118900000D01*
X151757142Y-119042857D01*
X151728571Y-119157142D01*
X151700000Y-119214285D01*
X151671428Y-119242857D01*
X151614285Y-119271428D01*
X151557142Y-119271428D01*
X151500000Y-119242857D01*
X151471428Y-119214285D01*
X151442857Y-119157142D01*
X151414285Y-119042857D01*
X151414285Y-118900000D01*
X151442857Y-118785714D01*
X151471428Y-118728571D01*
X151500000Y-118700000D01*
X151557142Y-118671428D01*
G04 #@! TO.C,C21*
X97714285Y-135385714D02*
X97742857Y-135414285D01*
X97771428Y-135500000D01*
X97771428Y-135557142D01*
X97742857Y-135642857D01*
X97685714Y-135700000D01*
X97628571Y-135728571D01*
X97514285Y-135757142D01*
X97428571Y-135757142D01*
X97314285Y-135728571D01*
X97257142Y-135700000D01*
X97200000Y-135642857D01*
X97171428Y-135557142D01*
X97171428Y-135500000D01*
X97200000Y-135414285D01*
X97228571Y-135385714D01*
X97228571Y-135157142D02*
X97200000Y-135128571D01*
X97171428Y-135071428D01*
X97171428Y-134928571D01*
X97200000Y-134871428D01*
X97228571Y-134842857D01*
X97285714Y-134814285D01*
X97342857Y-134814285D01*
X97428571Y-134842857D01*
X97771428Y-135185714D01*
X97771428Y-134814285D01*
X97771428Y-134242857D02*
X97771428Y-134585714D01*
X97771428Y-134414285D02*
X97171428Y-134414285D01*
X97257142Y-134471428D01*
X97314285Y-134528571D01*
X97342857Y-134585714D01*
G04 #@! TO.C,C22*
X141614285Y-130214285D02*
X141585714Y-130242857D01*
X141500000Y-130271428D01*
X141442857Y-130271428D01*
X141357142Y-130242857D01*
X141300000Y-130185714D01*
X141271428Y-130128571D01*
X141242857Y-130014285D01*
X141242857Y-129928571D01*
X141271428Y-129814285D01*
X141300000Y-129757142D01*
X141357142Y-129700000D01*
X141442857Y-129671428D01*
X141500000Y-129671428D01*
X141585714Y-129700000D01*
X141614285Y-129728571D01*
X141842857Y-129728571D02*
X141871428Y-129700000D01*
X141928571Y-129671428D01*
X142071428Y-129671428D01*
X142128571Y-129700000D01*
X142157142Y-129728571D01*
X142185714Y-129785714D01*
X142185714Y-129842857D01*
X142157142Y-129928571D01*
X141814285Y-130271428D01*
X142185714Y-130271428D01*
X142414285Y-129728571D02*
X142442857Y-129700000D01*
X142500000Y-129671428D01*
X142642857Y-129671428D01*
X142700000Y-129700000D01*
X142728571Y-129728571D01*
X142757142Y-129785714D01*
X142757142Y-129842857D01*
X142728571Y-129928571D01*
X142385714Y-130271428D01*
X142757142Y-130271428D01*
G04 #@! TO.C,C26*
X135785714Y-130614285D02*
X135757142Y-130585714D01*
X135728571Y-130500000D01*
X135728571Y-130442857D01*
X135757142Y-130357142D01*
X135814285Y-130300000D01*
X135871428Y-130271428D01*
X135985714Y-130242857D01*
X136071428Y-130242857D01*
X136185714Y-130271428D01*
X136242857Y-130300000D01*
X136300000Y-130357142D01*
X136328571Y-130442857D01*
X136328571Y-130500000D01*
X136300000Y-130585714D01*
X136271428Y-130614285D01*
X136271428Y-130842857D02*
X136300000Y-130871428D01*
X136328571Y-130928571D01*
X136328571Y-131071428D01*
X136300000Y-131128571D01*
X136271428Y-131157142D01*
X136214285Y-131185714D01*
X136157142Y-131185714D01*
X136071428Y-131157142D01*
X135728571Y-130814285D01*
X135728571Y-131185714D01*
X136328571Y-131700000D02*
X136328571Y-131585714D01*
X136300000Y-131528571D01*
X136271428Y-131500000D01*
X136185714Y-131442857D01*
X136071428Y-131414285D01*
X135842857Y-131414285D01*
X135785714Y-131442857D01*
X135757142Y-131471428D01*
X135728571Y-131528571D01*
X135728571Y-131642857D01*
X135757142Y-131700000D01*
X135785714Y-131728571D01*
X135842857Y-131757142D01*
X135985714Y-131757142D01*
X136042857Y-131728571D01*
X136071428Y-131700000D01*
X136100000Y-131642857D01*
X136100000Y-131528571D01*
X136071428Y-131471428D01*
X136042857Y-131442857D01*
X135985714Y-131414285D01*
G04 #@! TO.C,C39*
X96785714Y-112614285D02*
X96757142Y-112585714D01*
X96728571Y-112500000D01*
X96728571Y-112442857D01*
X96757142Y-112357142D01*
X96814285Y-112300000D01*
X96871428Y-112271428D01*
X96985714Y-112242857D01*
X97071428Y-112242857D01*
X97185714Y-112271428D01*
X97242857Y-112300000D01*
X97300000Y-112357142D01*
X97328571Y-112442857D01*
X97328571Y-112500000D01*
X97300000Y-112585714D01*
X97271428Y-112614285D01*
X97328571Y-112814285D02*
X97328571Y-113185714D01*
X97100000Y-112985714D01*
X97100000Y-113071428D01*
X97071428Y-113128571D01*
X97042857Y-113157142D01*
X96985714Y-113185714D01*
X96842857Y-113185714D01*
X96785714Y-113157142D01*
X96757142Y-113128571D01*
X96728571Y-113071428D01*
X96728571Y-112900000D01*
X96757142Y-112842857D01*
X96785714Y-112814285D01*
X96728571Y-113471428D02*
X96728571Y-113585714D01*
X96757142Y-113642857D01*
X96785714Y-113671428D01*
X96871428Y-113728571D01*
X96985714Y-113757142D01*
X97214285Y-113757142D01*
X97271428Y-113728571D01*
X97300000Y-113700000D01*
X97328571Y-113642857D01*
X97328571Y-113528571D01*
X97300000Y-113471428D01*
X97271428Y-113442857D01*
X97214285Y-113414285D01*
X97071428Y-113414285D01*
X97014285Y-113442857D01*
X96985714Y-113471428D01*
X96957142Y-113528571D01*
X96957142Y-113642857D01*
X96985714Y-113700000D01*
X97014285Y-113728571D01*
X97071428Y-113757142D01*
G04 #@! TO.C,C40*
X98214285Y-103385714D02*
X98242857Y-103414285D01*
X98271428Y-103500000D01*
X98271428Y-103557142D01*
X98242857Y-103642857D01*
X98185714Y-103700000D01*
X98128571Y-103728571D01*
X98014285Y-103757142D01*
X97928571Y-103757142D01*
X97814285Y-103728571D01*
X97757142Y-103700000D01*
X97700000Y-103642857D01*
X97671428Y-103557142D01*
X97671428Y-103500000D01*
X97700000Y-103414285D01*
X97728571Y-103385714D01*
X97871428Y-102871428D02*
X98271428Y-102871428D01*
X97642857Y-103014285D02*
X98071428Y-103157142D01*
X98071428Y-102785714D01*
X97671428Y-102442857D02*
X97671428Y-102385714D01*
X97700000Y-102328571D01*
X97728571Y-102300000D01*
X97785714Y-102271428D01*
X97900000Y-102242857D01*
X98042857Y-102242857D01*
X98157142Y-102271428D01*
X98214285Y-102300000D01*
X98242857Y-102328571D01*
X98271428Y-102385714D01*
X98271428Y-102442857D01*
X98242857Y-102500000D01*
X98214285Y-102528571D01*
X98157142Y-102557142D01*
X98042857Y-102585714D01*
X97900000Y-102585714D01*
X97785714Y-102557142D01*
X97728571Y-102528571D01*
X97700000Y-102500000D01*
X97671428Y-102442857D01*
G04 #@! TO.C,C41*
X99614285Y-116214285D02*
X99585714Y-116242857D01*
X99500000Y-116271428D01*
X99442857Y-116271428D01*
X99357142Y-116242857D01*
X99300000Y-116185714D01*
X99271428Y-116128571D01*
X99242857Y-116014285D01*
X99242857Y-115928571D01*
X99271428Y-115814285D01*
X99300000Y-115757142D01*
X99357142Y-115700000D01*
X99442857Y-115671428D01*
X99500000Y-115671428D01*
X99585714Y-115700000D01*
X99614285Y-115728571D01*
X100128571Y-115871428D02*
X100128571Y-116271428D01*
X99985714Y-115642857D02*
X99842857Y-116071428D01*
X100214285Y-116071428D01*
X100757142Y-116271428D02*
X100414285Y-116271428D01*
X100585714Y-116271428D02*
X100585714Y-115671428D01*
X100528571Y-115757142D01*
X100471428Y-115814285D01*
X100414285Y-115842857D01*
G04 #@! TO.C,C42*
X94614285Y-100214285D02*
X94585714Y-100242857D01*
X94500000Y-100271428D01*
X94442857Y-100271428D01*
X94357142Y-100242857D01*
X94300000Y-100185714D01*
X94271428Y-100128571D01*
X94242857Y-100014285D01*
X94242857Y-99928571D01*
X94271428Y-99814285D01*
X94300000Y-99757142D01*
X94357142Y-99700000D01*
X94442857Y-99671428D01*
X94500000Y-99671428D01*
X94585714Y-99700000D01*
X94614285Y-99728571D01*
X95128571Y-99871428D02*
X95128571Y-100271428D01*
X94985714Y-99642857D02*
X94842857Y-100071428D01*
X95214285Y-100071428D01*
X95414285Y-99728571D02*
X95442857Y-99700000D01*
X95500000Y-99671428D01*
X95642857Y-99671428D01*
X95700000Y-99700000D01*
X95728571Y-99728571D01*
X95757142Y-99785714D01*
X95757142Y-99842857D01*
X95728571Y-99928571D01*
X95385714Y-100271428D01*
X95757142Y-100271428D01*
G04 #@! TO.C,C51*
X152714285Y-103885714D02*
X152742857Y-103914285D01*
X152771428Y-104000000D01*
X152771428Y-104057142D01*
X152742857Y-104142857D01*
X152685714Y-104200000D01*
X152628571Y-104228571D01*
X152514285Y-104257142D01*
X152428571Y-104257142D01*
X152314285Y-104228571D01*
X152257142Y-104200000D01*
X152200000Y-104142857D01*
X152171428Y-104057142D01*
X152171428Y-104000000D01*
X152200000Y-103914285D01*
X152228571Y-103885714D01*
X152171428Y-103342857D02*
X152171428Y-103628571D01*
X152457142Y-103657142D01*
X152428571Y-103628571D01*
X152400000Y-103571428D01*
X152400000Y-103428571D01*
X152428571Y-103371428D01*
X152457142Y-103342857D01*
X152514285Y-103314285D01*
X152657142Y-103314285D01*
X152714285Y-103342857D01*
X152742857Y-103371428D01*
X152771428Y-103428571D01*
X152771428Y-103571428D01*
X152742857Y-103628571D01*
X152714285Y-103657142D01*
X152771428Y-102742857D02*
X152771428Y-103085714D01*
X152771428Y-102914285D02*
X152171428Y-102914285D01*
X152257142Y-102971428D01*
X152314285Y-103028571D01*
X152342857Y-103085714D01*
G04 #@! TO.C,C52*
X145614285Y-92714285D02*
X145585714Y-92742857D01*
X145500000Y-92771428D01*
X145442857Y-92771428D01*
X145357142Y-92742857D01*
X145300000Y-92685714D01*
X145271428Y-92628571D01*
X145242857Y-92514285D01*
X145242857Y-92428571D01*
X145271428Y-92314285D01*
X145300000Y-92257142D01*
X145357142Y-92200000D01*
X145442857Y-92171428D01*
X145500000Y-92171428D01*
X145585714Y-92200000D01*
X145614285Y-92228571D01*
X146157142Y-92171428D02*
X145871428Y-92171428D01*
X145842857Y-92457142D01*
X145871428Y-92428571D01*
X145928571Y-92400000D01*
X146071428Y-92400000D01*
X146128571Y-92428571D01*
X146157142Y-92457142D01*
X146185714Y-92514285D01*
X146185714Y-92657142D01*
X146157142Y-92714285D01*
X146128571Y-92742857D01*
X146071428Y-92771428D01*
X145928571Y-92771428D01*
X145871428Y-92742857D01*
X145842857Y-92714285D01*
X146414285Y-92228571D02*
X146442857Y-92200000D01*
X146500000Y-92171428D01*
X146642857Y-92171428D01*
X146700000Y-92200000D01*
X146728571Y-92228571D01*
X146757142Y-92285714D01*
X146757142Y-92342857D01*
X146728571Y-92428571D01*
X146385714Y-92771428D01*
X146757142Y-92771428D01*
G04 #@! TO.C,MK1*
D18*
X159690476Y-110452380D02*
X159690476Y-109452380D01*
X160023809Y-110166666D01*
X160357142Y-109452380D01*
X160357142Y-110452380D01*
X160833333Y-110452380D02*
X160833333Y-109452380D01*
X161404761Y-110452380D02*
X160976190Y-109880952D01*
X161404761Y-109452380D02*
X160833333Y-110023809D01*
X162357142Y-110452380D02*
X161785714Y-110452380D01*
X162071428Y-110452380D02*
X162071428Y-109452380D01*
X161976190Y-109595238D01*
X161880952Y-109690476D01*
X161785714Y-109738095D01*
G04 #@! TO.C,R1*
D16*
X116771428Y-123100000D02*
X116485714Y-123300000D01*
X116771428Y-123442857D02*
X116171428Y-123442857D01*
X116171428Y-123214285D01*
X116200000Y-123157142D01*
X116228571Y-123128571D01*
X116285714Y-123100000D01*
X116371428Y-123100000D01*
X116428571Y-123128571D01*
X116457142Y-123157142D01*
X116485714Y-123214285D01*
X116485714Y-123442857D01*
X116771428Y-122528571D02*
X116771428Y-122871428D01*
X116771428Y-122700000D02*
X116171428Y-122700000D01*
X116257142Y-122757142D01*
X116314285Y-122814285D01*
X116342857Y-122871428D01*
G04 #@! TO.C,R2*
X152771428Y-107600000D02*
X152485714Y-107800000D01*
X152771428Y-107942857D02*
X152171428Y-107942857D01*
X152171428Y-107714285D01*
X152200000Y-107657142D01*
X152228571Y-107628571D01*
X152285714Y-107600000D01*
X152371428Y-107600000D01*
X152428571Y-107628571D01*
X152457142Y-107657142D01*
X152485714Y-107714285D01*
X152485714Y-107942857D01*
X152228571Y-107371428D02*
X152200000Y-107342857D01*
X152171428Y-107285714D01*
X152171428Y-107142857D01*
X152200000Y-107085714D01*
X152228571Y-107057142D01*
X152285714Y-107028571D01*
X152342857Y-107028571D01*
X152428571Y-107057142D01*
X152771428Y-107400000D01*
X152771428Y-107028571D01*
G04 #@! TO.C,R3*
X159771428Y-119600000D02*
X159485714Y-119800000D01*
X159771428Y-119942857D02*
X159171428Y-119942857D01*
X159171428Y-119714285D01*
X159200000Y-119657142D01*
X159228571Y-119628571D01*
X159285714Y-119600000D01*
X159371428Y-119600000D01*
X159428571Y-119628571D01*
X159457142Y-119657142D01*
X159485714Y-119714285D01*
X159485714Y-119942857D01*
X159171428Y-119400000D02*
X159171428Y-119028571D01*
X159400000Y-119228571D01*
X159400000Y-119142857D01*
X159428571Y-119085714D01*
X159457142Y-119057142D01*
X159514285Y-119028571D01*
X159657142Y-119028571D01*
X159714285Y-119057142D01*
X159742857Y-119085714D01*
X159771428Y-119142857D01*
X159771428Y-119314285D01*
X159742857Y-119371428D01*
X159714285Y-119400000D01*
G04 #@! TO.C,R4*
X153400000Y-119271428D02*
X153200000Y-118985714D01*
X153057142Y-119271428D02*
X153057142Y-118671428D01*
X153285714Y-118671428D01*
X153342857Y-118700000D01*
X153371428Y-118728571D01*
X153400000Y-118785714D01*
X153400000Y-118871428D01*
X153371428Y-118928571D01*
X153342857Y-118957142D01*
X153285714Y-118985714D01*
X153057142Y-118985714D01*
X153914285Y-118871428D02*
X153914285Y-119271428D01*
X153771428Y-118642857D02*
X153628571Y-119071428D01*
X154000000Y-119071428D01*
G04 #@! TO.C,R5*
X148400000Y-119271428D02*
X148200000Y-118985714D01*
X148057142Y-119271428D02*
X148057142Y-118671428D01*
X148285714Y-118671428D01*
X148342857Y-118700000D01*
X148371428Y-118728571D01*
X148400000Y-118785714D01*
X148400000Y-118871428D01*
X148371428Y-118928571D01*
X148342857Y-118957142D01*
X148285714Y-118985714D01*
X148057142Y-118985714D01*
X148942857Y-118671428D02*
X148657142Y-118671428D01*
X148628571Y-118957142D01*
X148657142Y-118928571D01*
X148714285Y-118900000D01*
X148857142Y-118900000D01*
X148914285Y-118928571D01*
X148942857Y-118957142D01*
X148971428Y-119014285D01*
X148971428Y-119157142D01*
X148942857Y-119214285D01*
X148914285Y-119242857D01*
X148857142Y-119271428D01*
X148714285Y-119271428D01*
X148657142Y-119242857D01*
X148628571Y-119214285D01*
G04 #@! TO.C,R6*
X85771428Y-138100000D02*
X85485714Y-138300000D01*
X85771428Y-138442857D02*
X85171428Y-138442857D01*
X85171428Y-138214285D01*
X85200000Y-138157142D01*
X85228571Y-138128571D01*
X85285714Y-138100000D01*
X85371428Y-138100000D01*
X85428571Y-138128571D01*
X85457142Y-138157142D01*
X85485714Y-138214285D01*
X85485714Y-138442857D01*
X85171428Y-137585714D02*
X85171428Y-137700000D01*
X85200000Y-137757142D01*
X85228571Y-137785714D01*
X85314285Y-137842857D01*
X85428571Y-137871428D01*
X85657142Y-137871428D01*
X85714285Y-137842857D01*
X85742857Y-137814285D01*
X85771428Y-137757142D01*
X85771428Y-137642857D01*
X85742857Y-137585714D01*
X85714285Y-137557142D01*
X85657142Y-137528571D01*
X85514285Y-137528571D01*
X85457142Y-137557142D01*
X85428571Y-137585714D01*
X85400000Y-137642857D01*
X85400000Y-137757142D01*
X85428571Y-137814285D01*
X85457142Y-137842857D01*
X85514285Y-137871428D01*
G04 #@! TO.C,R7*
X143900000Y-130271428D02*
X143700000Y-129985714D01*
X143557142Y-130271428D02*
X143557142Y-129671428D01*
X143785714Y-129671428D01*
X143842857Y-129700000D01*
X143871428Y-129728571D01*
X143900000Y-129785714D01*
X143900000Y-129871428D01*
X143871428Y-129928571D01*
X143842857Y-129957142D01*
X143785714Y-129985714D01*
X143557142Y-129985714D01*
X144100000Y-129671428D02*
X144500000Y-129671428D01*
X144242857Y-130271428D01*
G04 #@! TO.C,R8*
X145900000Y-130271428D02*
X145700000Y-129985714D01*
X145557142Y-130271428D02*
X145557142Y-129671428D01*
X145785714Y-129671428D01*
X145842857Y-129700000D01*
X145871428Y-129728571D01*
X145900000Y-129785714D01*
X145900000Y-129871428D01*
X145871428Y-129928571D01*
X145842857Y-129957142D01*
X145785714Y-129985714D01*
X145557142Y-129985714D01*
X146242857Y-129928571D02*
X146185714Y-129900000D01*
X146157142Y-129871428D01*
X146128571Y-129814285D01*
X146128571Y-129785714D01*
X146157142Y-129728571D01*
X146185714Y-129700000D01*
X146242857Y-129671428D01*
X146357142Y-129671428D01*
X146414285Y-129700000D01*
X146442857Y-129728571D01*
X146471428Y-129785714D01*
X146471428Y-129814285D01*
X146442857Y-129871428D01*
X146414285Y-129900000D01*
X146357142Y-129928571D01*
X146242857Y-129928571D01*
X146185714Y-129957142D01*
X146157142Y-129985714D01*
X146128571Y-130042857D01*
X146128571Y-130157142D01*
X146157142Y-130214285D01*
X146185714Y-130242857D01*
X146242857Y-130271428D01*
X146357142Y-130271428D01*
X146414285Y-130242857D01*
X146442857Y-130214285D01*
X146471428Y-130157142D01*
X146471428Y-130042857D01*
X146442857Y-129985714D01*
X146414285Y-129957142D01*
X146357142Y-129928571D01*
G04 #@! TO.C,R9*
X85771428Y-136100000D02*
X85485714Y-136300000D01*
X85771428Y-136442857D02*
X85171428Y-136442857D01*
X85171428Y-136214285D01*
X85200000Y-136157142D01*
X85228571Y-136128571D01*
X85285714Y-136100000D01*
X85371428Y-136100000D01*
X85428571Y-136128571D01*
X85457142Y-136157142D01*
X85485714Y-136214285D01*
X85485714Y-136442857D01*
X85771428Y-135814285D02*
X85771428Y-135700000D01*
X85742857Y-135642857D01*
X85714285Y-135614285D01*
X85628571Y-135557142D01*
X85514285Y-135528571D01*
X85285714Y-135528571D01*
X85228571Y-135557142D01*
X85200000Y-135585714D01*
X85171428Y-135642857D01*
X85171428Y-135757142D01*
X85200000Y-135814285D01*
X85228571Y-135842857D01*
X85285714Y-135871428D01*
X85428571Y-135871428D01*
X85485714Y-135842857D01*
X85514285Y-135814285D01*
X85542857Y-135757142D01*
X85542857Y-135642857D01*
X85514285Y-135585714D01*
X85485714Y-135557142D01*
X85428571Y-135528571D01*
G04 #@! TO.C,R10*
X97771428Y-138385714D02*
X97485714Y-138585714D01*
X97771428Y-138728571D02*
X97171428Y-138728571D01*
X97171428Y-138500000D01*
X97200000Y-138442857D01*
X97228571Y-138414285D01*
X97285714Y-138385714D01*
X97371428Y-138385714D01*
X97428571Y-138414285D01*
X97457142Y-138442857D01*
X97485714Y-138500000D01*
X97485714Y-138728571D01*
X97771428Y-137814285D02*
X97771428Y-138157142D01*
X97771428Y-137985714D02*
X97171428Y-137985714D01*
X97257142Y-138042857D01*
X97314285Y-138100000D01*
X97342857Y-138157142D01*
X97171428Y-137442857D02*
X97171428Y-137385714D01*
X97200000Y-137328571D01*
X97228571Y-137300000D01*
X97285714Y-137271428D01*
X97400000Y-137242857D01*
X97542857Y-137242857D01*
X97657142Y-137271428D01*
X97714285Y-137300000D01*
X97742857Y-137328571D01*
X97771428Y-137385714D01*
X97771428Y-137442857D01*
X97742857Y-137500000D01*
X97714285Y-137528571D01*
X97657142Y-137557142D01*
X97542857Y-137585714D01*
X97400000Y-137585714D01*
X97285714Y-137557142D01*
X97228571Y-137528571D01*
X97200000Y-137500000D01*
X97171428Y-137442857D01*
G04 #@! TO.C,R17*
X95614285Y-116271428D02*
X95414285Y-115985714D01*
X95271428Y-116271428D02*
X95271428Y-115671428D01*
X95500000Y-115671428D01*
X95557142Y-115700000D01*
X95585714Y-115728571D01*
X95614285Y-115785714D01*
X95614285Y-115871428D01*
X95585714Y-115928571D01*
X95557142Y-115957142D01*
X95500000Y-115985714D01*
X95271428Y-115985714D01*
X96185714Y-116271428D02*
X95842857Y-116271428D01*
X96014285Y-116271428D02*
X96014285Y-115671428D01*
X95957142Y-115757142D01*
X95900000Y-115814285D01*
X95842857Y-115842857D01*
X96385714Y-115671428D02*
X96785714Y-115671428D01*
X96528571Y-116271428D01*
G04 #@! TO.C,R18*
X96614285Y-100271428D02*
X96414285Y-99985714D01*
X96271428Y-100271428D02*
X96271428Y-99671428D01*
X96500000Y-99671428D01*
X96557142Y-99700000D01*
X96585714Y-99728571D01*
X96614285Y-99785714D01*
X96614285Y-99871428D01*
X96585714Y-99928571D01*
X96557142Y-99957142D01*
X96500000Y-99985714D01*
X96271428Y-99985714D01*
X97185714Y-100271428D02*
X96842857Y-100271428D01*
X97014285Y-100271428D02*
X97014285Y-99671428D01*
X96957142Y-99757142D01*
X96900000Y-99814285D01*
X96842857Y-99842857D01*
X97528571Y-99928571D02*
X97471428Y-99900000D01*
X97442857Y-99871428D01*
X97414285Y-99814285D01*
X97414285Y-99785714D01*
X97442857Y-99728571D01*
X97471428Y-99700000D01*
X97528571Y-99671428D01*
X97642857Y-99671428D01*
X97700000Y-99700000D01*
X97728571Y-99728571D01*
X97757142Y-99785714D01*
X97757142Y-99814285D01*
X97728571Y-99871428D01*
X97700000Y-99900000D01*
X97642857Y-99928571D01*
X97528571Y-99928571D01*
X97471428Y-99957142D01*
X97442857Y-99985714D01*
X97414285Y-100042857D01*
X97414285Y-100157142D01*
X97442857Y-100214285D01*
X97471428Y-100242857D01*
X97528571Y-100271428D01*
X97642857Y-100271428D01*
X97700000Y-100242857D01*
X97728571Y-100214285D01*
X97757142Y-100157142D01*
X97757142Y-100042857D01*
X97728571Y-99985714D01*
X97700000Y-99957142D01*
X97642857Y-99928571D01*
G04 #@! TO.C,R19*
X97614285Y-116271428D02*
X97414285Y-115985714D01*
X97271428Y-116271428D02*
X97271428Y-115671428D01*
X97500000Y-115671428D01*
X97557142Y-115700000D01*
X97585714Y-115728571D01*
X97614285Y-115785714D01*
X97614285Y-115871428D01*
X97585714Y-115928571D01*
X97557142Y-115957142D01*
X97500000Y-115985714D01*
X97271428Y-115985714D01*
X98185714Y-116271428D02*
X97842857Y-116271428D01*
X98014285Y-116271428D02*
X98014285Y-115671428D01*
X97957142Y-115757142D01*
X97900000Y-115814285D01*
X97842857Y-115842857D01*
X98471428Y-116271428D02*
X98585714Y-116271428D01*
X98642857Y-116242857D01*
X98671428Y-116214285D01*
X98728571Y-116128571D01*
X98757142Y-116014285D01*
X98757142Y-115785714D01*
X98728571Y-115728571D01*
X98700000Y-115700000D01*
X98642857Y-115671428D01*
X98528571Y-115671428D01*
X98471428Y-115700000D01*
X98442857Y-115728571D01*
X98414285Y-115785714D01*
X98414285Y-115928571D01*
X98442857Y-115985714D01*
X98471428Y-116014285D01*
X98528571Y-116042857D01*
X98642857Y-116042857D01*
X98700000Y-116014285D01*
X98728571Y-115985714D01*
X98757142Y-115928571D01*
G04 #@! TO.C,R20*
X98614285Y-100271428D02*
X98414285Y-99985714D01*
X98271428Y-100271428D02*
X98271428Y-99671428D01*
X98500000Y-99671428D01*
X98557142Y-99700000D01*
X98585714Y-99728571D01*
X98614285Y-99785714D01*
X98614285Y-99871428D01*
X98585714Y-99928571D01*
X98557142Y-99957142D01*
X98500000Y-99985714D01*
X98271428Y-99985714D01*
X98842857Y-99728571D02*
X98871428Y-99700000D01*
X98928571Y-99671428D01*
X99071428Y-99671428D01*
X99128571Y-99700000D01*
X99157142Y-99728571D01*
X99185714Y-99785714D01*
X99185714Y-99842857D01*
X99157142Y-99928571D01*
X98814285Y-100271428D01*
X99185714Y-100271428D01*
X99557142Y-99671428D02*
X99614285Y-99671428D01*
X99671428Y-99700000D01*
X99700000Y-99728571D01*
X99728571Y-99785714D01*
X99757142Y-99900000D01*
X99757142Y-100042857D01*
X99728571Y-100157142D01*
X99700000Y-100214285D01*
X99671428Y-100242857D01*
X99614285Y-100271428D01*
X99557142Y-100271428D01*
X99500000Y-100242857D01*
X99471428Y-100214285D01*
X99442857Y-100157142D01*
X99414285Y-100042857D01*
X99414285Y-99900000D01*
X99442857Y-99785714D01*
X99471428Y-99728571D01*
X99500000Y-99700000D01*
X99557142Y-99671428D01*
G04 #@! TO.C,R23*
X147614285Y-92771428D02*
X147414285Y-92485714D01*
X147271428Y-92771428D02*
X147271428Y-92171428D01*
X147500000Y-92171428D01*
X147557142Y-92200000D01*
X147585714Y-92228571D01*
X147614285Y-92285714D01*
X147614285Y-92371428D01*
X147585714Y-92428571D01*
X147557142Y-92457142D01*
X147500000Y-92485714D01*
X147271428Y-92485714D01*
X147842857Y-92228571D02*
X147871428Y-92200000D01*
X147928571Y-92171428D01*
X148071428Y-92171428D01*
X148128571Y-92200000D01*
X148157142Y-92228571D01*
X148185714Y-92285714D01*
X148185714Y-92342857D01*
X148157142Y-92428571D01*
X147814285Y-92771428D01*
X148185714Y-92771428D01*
X148385714Y-92171428D02*
X148757142Y-92171428D01*
X148557142Y-92400000D01*
X148642857Y-92400000D01*
X148700000Y-92428571D01*
X148728571Y-92457142D01*
X148757142Y-92514285D01*
X148757142Y-92657142D01*
X148728571Y-92714285D01*
X148700000Y-92742857D01*
X148642857Y-92771428D01*
X148471428Y-92771428D01*
X148414285Y-92742857D01*
X148385714Y-92714285D01*
G04 #@! TO.C,R24*
X152771428Y-105885714D02*
X152485714Y-106085714D01*
X152771428Y-106228571D02*
X152171428Y-106228571D01*
X152171428Y-106000000D01*
X152200000Y-105942857D01*
X152228571Y-105914285D01*
X152285714Y-105885714D01*
X152371428Y-105885714D01*
X152428571Y-105914285D01*
X152457142Y-105942857D01*
X152485714Y-106000000D01*
X152485714Y-106228571D01*
X152228571Y-105657142D02*
X152200000Y-105628571D01*
X152171428Y-105571428D01*
X152171428Y-105428571D01*
X152200000Y-105371428D01*
X152228571Y-105342857D01*
X152285714Y-105314285D01*
X152342857Y-105314285D01*
X152428571Y-105342857D01*
X152771428Y-105685714D01*
X152771428Y-105314285D01*
X152371428Y-104800000D02*
X152771428Y-104800000D01*
X152142857Y-104942857D02*
X152571428Y-105085714D01*
X152571428Y-104714285D01*
G04 #@! TO.C,R25*
X149614285Y-92771428D02*
X149414285Y-92485714D01*
X149271428Y-92771428D02*
X149271428Y-92171428D01*
X149500000Y-92171428D01*
X149557142Y-92200000D01*
X149585714Y-92228571D01*
X149614285Y-92285714D01*
X149614285Y-92371428D01*
X149585714Y-92428571D01*
X149557142Y-92457142D01*
X149500000Y-92485714D01*
X149271428Y-92485714D01*
X149842857Y-92228571D02*
X149871428Y-92200000D01*
X149928571Y-92171428D01*
X150071428Y-92171428D01*
X150128571Y-92200000D01*
X150157142Y-92228571D01*
X150185714Y-92285714D01*
X150185714Y-92342857D01*
X150157142Y-92428571D01*
X149814285Y-92771428D01*
X150185714Y-92771428D01*
X150728571Y-92171428D02*
X150442857Y-92171428D01*
X150414285Y-92457142D01*
X150442857Y-92428571D01*
X150500000Y-92400000D01*
X150642857Y-92400000D01*
X150700000Y-92428571D01*
X150728571Y-92457142D01*
X150757142Y-92514285D01*
X150757142Y-92657142D01*
X150728571Y-92714285D01*
X150700000Y-92742857D01*
X150642857Y-92771428D01*
X150500000Y-92771428D01*
X150442857Y-92742857D01*
X150414285Y-92714285D01*
G04 #@! TO.C,R26*
X159771428Y-117385714D02*
X159485714Y-117585714D01*
X159771428Y-117728571D02*
X159171428Y-117728571D01*
X159171428Y-117500000D01*
X159200000Y-117442857D01*
X159228571Y-117414285D01*
X159285714Y-117385714D01*
X159371428Y-117385714D01*
X159428571Y-117414285D01*
X159457142Y-117442857D01*
X159485714Y-117500000D01*
X159485714Y-117728571D01*
X159228571Y-117157142D02*
X159200000Y-117128571D01*
X159171428Y-117071428D01*
X159171428Y-116928571D01*
X159200000Y-116871428D01*
X159228571Y-116842857D01*
X159285714Y-116814285D01*
X159342857Y-116814285D01*
X159428571Y-116842857D01*
X159771428Y-117185714D01*
X159771428Y-116814285D01*
X159171428Y-116300000D02*
X159171428Y-116414285D01*
X159200000Y-116471428D01*
X159228571Y-116500000D01*
X159314285Y-116557142D01*
X159428571Y-116585714D01*
X159657142Y-116585714D01*
X159714285Y-116557142D01*
X159742857Y-116528571D01*
X159771428Y-116471428D01*
X159771428Y-116357142D01*
X159742857Y-116300000D01*
X159714285Y-116271428D01*
X159657142Y-116242857D01*
X159514285Y-116242857D01*
X159457142Y-116271428D01*
X159428571Y-116300000D01*
X159400000Y-116357142D01*
X159400000Y-116471428D01*
X159428571Y-116528571D01*
X159457142Y-116557142D01*
X159514285Y-116585714D01*
G04 #@! TO.C,R27*
X163771428Y-117385714D02*
X163485714Y-117585714D01*
X163771428Y-117728571D02*
X163171428Y-117728571D01*
X163171428Y-117500000D01*
X163200000Y-117442857D01*
X163228571Y-117414285D01*
X163285714Y-117385714D01*
X163371428Y-117385714D01*
X163428571Y-117414285D01*
X163457142Y-117442857D01*
X163485714Y-117500000D01*
X163485714Y-117728571D01*
X163228571Y-117157142D02*
X163200000Y-117128571D01*
X163171428Y-117071428D01*
X163171428Y-116928571D01*
X163200000Y-116871428D01*
X163228571Y-116842857D01*
X163285714Y-116814285D01*
X163342857Y-116814285D01*
X163428571Y-116842857D01*
X163771428Y-117185714D01*
X163771428Y-116814285D01*
X163171428Y-116614285D02*
X163171428Y-116214285D01*
X163771428Y-116471428D01*
G04 #@! TO.C,SW1*
X138200000Y-109242857D02*
X138285714Y-109271428D01*
X138428571Y-109271428D01*
X138485714Y-109242857D01*
X138514285Y-109214285D01*
X138542857Y-109157142D01*
X138542857Y-109100000D01*
X138514285Y-109042857D01*
X138485714Y-109014285D01*
X138428571Y-108985714D01*
X138314285Y-108957142D01*
X138257142Y-108928571D01*
X138228571Y-108900000D01*
X138200000Y-108842857D01*
X138200000Y-108785714D01*
X138228571Y-108728571D01*
X138257142Y-108700000D01*
X138314285Y-108671428D01*
X138457142Y-108671428D01*
X138542857Y-108700000D01*
X138742857Y-108671428D02*
X138885714Y-109271428D01*
X139000000Y-108842857D01*
X139114285Y-109271428D01*
X139257142Y-108671428D01*
X139800000Y-109271428D02*
X139457142Y-109271428D01*
X139628571Y-109271428D02*
X139628571Y-108671428D01*
X139571428Y-108757142D01*
X139514285Y-108814285D01*
X139457142Y-108842857D01*
G04 #@! TO.C,U1*
D13*
X119878095Y-118400380D02*
X119878095Y-119209904D01*
X119925714Y-119305142D01*
X119973333Y-119352761D01*
X120068571Y-119400380D01*
X120259047Y-119400380D01*
X120354285Y-119352761D01*
X120401904Y-119305142D01*
X120449523Y-119209904D01*
X120449523Y-118400380D01*
X121449523Y-119400380D02*
X120878095Y-119400380D01*
X121163809Y-119400380D02*
X121163809Y-118400380D01*
X121068571Y-118543238D01*
X120973333Y-118638476D01*
X120878095Y-118686095D01*
G04 #@! TO.C,C7*
D16*
X139400000Y-130714285D02*
X139371428Y-130742857D01*
X139285714Y-130771428D01*
X139228571Y-130771428D01*
X139142857Y-130742857D01*
X139085714Y-130685714D01*
X139057142Y-130628571D01*
X139028571Y-130514285D01*
X139028571Y-130428571D01*
X139057142Y-130314285D01*
X139085714Y-130257142D01*
X139142857Y-130200000D01*
X139228571Y-130171428D01*
X139285714Y-130171428D01*
X139371428Y-130200000D01*
X139400000Y-130228571D01*
X139600000Y-130171428D02*
X140000000Y-130171428D01*
X139742857Y-130771428D01*
G04 #@! TO.C,C10*
X159714285Y-122385714D02*
X159742857Y-122414285D01*
X159771428Y-122500000D01*
X159771428Y-122557142D01*
X159742857Y-122642857D01*
X159685714Y-122700000D01*
X159628571Y-122728571D01*
X159514285Y-122757142D01*
X159428571Y-122757142D01*
X159314285Y-122728571D01*
X159257142Y-122700000D01*
X159200000Y-122642857D01*
X159171428Y-122557142D01*
X159171428Y-122500000D01*
X159200000Y-122414285D01*
X159228571Y-122385714D01*
X159771428Y-121814285D02*
X159771428Y-122157142D01*
X159771428Y-121985714D02*
X159171428Y-121985714D01*
X159257142Y-122042857D01*
X159314285Y-122100000D01*
X159342857Y-122157142D01*
X159171428Y-121442857D02*
X159171428Y-121385714D01*
X159200000Y-121328571D01*
X159228571Y-121300000D01*
X159285714Y-121271428D01*
X159400000Y-121242857D01*
X159542857Y-121242857D01*
X159657142Y-121271428D01*
X159714285Y-121300000D01*
X159742857Y-121328571D01*
X159771428Y-121385714D01*
X159771428Y-121442857D01*
X159742857Y-121500000D01*
X159714285Y-121528571D01*
X159657142Y-121557142D01*
X159542857Y-121585714D01*
X159400000Y-121585714D01*
X159285714Y-121557142D01*
X159228571Y-121528571D01*
X159200000Y-121500000D01*
X159171428Y-121442857D01*
G04 #@! TO.C,C43*
X164214285Y-103885714D02*
X164242857Y-103914285D01*
X164271428Y-104000000D01*
X164271428Y-104057142D01*
X164242857Y-104142857D01*
X164185714Y-104200000D01*
X164128571Y-104228571D01*
X164014285Y-104257142D01*
X163928571Y-104257142D01*
X163814285Y-104228571D01*
X163757142Y-104200000D01*
X163700000Y-104142857D01*
X163671428Y-104057142D01*
X163671428Y-104000000D01*
X163700000Y-103914285D01*
X163728571Y-103885714D01*
X163871428Y-103371428D02*
X164271428Y-103371428D01*
X163642857Y-103514285D02*
X164071428Y-103657142D01*
X164071428Y-103285714D01*
X163671428Y-103114285D02*
X163671428Y-102742857D01*
X163900000Y-102942857D01*
X163900000Y-102857142D01*
X163928571Y-102800000D01*
X163957142Y-102771428D01*
X164014285Y-102742857D01*
X164157142Y-102742857D01*
X164214285Y-102771428D01*
X164242857Y-102800000D01*
X164271428Y-102857142D01*
X164271428Y-103028571D01*
X164242857Y-103085714D01*
X164214285Y-103114285D01*
G04 #@! TO.C,C44*
X152114285Y-94714285D02*
X152085714Y-94742857D01*
X152000000Y-94771428D01*
X151942857Y-94771428D01*
X151857142Y-94742857D01*
X151800000Y-94685714D01*
X151771428Y-94628571D01*
X151742857Y-94514285D01*
X151742857Y-94428571D01*
X151771428Y-94314285D01*
X151800000Y-94257142D01*
X151857142Y-94200000D01*
X151942857Y-94171428D01*
X152000000Y-94171428D01*
X152085714Y-94200000D01*
X152114285Y-94228571D01*
X152628571Y-94371428D02*
X152628571Y-94771428D01*
X152485714Y-94142857D02*
X152342857Y-94571428D01*
X152714285Y-94571428D01*
X153200000Y-94371428D02*
X153200000Y-94771428D01*
X153057142Y-94142857D02*
X152914285Y-94571428D01*
X153285714Y-94571428D01*
G04 #@! TD*
M02*
