G04 #@! TF.GenerationSoftware,KiCad,Pcbnew,(5.0.1)-3*
G04 #@! TF.CreationDate,2021-09-23T20:30:51+02:00*
G04 #@! TF.ProjectId,pocketDSP,706F636B65744453502E6B696361645F,rev?*
G04 #@! TF.SameCoordinates,Original*
G04 #@! TF.FileFunction,Legend,Bot*
G04 #@! TF.FilePolarity,Positive*
%FSLAX46Y46*%
G04 Gerber Fmt 4.6, Leading zero omitted, Abs format (unit mm)*
G04 Created by KiCad (PCBNEW (5.0.1)-3) date 23/09/2021 20:30:51*
%MOMM*%
%LPD*%
G01*
G04 APERTURE LIST*
%ADD10C,0.300000*%
%ADD11C,0.120000*%
%ADD12C,0.127000*%
%ADD13C,0.080000*%
%ADD14C,0.015000*%
%ADD15C,0.150000*%
G04 APERTURE END LIST*
D10*
X161250000Y-98678571D02*
X160964285Y-98678571D01*
X160821428Y-98750000D01*
X160678571Y-98892857D01*
X160607142Y-99178571D01*
X160607142Y-99678571D01*
X160678571Y-99964285D01*
X160821428Y-100107142D01*
X160964285Y-100178571D01*
X161250000Y-100178571D01*
X161392857Y-100107142D01*
X161535714Y-99964285D01*
X161607142Y-99678571D01*
X161607142Y-99178571D01*
X161535714Y-98892857D01*
X161392857Y-98750000D01*
X161250000Y-98678571D01*
X159964285Y-98678571D02*
X159964285Y-99892857D01*
X159892857Y-100035714D01*
X159821428Y-100107142D01*
X159678571Y-100178571D01*
X159392857Y-100178571D01*
X159250000Y-100107142D01*
X159178571Y-100035714D01*
X159107142Y-99892857D01*
X159107142Y-98678571D01*
X158607142Y-98678571D02*
X157750000Y-98678571D01*
X158178571Y-100178571D02*
X158178571Y-98678571D01*
X84285714Y-100178571D02*
X84285714Y-98678571D01*
X83571428Y-100178571D02*
X83571428Y-98678571D01*
X82714285Y-100178571D01*
X82714285Y-98678571D01*
X98964285Y-144678571D02*
X98964285Y-146178571D01*
X98964285Y-144750000D02*
X98821428Y-144678571D01*
X98535714Y-144678571D01*
X98392857Y-144750000D01*
X98321428Y-144821428D01*
X98250000Y-144964285D01*
X98250000Y-145392857D01*
X98321428Y-145535714D01*
X98392857Y-145607142D01*
X98535714Y-145678571D01*
X98821428Y-145678571D01*
X98964285Y-145607142D01*
X97392857Y-145678571D02*
X97535714Y-145607142D01*
X97607142Y-145535714D01*
X97678571Y-145392857D01*
X97678571Y-144964285D01*
X97607142Y-144821428D01*
X97535714Y-144750000D01*
X97392857Y-144678571D01*
X97178571Y-144678571D01*
X97035714Y-144750000D01*
X96964285Y-144821428D01*
X96892857Y-144964285D01*
X96892857Y-145392857D01*
X96964285Y-145535714D01*
X97035714Y-145607142D01*
X97178571Y-145678571D01*
X97392857Y-145678571D01*
X95607142Y-145607142D02*
X95750000Y-145678571D01*
X96035714Y-145678571D01*
X96178571Y-145607142D01*
X96250000Y-145535714D01*
X96321428Y-145392857D01*
X96321428Y-144964285D01*
X96250000Y-144821428D01*
X96178571Y-144750000D01*
X96035714Y-144678571D01*
X95750000Y-144678571D01*
X95607142Y-144750000D01*
X94964285Y-145678571D02*
X94964285Y-144178571D01*
X94821428Y-145107142D02*
X94392857Y-145678571D01*
X94392857Y-144678571D02*
X94964285Y-145250000D01*
X93178571Y-145607142D02*
X93321428Y-145678571D01*
X93607142Y-145678571D01*
X93750000Y-145607142D01*
X93821428Y-145464285D01*
X93821428Y-144892857D01*
X93750000Y-144750000D01*
X93607142Y-144678571D01*
X93321428Y-144678571D01*
X93178571Y-144750000D01*
X93107142Y-144892857D01*
X93107142Y-145035714D01*
X93821428Y-145178571D01*
X92678571Y-144678571D02*
X92107142Y-144678571D01*
X92464285Y-144178571D02*
X92464285Y-145464285D01*
X92392857Y-145607142D01*
X92250000Y-145678571D01*
X92107142Y-145678571D01*
X91607142Y-145678571D02*
X91607142Y-144178571D01*
X91250000Y-144178571D01*
X91035714Y-144250000D01*
X90892857Y-144392857D01*
X90821428Y-144535714D01*
X90750000Y-144821428D01*
X90750000Y-145035714D01*
X90821428Y-145321428D01*
X90892857Y-145464285D01*
X91035714Y-145607142D01*
X91250000Y-145678571D01*
X91607142Y-145678571D01*
X90178571Y-145607142D02*
X89964285Y-145678571D01*
X89607142Y-145678571D01*
X89464285Y-145607142D01*
X89392857Y-145535714D01*
X89321428Y-145392857D01*
X89321428Y-145250000D01*
X89392857Y-145107142D01*
X89464285Y-145035714D01*
X89607142Y-144964285D01*
X89892857Y-144892857D01*
X90035714Y-144821428D01*
X90107142Y-144750000D01*
X90178571Y-144607142D01*
X90178571Y-144464285D01*
X90107142Y-144321428D01*
X90035714Y-144250000D01*
X89892857Y-144178571D01*
X89535714Y-144178571D01*
X89321428Y-144250000D01*
X88678571Y-145678571D02*
X88678571Y-144178571D01*
X88107142Y-144178571D01*
X87964285Y-144250000D01*
X87892857Y-144321428D01*
X87821428Y-144464285D01*
X87821428Y-144678571D01*
X87892857Y-144821428D01*
X87964285Y-144892857D01*
X88107142Y-144964285D01*
X88678571Y-144964285D01*
X86178571Y-144678571D02*
X85821428Y-145678571D01*
X85464285Y-144678571D01*
X84107142Y-145678571D02*
X84964285Y-145678571D01*
X84535714Y-145678571D02*
X84535714Y-144178571D01*
X84678571Y-144392857D01*
X84821428Y-144535714D01*
X84964285Y-144607142D01*
X83464285Y-145535714D02*
X83392857Y-145607142D01*
X83464285Y-145678571D01*
X83535714Y-145607142D01*
X83464285Y-145535714D01*
X83464285Y-145678571D01*
X81964285Y-145678571D02*
X82821428Y-145678571D01*
X82392857Y-145678571D02*
X82392857Y-144178571D01*
X82535714Y-144392857D01*
X82678571Y-144535714D01*
X82821428Y-144607142D01*
D11*
G04 #@! TO.C,C12*
X121210000Y-105738748D02*
X121210000Y-106261252D01*
X119790000Y-105738748D02*
X119790000Y-106261252D01*
G04 #@! TO.C,C16*
X119238748Y-116710000D02*
X119761252Y-116710000D01*
X119238748Y-115290000D02*
X119761252Y-115290000D01*
D12*
G04 #@! TO.C,BT1*
X160480000Y-119510000D02*
X83520000Y-119510000D01*
X83520000Y-119510000D02*
X83520000Y-140490000D01*
X83520000Y-140490000D02*
X160480000Y-140490000D01*
X160480000Y-140490000D02*
X160480000Y-119510000D01*
X162630000Y-129000000D02*
X162630000Y-131000000D01*
X163630000Y-130000000D02*
X161630000Y-130000000D01*
X82370000Y-130000000D02*
X80370000Y-130000000D01*
D11*
G04 #@! TO.C,L1*
X131790000Y-106238748D02*
X131790000Y-106761252D01*
X133210000Y-106238748D02*
X133210000Y-106761252D01*
G04 #@! TO.C,C1*
X119761252Y-118710000D02*
X119238748Y-118710000D01*
X119761252Y-117290000D02*
X119238748Y-117290000D01*
G04 #@! TO.C,C2*
X119210000Y-106261252D02*
X119210000Y-105738748D01*
X117790000Y-106261252D02*
X117790000Y-105738748D01*
G04 #@! TO.C,C3*
X129790000Y-106238748D02*
X129790000Y-106761252D01*
X131210000Y-106238748D02*
X131210000Y-106761252D01*
G04 #@! TO.C,C4*
X131713748Y-115210000D02*
X132236252Y-115210000D01*
X131713748Y-113790000D02*
X132236252Y-113790000D01*
G04 #@! TO.C,C5*
X130290000Y-117238748D02*
X130290000Y-117761252D01*
X131710000Y-117238748D02*
X131710000Y-117761252D01*
G04 #@! TO.C,C6*
X133790000Y-106238748D02*
X133790000Y-106761252D01*
X135210000Y-106238748D02*
X135210000Y-106761252D01*
G04 #@! TO.C,C15*
X130761252Y-110290000D02*
X130238748Y-110290000D01*
X130761252Y-111710000D02*
X130238748Y-111710000D01*
G04 #@! TO.C,C28*
X92790000Y-108261252D02*
X92790000Y-107738748D01*
X94210000Y-108261252D02*
X94210000Y-107738748D01*
G04 #@! TO.C,C29*
X105738748Y-111290000D02*
X106261252Y-111290000D01*
X105738748Y-112710000D02*
X106261252Y-112710000D01*
G04 #@! TO.C,C30*
X106261252Y-103425046D02*
X105738748Y-103425046D01*
X106261252Y-104845046D02*
X105738748Y-104845046D01*
G04 #@! TO.C,C31*
X96210000Y-108261252D02*
X96210000Y-107738748D01*
X94790000Y-108261252D02*
X94790000Y-107738748D01*
G04 #@! TO.C,C32*
X105738748Y-109290000D02*
X106261252Y-109290000D01*
X105738748Y-110710000D02*
X106261252Y-110710000D01*
G04 #@! TO.C,C33*
X106286252Y-106845046D02*
X105763748Y-106845046D01*
X106286252Y-105425046D02*
X105763748Y-105425046D01*
G04 #@! TO.C,C34*
X105763748Y-107290000D02*
X106286252Y-107290000D01*
X105763748Y-108710000D02*
X106286252Y-108710000D01*
G04 #@! TO.C,C35*
X94761252Y-95790000D02*
X94238748Y-95790000D01*
X94761252Y-97210000D02*
X94238748Y-97210000D01*
G04 #@! TO.C,C36*
X94761252Y-101790000D02*
X94238748Y-101790000D01*
X94761252Y-103210000D02*
X94238748Y-103210000D01*
G04 #@! TO.C,C37*
X111011252Y-106290000D02*
X110488748Y-106290000D01*
X111011252Y-107710000D02*
X110488748Y-107710000D01*
G04 #@! TO.C,C38*
X111011252Y-109710000D02*
X110488748Y-109710000D01*
X111011252Y-108290000D02*
X110488748Y-108290000D01*
G04 #@! TO.C,C53*
X145344765Y-101013476D02*
X145344765Y-100490972D01*
X146764765Y-101013476D02*
X146764765Y-100490972D01*
G04 #@! TO.C,C54*
X148764765Y-101013476D02*
X148764765Y-100490972D01*
X147344765Y-101013476D02*
X147344765Y-100490972D01*
G04 #@! TO.C,R11*
X94761252Y-99210000D02*
X94238748Y-99210000D01*
X94761252Y-97790000D02*
X94238748Y-97790000D01*
G04 #@! TO.C,R12*
X94761252Y-99790000D02*
X94238748Y-99790000D01*
X94761252Y-101210000D02*
X94238748Y-101210000D01*
G04 #@! TO.C,R13*
X98238748Y-97790000D02*
X98761252Y-97790000D01*
X98238748Y-99210000D02*
X98761252Y-99210000D01*
G04 #@! TO.C,R14*
X98761252Y-95790000D02*
X98238748Y-95790000D01*
X98761252Y-97210000D02*
X98238748Y-97210000D01*
G04 #@! TO.C,R15*
X98238748Y-99790000D02*
X98761252Y-99790000D01*
X98238748Y-101210000D02*
X98761252Y-101210000D01*
G04 #@! TO.C,R16*
X98761252Y-101790000D02*
X98238748Y-101790000D01*
X98761252Y-103210000D02*
X98238748Y-103210000D01*
G04 #@! TO.C,C12*
D13*
X120885714Y-106214285D02*
X120914285Y-106242857D01*
X121000000Y-106271428D01*
X121057142Y-106271428D01*
X121142857Y-106242857D01*
X121200000Y-106185714D01*
X121228571Y-106128571D01*
X121257142Y-106014285D01*
X121257142Y-105928571D01*
X121228571Y-105814285D01*
X121200000Y-105757142D01*
X121142857Y-105700000D01*
X121057142Y-105671428D01*
X121000000Y-105671428D01*
X120914285Y-105700000D01*
X120885714Y-105728571D01*
X120314285Y-106271428D02*
X120657142Y-106271428D01*
X120485714Y-106271428D02*
X120485714Y-105671428D01*
X120542857Y-105757142D01*
X120600000Y-105814285D01*
X120657142Y-105842857D01*
X120085714Y-105728571D02*
X120057142Y-105700000D01*
X120000000Y-105671428D01*
X119857142Y-105671428D01*
X119800000Y-105700000D01*
X119771428Y-105728571D01*
X119742857Y-105785714D01*
X119742857Y-105842857D01*
X119771428Y-105928571D01*
X120114285Y-106271428D01*
X119742857Y-106271428D01*
G04 #@! TO.C,C16*
X119285714Y-116385714D02*
X119257142Y-116414285D01*
X119228571Y-116500000D01*
X119228571Y-116557142D01*
X119257142Y-116642857D01*
X119314285Y-116700000D01*
X119371428Y-116728571D01*
X119485714Y-116757142D01*
X119571428Y-116757142D01*
X119685714Y-116728571D01*
X119742857Y-116700000D01*
X119800000Y-116642857D01*
X119828571Y-116557142D01*
X119828571Y-116500000D01*
X119800000Y-116414285D01*
X119771428Y-116385714D01*
X119228571Y-115814285D02*
X119228571Y-116157142D01*
X119228571Y-115985714D02*
X119828571Y-115985714D01*
X119742857Y-116042857D01*
X119685714Y-116100000D01*
X119657142Y-116157142D01*
X119828571Y-115300000D02*
X119828571Y-115414285D01*
X119800000Y-115471428D01*
X119771428Y-115500000D01*
X119685714Y-115557142D01*
X119571428Y-115585714D01*
X119342857Y-115585714D01*
X119285714Y-115557142D01*
X119257142Y-115528571D01*
X119228571Y-115471428D01*
X119228571Y-115357142D01*
X119257142Y-115300000D01*
X119285714Y-115271428D01*
X119342857Y-115242857D01*
X119485714Y-115242857D01*
X119542857Y-115271428D01*
X119571428Y-115300000D01*
X119600000Y-115357142D01*
X119600000Y-115471428D01*
X119571428Y-115528571D01*
X119542857Y-115557142D01*
X119485714Y-115585714D01*
G04 #@! TO.C,BT1*
D14*
X159785714Y-120428571D02*
X159642857Y-120476190D01*
X159595238Y-120523809D01*
X159547619Y-120619047D01*
X159547619Y-120761904D01*
X159595238Y-120857142D01*
X159642857Y-120904761D01*
X159738095Y-120952380D01*
X160119047Y-120952380D01*
X160119047Y-119952380D01*
X159785714Y-119952380D01*
X159690476Y-120000000D01*
X159642857Y-120047619D01*
X159595238Y-120142857D01*
X159595238Y-120238095D01*
X159642857Y-120333333D01*
X159690476Y-120380952D01*
X159785714Y-120428571D01*
X160119047Y-120428571D01*
X159261904Y-119952380D02*
X158690476Y-119952380D01*
X158976190Y-120952380D02*
X158976190Y-119952380D01*
X157833333Y-120952380D02*
X158404761Y-120952380D01*
X158119047Y-120952380D02*
X158119047Y-119952380D01*
X158214285Y-120095238D01*
X158309523Y-120190476D01*
X158404761Y-120238095D01*
G04 #@! TO.C,L1*
D15*
X131302380Y-106333333D02*
X131302380Y-105857142D01*
X130302380Y-105857142D01*
X131302380Y-107190476D02*
X131302380Y-106619047D01*
X131302380Y-106904761D02*
X130302380Y-106904761D01*
X130445238Y-106809523D01*
X130540476Y-106714285D01*
X130588095Y-106619047D01*
G04 #@! TO.C,C1*
D13*
X119714285Y-117900000D02*
X119742857Y-117871428D01*
X119771428Y-117785714D01*
X119771428Y-117728571D01*
X119742857Y-117642857D01*
X119685714Y-117585714D01*
X119628571Y-117557142D01*
X119514285Y-117528571D01*
X119428571Y-117528571D01*
X119314285Y-117557142D01*
X119257142Y-117585714D01*
X119200000Y-117642857D01*
X119171428Y-117728571D01*
X119171428Y-117785714D01*
X119200000Y-117871428D01*
X119228571Y-117900000D01*
X119771428Y-118471428D02*
X119771428Y-118128571D01*
X119771428Y-118300000D02*
X119171428Y-118300000D01*
X119257142Y-118242857D01*
X119314285Y-118185714D01*
X119342857Y-118128571D01*
G04 #@! TO.C,C2*
X118600000Y-106214285D02*
X118628571Y-106242857D01*
X118714285Y-106271428D01*
X118771428Y-106271428D01*
X118857142Y-106242857D01*
X118914285Y-106185714D01*
X118942857Y-106128571D01*
X118971428Y-106014285D01*
X118971428Y-105928571D01*
X118942857Y-105814285D01*
X118914285Y-105757142D01*
X118857142Y-105700000D01*
X118771428Y-105671428D01*
X118714285Y-105671428D01*
X118628571Y-105700000D01*
X118600000Y-105728571D01*
X118371428Y-105728571D02*
X118342857Y-105700000D01*
X118285714Y-105671428D01*
X118142857Y-105671428D01*
X118085714Y-105700000D01*
X118057142Y-105728571D01*
X118028571Y-105785714D01*
X118028571Y-105842857D01*
X118057142Y-105928571D01*
X118400000Y-106271428D01*
X118028571Y-106271428D01*
G04 #@! TO.C,C3*
X130600000Y-106714285D02*
X130628571Y-106742857D01*
X130714285Y-106771428D01*
X130771428Y-106771428D01*
X130857142Y-106742857D01*
X130914285Y-106685714D01*
X130942857Y-106628571D01*
X130971428Y-106514285D01*
X130971428Y-106428571D01*
X130942857Y-106314285D01*
X130914285Y-106257142D01*
X130857142Y-106200000D01*
X130771428Y-106171428D01*
X130714285Y-106171428D01*
X130628571Y-106200000D01*
X130600000Y-106228571D01*
X130400000Y-106171428D02*
X130028571Y-106171428D01*
X130228571Y-106400000D01*
X130142857Y-106400000D01*
X130085714Y-106428571D01*
X130057142Y-106457142D01*
X130028571Y-106514285D01*
X130028571Y-106657142D01*
X130057142Y-106714285D01*
X130085714Y-106742857D01*
X130142857Y-106771428D01*
X130314285Y-106771428D01*
X130371428Y-106742857D01*
X130400000Y-106714285D01*
G04 #@! TO.C,C4*
X131760714Y-114600000D02*
X131732142Y-114628571D01*
X131703571Y-114714285D01*
X131703571Y-114771428D01*
X131732142Y-114857142D01*
X131789285Y-114914285D01*
X131846428Y-114942857D01*
X131960714Y-114971428D01*
X132046428Y-114971428D01*
X132160714Y-114942857D01*
X132217857Y-114914285D01*
X132275000Y-114857142D01*
X132303571Y-114771428D01*
X132303571Y-114714285D01*
X132275000Y-114628571D01*
X132246428Y-114600000D01*
X132103571Y-114085714D02*
X131703571Y-114085714D01*
X132332142Y-114228571D02*
X131903571Y-114371428D01*
X131903571Y-114000000D01*
G04 #@! TO.C,C5*
X131100000Y-117714285D02*
X131128571Y-117742857D01*
X131214285Y-117771428D01*
X131271428Y-117771428D01*
X131357142Y-117742857D01*
X131414285Y-117685714D01*
X131442857Y-117628571D01*
X131471428Y-117514285D01*
X131471428Y-117428571D01*
X131442857Y-117314285D01*
X131414285Y-117257142D01*
X131357142Y-117200000D01*
X131271428Y-117171428D01*
X131214285Y-117171428D01*
X131128571Y-117200000D01*
X131100000Y-117228571D01*
X130557142Y-117171428D02*
X130842857Y-117171428D01*
X130871428Y-117457142D01*
X130842857Y-117428571D01*
X130785714Y-117400000D01*
X130642857Y-117400000D01*
X130585714Y-117428571D01*
X130557142Y-117457142D01*
X130528571Y-117514285D01*
X130528571Y-117657142D01*
X130557142Y-117714285D01*
X130585714Y-117742857D01*
X130642857Y-117771428D01*
X130785714Y-117771428D01*
X130842857Y-117742857D01*
X130871428Y-117714285D01*
G04 #@! TO.C,C6*
X134600000Y-106714285D02*
X134628571Y-106742857D01*
X134714285Y-106771428D01*
X134771428Y-106771428D01*
X134857142Y-106742857D01*
X134914285Y-106685714D01*
X134942857Y-106628571D01*
X134971428Y-106514285D01*
X134971428Y-106428571D01*
X134942857Y-106314285D01*
X134914285Y-106257142D01*
X134857142Y-106200000D01*
X134771428Y-106171428D01*
X134714285Y-106171428D01*
X134628571Y-106200000D01*
X134600000Y-106228571D01*
X134085714Y-106171428D02*
X134200000Y-106171428D01*
X134257142Y-106200000D01*
X134285714Y-106228571D01*
X134342857Y-106314285D01*
X134371428Y-106428571D01*
X134371428Y-106657142D01*
X134342857Y-106714285D01*
X134314285Y-106742857D01*
X134257142Y-106771428D01*
X134142857Y-106771428D01*
X134085714Y-106742857D01*
X134057142Y-106714285D01*
X134028571Y-106657142D01*
X134028571Y-106514285D01*
X134057142Y-106457142D01*
X134085714Y-106428571D01*
X134142857Y-106400000D01*
X134257142Y-106400000D01*
X134314285Y-106428571D01*
X134342857Y-106457142D01*
X134371428Y-106514285D01*
G04 #@! TO.C,C15*
X130714285Y-110614285D02*
X130742857Y-110585714D01*
X130771428Y-110500000D01*
X130771428Y-110442857D01*
X130742857Y-110357142D01*
X130685714Y-110300000D01*
X130628571Y-110271428D01*
X130514285Y-110242857D01*
X130428571Y-110242857D01*
X130314285Y-110271428D01*
X130257142Y-110300000D01*
X130200000Y-110357142D01*
X130171428Y-110442857D01*
X130171428Y-110500000D01*
X130200000Y-110585714D01*
X130228571Y-110614285D01*
X130771428Y-111185714D02*
X130771428Y-110842857D01*
X130771428Y-111014285D02*
X130171428Y-111014285D01*
X130257142Y-110957142D01*
X130314285Y-110900000D01*
X130342857Y-110842857D01*
X130171428Y-111728571D02*
X130171428Y-111442857D01*
X130457142Y-111414285D01*
X130428571Y-111442857D01*
X130400000Y-111500000D01*
X130400000Y-111642857D01*
X130428571Y-111700000D01*
X130457142Y-111728571D01*
X130514285Y-111757142D01*
X130657142Y-111757142D01*
X130714285Y-111728571D01*
X130742857Y-111700000D01*
X130771428Y-111642857D01*
X130771428Y-111500000D01*
X130742857Y-111442857D01*
X130714285Y-111414285D01*
G04 #@! TO.C,C28*
X93885714Y-108214285D02*
X93914285Y-108242857D01*
X94000000Y-108271428D01*
X94057142Y-108271428D01*
X94142857Y-108242857D01*
X94200000Y-108185714D01*
X94228571Y-108128571D01*
X94257142Y-108014285D01*
X94257142Y-107928571D01*
X94228571Y-107814285D01*
X94200000Y-107757142D01*
X94142857Y-107700000D01*
X94057142Y-107671428D01*
X94000000Y-107671428D01*
X93914285Y-107700000D01*
X93885714Y-107728571D01*
X93657142Y-107728571D02*
X93628571Y-107700000D01*
X93571428Y-107671428D01*
X93428571Y-107671428D01*
X93371428Y-107700000D01*
X93342857Y-107728571D01*
X93314285Y-107785714D01*
X93314285Y-107842857D01*
X93342857Y-107928571D01*
X93685714Y-108271428D01*
X93314285Y-108271428D01*
X92971428Y-107928571D02*
X93028571Y-107900000D01*
X93057142Y-107871428D01*
X93085714Y-107814285D01*
X93085714Y-107785714D01*
X93057142Y-107728571D01*
X93028571Y-107700000D01*
X92971428Y-107671428D01*
X92857142Y-107671428D01*
X92800000Y-107700000D01*
X92771428Y-107728571D01*
X92742857Y-107785714D01*
X92742857Y-107814285D01*
X92771428Y-107871428D01*
X92800000Y-107900000D01*
X92857142Y-107928571D01*
X92971428Y-107928571D01*
X93028571Y-107957142D01*
X93057142Y-107985714D01*
X93085714Y-108042857D01*
X93085714Y-108157142D01*
X93057142Y-108214285D01*
X93028571Y-108242857D01*
X92971428Y-108271428D01*
X92857142Y-108271428D01*
X92800000Y-108242857D01*
X92771428Y-108214285D01*
X92742857Y-108157142D01*
X92742857Y-108042857D01*
X92771428Y-107985714D01*
X92800000Y-107957142D01*
X92857142Y-107928571D01*
G04 #@! TO.C,C29*
X105785714Y-112385714D02*
X105757142Y-112414285D01*
X105728571Y-112500000D01*
X105728571Y-112557142D01*
X105757142Y-112642857D01*
X105814285Y-112700000D01*
X105871428Y-112728571D01*
X105985714Y-112757142D01*
X106071428Y-112757142D01*
X106185714Y-112728571D01*
X106242857Y-112700000D01*
X106300000Y-112642857D01*
X106328571Y-112557142D01*
X106328571Y-112500000D01*
X106300000Y-112414285D01*
X106271428Y-112385714D01*
X106271428Y-112157142D02*
X106300000Y-112128571D01*
X106328571Y-112071428D01*
X106328571Y-111928571D01*
X106300000Y-111871428D01*
X106271428Y-111842857D01*
X106214285Y-111814285D01*
X106157142Y-111814285D01*
X106071428Y-111842857D01*
X105728571Y-112185714D01*
X105728571Y-111814285D01*
X105728571Y-111528571D02*
X105728571Y-111414285D01*
X105757142Y-111357142D01*
X105785714Y-111328571D01*
X105871428Y-111271428D01*
X105985714Y-111242857D01*
X106214285Y-111242857D01*
X106271428Y-111271428D01*
X106300000Y-111300000D01*
X106328571Y-111357142D01*
X106328571Y-111471428D01*
X106300000Y-111528571D01*
X106271428Y-111557142D01*
X106214285Y-111585714D01*
X106071428Y-111585714D01*
X106014285Y-111557142D01*
X105985714Y-111528571D01*
X105957142Y-111471428D01*
X105957142Y-111357142D01*
X105985714Y-111300000D01*
X106014285Y-111271428D01*
X106071428Y-111242857D01*
G04 #@! TO.C,C30*
X106214285Y-103749331D02*
X106242857Y-103720760D01*
X106271428Y-103635046D01*
X106271428Y-103577903D01*
X106242857Y-103492188D01*
X106185714Y-103435046D01*
X106128571Y-103406474D01*
X106014285Y-103377903D01*
X105928571Y-103377903D01*
X105814285Y-103406474D01*
X105757142Y-103435046D01*
X105700000Y-103492188D01*
X105671428Y-103577903D01*
X105671428Y-103635046D01*
X105700000Y-103720760D01*
X105728571Y-103749331D01*
X105671428Y-103949331D02*
X105671428Y-104320760D01*
X105900000Y-104120760D01*
X105900000Y-104206474D01*
X105928571Y-104263617D01*
X105957142Y-104292188D01*
X106014285Y-104320760D01*
X106157142Y-104320760D01*
X106214285Y-104292188D01*
X106242857Y-104263617D01*
X106271428Y-104206474D01*
X106271428Y-104035046D01*
X106242857Y-103977903D01*
X106214285Y-103949331D01*
X105671428Y-104692188D02*
X105671428Y-104749331D01*
X105700000Y-104806474D01*
X105728571Y-104835046D01*
X105785714Y-104863617D01*
X105900000Y-104892188D01*
X106042857Y-104892188D01*
X106157142Y-104863617D01*
X106214285Y-104835046D01*
X106242857Y-104806474D01*
X106271428Y-104749331D01*
X106271428Y-104692188D01*
X106242857Y-104635046D01*
X106214285Y-104606474D01*
X106157142Y-104577903D01*
X106042857Y-104549331D01*
X105900000Y-104549331D01*
X105785714Y-104577903D01*
X105728571Y-104606474D01*
X105700000Y-104635046D01*
X105671428Y-104692188D01*
G04 #@! TO.C,C31*
X95885714Y-108214285D02*
X95914285Y-108242857D01*
X96000000Y-108271428D01*
X96057142Y-108271428D01*
X96142857Y-108242857D01*
X96200000Y-108185714D01*
X96228571Y-108128571D01*
X96257142Y-108014285D01*
X96257142Y-107928571D01*
X96228571Y-107814285D01*
X96200000Y-107757142D01*
X96142857Y-107700000D01*
X96057142Y-107671428D01*
X96000000Y-107671428D01*
X95914285Y-107700000D01*
X95885714Y-107728571D01*
X95685714Y-107671428D02*
X95314285Y-107671428D01*
X95514285Y-107900000D01*
X95428571Y-107900000D01*
X95371428Y-107928571D01*
X95342857Y-107957142D01*
X95314285Y-108014285D01*
X95314285Y-108157142D01*
X95342857Y-108214285D01*
X95371428Y-108242857D01*
X95428571Y-108271428D01*
X95600000Y-108271428D01*
X95657142Y-108242857D01*
X95685714Y-108214285D01*
X94742857Y-108271428D02*
X95085714Y-108271428D01*
X94914285Y-108271428D02*
X94914285Y-107671428D01*
X94971428Y-107757142D01*
X95028571Y-107814285D01*
X95085714Y-107842857D01*
G04 #@! TO.C,C32*
X105785714Y-110385714D02*
X105757142Y-110414285D01*
X105728571Y-110500000D01*
X105728571Y-110557142D01*
X105757142Y-110642857D01*
X105814285Y-110700000D01*
X105871428Y-110728571D01*
X105985714Y-110757142D01*
X106071428Y-110757142D01*
X106185714Y-110728571D01*
X106242857Y-110700000D01*
X106300000Y-110642857D01*
X106328571Y-110557142D01*
X106328571Y-110500000D01*
X106300000Y-110414285D01*
X106271428Y-110385714D01*
X106328571Y-110185714D02*
X106328571Y-109814285D01*
X106100000Y-110014285D01*
X106100000Y-109928571D01*
X106071428Y-109871428D01*
X106042857Y-109842857D01*
X105985714Y-109814285D01*
X105842857Y-109814285D01*
X105785714Y-109842857D01*
X105757142Y-109871428D01*
X105728571Y-109928571D01*
X105728571Y-110100000D01*
X105757142Y-110157142D01*
X105785714Y-110185714D01*
X106271428Y-109585714D02*
X106300000Y-109557142D01*
X106328571Y-109500000D01*
X106328571Y-109357142D01*
X106300000Y-109300000D01*
X106271428Y-109271428D01*
X106214285Y-109242857D01*
X106157142Y-109242857D01*
X106071428Y-109271428D01*
X105728571Y-109614285D01*
X105728571Y-109242857D01*
G04 #@! TO.C,C33*
X106239285Y-105749331D02*
X106267857Y-105720760D01*
X106296428Y-105635046D01*
X106296428Y-105577903D01*
X106267857Y-105492188D01*
X106210714Y-105435046D01*
X106153571Y-105406474D01*
X106039285Y-105377903D01*
X105953571Y-105377903D01*
X105839285Y-105406474D01*
X105782142Y-105435046D01*
X105725000Y-105492188D01*
X105696428Y-105577903D01*
X105696428Y-105635046D01*
X105725000Y-105720760D01*
X105753571Y-105749331D01*
X105696428Y-105949331D02*
X105696428Y-106320760D01*
X105925000Y-106120760D01*
X105925000Y-106206474D01*
X105953571Y-106263617D01*
X105982142Y-106292188D01*
X106039285Y-106320760D01*
X106182142Y-106320760D01*
X106239285Y-106292188D01*
X106267857Y-106263617D01*
X106296428Y-106206474D01*
X106296428Y-106035046D01*
X106267857Y-105977903D01*
X106239285Y-105949331D01*
X105696428Y-106520760D02*
X105696428Y-106892188D01*
X105925000Y-106692188D01*
X105925000Y-106777903D01*
X105953571Y-106835046D01*
X105982142Y-106863617D01*
X106039285Y-106892188D01*
X106182142Y-106892188D01*
X106239285Y-106863617D01*
X106267857Y-106835046D01*
X106296428Y-106777903D01*
X106296428Y-106606474D01*
X106267857Y-106549331D01*
X106239285Y-106520760D01*
G04 #@! TO.C,C34*
X105810714Y-108385714D02*
X105782142Y-108414285D01*
X105753571Y-108500000D01*
X105753571Y-108557142D01*
X105782142Y-108642857D01*
X105839285Y-108700000D01*
X105896428Y-108728571D01*
X106010714Y-108757142D01*
X106096428Y-108757142D01*
X106210714Y-108728571D01*
X106267857Y-108700000D01*
X106325000Y-108642857D01*
X106353571Y-108557142D01*
X106353571Y-108500000D01*
X106325000Y-108414285D01*
X106296428Y-108385714D01*
X106353571Y-108185714D02*
X106353571Y-107814285D01*
X106125000Y-108014285D01*
X106125000Y-107928571D01*
X106096428Y-107871428D01*
X106067857Y-107842857D01*
X106010714Y-107814285D01*
X105867857Y-107814285D01*
X105810714Y-107842857D01*
X105782142Y-107871428D01*
X105753571Y-107928571D01*
X105753571Y-108100000D01*
X105782142Y-108157142D01*
X105810714Y-108185714D01*
X106153571Y-107300000D02*
X105753571Y-107300000D01*
X106382142Y-107442857D02*
X105953571Y-107585714D01*
X105953571Y-107214285D01*
G04 #@! TO.C,C35*
X102385714Y-96714285D02*
X102414285Y-96742857D01*
X102500000Y-96771428D01*
X102557142Y-96771428D01*
X102642857Y-96742857D01*
X102700000Y-96685714D01*
X102728571Y-96628571D01*
X102757142Y-96514285D01*
X102757142Y-96428571D01*
X102728571Y-96314285D01*
X102700000Y-96257142D01*
X102642857Y-96200000D01*
X102557142Y-96171428D01*
X102500000Y-96171428D01*
X102414285Y-96200000D01*
X102385714Y-96228571D01*
X102185714Y-96171428D02*
X101814285Y-96171428D01*
X102014285Y-96400000D01*
X101928571Y-96400000D01*
X101871428Y-96428571D01*
X101842857Y-96457142D01*
X101814285Y-96514285D01*
X101814285Y-96657142D01*
X101842857Y-96714285D01*
X101871428Y-96742857D01*
X101928571Y-96771428D01*
X102100000Y-96771428D01*
X102157142Y-96742857D01*
X102185714Y-96714285D01*
X101271428Y-96171428D02*
X101557142Y-96171428D01*
X101585714Y-96457142D01*
X101557142Y-96428571D01*
X101500000Y-96400000D01*
X101357142Y-96400000D01*
X101300000Y-96428571D01*
X101271428Y-96457142D01*
X101242857Y-96514285D01*
X101242857Y-96657142D01*
X101271428Y-96714285D01*
X101300000Y-96742857D01*
X101357142Y-96771428D01*
X101500000Y-96771428D01*
X101557142Y-96742857D01*
X101585714Y-96714285D01*
G04 #@! TO.C,C36*
X102385714Y-102714285D02*
X102414285Y-102742857D01*
X102500000Y-102771428D01*
X102557142Y-102771428D01*
X102642857Y-102742857D01*
X102700000Y-102685714D01*
X102728571Y-102628571D01*
X102757142Y-102514285D01*
X102757142Y-102428571D01*
X102728571Y-102314285D01*
X102700000Y-102257142D01*
X102642857Y-102200000D01*
X102557142Y-102171428D01*
X102500000Y-102171428D01*
X102414285Y-102200000D01*
X102385714Y-102228571D01*
X102185714Y-102171428D02*
X101814285Y-102171428D01*
X102014285Y-102400000D01*
X101928571Y-102400000D01*
X101871428Y-102428571D01*
X101842857Y-102457142D01*
X101814285Y-102514285D01*
X101814285Y-102657142D01*
X101842857Y-102714285D01*
X101871428Y-102742857D01*
X101928571Y-102771428D01*
X102100000Y-102771428D01*
X102157142Y-102742857D01*
X102185714Y-102714285D01*
X101300000Y-102171428D02*
X101414285Y-102171428D01*
X101471428Y-102200000D01*
X101500000Y-102228571D01*
X101557142Y-102314285D01*
X101585714Y-102428571D01*
X101585714Y-102657142D01*
X101557142Y-102714285D01*
X101528571Y-102742857D01*
X101471428Y-102771428D01*
X101357142Y-102771428D01*
X101300000Y-102742857D01*
X101271428Y-102714285D01*
X101242857Y-102657142D01*
X101242857Y-102514285D01*
X101271428Y-102457142D01*
X101300000Y-102428571D01*
X101357142Y-102400000D01*
X101471428Y-102400000D01*
X101528571Y-102428571D01*
X101557142Y-102457142D01*
X101585714Y-102514285D01*
G04 #@! TO.C,C37*
X110964285Y-106614285D02*
X110992857Y-106585714D01*
X111021428Y-106500000D01*
X111021428Y-106442857D01*
X110992857Y-106357142D01*
X110935714Y-106300000D01*
X110878571Y-106271428D01*
X110764285Y-106242857D01*
X110678571Y-106242857D01*
X110564285Y-106271428D01*
X110507142Y-106300000D01*
X110450000Y-106357142D01*
X110421428Y-106442857D01*
X110421428Y-106500000D01*
X110450000Y-106585714D01*
X110478571Y-106614285D01*
X110421428Y-106814285D02*
X110421428Y-107185714D01*
X110650000Y-106985714D01*
X110650000Y-107071428D01*
X110678571Y-107128571D01*
X110707142Y-107157142D01*
X110764285Y-107185714D01*
X110907142Y-107185714D01*
X110964285Y-107157142D01*
X110992857Y-107128571D01*
X111021428Y-107071428D01*
X111021428Y-106900000D01*
X110992857Y-106842857D01*
X110964285Y-106814285D01*
X110421428Y-107385714D02*
X110421428Y-107785714D01*
X111021428Y-107528571D01*
G04 #@! TO.C,C38*
X110964285Y-108614285D02*
X110992857Y-108585714D01*
X111021428Y-108500000D01*
X111021428Y-108442857D01*
X110992857Y-108357142D01*
X110935714Y-108300000D01*
X110878571Y-108271428D01*
X110764285Y-108242857D01*
X110678571Y-108242857D01*
X110564285Y-108271428D01*
X110507142Y-108300000D01*
X110450000Y-108357142D01*
X110421428Y-108442857D01*
X110421428Y-108500000D01*
X110450000Y-108585714D01*
X110478571Y-108614285D01*
X110421428Y-108814285D02*
X110421428Y-109185714D01*
X110650000Y-108985714D01*
X110650000Y-109071428D01*
X110678571Y-109128571D01*
X110707142Y-109157142D01*
X110764285Y-109185714D01*
X110907142Y-109185714D01*
X110964285Y-109157142D01*
X110992857Y-109128571D01*
X111021428Y-109071428D01*
X111021428Y-108900000D01*
X110992857Y-108842857D01*
X110964285Y-108814285D01*
X110678571Y-109528571D02*
X110650000Y-109471428D01*
X110621428Y-109442857D01*
X110564285Y-109414285D01*
X110535714Y-109414285D01*
X110478571Y-109442857D01*
X110450000Y-109471428D01*
X110421428Y-109528571D01*
X110421428Y-109642857D01*
X110450000Y-109700000D01*
X110478571Y-109728571D01*
X110535714Y-109757142D01*
X110564285Y-109757142D01*
X110621428Y-109728571D01*
X110650000Y-109700000D01*
X110678571Y-109642857D01*
X110678571Y-109528571D01*
X110707142Y-109471428D01*
X110735714Y-109442857D01*
X110792857Y-109414285D01*
X110907142Y-109414285D01*
X110964285Y-109442857D01*
X110992857Y-109471428D01*
X111021428Y-109528571D01*
X111021428Y-109642857D01*
X110992857Y-109700000D01*
X110964285Y-109728571D01*
X110907142Y-109757142D01*
X110792857Y-109757142D01*
X110735714Y-109728571D01*
X110707142Y-109700000D01*
X110678571Y-109642857D01*
G04 #@! TO.C,C53*
X146440479Y-100966509D02*
X146469050Y-100995081D01*
X146554765Y-101023652D01*
X146611907Y-101023652D01*
X146697622Y-100995081D01*
X146754765Y-100937938D01*
X146783336Y-100880795D01*
X146811907Y-100766509D01*
X146811907Y-100680795D01*
X146783336Y-100566509D01*
X146754765Y-100509366D01*
X146697622Y-100452224D01*
X146611907Y-100423652D01*
X146554765Y-100423652D01*
X146469050Y-100452224D01*
X146440479Y-100480795D01*
X145897622Y-100423652D02*
X146183336Y-100423652D01*
X146211907Y-100709366D01*
X146183336Y-100680795D01*
X146126193Y-100652224D01*
X145983336Y-100652224D01*
X145926193Y-100680795D01*
X145897622Y-100709366D01*
X145869050Y-100766509D01*
X145869050Y-100909366D01*
X145897622Y-100966509D01*
X145926193Y-100995081D01*
X145983336Y-101023652D01*
X146126193Y-101023652D01*
X146183336Y-100995081D01*
X146211907Y-100966509D01*
X145669050Y-100423652D02*
X145297622Y-100423652D01*
X145497622Y-100652224D01*
X145411907Y-100652224D01*
X145354765Y-100680795D01*
X145326193Y-100709366D01*
X145297622Y-100766509D01*
X145297622Y-100909366D01*
X145326193Y-100966509D01*
X145354765Y-100995081D01*
X145411907Y-101023652D01*
X145583336Y-101023652D01*
X145640479Y-100995081D01*
X145669050Y-100966509D01*
G04 #@! TO.C,C54*
X148440479Y-100966509D02*
X148469050Y-100995081D01*
X148554765Y-101023652D01*
X148611907Y-101023652D01*
X148697622Y-100995081D01*
X148754765Y-100937938D01*
X148783336Y-100880795D01*
X148811907Y-100766509D01*
X148811907Y-100680795D01*
X148783336Y-100566509D01*
X148754765Y-100509366D01*
X148697622Y-100452224D01*
X148611907Y-100423652D01*
X148554765Y-100423652D01*
X148469050Y-100452224D01*
X148440479Y-100480795D01*
X147897622Y-100423652D02*
X148183336Y-100423652D01*
X148211907Y-100709366D01*
X148183336Y-100680795D01*
X148126193Y-100652224D01*
X147983336Y-100652224D01*
X147926193Y-100680795D01*
X147897622Y-100709366D01*
X147869050Y-100766509D01*
X147869050Y-100909366D01*
X147897622Y-100966509D01*
X147926193Y-100995081D01*
X147983336Y-101023652D01*
X148126193Y-101023652D01*
X148183336Y-100995081D01*
X148211907Y-100966509D01*
X147354765Y-100623652D02*
X147354765Y-101023652D01*
X147497622Y-100395081D02*
X147640479Y-100823652D01*
X147269050Y-100823652D01*
G04 #@! TO.C,R11*
D15*
X102642857Y-98952380D02*
X102976190Y-98476190D01*
X103214285Y-98952380D02*
X103214285Y-97952380D01*
X102833333Y-97952380D01*
X102738095Y-98000000D01*
X102690476Y-98047619D01*
X102642857Y-98142857D01*
X102642857Y-98285714D01*
X102690476Y-98380952D01*
X102738095Y-98428571D01*
X102833333Y-98476190D01*
X103214285Y-98476190D01*
X101690476Y-98952380D02*
X102261904Y-98952380D01*
X101976190Y-98952380D02*
X101976190Y-97952380D01*
X102071428Y-98095238D01*
X102166666Y-98190476D01*
X102261904Y-98238095D01*
X100738095Y-98952380D02*
X101309523Y-98952380D01*
X101023809Y-98952380D02*
X101023809Y-97952380D01*
X101119047Y-98095238D01*
X101214285Y-98190476D01*
X101309523Y-98238095D01*
G04 #@! TO.C,R12*
X102642857Y-100952380D02*
X102976190Y-100476190D01*
X103214285Y-100952380D02*
X103214285Y-99952380D01*
X102833333Y-99952380D01*
X102738095Y-100000000D01*
X102690476Y-100047619D01*
X102642857Y-100142857D01*
X102642857Y-100285714D01*
X102690476Y-100380952D01*
X102738095Y-100428571D01*
X102833333Y-100476190D01*
X103214285Y-100476190D01*
X101690476Y-100952380D02*
X102261904Y-100952380D01*
X101976190Y-100952380D02*
X101976190Y-99952380D01*
X102071428Y-100095238D01*
X102166666Y-100190476D01*
X102261904Y-100238095D01*
X101309523Y-100047619D02*
X101261904Y-100000000D01*
X101166666Y-99952380D01*
X100928571Y-99952380D01*
X100833333Y-100000000D01*
X100785714Y-100047619D01*
X100738095Y-100142857D01*
X100738095Y-100238095D01*
X100785714Y-100380952D01*
X101357142Y-100952380D01*
X100738095Y-100952380D01*
G04 #@! TO.C,R13*
X106142857Y-98952380D02*
X106476190Y-98476190D01*
X106714285Y-98952380D02*
X106714285Y-97952380D01*
X106333333Y-97952380D01*
X106238095Y-98000000D01*
X106190476Y-98047619D01*
X106142857Y-98142857D01*
X106142857Y-98285714D01*
X106190476Y-98380952D01*
X106238095Y-98428571D01*
X106333333Y-98476190D01*
X106714285Y-98476190D01*
X105190476Y-98952380D02*
X105761904Y-98952380D01*
X105476190Y-98952380D02*
X105476190Y-97952380D01*
X105571428Y-98095238D01*
X105666666Y-98190476D01*
X105761904Y-98238095D01*
X104857142Y-97952380D02*
X104238095Y-97952380D01*
X104571428Y-98333333D01*
X104428571Y-98333333D01*
X104333333Y-98380952D01*
X104285714Y-98428571D01*
X104238095Y-98523809D01*
X104238095Y-98761904D01*
X104285714Y-98857142D01*
X104333333Y-98904761D01*
X104428571Y-98952380D01*
X104714285Y-98952380D01*
X104809523Y-98904761D01*
X104857142Y-98857142D01*
G04 #@! TO.C,R14*
X106142857Y-96952380D02*
X106476190Y-96476190D01*
X106714285Y-96952380D02*
X106714285Y-95952380D01*
X106333333Y-95952380D01*
X106238095Y-96000000D01*
X106190476Y-96047619D01*
X106142857Y-96142857D01*
X106142857Y-96285714D01*
X106190476Y-96380952D01*
X106238095Y-96428571D01*
X106333333Y-96476190D01*
X106714285Y-96476190D01*
X105190476Y-96952380D02*
X105761904Y-96952380D01*
X105476190Y-96952380D02*
X105476190Y-95952380D01*
X105571428Y-96095238D01*
X105666666Y-96190476D01*
X105761904Y-96238095D01*
X104333333Y-96285714D02*
X104333333Y-96952380D01*
X104571428Y-95904761D02*
X104809523Y-96619047D01*
X104190476Y-96619047D01*
G04 #@! TO.C,R15*
X106142857Y-100952380D02*
X106476190Y-100476190D01*
X106714285Y-100952380D02*
X106714285Y-99952380D01*
X106333333Y-99952380D01*
X106238095Y-100000000D01*
X106190476Y-100047619D01*
X106142857Y-100142857D01*
X106142857Y-100285714D01*
X106190476Y-100380952D01*
X106238095Y-100428571D01*
X106333333Y-100476190D01*
X106714285Y-100476190D01*
X105190476Y-100952380D02*
X105761904Y-100952380D01*
X105476190Y-100952380D02*
X105476190Y-99952380D01*
X105571428Y-100095238D01*
X105666666Y-100190476D01*
X105761904Y-100238095D01*
X104285714Y-99952380D02*
X104761904Y-99952380D01*
X104809523Y-100428571D01*
X104761904Y-100380952D01*
X104666666Y-100333333D01*
X104428571Y-100333333D01*
X104333333Y-100380952D01*
X104285714Y-100428571D01*
X104238095Y-100523809D01*
X104238095Y-100761904D01*
X104285714Y-100857142D01*
X104333333Y-100904761D01*
X104428571Y-100952380D01*
X104666666Y-100952380D01*
X104761904Y-100904761D01*
X104809523Y-100857142D01*
G04 #@! TO.C,R16*
X106142857Y-102952380D02*
X106476190Y-102476190D01*
X106714285Y-102952380D02*
X106714285Y-101952380D01*
X106333333Y-101952380D01*
X106238095Y-102000000D01*
X106190476Y-102047619D01*
X106142857Y-102142857D01*
X106142857Y-102285714D01*
X106190476Y-102380952D01*
X106238095Y-102428571D01*
X106333333Y-102476190D01*
X106714285Y-102476190D01*
X105190476Y-102952380D02*
X105761904Y-102952380D01*
X105476190Y-102952380D02*
X105476190Y-101952380D01*
X105571428Y-102095238D01*
X105666666Y-102190476D01*
X105761904Y-102238095D01*
X104333333Y-101952380D02*
X104523809Y-101952380D01*
X104619047Y-102000000D01*
X104666666Y-102047619D01*
X104761904Y-102190476D01*
X104809523Y-102380952D01*
X104809523Y-102761904D01*
X104761904Y-102857142D01*
X104714285Y-102904761D01*
X104619047Y-102952380D01*
X104428571Y-102952380D01*
X104333333Y-102904761D01*
X104285714Y-102857142D01*
X104238095Y-102761904D01*
X104238095Y-102523809D01*
X104285714Y-102428571D01*
X104333333Y-102380952D01*
X104428571Y-102333333D01*
X104619047Y-102333333D01*
X104714285Y-102380952D01*
X104761904Y-102428571D01*
X104809523Y-102523809D01*
G04 #@! TD*
M02*
